<?xml version="1.0" encoding="UTF-8"?>
<!DOCTYPE svg PUBLIC "-//W3C//DTD SVG 1.1//EN" "http://www.w3.org/Graphics/SVG/1.1/DTD/svg11.dtd">
<!-- Creator: CorelDRAW X8 -->
<svg xmlns="http://www.w3.org/2000/svg" xml:space="preserve" width="732px" height="732px" version="1.1" style="shape-rendering:geometricPrecision; text-rendering:geometricPrecision; image-rendering:optimizeQuality; fill-rule:evenodd; clip-rule:evenodd"
viewBox="0 0 732 732"
 xmlns:xlink="http://www.w3.org/1999/xlink">
 <defs>
  <style type="text/css">
   <![CDATA[
    .fil4 {fill:black}
    .fil1 {fill:#61676A}
    .fil5 {fill:#84B9D7}
    .fil6 {fill:#91C1DC}
    .fil3 {fill:silver}
    .fil0 {fill:#FF6666}
    .fil2 {fill:white}
    .fil7 {fill:white;fill-rule:nonzero}
   ]]>
  </style>
 </defs>
 <g id="Ebene_x0020_1">
  <metadata id="CorelCorpID_0Corel-Layer"/>
  <g id="_1696939895296">
   <g id="logo-1-striche.pdf">
    <g>
     <g>
      <path class="fil0" d="M230 468c4,-1 5,-3 9,-4 3,-2 4,-3 7,-5 6,-3 11,-6 16,-9l80 -45c5,-3 10,-6 16,-9l0 139 -87 0c-4,0 -5,-4 -7,-7l-34 -60zm133 -72c4,1 44,23 49,26 3,2 6,4 9,5 9,5 67,39 72,40 -3,6 -7,11 -11,17 -4,6 -7,11 -10,17 -3,5 -20,31 -21,34l-88 0 0 -139zm3 -6c3,-1 26,-14 30,-17 24,-14 71,-39 90,-51l48 78 -38 63c-23,-11 -44,-24 -66,-36l-41 -23c-4,-3 -21,-11 -23,-14zm-173 13c0,-1 9,-18 10,-20l32 -59c3,0 12,6 15,8l98 55c3,1 5,2 8,3 -2,3 -61,36 -65,37l-64 37c-1,-3 -6,-12 -8,-15 -3,-5 -6,-10 -9,-16l-17 -30zm44 -84c1,-5 4,-8 6,-12 2,-4 4,-7 6,-11l28 -54c2,-4 5,-10 7,-10l74 0 0 154c-5,-1 -40,-22 -46,-25l-30 -17c-5,-3 -10,-6 -15,-8l-30 -17zm126 -87l69 0c0,3 23,39 26,43 7,12 19,32 25,43 -37,20 -82,49 -120,69l0 -155zm-78 -5c8,-14 15,-28 22,-41l11 -21c3,-7 6,-13 10,-20 -2,-1 -2,-1 -5,-2 -2,4 -3,8 -5,11l-28 53c-2,3 -9,20 -12,20l-143 0 0 5 142 0 -44 84c-5,-2 -10,-5 -15,-8 -27,-15 -54,-30 -82,-45 -4,-3 -9,-5 -13,-8 -1,3 -1,3 -2,5l96 53c4,3 8,6 13,7 0,3 -1,3 -2,5 -7,12 -30,58 -38,73 -2,-2 -8,-13 -10,-16 -3,-6 -6,-11 -9,-17 -18,-33 -38,-64 -56,-97 -2,1 -2,1 -4,2 12,22 25,45 38,66 3,6 6,11 10,17 4,9 27,47 27,50 0,3 -35,69 -40,78l-13 26c2,0 3,1 4,2l40 -75c2,-5 11,-21 12,-25 3,2 31,51 35,58 -6,1 -17,9 -22,12l-65 37c0,2 0,3 1,5l78 -44c3,-2 7,-5 10,-6 2,5 6,12 9,16 4,6 6,11 10,16 3,6 5,11 9,16 3,5 7,11 8,16l-134 0 0 6 136 0c4,0 7,7 8,10l19 34c5,8 9,15 13,22 5,8 9,15 13,23 2,-1 2,-2 5,-2l-25 -44c-2,-4 -4,-7 -7,-11 -2,-4 -4,-7 -6,-11 -3,-6 -10,-14 -11,-21l85 0 0 93 5 0 0 -93 83 0c0,3 -4,8 -6,11l-46 75c2,1 3,1 4,3 8,-16 19,-30 28,-45 4,-6 26,-40 27,-44l154 0 0 -6 -149 0c0,-3 2,-5 4,-8 5,-9 33,-50 34,-56 6,0 10,4 14,6l38 21c4,2 8,5 13,7l37 21c1,-2 1,-2 2,-4 -25,-14 -50,-29 -75,-42l-12 -7c-5,-3 -9,-5 -13,-7 2,-3 35,-58 38,-60 2,5 16,26 20,34l28 45c5,9 11,17 16,26 2,-1 2,-1 4,-2 -4,-10 -10,-18 -16,-28 -6,-9 -11,-17 -17,-26 -10,-18 -22,-36 -32,-55l20 -32c14,-24 50,-78 60,-97 -2,-1 -2,-2 -4,-3 -11,20 -45,71 -60,96 -2,3 -3,5 -5,8l-15 24c-2,-7 -38,-62 -46,-77 19,-10 37,-21 55,-31l28 -16c9,-6 18,-11 28,-16 -1,-2 -1,-2 -2,-5 -19,11 -37,22 -56,32l-42 25c-5,2 -10,4 -14,7 -2,-4 -4,-6 -6,-10l-32 -52c-2,-4 -11,-17 -12,-21l168 0 0 -5 -173 0c0,-4 -4,-8 -5,-10l-41 -67c-2,1 -3,1 -4,3 3,6 7,12 11,18l22 37c3,5 10,13 11,19l-64 0 0 -110 -5 0 0 110 -73 0z"/>
      <polygon class="fil0" points="75,529 80,529 80,226 75,226 "/>
      <polygon class="fil0" points="652,472 657,472 657,224 652,224 "/>
      <path class="fil0" d="M400 126l52 23c5,2 9,3 13,5 27,13 63,27 91,40l53 23c1,-3 1,-2 2,-5l-209 -92c-1,3 -1,3 -2,6z"/>
      <path class="fil0" d="M318 654c1,-3 1,-3 2,-6 -5,-1 -204,-90 -209,-91 -1,2 -1,2 -2,5l26 12c9,4 18,8 27,11 28,13 64,28 91,40l65 29z"/>
      <path class="fil0" d="M109 215c1,2 1,2 2,5 3,-1 9,-4 13,-5l129 -58c5,-2 9,-3 14,-5l53 -24c-1,-2 -1,-2 -2,-5 -3,1 -10,4 -13,5l-52 23c-27,13 -63,28 -91,40l-53 24z"/>
      <path class="fil0" d="M537 597c12,-5 73,-33 78,-34 -1,-3 -1,-3 -2,-5l-53 23c-28,13 -64,27 -91,40l-65 28c1,3 1,3 2,6l131 -58z"/>
     </g>
    </g>
   </g>
   <g id="logo-2-figuren.pdf">
    <g>
     <g>
      <path class="fil1" d="M93 287l-36 0 0 -7 0 -44 15 1c-1,-2 1,-1 -2,-1l-13 0c-1,3 -1,48 0,52l32 0c4,0 2,1 4,-1z"/>
      <path class="fil1" d="M342 88c3,2 10,1 15,1 1,-4 1,-5 0,-8 -5,-1 -12,-1 -15,1l14 0 0 6 -14 0z"/>
     </g>
     <g>
      <path class="fil2" d="M140 462l-4 8c4,-2 2,-2 7,-2 -4,11 -21,12 -30,8 -12,-4 -15,-18 -11,-28 12,-25 52,-12 38,14zm-48 -3c5,42 62,36 59,-6 -2,-18 -16,-31 -33,-29 -17,2 -28,19 -26,35z"/>
      <path class="fil2" d="M143 181c-11,18 -50,10 -43,-18 3,-11 13,-16 24,-16 15,1 17,10 18,22l-4 11c5,0 3,-1 5,1zm7 -11c7,-40 -51,-53 -58,-10 -6,41 51,54 58,10z"/>
      <path class="fil2" d="M622 472c6,-2 1,-3 9,-3 -7,17 -50,13 -42,-17 2,-11 11,-17 23,-17 15,1 17,10 18,22 0,3 -1,6 -3,9 -2,2 -1,1 -3,3 -3,3 -3,1 -2,3zm-20 -48c-37,11 -21,73 16,62 36,-11 23,-74 -16,-62z"/>
      <path class="fil2" d="M631 179c-10,16 -46,12 -43,-14 2,-23 36,-27 42,-6 4,6 0,13 -1,19 4,0 1,0 2,1zm9 -6c9,-42 -48,-55 -57,-15 -3,16 5,35 22,39 17,4 32,-8 35,-24z"/>
      <path class="fil2" d="M355 589l8 0 0 13 -8 0 0 -13zm0 20c2,0 3,1 4,0 4,-1 -1,0 4,-2 2,-7 7,-8 7,-15 -1,-14 -24,-13 -22,2 0,6 6,7 7,15z"/>
      <path class="fil2" d="M346 49l7 0 0 13 -7 0 0 -13zm-1 16c4,2 4,1 9,1 2,-6 7,-8 7,-13 0,-14 -21,-15 -23,-2 0,6 4,10 7,14z"/>
      <path class="fil2" d="M353 161c-4,0 -9,-2 -13,0l-5 1 0 9 26 0c-2,-4 -4,-4 -8,-10z"/>
      <path class="fil2" d="M355 702c-3,5 -4,5 -9,9l27 0 0 -8 -5 -2 -13 1z"/>
      <path class="fil2" d="M88 522c2,3 1,4 -2,4 -2,-4 -1,-4 2,-4zm-4 -6c-8,5 -4,21 6,16 8,-4 3,-21 -6,-16z"/>
      <path class="fil2" d="M109 522c4,2 2,3 -1,4 -2,-3 -1,-3 1,-4zm-3 -6c-8,4 -4,21 6,16 8,-4 4,-21 -6,-16z"/>
      <path class="fil2" d="M646 236c-5,0 -3,-4 0,-4l0 4zm-3 -10c-10,5 -4,20 5,16 8,-3 4,-21 -5,-16z"/>
      <path class="fil2" d="M110 236c-3,0 -4,-1 -2,-4 3,1 3,1 2,4zm-3 -11c-9,3 -5,21 5,17 8,-3 5,-20 -5,-17z"/>
      <path class="fil2" d="M620 521c4,0 5,0 3,4 -4,0 -4,-1 -3,-4zm-1 -6c-9,5 -4,20 6,16 8,-3 3,-22 -6,-16z"/>
      <path class="fil2" d="M86 236c-2,-3 -2,-2 0,-4 4,1 4,3 0,4zm-1 -11c-9,4 -5,21 4,17 9,-3 5,-20 -4,-17z"/>
      <path class="fil2" d="M642 521c4,0 5,0 3,4 -4,0 -4,0 -3,-4zm-1 -6c-9,5 -3,20 6,16 8,-4 3,-21 -6,-16z"/>
      <path class="fil2" d="M624 236c-3,-1 -4,-1 -2,-4 4,1 4,1 2,4zm-3 -10c-10,4 -5,20 5,16 8,-3 4,-20 -5,-16z"/>
      <path class="fil2" d="M650 282c-2,1 -9,3 -10,5 3,1 29,1 35,0l0 -6c-8,-1 -15,3 -25,1z"/>
      <path class="fil2" d="M648 572c-3,0 -4,1 -6,2 -4,1 -2,0 -4,3l36 0 0 -8c-4,1 -8,2 -13,2 -4,1 -9,0 -13,1z"/>
      <path class="fil2" d="M93 287c-2,-2 -8,-4 -11,-4 -10,0 -15,-1 -25,-3l0 7 36 0z"/>
      <path class="fil2" d="M58 577l35 1c-2,-3 -1,-2 -5,-3 -2,-1 -3,-2 -5,-2 -9,0 -16,0 -25,-3l0 7z"/>
      <path class="fil2" d="M347 667c-1,4 -2,2 -3,1 1,-1 -1,-4 3,-1zm-3 -6c-10,4 -5,16 4,13 9,-3 4,-16 -4,-13z"/>
      <path class="fil2" d="M324 666c0,5 -3,4 -3,0l3 0zm-4 -5c-10,3 -4,16 5,13 8,-3 4,-15 -5,-13z"/>
      <path class="fil2" d="M365 127c-2,3 -3,3 -4,0 3,-2 2,-1 4,0zm-5 -6c-10,5 -2,16 6,13 8,-4 2,-17 -6,-13z"/>
      <path class="fil2" d="M388 127c-2,3 0,3 -4,1 3,-2 -2,0 2,-2 3,-1 1,0 2,1zm-4 -6c-8,3 -4,16 5,13 8,-3 4,-16 -5,-13z"/>
      <path class="fil2" d="M329 156l-7 -5c-3,1 -2,0 -4,3 4,2 7,2 11,2z"/>
      <path class="fil2" d="M380 696l10 -1c-1,-3 -1,-2 -4,-4l-6 5z"/>
     </g>
     <g>
      <path class="fil3" d="M342 82c3,-2 10,-2 15,-1 1,3 1,4 0,8 -5,0 -12,1 -15,-1l0 -6zm-4 -10l17 0 6 1 -1 6 -21 0 -1 -7zm-1 -4c-4,4 -11,2 -23,16 -6,6 -9,13 -10,21 -2,6 -2,5 1,9 -2,5 -3,7 2,17 2,5 8,12 8,15 12,-7 -2,-18 -2,-28 -1,-11 7,-21 17,-23 9,-3 11,0 17,0 6,0 8,-4 17,-2 11,2 19,9 21,20 11,1 17,7 16,18 2,-2 1,-7 1,-11 0,-3 0,-4 0,-6 0,-3 1,0 1,-5 -2,-14 -10,-27 -21,-34 -12,-8 -16,-5 -19,-9 -3,3 0,3 -4,4l-6 0 1 -4c-5,0 -5,1 -9,-1l1 5 -7 0 -2 -2z"/>
      <path class="fil3" d="M356 622l6 0 4 0 0 7 -3 0 -8 0 -3 0 0 -7 4 0zm-8 -10l22 0 0 8 -22 0 0 -8zm-40 48c8,-3 4,-6 16,-7 1,-11 10,-18 20,-20 9,-1 12,3 18,3 7,0 8,-3 18,-1 9,3 16,13 16,24 -1,11 -15,19 -2,27 -2,-3 0,-1 5,-9 1,-2 4,-7 5,-10 1,-10 2,-5 1,-13 -1,-21 -12,-38 -33,-45l0 -2c-5,4 1,4 -10,4l1 -4c-5,2 0,1 -4,2 -1,1 -2,0 -4,0 -2,2 -3,2 -6,2 -3,-3 0,-2 -4,-5l0 1c-9,2 -14,5 -22,11 -4,3 -1,2 -3,6 -3,1 0,0 -4,0 -2,5 -5,8 -8,14 -2,7 -3,12 -3,19l3 3z"/>
      <path class="fil3" d="M322 151l7 5c7,-2 13,-7 14,-14 1,-13 -9,-12 -6,-20 5,-2 6,0 11,1 4,-4 4,-8 12,-10 8,-1 12,5 16,5 3,-9 -7,-18 -16,-18 -7,0 -10,4 -14,4 -6,-1 -7,-4 -15,-2 -10,4 -13,15 -7,23 8,13 4,16 -2,26z"/>
      <path class="fil3" d="M380 696l6 -5c-6,-10 -9,-13 -1,-25 5,-8 2,-19 -7,-23 -7,-3 -9,-1 -15,1 -5,1 -7,-3 -14,-3 -10,0 -22,10 -16,17 2,1 -1,1 3,-1 12,-7 21,-2 24,7 5,-1 8,-4 11,-1 3,7 -7,7 -5,20 1,7 7,12 14,13z"/>
      <path class="fil3" d="M355 702l13 -1c-8,-9 -11,-11 -10,-25 -10,9 -13,6 -23,2l-4 9 8 1 0 7 18 0 -2 7z"/>
      <path class="fil3" d="M340 161c4,-2 9,0 13,0l-2 -6 18 -1 0 -7 8 0 -4 -10c-8,7 -15,6 -22,-1 0,18 -8,19 -11,25z"/>
      <path class="fil3" d="M320 688c3,-2 3,-3 4,-6l-10 -2 6 8z"/>
      <path class="fil3" d="M389 148c0,-3 1,-3 1,-7l-6 1c1,3 2,4 5,6z"/>
     </g>
     <g>
      <path class="fil4" d="M368 701l5 2 0 8 -27 0c5,-4 6,-4 9,-9l2 -7 -18 0 0 -7 -8 -1 4 -9c10,4 13,7 23,-2 -1,14 2,16 10,25zm-24 -40c8,-3 13,10 4,13 -9,3 -14,-9 -4,-13zm-24 0c9,-2 13,10 5,13 -9,3 -15,-10 -5,-13zm66 30c3,2 3,1 4,4l-10 1c-7,-1 -13,-6 -14,-13 -2,-13 8,-13 5,-20 -3,-3 -6,0 -11,1 -3,-9 -12,-14 -24,-7 -4,2 -1,2 -3,1 -6,-7 6,-17 16,-17 7,0 9,4 14,3 6,-2 8,-4 15,-1 9,4 12,15 7,23 -8,12 -5,15 1,25zm-78 -31c0,4 -2,7 0,12 2,4 5,6 6,8l10 2c-1,3 -1,4 -4,6 -2,4 -1,2 -1,7l12 0 0 8 13 0c-6,3 -5,3 -12,3l-1 13 50 0 0 -15c8,0 22,-4 21,-14l-8 -4c-13,-8 1,-16 2,-27 0,-11 -7,-21 -16,-24 -10,-2 -11,1 -18,1 -6,0 -9,-4 -18,-3 -10,2 -19,9 -20,20 -12,1 -8,4 -16,7z"/>
      <path class="fil4" d="M353 161c4,6 6,6 8,10l-26 0 0 -9 5 -1c3,-6 11,-7 11,-25 7,7 14,8 22,1l4 10 -8 0 0 7 -18 1 2 6zm7 -40c8,-4 14,9 6,13 -8,3 -16,-8 -6,-13zm24 0c9,-3 13,10 5,13 -9,3 -13,-10 -5,-13zm-55 35c-4,0 -7,0 -11,-2 2,-3 1,-2 4,-3 6,-10 10,-13 2,-26 -6,-8 -3,-19 7,-23 8,-2 9,1 15,2 4,0 7,-4 14,-4 9,0 19,9 16,18 -4,0 -8,-6 -16,-5 -8,2 -8,6 -12,10 -5,-1 -6,-3 -11,-1 -3,8 7,7 6,20 -1,7 -7,12 -14,14zm-14 -10c-2,2 -19,4 -2,14 6,4 10,3 14,5l0 13 50 1 0 -13c-5,-1 -8,0 -12,-4l12 0 0 -7 13 0 -1 -7c-3,-2 -4,-3 -5,-6l6 -1c5,-1 9,-5 11,-10 1,-11 -5,-17 -16,-18 -2,-11 -10,-18 -21,-20 -9,-2 -11,2 -17,2 -6,0 -8,-3 -17,0 -10,2 -18,12 -17,23 0,10 14,21 2,28z"/>
      <path class="fil4" d="M674 569l0 8 -36 0c2,-3 0,-2 4,-3 2,-1 3,-2 6,-2 3,-4 8,-3 11,-19l-21 0 0 -7 -12 0c0,-6 3,-8 7,-10 5,4 9,8 17,4 6,-3 8,-9 9,-15l15 0 0 44zm-33 -54c9,-5 14,12 6,16 -9,4 -15,-11 -6,-16zm-22 0c9,-6 14,13 6,16 -10,4 -15,-11 -6,-16zm33 -8c8,-2 13,-2 22,-2l0 11 -16 0c-2,-5 -4,-5 -6,-9zm-21 78l50 0 0 -19 0 -41 9 0 0 -9 -9 0 0 -19c-25,-1 -29,-2 -48,13 -6,-3 -7,-7 -16,-5 -4,2 -8,7 -9,11 -4,10 0,22 11,25l0 13 12 0 0 8 16 0c-3,4 -10,4 -16,5l0 18z"/>
      <path class="fil4" d="M83 573c2,0 3,1 5,2 4,1 3,0 5,3l-35 -1c-3,-3 -1,-20 -1,-25 0,-8 -1,-18 0,-26l15 0c1,6 3,12 9,15 8,4 12,0 17,-4 4,3 7,4 7,10l-12 0 0 7 -21 0c2,10 4,12 11,19zm23 -57c10,-5 14,12 6,16 -10,5 -14,-12 -6,-16zm-22 0c9,-5 14,12 6,16 -10,5 -14,-11 -6,-16zm-27 -9c7,-1 15,0 22,1 -2,4 -4,4 -6,9l-16 0 0 -10zm-7 60l0 19 49 0 0 -18c-5,0 -11,-1 -15,-5l15 0 0 -8 13 0 0 -13c17,-4 15,-32 1,-36 -9,-2 -10,2 -15,5 -7,-5 -9,-9 -19,-12 -8,-2 -20,-1 -29,-1l0 19 -10 0 0 9 10 0 0 41z"/>
      <path class="fil4" d="M675 281l0 6c-6,1 -32,1 -35,0 1,-2 8,-4 10,-5 6,-7 8,-7 10,-18l-20 0 -1 -7 -12 0c1,-9 2,-4 6,-10 6,2 9,9 18,4 7,-4 7,-9 10,-15l14 0 0 45zm-32 -55c9,-5 13,13 5,16 -9,4 -15,-11 -5,-16zm-22 0c9,-4 13,13 5,16 -10,4 -15,-12 -5,-16zm54 -9l0 10 -15 0 -7 -9c5,-3 16,-2 22,-1zm-42 63l0 16 48 0 1 -60 10 0 0 -9 -10 0 0 -19c-9,0 -21,-1 -30,2 -9,2 -12,7 -19,11 -8,-9 -19,-6 -23,5 -7,16 4,22 10,27l0 12 12 0 1 8 15 0c-5,7 -15,2 -15,7z"/>
      <path class="fil4" d="M82 283c3,0 9,2 11,4 -2,2 0,1 -4,1l-32 0c-1,-4 -1,-49 0,-52l13 0c3,0 1,-1 2,1 2,6 3,11 9,14 8,4 11,0 17,-4 6,5 6,2 7,10l-12 0 0 7 -20 0c-1,11 6,13 9,19zm25 -58c10,-3 13,14 5,17 -10,4 -14,-14 -5,-17zm-22 0c9,-3 13,14 4,17 -9,4 -13,-13 -4,-17zm-28 -8c6,-2 16,0 22,1l-7 9 -15 0 0 -10zm-7 60l0 19 49 0 0 -18c-6,0 -11,-1 -15,-5l15 0 1 -8 13 0 -1 -12c4,-3 8,-5 10,-10 7,-16 -6,-37 -24,-22 -7,-5 -9,-9 -19,-11 -8,-3 -21,-2 -29,-2l0 19 -10 0 1 9 9 0 0 41z"/>
      <path class="fil4" d="M640 173c-3,16 -18,28 -35,24 -17,-4 -25,-23 -22,-39 9,-40 66,-27 57,15zm-46 28c11,4 18,7 30,2 7,-3 14,-9 18,-16l2 5 6 -1c2,-8 0,-7 -5,-9 3,-9 3,-13 3,-22 -5,-28 -34,-46 -58,-26 -16,13 -19,37 -8,54 5,8 7,7 12,13z"/>
      <path class="fil4" d="M92 459c-2,-16 9,-33 26,-35 17,-2 31,11 33,29 3,42 -54,48 -59,6zm-7 -3c0,8 2,11 3,17 -4,-4 -8,2 -6,6 0,2 2,3 5,3 2,-1 2,-3 4,-6 2,7 11,14 17,17 12,4 19,2 30,-1 3,-4 17,-11 19,-32 2,-14 -4,-29 -15,-37 -25,-20 -58,3 -57,33z"/>
      <path class="fil4" d="M150 170c-7,44 -64,31 -58,-10 7,-43 65,-30 58,10zm-65 -3c0,7 2,9 3,16 -3,-1 -3,-1 -6,0 -1,5 -1,5 1,9 6,0 5,-2 7,-6 9,19 30,23 48,15 12,-9 18,-17 20,-32 1,-15 -5,-29 -16,-37 -27,-19 -58,4 -57,35z"/>
      <path class="fil4" d="M602 424c39,-12 52,51 16,62 -37,11 -53,-51 -16,-62zm-8 66c31,12 36,-3 47,-13 4,10 13,-1 5,-6 -2,-1 0,1 -2,-1 2,-5 2,-9 3,-14 0,-31 -31,-53 -57,-35 -11,8 -17,22 -16,36 1,22 14,27 20,33z"/>
      <path class="fil4" d="M117 463c-5,-6 0,-18 7,-15 3,2 3,17 -7,15zm19 7c-4,6 -20,5 -26,0 -7,-6 -7,-19 -1,-25 5,-6 18,-9 25,-3 7,6 6,19 -4,21l3 -19c-3,0 -6,1 -6,1 -2,0 -2,-1 -7,-1 -15,0 -14,34 3,22 5,7 13,-1 17,-4 14,-26 -26,-39 -38,-14 -4,10 -1,24 11,28 9,4 26,3 30,-8 -5,0 -3,0 -7,2z"/>
      <path class="fil4" d="M604 464c-5,-6 0,-18 7,-15 4,2 3,17 -7,15zm18 8c-5,5 -21,4 -26,-2 -6,-7 -5,-19 1,-25 6,-6 19,-8 25,-1 7,6 5,18 -5,20l4 -19c-7,0 -5,2 -7,1 0,0 -11,-6 -16,7 -5,10 2,21 13,14 3,4 9,2 12,0 3,-3 5,-7 7,-10 -1,-12 -3,-21 -18,-22 -12,0 -21,6 -23,17 -8,30 35,34 42,17 -8,0 -3,1 -9,3z"/>
      <path class="fil4" d="M116 176c-5,-6 0,-18 7,-15 4,2 3,17 -7,15zm27 5c-9,-1 -15,10 -30,3 -10,-4 -12,-16 -7,-25 5,-8 19,-11 26,-5 8,6 7,19 -3,22l3 -19c-7,0 -4,1 -7,1 -2,-1 -2,-2 -6,-2 -4,1 -8,5 -10,8 -4,10 3,21 14,14 2,4 8,3 12,0 3,-2 4,-7 7,-9 -1,-12 -3,-21 -18,-22 -11,0 -21,5 -24,16 -7,28 32,36 43,18z"/>
      <path class="fil4" d="M604 174c-5,-6 0,-18 7,-15 4,2 3,17 -7,15zm27 5l-4 -1c-21,15 -45,-1 -32,-21 5,-8 18,-11 26,-5 8,6 7,20 -3,22l3 -19c-4,0 -6,1 -7,1 -2,0 -2,-2 -6,-2 -16,1 -15,34 3,22 4,6 21,1 19,-17 -6,-21 -40,-17 -42,6 -3,26 33,30 43,14z"/>
      <path class="fil4" d="M337 68l2 2 7 0 -1 -5c-3,-4 -7,-8 -7,-14 2,-13 23,-12 23,2 0,5 -5,7 -7,13l-1 4 6 0c4,-1 1,-1 4,-4 5,-7 8,-12 4,-21 -3,-7 -11,-11 -18,-10 -8,0 -14,5 -17,11 -5,12 4,16 5,22z"/>
      <path class="fil4" d="M345 606c4,3 1,2 4,5 3,0 4,0 6,-2 -1,-8 -7,-9 -7,-15 -2,-15 21,-16 22,-2 0,7 -5,8 -7,15l-1 4c11,0 5,0 10,-4 1,-6 9,-9 4,-20 -5,-15 -27,-16 -34,-2 -6,12 2,15 3,21z"/>
      <polygon class="fil4" points="348,620 370,620 370,612 348,612 "/>
      <polygon class="fil4" points="339,79 360,79 361,73 355,72 338,72 "/>
      <path class="fil4" d="M333 37c1,-6 -1,-6 -5,-10 -2,-2 -7,-7 -10,-2 -2,3 3,7 5,8 3,3 5,6 10,4z"/>
      <path class="fil4" d="M346 30c11,5 7,-14 6,-15 -2,-3 -6,-2 -6,3 -1,3 -1,9 0,12z"/>
      <path class="fil4" d="M377 578c6,0 20,-13 11,-14 -4,-1 -7,3 -9,5 -4,4 -6,5 -2,9z"/>
      <path class="fil4" d="M356 570c10,6 7,-14 6,-15 -2,-3 -6,-1 -7,3 0,3 0,9 1,12z"/>
      <path class="fil4" d="M383 589c-10,7 13,8 16,6 3,-2 1,-6 -3,-6 -3,-1 -10,-1 -13,0z"/>
      <path class="fil4" d="M328 565c-4,3 1,6 3,8 3,2 6,7 9,4 4,-3 -1,-7 -3,-9 -3,-3 -6,-7 -9,-3z"/>
      <path class="fil4" d="M309 49c-2,6 0,6 6,6 4,1 8,1 12,-1 0,-5 -1,-6 -6,-6 -2,0 -11,0 -12,1z"/>
      <path class="fil4" d="M318 594c3,2 23,4 17,-4 0,-1 -20,-6 -17,4z"/>
      <path class="fil4" d="M390 49c-16,-5 -30,7 -5,6 5,0 7,0 5,-6z"/>
      <path class="fil4" d="M367 35c3,5 6,3 11,-2 3,-4 5,-5 3,-9 -5,-2 -6,0 -9,3 -3,3 -5,4 -5,8z"/>
      <polygon class="fil4" points="352,629 355,629 363,629 366,629 366,622 362,622 356,622 352,622 "/>
      <polygon class="fil4" points="355,602 363,602 363,589 355,589 "/>
      <polygon class="fil4" points="346,62 353,62 353,49 346,49 "/>
      <polygon class="fil4" points="342,88 356,88 356,82 342,82 "/>
      <path class="fil4" d="M649 491l4 0 1 -6c-5,-2 -6,1 -5,6z"/>
      <path class="fil4" d="M78 202l3 0c2,-3 2,-3 0,-6 -5,-1 -5,2 -3,6z"/>
      <path class="fil4" d="M77 486c0,4 -1,3 1,5l3 1c3,-6 -1,-7 -4,-6z"/>
      <path class="fil4" d="M654 201c2,-3 2,-2 0,-5 -6,-2 -6,8 0,5z"/>
      <path class="fil4" d="M645 525c2,-4 1,-4 -3,-4 -1,4 -1,4 3,4z"/>
      <path class="fil4" d="M623 525c2,-4 1,-4 -3,-4 -1,3 -1,4 3,4z"/>
      <path class="fil4" d="M86 526c3,0 4,-1 2,-4 -3,0 -4,0 -2,4z"/>
      <path class="fil4" d="M110 236c1,-3 1,-3 -2,-4 -2,3 -1,4 2,4z"/>
      <path class="fil4" d="M624 236c2,-3 2,-3 -2,-4 -2,3 -1,3 2,4z"/>
      <path class="fil4" d="M108 526c3,-1 5,-2 1,-4 -2,1 -3,1 -1,4z"/>
      <path class="fil4" d="M86 236c4,-1 4,-3 0,-4 -2,2 -2,1 0,4z"/>
      <path class="fil4" d="M646 236l0 -4c-3,0 -5,4 0,4z"/>
      <path class="fil4" d="M344 668c1,1 2,3 3,-1 -4,-3 -2,0 -3,1z"/>
      <path class="fil4" d="M361 127c1,3 2,3 4,0 -2,-1 -1,-2 -4,0z"/>
      <path class="fil4" d="M384 128c4,2 2,2 4,-1 -1,-1 1,-2 -2,-1 -4,2 1,0 -2,2z"/>
      <path class="fil4" d="M321 666c0,4 3,5 3,0l-3 0z"/>
     </g>
     <g>
      <path class="fil5" d="M77 486c3,-1 7,0 4,6l-3 -1c-2,-2 -1,-1 -1,-5zm-65 23l0 12c2,4 2,10 5,15 2,5 5,10 8,14 6,6 16,15 25,17l0 -41 -10 0 0 -9 10 0 0 -19c9,0 21,-1 29,1 10,3 12,7 19,12 5,-3 6,-7 15,-5 14,4 16,32 -1,36l0 13 -13 0 0 8 -15 0c4,4 10,5 15,5l0 18c2,-4 1,-11 2,-17 28,-10 48,-35 40,-66 -1,-3 -4,-8 -3,-11 -11,3 -18,5 -30,1 -6,-3 -15,-10 -17,-17 -2,3 -2,5 -4,6 -3,0 -5,-1 -5,-3 -2,-4 2,-10 6,-6 -1,-6 -3,-9 -3,-17 -6,2 -13,0 -28,4 -15,4 -27,13 -36,26 -8,12 -7,18 -9,23z"/>
      <path class="fil5" d="M78 202c-2,-4 -2,-7 3,-6 2,3 2,3 0,6l-3 0zm-66 16l0 13c2,4 3,11 5,16 2,5 5,9 9,13 6,7 14,14 24,17l0 -41 -9 0 -1 -9 10 0 0 -19c8,0 21,-1 29,2 10,2 12,6 19,11 18,-15 31,6 24,22 -2,5 -6,7 -10,10l1 12 -13 0 -1 8 -15 0c4,4 9,5 15,5l0 18c3,-1 1,-13 1,-17 11,-3 30,-17 36,-27 6,-12 9,-26 6,-38 -1,-5 -4,-9 -4,-13 -18,8 -39,4 -48,-15 -2,4 -1,6 -7,6 -2,-4 -2,-4 -1,-9 3,-1 3,-1 6,0 -1,-7 -3,-9 -3,-16 -12,3 -43,-3 -64,29 -8,11 -6,17 -9,22z"/>
      <path class="fil5" d="M654 201c-6,3 -6,-7 0,-5 2,3 2,2 0,5zm-60 0c0,2 -1,3 -2,5 -1,2 -3,16 -3,21 1,14 5,24 15,33 12,12 11,11 29,20 0,-5 10,0 15,-7l-15 0 -1 -8 -12 0 0 -12c-6,-5 -17,-11 -10,-27 4,-11 15,-14 23,-5 7,-4 10,-9 19,-11 9,-3 21,-2 30,-2l0 19 10 0 0 9 -10 0 -1 60c3,-3 2,-13 2,-17 1,-3 12,-8 15,-11 45,-36 16,-104 -49,-101 0,-3 0,-4 -1,-7 0,9 0,13 -3,22 5,2 7,1 5,9l-6 1 -2 -5c-4,7 -11,13 -18,16 -12,5 -19,2 -30,-2z"/>
      <path class="fil5" d="M649 491c-1,-5 0,-8 5,-6l-1 6 -4 0zm-55 -1c-1,5 -7,15 -6,26 2,15 5,23 14,34 6,7 19,15 28,18 1,3 0,5 0,8l1 7c0,2 0,1 0,2l0 -18c6,-1 13,-1 16,-5l-16 0 0 -8 -12 0 0 -13c-11,-3 -15,-15 -11,-25 1,-4 5,-9 9,-11 9,-2 10,2 16,5 19,-15 23,-14 48,-13l0 19 9 0 0 9 -9 0 0 41c25,-7 45,-39 35,-69 -7,-20 -25,-33 -44,-38 -10,-3 -17,-2 -25,-3 -1,5 -1,9 -3,14 2,2 0,0 2,1 8,5 -1,16 -5,6 -11,10 -16,25 -47,13z"/>
      <path class="fil5" d="M58 577l0 -7c9,3 16,3 25,3 -7,-7 -9,-9 -11,-19l21 0 0 -7 12 0c0,-6 -3,-7 -7,-10 -5,4 -9,8 -17,4 -6,-3 -8,-9 -9,-15l-15 0c-1,8 0,18 0,26 0,5 -2,22 1,25z"/>
      <path class="fil5" d="M650 282c10,2 17,-2 25,-1l0 -45 -14 0c-3,6 -3,11 -10,15 -9,5 -12,-2 -18,-4 -4,6 -5,1 -6,10l12 0 1 7 20 0c-2,11 -4,11 -10,18z"/>
      <path class="fil5" d="M648 572c4,-1 9,0 13,-1 5,0 9,-1 13,-2l0 -44 -15 0c-1,6 -3,12 -9,15 -8,4 -12,0 -17,-4 -4,2 -7,4 -7,10l12 0 0 7 21 0c-3,16 -8,15 -11,19z"/>
      <path class="fil5" d="M57 280c10,2 15,3 25,3 -3,-6 -10,-8 -9,-19l20 0 0 -7 12 0c-1,-8 -1,-5 -7,-10 -6,4 -9,8 -17,4 -6,-3 -7,-8 -9,-14l-15 -1 0 44z"/>
      <path class="fil5" d="M631 179c-1,-1 2,-1 -2,-1 1,-6 5,-13 1,-19 2,18 -15,23 -19,17 -18,12 -19,-21 -3,-22 4,0 4,2 6,2 1,0 3,-1 7,-1l-3 19c10,-2 11,-16 3,-22 -8,-6 -21,-3 -26,5 -13,20 11,36 32,21l4 1z"/>
      <path class="fil5" d="M143 181c-2,-2 0,-1 -5,-1l4 -11c-3,2 -4,7 -7,9 -4,3 -10,4 -12,0 -11,7 -18,-4 -14,-14 2,-3 6,-7 10,-8 4,0 4,1 6,2 3,0 0,-1 7,-1l-3 19c10,-3 11,-16 3,-22 -7,-6 -21,-3 -26,5 -5,9 -3,21 7,25 15,7 21,-4 30,-3z"/>
      <path class="fil5" d="M622 472c-1,-2 -1,0 2,-3 2,-2 1,-1 3,-3 2,-3 3,-6 3,-9 -2,3 -4,7 -7,10 -3,2 -9,4 -12,0 -11,7 -18,-4 -13,-14 5,-13 16,-7 16,-7 2,1 0,-1 7,-1l-4 19c10,-2 12,-14 5,-20 -6,-7 -19,-5 -25,1 -6,6 -7,18 -1,25 5,6 21,7 26,2z"/>
      <path class="fil5" d="M136 470l4 -8c-4,3 -12,11 -17,4 -17,12 -18,-22 -3,-22 5,0 5,1 7,1 0,0 3,-1 6,-1l-3 19c10,-2 11,-15 4,-21 -7,-6 -20,-3 -25,3 -6,6 -6,19 1,25 6,5 22,6 26,0z"/>
      <path class="fil5" d="M653 218l7 9 15 0 0 -10c-6,-1 -17,-2 -22,1z"/>
      <path class="fil5" d="M652 507c2,4 4,4 6,9l16 0 0 -11c-9,0 -14,0 -22,2z"/>
      <path class="fil5" d="M57 517l16 0c2,-5 4,-5 6,-9 -7,-1 -15,-2 -22,-1l0 10z"/>
      <path class="fil5" d="M57 227l15 0 7 -9c-6,-1 -16,-3 -22,-1l0 10z"/>
      <path class="fil5" d="M116 176c10,2 11,-13 7,-15 -7,-3 -12,9 -7,15z"/>
      <path class="fil5" d="M604 174c10,2 11,-13 7,-15 -7,-3 -12,9 -7,15z"/>
      <path class="fil5" d="M604 464c10,2 11,-13 7,-15 -7,-3 -12,9 -7,15z"/>
      <path class="fil5" d="M117 463c10,2 10,-13 7,-15 -7,-3 -12,9 -7,15z"/>
     </g>
    </g>
   </g>
  </g>
  <ellipse class="fil6" cx="362" cy="365" rx="172" ry="80"/>
  <path class="fil7" d="M248 393l30 0c3,0 5,1 7,2 1,1 2,3 2,5 0,2 0,4 -2,5 -1,1 -3,2 -5,2l-42 0c-3,0 -5,-1 -7,-3 -1,-1 -2,-3 -2,-5 0,-1 0,-3 1,-5 1,-3 2,-5 4,-6 5,-5 9,-10 13,-13 4,-4 7,-6 9,-8 3,-2 6,-4 8,-6 2,-3 3,-5 5,-7 1,-2 1,-5 1,-7 0,-2 0,-5 -2,-7 -1,-1 -2,-3 -4,-4 -2,-1 -4,-2 -7,-2 -5,0 -9,3 -12,7 0,1 -1,2 -1,5 -1,2 -2,4 -3,6 -2,1 -3,2 -5,2 -2,0 -4,-1 -5,-2 -1,-2 -2,-3 -2,-5 0,-3 1,-6 2,-9 1,-2 3,-5 5,-7 2,-3 5,-5 9,-6 4,-1 8,-2 13,-2 5,0 10,1 14,3 3,1 5,2 7,5 2,2 4,4 5,7 1,3 2,6 2,9 0,4 -1,9 -4,13 -2,3 -4,6 -7,9 -2,2 -6,5 -12,10 -6,5 -10,8 -12,11 -1,1 -2,2 -3,3z"/>
  <path id="1" class="fil7" d="M355 366c0,6 0,11 -1,16 0,4 -2,8 -4,12 -2,5 -6,8 -10,10 -4,3 -9,4 -14,4 -5,0 -11,-2 -15,-5 -5,-3 -8,-8 -10,-13 -2,-3 -2,-7 -3,-11 -1,-4 -1,-8 -1,-12 0,-6 0,-11 1,-16 1,-4 2,-8 3,-11 2,-6 5,-10 10,-13 4,-3 9,-4 15,-4 4,0 7,0 11,2 3,1 6,3 8,5 2,3 4,6 6,9 3,7 4,15 4,27zm-15 -1c0,-7 -1,-13 -1,-17 -1,-5 -3,-8 -5,-10 -2,-3 -4,-4 -8,-4 -5,0 -8,3 -10,8 -2,5 -3,13 -3,23 0,7 0,13 1,18 1,4 2,8 4,10 2,2 5,4 8,4 4,0 7,-2 8,-4 2,-2 4,-6 5,-10 0,-5 1,-11 1,-18z"/>
  <path id="2" class="fil7" d="M394 399l0 -52c-10,8 -16,11 -20,11 -1,0 -3,0 -4,-2 -1,-1 -2,-2 -2,-4 0,-2 1,-3 2,-4 1,-1 3,-2 7,-4 4,-2 8,-4 11,-7 2,-2 5,-5 7,-8 2,-3 3,-4 4,-5 1,-1 2,-1 4,-1 2,0 3,1 5,2 1,2 1,4 1,7l0 65c0,7 -2,11 -7,11 -3,0 -5,-1 -6,-2 -1,-2 -2,-4 -2,-7z"/>
  <path id="3" class="fil7" d="M478 369c-3,3 -6,6 -9,7 -3,2 -6,2 -10,2 -4,0 -7,0 -10,-2 -3,-1 -6,-3 -8,-6 -2,-2 -4,-5 -5,-8 -1,-4 -2,-7 -2,-11 0,-4 1,-7 2,-11 1,-3 3,-6 6,-9 2,-3 5,-5 9,-6 4,-1 7,-2 12,-2 5,0 9,1 13,3 4,1 7,4 9,7 3,4 5,8 6,13 2,5 3,11 3,18 0,7 -1,13 -3,19 -1,5 -3,10 -6,14 -3,4 -6,7 -10,8 -4,2 -9,3 -14,3 -5,0 -9,-1 -13,-3 -3,-2 -6,-4 -8,-7 -2,-2 -3,-5 -3,-8 0,-1 1,-3 2,-4 1,-1 3,-2 5,-2 1,0 3,1 4,2 1,0 2,2 3,4 1,2 2,4 4,5 2,2 4,2 7,2 2,0 4,0 6,-1 2,-1 3,-3 5,-5 3,-4 4,-11 5,-22zm-2 -17c0,-3 0,-5 -1,-7 0,-2 -1,-4 -3,-6 -1,-1 -2,-3 -4,-4 -2,0 -4,-1 -6,-1 -4,0 -7,2 -9,5 -3,3 -4,7 -4,12 0,5 1,9 4,12 2,3 6,5 9,5 3,0 5,-1 7,-2 2,-2 4,-3 5,-6 2,-2 2,-5 2,-8z"/>
 </g>
</svg>
