<?xml version="1.0" encoding="UTF-8"?>
<!DOCTYPE svg PUBLIC "-//W3C//DTD SVG 1.1//EN" "http://www.w3.org/Graphics/SVG/1.1/DTD/svg11.dtd">
<!-- Creator: CorelDRAW X8 -->
<svg xmlns="http://www.w3.org/2000/svg" xml:space="preserve" width="2250px" height="750px" version="1.1" style="shape-rendering:geometricPrecision; text-rendering:geometricPrecision; image-rendering:optimizeQuality; fill-rule:evenodd; clip-rule:evenodd"
viewBox="0 0 2250 750"
 xmlns:xlink="http://www.w3.org/1999/xlink">
 <defs>
  <style type="text/css">
   <![CDATA[
    .fil4 {fill:black}
    .fil1 {fill:#61676A}
    .fil5 {fill:#84B9D7}
    .fil6 {fill:#91C1DC}
    .fil3 {fill:silver}
    .fil0 {fill:#FF6666}
    .fil2 {fill:white}
    .fil9 {fill:#4D4D4D;fill-rule:nonzero}
    .fil8 {fill:silver;fill-rule:nonzero}
    .fil7 {fill:white;fill-rule:nonzero}
   ]]>
  </style>
 </defs>
 <g id="Ebene_x0020_1">
  <metadata id="CorelCorpID_0Corel-Layer"/>
  <g id="_1697130131904">
   <path class="fil0" d="M244 467c3,-1 5,-2 8,-4 3,-2 5,-3 8,-5 5,-3 10,-6 16,-9l79 -45c6,-3 11,-6 16,-9l0 140 -87 0c-3,0 -4,-5 -6,-8l-34 -60zm133 -72c4,1 44,24 49,27 3,1 5,3 8,4 10,6 68,39 72,40 -3,6 -6,12 -10,18 -4,6 -7,11 -11,17 -3,4 -19,31 -20,34l-88 0 0 -140zm3 -6c3,0 25,-14 30,-16 23,-14 71,-40 90,-52l48 79 -39 62c-22,-11 -43,-24 -65,-36l-41 -23c-5,-3 -21,-11 -23,-14zm-173 13c0,-1 8,-18 10,-20l31 -59c3,1 12,6 16,8l98 55c2,1 4,3 7,3 -2,3 -61,36 -64,38l-64 36c-1,-3 -7,-12 -9,-15 -3,-5 -6,-10 -9,-15l-16 -31zm44 -84c1,-5 4,-8 6,-12 2,-3 3,-7 5,-11l29 -54c2,-4 4,-10 7,-10l73 0 0 154c-4,-1 -40,-22 -45,-25l-31 -17c-5,-2 -9,-6 -14,-8l-30 -17zm126 -87l68 0c1,4 24,40 26,44 7,11 20,31 26,42 -38,20 -82,49 -120,69l0 -155zm-78 -5c7,-14 14,-27 21,-41l11 -21c4,-7 7,-13 11,-20 -2,-1 -3,-1 -5,-2 -2,4 -4,8 -6,11l-27 53c-2,3 -9,20 -12,20l-144 0 0 5 143 0 -45 84c-5,-2 -9,-4 -14,-7 -27,-16 -55,-31 -82,-46 -5,-3 -9,-5 -14,-8 0,3 -1,3 -2,5l96 53c4,3 9,6 14,7 -1,4 -1,3 -2,5 -8,12 -30,58 -38,73 -3,-2 -8,-12 -10,-16 -3,-6 -7,-11 -10,-17 -17,-32 -38,-64 -55,-97 -3,1 -3,1 -5,2 12,23 26,45 38,67 3,5 7,11 10,17 4,8 28,46 28,49 0,4 -36,69 -40,78l-14 26c3,1 3,1 5,2l39 -75c3,-4 12,-21 13,-25 3,2 30,51 34,58 -5,2 -17,9 -22,13l-65 36c1,3 1,3 2,5l77 -44c4,-2 7,-4 11,-6 1,6 6,12 9,17 3,5 6,10 9,16 3,5 6,10 9,15 3,5 8,11 9,17l-134 0 0 5 136 0c4,0 6,8 8,11l19 33c4,8 8,15 13,23 4,7 8,14 13,22 1,-1 2,-1 4,-2l-25 -43c-2,-4 -4,-8 -6,-12 -2,-4 -4,-6 -6,-10 -4,-6 -10,-15 -12,-22l85 0 0 94 6 0 0 -94 83 0c-1,4 -5,8 -6,11l-47 75c2,1 3,2 5,3 8,-15 18,-30 27,-45 4,-5 27,-40 28,-44l154 0 0 -5 -150 0c1,-4 3,-6 5,-9 5,-8 33,-50 34,-56 5,0 10,4 14,7l37 20c5,3 8,5 13,8l38 20c1,-2 1,-2 2,-4 -26,-14 -50,-29 -75,-42l-13 -7c-4,-2 -8,-5 -12,-7 1,-3 35,-58 38,-60 1,6 15,27 20,34l28 46c5,8 11,17 15,26 2,-2 3,-2 5,-3 -5,-9 -11,-18 -16,-27 -6,-10 -11,-18 -17,-27 -11,-18 -23,-36 -33,-54l21 -33c14,-24 50,-78 60,-97 -2,-1 -3,-2 -5,-3 -10,21 -44,71 -59,96 -2,3 -3,5 -5,8l-15 24c-2,-7 -39,-62 -46,-77 18,-10 36,-21 55,-31l28 -16c9,-5 18,-11 27,-16 -1,-2 -1,-2 -1,-4 -19,10 -37,21 -56,32l-43 24c-5,3 -9,5 -13,7 -2,-4 -4,-6 -6,-10l-32 -52c-3,-4 -11,-17 -12,-21l168 0 0 -5 -173 0c-1,-3 -4,-7 -6,-10l-40 -67c-2,1 -3,1 -5,3 4,6 8,12 11,18l23 37c3,5 9,13 11,19l-64 0 0 -109 -6 0 0 109 -72 0z"/>
   <polygon class="fil0" points="88,528 94,528 94,225 88,225 "/>
   <polygon class="fil0" points="665,471 671,471 671,223 665,223 "/>
   <path class="fil0" d="M414 125l52 23c4,2 8,3 13,5 27,13 63,28 91,40l53 23c0,-3 1,-2 2,-5l-209 -92c-1,3 -1,3 -2,6z"/>
   <path class="fil0" d="M331 653c1,-3 2,-3 2,-5 -5,-2 -204,-91 -209,-92 -1,3 -1,3 -2,6l27 11c9,4 17,8 26,12 28,12 65,27 91,40l65 28z"/>
   <path class="fil0" d="M122 214c1,2 1,2 2,5 3,0 10,-4 13,-5l130 -57c5,-3 9,-4 14,-6l52 -23c0,-3 -1,-3 -2,-6 -3,1 -9,4 -12,6l-53 22c-26,13 -63,28 -91,41l-53 23z"/>
   <path class="fil0" d="M551 596c12,-5 73,-32 77,-34 0,-2 -1,-2 -1,-5l-53 23c-28,13 -65,27 -91,40l-65 28c0,3 1,3 1,6l132 -58z"/>
   <path class="fil1" d="M106 286l-35 0 0 -7 0 -43 14 0c-1,-1 1,-1 -2,-1l-12 0c-1,3 -2,48 -1,52l32 1c5,-1 2,0 4,-2z"/>
   <path class="fil1" d="M356 87c3,2 10,1 14,1 1,-4 1,-4 0,-8 -4,0 -11,-1 -14,1l14 0 0 6 -14 0z"/>
   <path class="fil2" d="M153 461l-3 9c3,-3 2,-3 7,-3 -4,11 -22,12 -31,8 -11,-4 -15,-17 -10,-28 11,-25 52,-12 37,14zm-47 -3c4,42 61,36 58,-6 -1,-18 -15,-31 -33,-29 -17,2 -27,19 -25,35z"/>
   <path class="fil2" d="M156 180c-11,18 -49,11 -42,-17 3,-12 12,-17 23,-17 15,1 17,10 18,22l-3 11c4,0 2,-1 4,1zm8 -10c7,-40 -51,-54 -58,-11 -7,42 51,54 58,11z"/>
   <path class="fil2" d="M636 471c5,-2 1,-3 8,-3 -6,17 -49,13 -41,-17 2,-11 11,-17 22,-16 15,0 18,9 19,22 -1,3 -2,6 -4,8 -1,3 0,2 -2,3 -4,3 -4,1 -2,3zm-20 -48c-37,11 -21,73 16,62 36,-11 23,-74 -16,-62z"/>
   <path class="fil2" d="M644 178c-10,16 -45,13 -42,-14 2,-23 36,-27 41,-6 5,6 1,13 -1,19 5,0 2,0 2,1zm10 -6c9,-42 -48,-55 -57,-15 -4,16 5,35 22,39 16,4 32,-8 35,-24z"/>
   <path class="fil2" d="M369 588l7 0 0 14 -7 0 0 -14zm0 21c1,0 2,0 4,0 4,-2 -2,-1 3,-3 3,-6 8,-8 8,-14 -1,-15 -24,-13 -23,1 1,7 7,7 8,16z"/>
   <path class="fil2" d="M360 48l7 0 0 13 -8 0 1 -13zm-1 16c3,2 4,1 8,1 3,-6 7,-7 7,-13 1,-14 -21,-15 -22,-2 0,6 4,10 7,14z"/>
   <path class="fil2" d="M367 160c-4,0 -10,-2 -14,0l-4 1 0 9 26 0c-2,-4 -5,-3 -8,-10z"/>
   <path class="fil2" d="M369 701c-4,6 -5,5 -9,10l27 0 0 -9 -5 -2 -13 1z"/>
   <path class="fil2" d="M101 521c2,4 1,4 -2,5 -2,-4 -1,-4 2,-5zm-4 -6c-8,5 -3,21 6,17 9,-4 4,-22 -6,-17z"/>
   <path class="fil2" d="M123 521c3,2 2,4 -1,5 -2,-4 -2,-3 1,-5zm-3 -6c-8,5 -4,21 6,17 8,-4 3,-22 -6,-17z"/>
   <path class="fil2" d="M660 235c-5,0 -4,-4 0,-4l0 4zm-3 -10c-10,5 -5,20 5,16 8,-3 4,-20 -5,-16z"/>
   <path class="fil2" d="M124 235c-4,0 -5,0 -2,-4 3,1 3,1 2,4zm-3 -10c-10,3 -6,20 4,16 8,-3 5,-19 -4,-16z"/>
   <path class="fil2" d="M634 520c3,1 4,1 2,5 -3,-1 -3,-1 -2,-5zm-2 -6c-8,6 -3,21 6,17 9,-4 3,-22 -6,-17z"/>
   <path class="fil2" d="M99 235c-1,-2 -1,-1 1,-4 3,1 4,3 -1,4zm-1 -10c-9,3 -5,20 5,16 8,-3 5,-19 -5,-16z"/>
   <path class="fil2" d="M656 520c3,1 5,0 3,5 -4,-1 -4,-1 -3,-5zm-1 -6c-9,5 -4,21 5,17 9,-4 4,-22 -5,-17z"/>
   <path class="fil2" d="M637 235c-2,-1 -4,0 -1,-4 4,1 3,1 1,4zm-2 -10c-10,5 -5,20 4,16 9,-3 4,-20 -4,-16z"/>
   <path class="fil2" d="M664 282c-3,0 -9,2 -11,4 4,2 30,1 36,1l0 -7c-8,0 -15,3 -25,2z"/>
   <path class="fil2" d="M662 572c-3,0 -4,0 -6,1 -4,2 -3,0 -4,3l35 0 0 -8c-4,1 -8,2 -12,3 -5,0 -9,0 -13,1z"/>
   <path class="fil2" d="M106 286c-2,-2 -7,-4 -10,-4 -11,0 -15,-1 -25,-3l0 7 35 0z"/>
   <path class="fil2" d="M71 577l35 0c-1,-3 0,-2 -5,-3 -2,-1 -3,-1 -5,-2 -9,0 -16,0 -25,-2l0 7z"/>
   <path class="fil2" d="M361 666c-2,5 -2,2 -4,1 1,-1 0,-3 4,-1zm-4 -5c-9,3 -4,15 5,12 8,-2 4,-16 -5,-12z"/>
   <path class="fil2" d="M337 666c0,5 -3,3 -3,0l3 0zm-3 -5c-10,3 -5,16 5,12 8,-3 3,-15 -5,-12z"/>
   <path class="fil2" d="M378 126c-1,3 -2,4 -4,0 4,-2 2,-1 4,0zm-4 -6c-10,5 -3,16 5,13 9,-4 3,-17 -5,-13z"/>
   <path class="fil2" d="M402 126c-2,3 -1,3 -4,1 2,-2 -2,0 1,-2 4,-1 1,0 3,1zm-5 -6c-7,3 -4,16 5,13 9,-3 5,-16 -5,-13z"/>
   <path class="fil2" d="M343 155l-7 -4c-3,0 -2,0 -4,2 3,2 6,2 11,2z"/>
   <path class="fil2" d="M393 695l11 -1c-2,-2 -2,-2 -5,-4l-6 5z"/>
   <path class="fil3" d="M356 81c3,-2 10,-1 14,-1 1,4 1,4 0,8 -4,0 -11,1 -14,-1l0 -6zm-4 -10l17 0 5 1 0 6 -22 0 0 -7zm-1 -4c-4,4 -11,2 -24,17 -5,5 -8,13 -10,20 -1,6 -1,5 2,9 -3,5 -3,7 1,17 2,5 8,12 9,15 11,-7 -3,-18 -3,-28 0,-11 8,-21 18,-23 9,-3 11,1 16,0 6,0 8,-3 18,-2 11,2 19,9 20,20 12,1 17,7 16,18 3,-2 2,-7 2,-11 0,-3 -1,-4 0,-6 0,-3 1,0 0,-5 -1,-13 -9,-26 -21,-34 -11,-8 -16,-5 -19,-9 -3,3 0,3 -4,5l-5 0 0 -5c-4,0 -5,1 -8,-1l0 6 -6 0 -2 -3z"/>
   <path class="fil3" d="M370 621l5 0 5 0 0 7 -4 0 -7 0 -4 0 0 -7 5 0zm-9 -9l23 0 -1 7 -21 0 -1 -7zm-39 48c7,-4 4,-6 15,-7 2,-11 10,-19 21,-21 9,-1 12,3 17,3 7,0 9,-3 18,0 10,3 17,12 16,23 0,11 -15,20 -1,28 -2,-4 0,-2 4,-9 2,-3 5,-8 5,-11 1,-10 2,-5 2,-12 -1,-22 -13,-39 -34,-46l0 -1c-4,3 1,3 -9,3l0 -4c-5,2 1,1 -3,3 -2,0 -3,0 -4,0 -3,2 -3,1 -7,1 -2,-3 0,-2 -3,-5l0 2c-9,2 -15,4 -22,10 -5,4 -2,2 -3,6 -4,1 0,0 -5,0 -2,5 -5,8 -7,14 -2,7 -3,12 -3,19l3 4z"/>
   <path class="fil3" d="M336 151l7 4c7,-1 12,-7 13,-14 2,-13 -8,-12 -6,-19 5,-3 6,-1 11,0 5,-4 5,-8 13,-10 8,-1 12,5 15,5 4,-9 -6,-18 -16,-18 -6,0 -9,4 -13,4 -6,-1 -7,-4 -16,-1 -9,3 -13,14 -7,23 8,12 5,15 -1,26z"/>
   <path class="fil3" d="M393 695l6 -5c-5,-10 -9,-13 -1,-25 5,-8 3,-19 -6,-22 -7,-3 -9,-1 -15,0 -6,2 -7,-3 -15,-3 -9,0 -21,11 -15,17 2,1 -1,2 2,0 12,-8 22,-3 24,6 5,-1 8,-3 12,-1 3,7 -7,8 -5,20 1,8 6,12 13,13z"/>
   <path class="fil3" d="M369 701l13 -1c-8,-8 -12,-11 -11,-24 -10,8 -13,6 -23,1l-3 10 8 0 0 7 17 0 -1 7z"/>
   <path class="fil3" d="M353 160c4,-2 10,0 14,0l-2 -6 17 -1 1 -7 8 0 -4 -9c-8,6 -15,5 -23,-2 1,19 -7,19 -11,25z"/>
   <path class="fil3" d="M334 687c2,-2 2,-3 4,-5l-11 -3 7 8z"/>
   <path class="fil3" d="M403 147c-1,-3 0,-3 0,-7l-5 1c1,4 2,5 5,6z"/>
   <path class="fil4" d="M382 700l5 2 0 9 -27 0c4,-5 5,-4 9,-10l1 -7 -17 0 0 -7 -8 0 3 -10c10,5 13,7 23,-1 -1,13 3,16 11,24zm-25 -39c9,-4 13,10 5,12 -9,3 -14,-9 -5,-12zm-23 0c8,-3 13,9 5,12 -10,4 -15,-9 -5,-12zm65 29c3,2 3,2 5,4l-11 1c-7,-1 -12,-5 -13,-13 -2,-12 8,-13 5,-20 -4,-2 -7,0 -12,1 -2,-9 -12,-14 -24,-6 -3,2 0,1 -2,0 -6,-6 6,-17 15,-17 8,0 9,5 15,3 6,-1 8,-3 15,0 9,3 11,14 6,22 -8,12 -4,15 1,25zm-77 -30c0,4 -2,7 -1,11 2,5 5,6 6,8l11 3c-2,2 -2,3 -4,5 -2,4 -2,2 -2,7l12 0 1 8 12 0c-6,3 -5,3 -12,4l0 12 50 0 0 -14c8,-1 22,-5 21,-15l-8 -3c-14,-8 1,-17 1,-28 1,-11 -6,-20 -16,-23 -9,-3 -11,0 -18,0 -5,0 -8,-4 -17,-3 -11,2 -19,10 -21,21 -11,1 -8,3 -15,7z"/>
   <path class="fil4" d="M367 160c3,7 6,6 8,10l-26 0 0 -9 4 -1c4,-6 12,-6 11,-25 8,7 15,8 23,2l4 9 -8 0 -1 7 -17 1 2 6zm7 -40c8,-4 14,9 5,13 -8,3 -15,-8 -5,-13zm23 0c10,-3 14,10 5,13 -9,3 -12,-10 -5,-13zm-54 35c-5,0 -8,0 -11,-2 2,-2 1,-2 4,-2 6,-11 9,-14 1,-26 -6,-9 -2,-20 7,-23 9,-3 10,0 16,1 4,0 7,-4 13,-4 10,0 20,9 16,18 -3,0 -7,-6 -15,-5 -8,2 -8,6 -13,10 -5,-1 -6,-3 -11,0 -2,7 8,6 6,19 -1,7 -6,13 -13,14zm-14 -10c-3,2 -19,4 -3,14 6,4 11,3 15,5l0 13 50 1 0 -13c-5,-1 -9,0 -13,-4l13 0 0 -7 12 0 0 -7c-3,-1 -4,-2 -5,-6l5 -1c5,-1 9,-5 11,-10 1,-11 -4,-17 -16,-18 -1,-11 -9,-18 -20,-20 -10,-1 -12,2 -18,2 -5,1 -7,-3 -16,0 -10,2 -18,12 -18,23 0,10 14,21 3,28z"/>
   <path class="fil4" d="M687 568l0 8 -35 0c1,-3 0,-1 4,-3 2,-1 3,-1 6,-1 3,-5 8,-4 10,-19l-20 0 0 -8 -13 0c0,-5 3,-7 7,-9 6,3 10,7 18,3 5,-3 7,-9 9,-15l14 0 0 44zm-32 -54c9,-5 14,13 5,17 -9,4 -14,-12 -5,-17zm-23 0c9,-5 15,13 6,17 -9,4 -14,-11 -6,-17zm34 -8c8,-1 12,-1 21,-1l0 11 -16 0c-2,-6 -3,-6 -5,-10zm-21 79l50 -1 0 -19 0 -41 9 0 0 -8 -9 0 -1 -20c-24,0 -29,-1 -48,13 -5,-2 -7,-7 -15,-4 -4,1 -8,6 -9,10 -4,10 0,23 10,25l0 13 13 0 0 8 16 0c-4,5 -10,4 -16,5l0 19z"/>
   <path class="fil4" d="M96 572c2,1 3,1 5,2 5,1 4,0 5,3l-35 0c-2,-4 -1,-21 -1,-26 0,-8 0,-18 1,-26l14 0c2,6 3,12 9,15 8,4 12,0 18,-4 4,3 7,4 6,10l-12 0 0 8 -20 0c1,9 3,12 10,18zm24 -57c9,-5 14,13 6,17 -10,4 -14,-12 -6,-17zm-23 0c10,-5 15,13 6,17 -9,4 -14,-12 -6,-17zm-26 -9c7,-1 14,0 21,1 -2,4 -3,4 -5,10l-17 -1 1 -10zm-7 60l0 19 49 0 0 -18c-5,0 -12,-1 -16,-5l16 0 0 -8 13 0 -1 -13c18,-4 15,-32 1,-35 -8,-3 -9,1 -14,4 -8,-5 -10,-9 -20,-11 -7,-3 -20,-2 -28,-2l-1 20 -9 0 0 8 10 0 0 41z"/>
   <path class="fil4" d="M689 280l0 7c-6,0 -32,1 -36,-1 2,-2 8,-4 11,-4 6,-7 8,-7 10,-19l-20 0 -1 -7 -12 0c0,-9 2,-3 6,-10 6,2 8,9 18,4 7,-3 7,-9 9,-15l15 0 0 45zm-32 -55c9,-4 13,13 5,16 -10,4 -15,-11 -5,-16zm-22 0c8,-4 13,13 4,16 -9,4 -14,-11 -4,-16zm54 -9l-1 11 -14 -1 -7 -8c5,-4 16,-3 22,-2zm-43 63l0 16 49 0 1 -60 9 0 0 -8 -9 -1 0 -19c-9,0 -22,-1 -30,2 -9,3 -12,7 -19,11 -8,-8 -20,-6 -24,5 -6,16 5,22 11,27l-1 12 13 0 1 8 15 0c-5,7 -15,2 -16,7z"/>
   <path class="fil4" d="M96 282c3,0 8,2 10,4 -2,2 1,1 -4,2l-32 -1c-1,-4 0,-49 1,-52l12 0c3,0 1,0 2,1 2,7 3,11 10,14 8,4 11,0 17,-4 5,5 6,2 7,10l-13 0 0 7 -20 0c0,11 6,13 10,19zm25 -57c9,-3 12,13 4,16 -10,4 -14,-13 -4,-16zm-23 0c10,-3 13,13 5,16 -10,4 -14,-13 -5,-16zm-28 -9c7,-1 16,0 22,1l-6 10 -15 -1 -1 -10zm-6 60l0 19 48 0 1 -18c-6,0 -12,-1 -16,-5l16 0 0 -8 13 0 -1 -12c4,-3 9,-5 11,-10 7,-16 -7,-37 -24,-22 -8,-5 -10,-8 -19,-11 -8,-3 -21,-2 -29,-2l-1 20 -9 0 0 8 10 0 0 41z"/>
   <path class="fil4" d="M654 172c-3,16 -19,28 -35,24 -17,-4 -26,-23 -22,-39 9,-40 66,-27 57,15zm-46 28c11,4 17,7 29,2 8,-2 15,-9 19,-16l2 5 5 0c3,-9 1,-8 -4,-10 3,-9 3,-13 2,-22 -4,-28 -34,-46 -58,-26 -15,13 -19,37 -8,54 5,8 7,8 13,13z"/>
   <path class="fil4" d="M106 458c-2,-16 8,-33 25,-35 18,-2 32,11 33,29 3,42 -54,48 -58,6zm-8 -2c1,7 2,10 4,17 -4,-4 -8,1 -7,5 1,2 3,4 5,3 3,-1 2,-3 4,-5 3,6 11,13 18,16 11,5 19,2 29,-1 3,-4 18,-10 20,-32 1,-14 -4,-29 -16,-37 -25,-19 -58,3 -57,34z"/>
   <path class="fil4" d="M164 170c-7,43 -65,31 -58,-11 7,-43 65,-29 58,11zm-66 -4c1,7 2,9 4,16 -3,-1 -3,-1 -6,0 -2,5 -2,5 1,9 5,0 4,-2 7,-5 9,18 29,23 48,14 11,-9 18,-17 19,-32 1,-15 -5,-28 -16,-36 -26,-20 -57,4 -57,34z"/>
   <path class="fil4" d="M616 423c39,-12 52,51 16,62 -37,11 -53,-51 -16,-62zm-9 67c31,11 37,-4 48,-14 4,11 13,-1 5,-5 -2,-2 0,0 -2,-2 1,-5 2,-8 2,-14 1,-30 -30,-53 -56,-34 -11,8 -17,21 -16,35 1,22 14,27 19,34z"/>
   <path class="fil4" d="M130 463c-4,-6 1,-18 7,-15 4,2 3,17 -7,15zm20 7c-5,6 -21,4 -27,-1 -6,-6 -6,-18 -1,-25 6,-6 18,-9 25,-3 8,6 7,20 -3,22l3 -19c-4,0 -6,1 -7,1 -2,0 -2,-2 -6,-2 -16,1 -15,34 3,22 5,7 12,-1 16,-4 15,-26 -26,-39 -37,-14 -5,11 -1,24 10,28 9,4 27,3 31,-8 -5,0 -4,0 -7,3z"/>
   <path class="fil4" d="M618 464c-5,-6 0,-18 7,-15 4,2 3,17 -7,15zm18 7c-5,5 -21,4 -26,-2 -6,-6 -5,-19 1,-25 6,-6 18,-8 25,-1 6,7 5,19 -5,21l3 -19c-7,0 -4,1 -7,1 0,0 -10,-6 -15,6 -5,10 2,21 13,14 2,4 8,3 12,0 3,-2 4,-7 7,-9 -1,-13 -4,-22 -19,-22 -11,-1 -20,5 -22,16 -8,30 35,34 41,17 -7,0 -3,1 -8,3z"/>
   <path class="fil4" d="M129 175c-4,-6 1,-18 7,-15 4,2 3,17 -7,15zm27 5c-9,-1 -14,10 -30,3 -9,-4 -11,-16 -6,-25 4,-7 18,-11 26,-5 8,6 7,20 -4,22l4 -19c-7,0 -5,1 -7,1 -3,0 -2,-2 -7,-2 -4,1 -8,5 -9,8 -4,11 2,21 13,14 3,4 9,3 12,0 4,-2 5,-6 7,-9 -1,-12 -3,-21 -18,-22 -11,0 -20,5 -23,17 -7,28 31,35 42,17z"/>
   <path class="fil4" d="M618 173c-5,-6 0,-18 7,-15 4,2 3,17 -7,15zm26 5l-3 -1c-21,16 -45,-1 -32,-21 5,-7 18,-11 25,-5 8,6 7,20 -3,22l4 -19c-4,0 -7,1 -7,1 -2,0 -2,-2 -7,-1 -15,0 -14,33 4,21 4,6 20,1 18,-17 -5,-21 -39,-17 -41,6 -3,27 32,30 42,14z"/>
   <path class="fil4" d="M351 67l2 3 6 0 0 -6c-3,-4 -7,-8 -7,-14 1,-13 23,-12 22,2 0,6 -4,7 -7,13l0 5 5 0c4,-2 1,-2 4,-5 5,-7 9,-12 4,-21 -3,-7 -10,-11 -18,-10 -7,0 -14,5 -16,11 -5,12 4,16 5,22z"/>
   <path class="fil4" d="M359 605c3,3 1,2 3,5 4,0 4,1 7,-1 -1,-9 -7,-9 -8,-16 -1,-14 22,-16 23,-1 0,6 -5,8 -8,14l0 4c10,0 5,0 9,-3 2,-7 9,-9 5,-21 -5,-14 -28,-16 -35,-1 -5,11 2,15 4,20z"/>
   <polygon class="fil4" points="362,619 383,619 384,612 361,612 "/>
   <polygon class="fil4" points="352,78 374,78 374,72 369,71 352,71 "/>
   <path class="fil4" d="M346 36c2,-6 -1,-6 -4,-9 -3,-3 -8,-8 -10,-3 -2,4 3,7 5,8 3,3 4,6 9,4z"/>
   <path class="fil4" d="M360 29c10,5 7,-14 6,-15 -2,-3 -6,-2 -7,3 0,4 0,9 1,12z"/>
   <path class="fil4" d="M391 578c5,-1 20,-14 10,-15 -3,-1 -7,4 -9,6 -3,3 -5,5 -1,9z"/>
   <path class="fil4" d="M369 570c11,6 7,-14 6,-16 -2,-3 -6,-1 -6,3 -1,3 -1,10 0,13z"/>
   <path class="fil4" d="M397 589c-10,7 12,7 15,5 4,-2 1,-6 -3,-6 -3,0 -10,-1 -12,1z"/>
   <path class="fil4" d="M341 564c-3,4 1,6 4,9 2,2 6,7 9,4 4,-4 -1,-7 -4,-10 -2,-2 -5,-6 -9,-3z"/>
   <path class="fil4" d="M322 48c-1,6 1,6 6,6 5,1 8,1 12,-1 1,-5 0,-6 -5,-6 -3,0 -11,0 -13,1z"/>
   <path class="fil4" d="M331 594c4,2 24,3 18,-5 -1,0 -21,-5 -18,5z"/>
   <path class="fil4" d="M404 48c-16,-5 -31,7 -6,6 6,0 8,0 6,-6z"/>
   <path class="fil4" d="M380 34c4,5 6,3 11,-2 3,-4 6,-5 3,-9 -4,-2 -5,1 -8,4 -3,2 -5,3 -6,7z"/>
   <polygon class="fil4" points="365,628 369,628 376,628 380,628 380,621 375,621 370,621 365,621 "/>
   <polygon class="fil4" points="369,602 376,602 376,588 369,588 "/>
   <polygon class="fil4" points="359,61 367,61 367,48 360,48 "/>
   <polygon class="fil4" points="356,87 370,87 370,81 356,81 "/>
   <path class="fil4" d="M663 490l4 0 1 -5c-5,-3 -6,0 -5,5z"/>
   <path class="fil4" d="M91 201l4 0c1,-3 1,-3 0,-6 -5,-1 -6,2 -4,6z"/>
   <path class="fil4" d="M91 485c-1,4 -1,3 0,6l4 0c2,-6 -2,-7 -4,-6z"/>
   <path class="fil4" d="M668 200c2,-3 2,-2 0,-5 -6,-2 -6,8 0,5z"/>
   <path class="fil4" d="M659 525c2,-5 0,-4 -3,-5 -1,4 -1,4 3,5z"/>
   <path class="fil4" d="M636 525c2,-4 1,-4 -2,-5 -1,4 -1,4 2,5z"/>
   <path class="fil4" d="M99 526c3,-1 4,-1 2,-5 -3,1 -4,1 -2,5z"/>
   <path class="fil4" d="M124 235c1,-3 1,-3 -2,-4 -3,4 -2,4 2,4z"/>
   <path class="fil4" d="M637 235c2,-3 3,-3 -1,-4 -3,4 -1,3 1,4z"/>
   <path class="fil4" d="M122 526c3,-1 4,-3 1,-5 -3,2 -3,1 -1,5z"/>
   <path class="fil4" d="M99 235c5,-1 4,-3 1,-4 -2,3 -2,2 -1,4z"/>
   <path class="fil4" d="M660 235l0 -4c-4,0 -5,4 0,4z"/>
   <path class="fil4" d="M357 667c2,1 2,4 4,-1 -4,-2 -3,0 -4,1z"/>
   <path class="fil4" d="M374 126c2,4 3,3 4,0 -2,-1 0,-2 -4,0z"/>
   <path class="fil4" d="M398 127c3,2 2,2 4,-1 -2,-1 1,-2 -3,-1 -3,2 1,0 -1,2z"/>
   <path class="fil4" d="M334 666c0,3 3,5 3,0l-3 0z"/>
   <path class="fil5" d="M91 485c2,-1 6,0 4,6l-4 0c-1,-3 -1,-2 0,-6zm-65 23l0 13c1,3 2,10 4,15 2,4 6,9 9,13 5,6 15,15 25,17l0 -41 -10 0 0 -8 9 0 1 -20c8,0 21,-1 28,2 10,2 12,6 20,11 5,-3 6,-7 14,-4 14,3 17,31 -1,35l1 13 -13 0 0 8 -16 0c4,4 11,5 16,5l0 18c2,-4 0,-11 1,-17 29,-10 48,-35 41,-66 -1,-3 -4,-8 -4,-11 -10,3 -18,6 -29,1 -7,-3 -15,-10 -18,-16 -2,2 -1,4 -4,5 -2,1 -4,-1 -5,-3 -1,-4 3,-9 7,-5 -2,-7 -3,-10 -4,-17 -5,2 -12,-1 -27,3 -15,4 -28,13 -37,26 -7,12 -6,18 -8,23z"/>
   <path class="fil5" d="M91 201c-2,-4 -1,-7 4,-6 1,3 1,3 0,6l-4 0zm-65 17l0 13c1,3 2,10 4,15 3,5 6,9 9,13 6,7 15,14 25,17l0 -41 -10 0 0 -8 9 0 1 -20c8,0 21,-1 29,2 9,3 11,6 19,11 17,-15 31,6 24,22 -2,5 -7,7 -11,10l1 12 -13 0 0 8 -16 0c4,4 10,5 16,5l-1 18c3,-1 2,-13 2,-17 11,-3 30,-17 35,-27 7,-11 9,-26 6,-38 -1,-4 -3,-9 -3,-13 -19,9 -39,4 -48,-14 -3,3 -2,5 -7,5 -3,-4 -3,-4 -1,-9 3,-1 3,-1 6,0 -2,-7 -3,-9 -4,-16 -11,3 -42,-3 -64,29 -7,12 -6,17 -8,23z"/>
   <path class="fil5" d="M668 200c-6,3 -6,-7 0,-5 2,3 2,2 0,5zm-60 0c-1,3 -1,3 -2,5 -1,3 -4,16 -3,21 1,14 5,24 15,34 12,12 11,10 28,19 1,-5 11,0 16,-7l-15 0 -1 -8 -13 0 1 -12c-6,-5 -17,-11 -11,-27 4,-11 16,-13 24,-5 7,-4 10,-8 19,-11 8,-3 21,-2 30,-2l0 19 9 1 0 8 -9 0 -1 60c3,-3 1,-13 1,-17 2,-3 13,-8 16,-11 45,-35 16,-104 -49,-101 0,-3 0,-3 -2,-7 1,9 1,13 -2,22 5,2 7,1 4,10l-5 0 -2 -5c-4,7 -11,14 -19,16 -12,5 -18,2 -29,-2z"/>
   <path class="fil5" d="M663 490c-1,-5 0,-8 5,-5l-1 5 -4 0zm-56 0c0,4 -6,14 -5,26 1,15 5,22 13,33 6,8 20,15 29,18 0,4 0,6 0,9l0 6c1,2 0,1 1,3l0 -19c6,-1 12,0 16,-5l-16 0 0 -8 -13 0 0 -13c-10,-2 -14,-15 -10,-25 1,-4 5,-9 9,-10 8,-3 10,2 15,4 19,-14 24,-13 48,-13l1 20 9 0 0 8 -9 0 0 41c24,-7 45,-38 34,-69 -6,-19 -24,-33 -43,-38 -10,-3 -18,-1 -26,-3 0,6 -1,9 -2,14 2,2 0,0 2,2 8,4 -1,16 -5,5 -11,10 -17,25 -48,14z"/>
   <path class="fil5" d="M71 577l0 -7c9,2 16,2 25,2 -7,-6 -9,-9 -10,-18l20 0 0 -8 12 0c1,-6 -2,-7 -6,-10 -6,4 -10,8 -18,4 -6,-3 -7,-9 -9,-15l-14 0c-1,8 -1,18 -1,26 0,5 -1,22 1,26z"/>
   <path class="fil5" d="M664 282c10,1 17,-2 25,-2l0 -45 -15 0c-2,6 -2,12 -9,15 -10,5 -12,-2 -18,-4 -4,7 -6,1 -6,10l12 0 1 7 20 0c-2,12 -4,12 -10,19z"/>
   <path class="fil5" d="M662 572c4,-1 8,-1 13,-1 4,-1 8,-2 12,-3l0 -44 -14 0c-2,6 -4,12 -9,15 -8,4 -12,0 -18,-3 -4,2 -7,4 -7,9l13 0 0 8 20 0c-2,15 -7,14 -10,19z"/>
   <path class="fil5" d="M71 279c10,2 14,3 25,3 -4,-6 -10,-8 -10,-19l20 0 0 -7 13 0c-1,-8 -2,-5 -7,-10 -6,4 -9,8 -17,4 -7,-3 -8,-7 -10,-14l-14 0 0 43z"/>
   <path class="fil5" d="M644 178c0,-1 3,-1 -2,-1 2,-6 6,-13 1,-19 2,18 -14,23 -18,17 -18,12 -19,-21 -4,-21 5,-1 5,1 7,1 0,0 3,-1 7,-1l-4 19c10,-2 11,-16 3,-22 -7,-6 -20,-2 -25,5 -13,20 11,37 32,21l3 1z"/>
   <path class="fil5" d="M156 180c-2,-2 0,-1 -4,-1l3 -11c-2,3 -3,7 -7,9 -3,3 -9,4 -12,0 -11,7 -17,-3 -13,-14 1,-3 5,-7 9,-8 5,0 4,2 7,2 2,0 0,-1 7,-1l-4 19c11,-2 12,-16 4,-22 -8,-6 -22,-2 -26,5 -5,9 -3,21 6,25 16,7 21,-4 30,-3z"/>
   <path class="fil5" d="M636 471c-2,-2 -2,0 2,-3 2,-1 1,0 2,-3 2,-2 3,-5 4,-8 -3,2 -4,7 -7,9 -4,3 -10,4 -12,0 -11,7 -18,-4 -13,-14 5,-12 15,-6 15,-6 3,0 0,-1 7,-1l-3 19c10,-2 11,-14 5,-21 -7,-7 -19,-5 -25,1 -6,6 -7,19 -1,25 5,6 21,7 26,2z"/>
   <path class="fil5" d="M150 470l3 -9c-4,3 -11,11 -16,4 -18,12 -19,-21 -3,-22 4,0 4,2 6,2 1,0 3,-1 7,-1l-3 19c10,-2 11,-16 3,-22 -7,-6 -19,-3 -25,3 -5,7 -5,19 1,25 6,5 22,7 27,1z"/>
   <path class="fil5" d="M667 218l7 8 14 1 1 -11c-6,-1 -17,-2 -22,2z"/>
   <path class="fil5" d="M666 506c2,4 3,4 5,10l16 0 0 -11c-9,0 -13,0 -21,1z"/>
   <path class="fil5" d="M70 516l17 1c2,-6 3,-6 5,-10 -7,-1 -14,-2 -21,-1l-1 10z"/>
   <path class="fil5" d="M71 226l15 1 6 -10c-6,-1 -15,-2 -22,-1l1 10z"/>
   <path class="fil5" d="M129 175c10,2 11,-13 7,-15 -6,-3 -11,9 -7,15z"/>
   <path class="fil5" d="M618 173c10,2 11,-13 7,-15 -7,-3 -12,9 -7,15z"/>
   <path class="fil5" d="M618 464c10,2 11,-13 7,-15 -7,-3 -12,9 -7,15z"/>
   <path class="fil5" d="M130 463c10,2 11,-13 7,-15 -6,-3 -11,9 -7,15z"/>
   <ellipse class="fil6" cx="376" cy="365" rx="172" ry="80"/>
   <path class="fil7" d="M262 393l30 0c3,0 5,0 6,2 2,1 3,2 3,4 0,2 -1,4 -2,5 -1,1 -3,2 -6,2l-42 0c-2,0 -5,-1 -6,-2 -2,-2 -3,-4 -3,-6 0,-1 1,-3 2,-5 1,-2 2,-4 3,-6 5,-5 10,-9 14,-13 4,-4 7,-6 9,-7 3,-3 5,-5 7,-7 2,-2 4,-5 5,-7 1,-2 2,-5 2,-7 0,-2 -1,-4 -2,-6 -1,-2 -3,-4 -5,-5 -2,-1 -4,-1 -6,-1 -5,0 -9,2 -12,6 0,1 -1,2 -2,5 -1,2 -2,4 -3,6 -1,1 -3,2 -5,2 -2,0 -3,-1 -5,-2 -1,-1 -1,-3 -1,-5 0,-3 0,-6 1,-8 2,-3 3,-6 6,-8 2,-2 5,-4 8,-6 4,-1 8,-2 13,-2 6,0 11,1 15,3 3,1 5,3 7,5 2,2 4,4 5,7 1,3 1,6 1,9 0,5 -1,9 -3,13 -2,4 -5,7 -7,9 -3,2 -7,5 -12,10 -6,5 -10,8 -12,11 -1,1 -2,2 -3,4z"/>
   <path id="1" class="fil7" d="M369 365c0,6 0,12 -1,16 -1,5 -2,9 -4,12 -3,5 -6,8 -10,11 -4,2 -9,3 -14,3 -6,0 -11,-1 -16,-5 -4,-3 -8,-7 -10,-13 -1,-3 -2,-7 -2,-11 -1,-3 -1,-7 -1,-12 0,-6 0,-11 1,-15 0,-5 1,-9 2,-12 3,-6 6,-10 10,-13 5,-3 10,-4 16,-4 3,0 7,1 10,2 3,1 6,3 9,5 2,3 4,6 6,10 3,6 4,15 4,26zm-16 -1c0,-7 0,-13 -1,-17 -1,-4 -2,-8 -4,-10 -2,-2 -5,-3 -8,-3 -5,0 -9,2 -11,7 -2,5 -3,13 -3,23 0,8 1,13 2,18 0,5 2,8 4,10 2,3 4,4 8,4 3,0 6,-1 8,-4 2,-2 3,-6 4,-10 1,-5 1,-11 1,-18z"/>
   <path id="2" class="fil7" d="M407 398l0 -52c-9,8 -16,12 -19,12 -2,0 -3,-1 -4,-2 -2,-2 -2,-3 -2,-5 0,-2 0,-3 2,-4 1,-1 3,-2 6,-4 5,-2 8,-4 11,-6 3,-3 5,-5 7,-8 3,-3 4,-5 5,-6 0,-1 2,-1 3,-1 2,0 4,1 5,2 1,2 2,4 2,7l0 65c0,8 -3,11 -8,11 -2,0 -4,0 -5,-2 -2,-1 -3,-4 -3,-7z"/>
   <path id="3" class="fil7" d="M491 369c-2,3 -5,5 -8,6 -3,2 -7,3 -10,3 -4,0 -7,-1 -10,-2 -3,-2 -6,-4 -8,-6 -3,-3 -4,-6 -6,-9 -1,-3 -1,-7 -1,-10 0,-4 0,-8 2,-12 1,-3 3,-6 6,-9 2,-2 5,-4 9,-6 3,-1 7,-2 11,-2 5,0 10,1 13,3 4,2 7,4 10,8 3,3 5,7 6,12 2,6 2,11 2,18 0,7 -1,14 -2,19 -1,6 -4,10 -6,14 -3,4 -7,7 -11,9 -4,1 -8,2 -13,2 -5,0 -9,-1 -13,-2 -4,-2 -6,-5 -8,-7 -2,-3 -3,-6 -3,-8 0,-2 0,-3 2,-5 1,-1 2,-2 4,-2 2,0 3,1 5,2 1,1 2,2 3,4 1,2 2,4 4,5 2,2 4,3 6,3 3,0 5,-1 7,-2 1,-1 3,-3 4,-5 3,-4 5,-11 5,-21zm-1 -18c0,-2 0,-5 -1,-7 -1,-2 -2,-4 -3,-6 -1,-1 -3,-2 -4,-3 -2,-1 -4,-2 -6,-2 -4,0 -7,2 -9,5 -3,3 -4,7 -4,12 0,5 1,9 4,12 2,3 5,5 9,5 2,0 5,-1 7,-2 2,-1 4,-3 5,-5 1,-3 2,-6 2,-9z"/>
  </g>
  <g id="_1697130127936">
   <path class="fil8" d="M1088 128c3,-4 7,-7 10,-8 4,-2 8,-3 13,-3 4,0 8,1 12,2 4,2 7,4 10,7 3,3 5,7 6,11 2,4 2,8 2,13 0,6 -1,12 -4,18 -3,5 -7,9 -12,12 -6,3 -12,4 -19,4 -7,0 -14,-1 -20,-5 -5,-4 -9,-10 -12,-17 -3,-7 -5,-16 -5,-27 0,-9 1,-17 3,-24 2,-6 4,-12 8,-17 3,-4 7,-8 12,-10 5,-2 10,-3 16,-3 6,0 11,1 16,3 4,2 8,5 10,9 2,3 3,6 3,10 0,1 0,3 -2,5 -1,1 -3,2 -5,2 -2,0 -4,-1 -6,-2 -1,-1 -3,-3 -3,-5 -1,-3 -3,-5 -5,-7 -3,-1 -5,-2 -8,-2 -3,0 -5,1 -8,2 -2,1 -4,3 -6,6 -3,5 -5,13 -6,26zm19 43c5,0 8,-2 11,-6 4,-4 5,-9 5,-15 0,-4 -1,-8 -2,-11 -2,-3 -3,-5 -6,-7 -2,-1 -5,-2 -8,-2 -3,0 -6,1 -8,2 -3,2 -5,4 -7,7 -1,3 -2,6 -2,10 0,6 1,11 5,16 3,4 7,6 12,6z"/>
   <path id="1" class="fil8" d="M1307 80c11,0 20,2 28,6 7,4 13,10 17,18 4,8 5,17 5,28 0,8 -1,15 -3,21 -2,7 -5,12 -9,17 -5,5 -10,8 -16,11 -6,2 -13,3 -21,3 -8,0 -15,-1 -21,-3 -7,-3 -12,-7 -16,-11 -4,-5 -7,-11 -10,-17 -2,-7 -3,-14 -3,-21 0,-8 1,-15 3,-22 3,-6 6,-12 10,-16 4,-5 10,-8 16,-11 6,-2 13,-3 20,-3zm30 52c0,-8 -2,-14 -4,-20 -2,-5 -6,-9 -10,-12 -5,-3 -10,-4 -16,-4 -4,0 -7,1 -11,2 -3,2 -6,4 -9,7 -2,3 -4,7 -6,11 -1,5 -2,10 -2,16 0,5 1,11 2,15 2,5 4,9 6,12 3,3 6,5 9,7 4,1 8,2 12,2 5,0 10,-1 14,-4 5,-2 8,-7 11,-12 2,-5 4,-12 4,-20z"/>
   <path id="2" class="fil8" d="M1410 167l-16 -64 0 70c0,4 -1,7 -3,9 -1,1 -4,2 -7,2 -2,0 -5,-1 -6,-2 -2,-2 -3,-5 -3,-9l0 -80c0,-5 1,-8 4,-9 2,-2 5,-3 9,-3l6 0c4,0 7,1 9,1 1,1 3,2 3,4 1,2 2,5 3,9l15 55 15 -55c1,-4 2,-7 2,-9 1,-2 3,-3 4,-4 2,0 5,-1 9,-1l6 0c4,0 7,1 9,3 3,1 4,4 4,9l0 80c0,4 -1,7 -3,9 -2,1 -4,2 -7,2 -2,0 -5,-1 -6,-2 -2,-2 -3,-5 -3,-9l0 -70 -16 64c-1,5 -2,8 -3,10 -1,2 -2,3 -4,5 -1,2 -4,2 -7,2 -2,0 -5,0 -6,-1 -2,-1 -3,-3 -4,-4 -1,-2 -2,-4 -2,-5 -1,-2 -1,-4 -2,-7z"/>
   <path id="3" class="fil8" d="M1522 92l39 60 0 -61c0,-4 1,-7 3,-8 1,-2 4,-3 6,-3 3,0 6,1 7,3 2,1 3,4 3,8l0 80c0,9 -4,13 -11,13 -2,0 -4,0 -5,0 -2,-1 -3,-2 -4,-3 -2,-1 -3,-2 -4,-4 -1,-1 -2,-3 -3,-5l-39 -59 0 60c0,4 -1,6 -2,8 -2,2 -4,3 -7,3 -3,0 -6,-1 -7,-3 -2,-2 -3,-5 -3,-8l0 -79c0,-3 0,-5 1,-7 1,-2 3,-4 5,-5 2,-2 4,-2 6,-2 2,0 4,0 5,0 1,1 2,2 3,3 1,1 2,2 3,4 1,1 3,3 4,5z"/>
   <path id="4" class="fil8" d="M1655 151l-37 0c0,4 1,8 2,11 2,3 4,6 7,7 3,2 6,3 9,3 3,0 5,0 6,-1 2,0 4,-1 6,-2 2,-1 3,-3 5,-4 1,-1 3,-3 6,-5 0,-1 2,-1 4,-1 2,0 3,0 4,1 2,1 2,3 2,5 0,1 -1,3 -2,6 -1,2 -3,4 -6,6 -3,2 -6,4 -10,5 -4,2 -9,2 -14,2 -12,0 -22,-3 -28,-10 -7,-7 -10,-16 -10,-28 0,-6 0,-11 2,-16 2,-4 4,-9 7,-12 3,-3 7,-6 12,-8 5,-2 10,-3 15,-3 8,0 14,2 19,5 6,3 10,7 12,12 3,5 4,10 4,15 0,5 -1,8 -4,10 -3,1 -6,2 -11,2zm-37 -11l34 0c0,-7 -2,-11 -5,-15 -3,-3 -7,-4 -12,-4 -5,0 -9,1 -12,5 -3,3 -5,8 -5,14z"/>
   <path id="5" class="fil8" d="M1754 98l-22 0 0 74c0,4 -1,7 -3,9 -2,2 -4,3 -7,3 -3,0 -6,-1 -8,-3 -2,-2 -3,-5 -3,-9l0 -74 -22 0c-4,0 -6,-1 -8,-2 -2,-2 -2,-4 -2,-6 0,-3 0,-5 2,-6 2,-2 5,-3 8,-3l65 0c4,0 6,1 8,3 2,1 3,3 3,6 0,2 -1,4 -3,6 -2,1 -4,2 -8,2z"/>
   <polygon id="6" class="fil8" points="1817,168 1799,168 1799,142 1773,142 1773,124 1799,124 1799,97 1817,97 1817,124 1844,124 1844,142 1817,142 "/>
   <polygon id="7" class="fil8" points="1900,168 1883,168 1883,142 1856,142 1856,124 1883,124 1883,97 1900,97 1900,124 1927,124 1927,142 1900,142 "/>
   <path id="8" class="fil8" d="M1153 75l1 0 0 -5c0,-2 0,-3 0,-4 0,-1 0,-2 1,-2 0,-1 1,-1 1,-2 1,0 2,0 3,0 1,0 2,0 3,1 1,0 1,1 1,2 0,1 0,2 0,4l0 6 4 0c1,0 2,1 3,1 1,1 1,2 1,3 0,1 0,2 -1,2 -1,1 -3,1 -5,1l-2 0 0 17c0,2 1,3 1,4 0,1 0,1 0,2 1,0 2,0 3,0 0,0 1,0 2,0 1,0 2,0 2,0 1,0 2,0 2,1 1,0 1,1 1,2 0,2 -1,3 -2,4 -2,0 -4,1 -8,1 -3,0 -5,-1 -6,-2 -2,-1 -3,-2 -3,-4 -1,-2 -1,-4 -1,-7l0 -18 -1 0c-2,0 -3,0 -3,-1 -1,-1 -1,-1 -1,-2 0,-1 0,-2 1,-3 1,0 2,-1 3,-1z"/>
   <path id="9" class="fil8" d="M1188 66l0 14c1,-1 2,-2 3,-3 1,-1 3,-2 4,-2 1,0 3,-1 4,-1 3,0 5,1 7,2 2,1 3,2 4,4 1,1 1,3 2,4 0,1 0,3 0,5l0 18c0,2 -1,3 -1,4 -1,1 -2,2 -4,2 -3,0 -5,-2 -5,-6l0 -16c0,-3 0,-5 -1,-7 -1,-2 -2,-2 -5,-2 -2,0 -3,0 -5,1 -1,1 -2,2 -3,4 0,1 0,4 0,7l0 13c0,2 -1,3 -2,4 0,1 -2,2 -3,2 -3,0 -5,-2 -5,-6l0 -41c0,-2 1,-3 1,-4 1,-1 2,-2 4,-2 1,0 3,1 3,2 1,1 2,2 2,4z"/>
   <path id="10" class="fil8" d="M924 331c0,3 -1,7 -2,11 -2,3 -4,7 -8,11 -3,3 -7,6 -13,8 -5,3 -11,4 -18,4 -6,0 -11,-1 -15,-2 -4,-1 -8,-2 -12,-4 -3,-3 -7,-5 -10,-9 -2,-3 -5,-7 -7,-11 -1,-4 -3,-8 -4,-12 -1,-5 -1,-9 -1,-15 0,-8 1,-15 3,-21 3,-7 6,-12 11,-17 4,-5 9,-8 15,-10 6,-3 12,-4 19,-4 8,0 16,2 22,5 6,3 11,7 15,12 3,5 5,9 5,14 0,2 -1,4 -3,6 -1,2 -3,3 -6,3 -2,0 -4,-1 -5,-2 -2,-2 -3,-4 -5,-7 -3,-5 -6,-9 -9,-11 -4,-3 -8,-4 -14,-4 -8,0 -15,3 -20,10 -5,6 -7,15 -7,27 0,8 1,15 3,20 2,5 5,9 9,12 4,2 9,3 15,3 6,0 10,-1 15,-4 4,-3 7,-7 9,-13 1,-3 2,-5 3,-6 1,-2 3,-3 6,-3 3,0 5,1 7,3 1,1 2,3 2,6z"/>
   <path id="11" class="fil8" d="M1013 326c0,6 -1,11 -3,16 -1,5 -4,9 -7,12 -4,4 -8,6 -12,8 -5,2 -10,3 -16,3 -6,0 -11,-1 -15,-3 -5,-2 -9,-4 -12,-8 -3,-3 -6,-7 -8,-12 -1,-5 -2,-10 -2,-16 0,-5 1,-11 2,-15 2,-5 5,-9 8,-13 3,-3 7,-5 12,-7 4,-2 10,-3 15,-3 6,0 11,1 16,3 4,2 8,4 12,8 3,3 6,7 7,12 2,5 3,10 3,15zm-19 0c0,-7 -2,-13 -5,-18 -4,-4 -8,-6 -14,-6 -3,0 -7,1 -10,3 -2,2 -5,5 -6,8 -2,4 -2,8 -2,13 0,5 0,10 2,13 1,4 4,7 6,9 3,2 6,3 10,3 6,0 10,-2 14,-7 3,-4 5,-10 5,-18z"/>
   <path id="12" class="fil8" d="M1091 328l0 25c0,4 0,7 -2,9 -2,2 -4,3 -7,3 -3,0 -6,-1 -7,-3 -2,-2 -3,-5 -3,-9l0 -30c0,-5 0,-9 0,-11 -1,-3 -2,-5 -3,-7 -2,-1 -4,-2 -7,-2 -6,0 -10,2 -12,6 -2,4 -3,10 -3,18l0 26c0,4 -1,7 -3,9 -1,2 -4,3 -7,3 -3,0 -5,-1 -7,-3 -2,-2 -2,-5 -2,-9l0 -54c0,-4 0,-6 2,-8 2,-2 4,-3 6,-3 3,0 5,1 7,3 2,1 3,4 3,7l0 2c3,-4 6,-7 10,-9 4,-2 8,-3 12,-3 5,0 9,1 13,3 3,2 6,5 8,9 3,-4 7,-7 10,-9 4,-2 8,-3 13,-3 5,0 9,1 13,3 4,2 6,5 8,9 2,3 3,9 3,16l0 37c0,4 -1,7 -3,9 -2,2 -4,3 -7,3 -3,0 -5,-1 -7,-3 -2,-2 -3,-5 -3,-9l0 -32c0,-4 0,-7 0,-10 -1,-2 -2,-4 -3,-6 -2,-1 -4,-2 -7,-2 -3,0 -5,0 -7,2 -2,1 -4,3 -5,6 -2,3 -3,9 -3,17z"/>
   <path id="13" class="fil8" d="M1218 328l0 25c0,4 -1,7 -3,9 -2,2 -4,3 -7,3 -3,0 -5,-1 -7,-3 -2,-2 -3,-5 -3,-9l0 -30c0,-5 0,-9 0,-11 -1,-3 -1,-5 -3,-7 -1,-1 -4,-2 -7,-2 -6,0 -10,2 -12,6 -2,4 -3,10 -3,18l0 26c0,4 -1,7 -2,9 -2,2 -5,3 -7,3 -3,0 -6,-1 -7,-3 -2,-2 -3,-5 -3,-9l0 -54c0,-4 1,-6 2,-8 2,-2 4,-3 7,-3 2,0 4,1 6,3 2,1 3,4 3,7l0 2c3,-4 7,-7 10,-9 4,-2 8,-3 13,-3 4,0 9,1 12,3 3,2 6,5 8,9 4,-4 7,-7 11,-9 3,-2 7,-3 12,-3 5,0 9,1 13,3 4,2 7,5 8,9 2,3 3,9 3,16l0 37c0,4 -1,7 -3,9 -2,2 -4,3 -7,3 -3,0 -5,-1 -7,-3 -2,-2 -3,-5 -3,-9l0 -32c0,-4 0,-7 0,-10 -1,-2 -1,-4 -3,-6 -2,-1 -4,-2 -7,-2 -2,0 -5,0 -7,2 -2,1 -4,3 -5,6 -2,3 -2,9 -2,17z"/>
   <path id="14" class="fil8" d="M1328 354l0 -2c-2,3 -4,5 -7,7 -2,2 -5,3 -8,4 -3,1 -6,2 -10,2 -5,0 -9,-1 -12,-3 -4,-2 -7,-5 -9,-8 -2,-4 -3,-10 -3,-17l0 -38c0,-4 1,-6 2,-8 2,-2 4,-3 7,-3 3,0 5,1 7,3 2,2 3,5 3,8l0 30c0,5 0,9 1,12 0,2 2,5 4,6 2,2 4,3 7,3 4,0 7,-1 9,-3 3,-2 5,-4 7,-7 1,-3 1,-9 1,-18l0 -23c0,-3 1,-6 3,-8 2,-2 4,-3 7,-3 2,0 5,1 6,3 2,2 3,4 3,8l0 55c0,4 -1,6 -2,8 -2,2 -4,3 -7,3 -2,0 -5,-1 -6,-3 -2,-2 -3,-5 -3,-8z"/>
   <path id="15" class="fil8" d="M1383 298l0 3c3,-5 7,-8 11,-10 4,-2 8,-3 13,-3 5,0 10,1 14,3 4,2 7,5 8,9 2,3 3,5 3,8 0,3 0,6 0,10l0 35c0,4 0,7 -2,9 -2,2 -4,3 -7,3 -3,0 -5,-1 -7,-3 -1,-2 -2,-5 -2,-9l0 -31c0,-6 -1,-11 -3,-14 -2,-4 -5,-5 -10,-5 -4,0 -7,1 -10,3 -2,2 -4,4 -6,8 -1,3 -1,8 -1,16l0 23c0,4 -1,7 -3,9 -1,2 -4,3 -6,3 -3,0 -5,-1 -7,-3 -2,-2 -3,-5 -3,-9l0 -54c0,-4 1,-7 3,-8 1,-2 3,-3 6,-3 2,0 3,0 4,1 2,1 3,2 4,4 0,1 1,3 1,5z"/>
   <path id="16" class="fil8" d="M1471 299l0 54c0,4 -1,7 -3,9 -1,2 -4,3 -6,3 -3,0 -5,-1 -7,-3 -2,-2 -3,-5 -3,-9l0 -54c0,-3 1,-6 3,-8 2,-2 4,-3 7,-3 2,0 5,1 6,3 2,2 3,4 3,8zm-9 -20c-3,0 -5,-1 -7,-2 -2,-2 -3,-4 -3,-7 0,-3 1,-5 3,-7 2,-1 4,-2 7,-2 2,0 4,1 6,2 2,2 3,4 3,7 0,3 -1,5 -3,7 -2,1 -4,2 -6,2z"/>
   <path id="17" class="fil8" d="M1493 290l2 0 0 -12c0,-3 0,-5 0,-7 0,-2 0,-3 1,-4 1,-2 2,-3 3,-3 2,-1 3,-2 5,-2 2,0 5,1 6,3 2,1 3,3 3,4 0,2 0,5 0,8l0 13 7 0c3,0 5,0 6,2 2,1 3,2 3,4 0,3 -1,5 -3,6 -2,1 -5,1 -9,1l-4 0 0 35c0,3 1,5 1,7 0,1 0,3 1,4 1,1 3,1 5,1 1,0 2,0 4,0 2,-1 4,-1 5,-1 1,0 3,1 4,2 1,1 2,3 2,4 0,3 -2,6 -5,7 -4,2 -8,3 -15,3 -6,0 -10,-1 -13,-3 -3,-2 -5,-5 -6,-8 -1,-4 -1,-9 -1,-14l0 -37 -3 0c-3,0 -5,0 -6,-2 -2,-1 -2,-3 -2,-5 0,-2 0,-3 2,-4 1,-2 4,-2 7,-2z"/>
   <path id="18" class="fil8" d="M1560 367l2 -4 -24 -59c-1,-3 -2,-5 -2,-7 0,-2 1,-3 2,-4 0,-2 1,-3 3,-4 1,-1 3,-1 4,-1 3,0 5,1 7,3 1,1 2,4 3,7l16 47 15 -44c2,-3 3,-6 4,-8 1,-2 2,-3 3,-4 1,-1 2,-1 4,-1 2,0 3,0 4,1 2,1 3,2 3,3 1,1 2,3 2,4 -1,1 -1,2 -1,4 -1,2 -1,3 -2,5l-24 64c-3,6 -5,11 -7,14 -2,3 -4,5 -8,7 -3,2 -8,3 -13,3 -6,0 -10,-1 -13,-2 -2,-1 -4,-3 -4,-7 0,-2 1,-3 2,-5 1,-1 3,-1 6,-1 1,0 2,0 3,0 1,0 2,1 3,1 2,0 4,-1 5,-1 1,-1 2,-2 3,-4 1,-1 3,-4 4,-7z"/>
   <path id="19" class="fil8" d="M1733 333c0,6 -2,11 -5,16 -3,5 -7,9 -14,12 -6,2 -13,4 -21,4 -10,0 -18,-2 -25,-6 -5,-3 -8,-6 -11,-11 -3,-4 -5,-9 -5,-13 0,-2 1,-5 3,-6 2,-2 4,-3 7,-3 2,0 4,1 5,2 2,1 3,3 4,6 1,3 3,6 4,8 2,2 4,4 7,6 2,1 6,2 10,2 6,0 11,-2 15,-5 4,-2 6,-6 6,-10 0,-4 -1,-6 -3,-8 -2,-2 -5,-4 -8,-5 -3,-1 -8,-2 -13,-4 -8,-1 -14,-3 -19,-6 -4,-2 -8,-5 -11,-9 -3,-4 -5,-9 -5,-15 0,-5 2,-10 5,-15 3,-4 7,-7 13,-10 6,-2 13,-3 21,-3 6,0 11,1 16,2 4,2 8,4 11,6 3,3 5,6 7,8 1,3 2,6 2,9 0,2 -1,4 -3,6 -2,2 -4,3 -6,3 -3,0 -5,0 -6,-2 -1,-1 -2,-3 -4,-5 -2,-4 -4,-7 -6,-9 -3,-2 -7,-3 -13,-3 -5,0 -9,1 -13,3 -3,2 -5,5 -5,8 0,2 1,4 2,6 1,1 3,2 5,3 2,2 4,2 6,3 2,1 5,1 9,3 6,1 11,2 16,4 5,2 8,4 12,6 3,2 5,5 7,9 2,3 3,8 3,13z"/>
   <path id="20" class="fil8" d="M1799 354l0 -2c-2,3 -5,5 -7,7 -3,2 -5,3 -8,4 -3,1 -6,2 -10,2 -5,0 -9,-1 -13,-3 -3,-2 -6,-5 -8,-8 -2,-4 -3,-10 -3,-17l0 -38c0,-4 0,-6 2,-8 2,-2 4,-3 7,-3 3,0 5,1 7,3 1,2 2,5 2,8l0 30c0,5 1,9 1,12 1,2 3,5 4,6 2,2 5,3 8,3 3,0 6,-1 9,-3 3,-2 5,-4 6,-7 1,-3 2,-9 2,-18l0 -23c0,-3 1,-6 3,-8 1,-2 4,-3 6,-3 3,0 6,1 7,3 2,2 3,4 3,8l0 55c0,4 -1,6 -3,8 -1,2 -3,3 -6,3 -3,0 -5,-1 -6,-3 -2,-2 -3,-5 -3,-8z"/>
   <path id="21" class="fil8" d="M1899 328l0 25c0,4 -1,7 -2,9 -2,2 -5,3 -7,3 -3,0 -6,-1 -7,-3 -2,-2 -3,-5 -3,-9l0 -30c0,-5 0,-9 -1,-11 0,-3 -1,-5 -2,-7 -2,-1 -4,-2 -7,-2 -6,0 -10,2 -12,6 -2,4 -3,10 -3,18l0 26c0,4 -1,7 -3,9 -2,2 -4,3 -7,3 -3,0 -5,-1 -7,-3 -2,-2 -3,-5 -3,-9l0 -54c0,-4 1,-6 3,-8 1,-2 4,-3 6,-3 3,0 5,1 7,3 2,1 2,4 2,7l0 2c4,-4 7,-7 11,-9 4,-2 8,-3 12,-3 5,0 9,1 13,3 3,2 6,5 8,9 3,-4 7,-7 10,-9 4,-2 8,-3 12,-3 6,0 10,1 14,3 3,2 6,5 8,9 2,3 2,9 2,16l0 37c0,4 0,7 -2,9 -2,2 -4,3 -7,3 -3,0 -5,-1 -7,-3 -2,-2 -3,-5 -3,-9l0 -32c0,-4 0,-7 -1,-10 0,-2 -1,-4 -2,-6 -2,-1 -4,-2 -7,-2 -3,0 -5,0 -7,2 -3,1 -4,3 -6,6 -1,3 -2,9 -2,17z"/>
   <path id="22" class="fil8" d="M2026 328l0 25c0,4 -1,7 -3,9 -2,2 -4,3 -7,3 -3,0 -5,-1 -7,-3 -2,-2 -3,-5 -3,-9l0 -30c0,-5 0,-9 0,-11 -1,-3 -2,-5 -3,-7 -1,-1 -4,-2 -7,-2 -6,0 -10,2 -12,6 -2,4 -3,10 -3,18l0 26c0,4 -1,7 -3,9 -1,2 -4,3 -7,3 -2,0 -5,-1 -7,-3 -1,-2 -2,-5 -2,-9l0 -54c0,-4 0,-6 2,-8 2,-2 4,-3 7,-3 2,0 4,1 6,3 2,1 3,4 3,7l0 2c3,-4 6,-7 10,-9 4,-2 8,-3 13,-3 4,0 8,1 12,3 3,2 6,5 8,9 3,-4 7,-7 10,-9 4,-2 8,-3 13,-3 5,0 9,1 13,3 4,2 6,5 8,9 2,3 3,9 3,16l0 37c0,4 -1,7 -3,9 -2,2 -4,3 -7,3 -3,0 -5,-1 -7,-3 -2,-2 -3,-5 -3,-9l0 -32c0,-4 0,-7 0,-10 -1,-2 -2,-4 -3,-6 -2,-1 -4,-2 -7,-2 -3,0 -5,0 -7,2 -2,1 -4,3 -5,6 -2,3 -2,9 -2,17z"/>
   <path id="23" class="fil8" d="M2108 299l0 54c0,4 -1,7 -3,9 -2,2 -4,3 -7,3 -2,0 -5,-1 -6,-3 -2,-2 -3,-5 -3,-9l0 -54c0,-3 1,-6 3,-8 1,-2 4,-3 6,-3 3,0 5,1 7,3 2,2 3,4 3,8zm-9 -20c-3,0 -5,-1 -7,-2 -2,-2 -3,-4 -3,-7 0,-3 1,-5 3,-7 2,-1 4,-2 7,-2 2,0 4,1 6,2 2,2 3,4 3,7 0,3 -1,5 -3,7 -2,1 -4,2 -6,2z"/>
   <path id="24" class="fil8" d="M2129 290l2 0 0 -12c0,-3 0,-5 1,-7 0,-2 0,-3 1,-4 1,-2 2,-3 3,-3 2,-1 3,-2 5,-2 2,0 4,1 6,3 2,1 2,3 3,4 0,2 0,5 0,8l0 13 7 0c3,0 5,0 6,2 2,1 2,2 2,4 0,3 -1,5 -3,6 -2,1 -4,1 -8,1l-4 0 0 35c0,3 0,5 1,7 0,1 0,3 1,4 1,1 3,1 5,1 1,0 2,0 4,0 2,-1 3,-1 5,-1 1,0 2,1 4,2 1,1 1,3 1,4 0,3 -1,6 -4,7 -4,2 -9,3 -15,3 -6,0 -10,-1 -13,-3 -3,-2 -5,-5 -6,-8 -1,-4 -2,-9 -2,-14l0 -37 -2 0c-3,0 -5,0 -6,-2 -2,-1 -2,-3 -2,-5 0,-2 0,-3 2,-4 1,-2 3,-2 6,-2z"/>
   <path class="fil9" d="M1083 125c3,-3 7,-6 10,-8 4,-2 8,-3 13,-3 4,0 8,1 12,3 4,2 7,4 10,7 3,3 5,7 6,11 2,4 2,8 2,12 0,7 -1,13 -4,18 -3,5 -7,10 -12,13 -6,3 -12,4 -19,4 -7,0 -14,-2 -20,-6 -5,-3 -9,-9 -12,-16 -3,-8 -5,-17 -5,-28 0,-8 1,-16 3,-23 2,-7 4,-12 8,-17 3,-4 7,-8 12,-10 5,-2 10,-4 16,-4 6,0 11,2 16,4 4,2 8,5 10,8 2,4 3,7 3,10 0,2 0,4 -2,5 -1,2 -3,3 -5,3 -2,0 -4,-1 -6,-2 -1,-1 -3,-3 -3,-5 -1,-3 -3,-5 -5,-7 -3,-2 -5,-2 -8,-2 -3,0 -5,0 -8,2 -2,1 -4,3 -6,5 -3,5 -5,14 -6,26zm19 43c5,0 8,-1 12,-5 3,-4 4,-9 4,-15 0,-4 -1,-8 -2,-11 -1,-3 -3,-5 -6,-7 -2,-2 -5,-2 -8,-2 -3,0 -6,0 -8,2 -3,1 -5,4 -7,7 -1,2 -2,6 -2,10 0,6 2,11 5,15 3,4 7,6 12,6z"/>
   <path id="1" class="fil9" d="M1302 77c11,0 20,2 28,7 7,4 13,10 17,18 4,8 5,17 5,27 0,8 -1,15 -3,22 -2,6 -5,12 -9,17 -4,4 -10,8 -16,10 -6,3 -13,4 -21,4 -8,0 -15,-1 -21,-4 -7,-2 -12,-6 -16,-11 -4,-4 -7,-10 -10,-16 -2,-7 -3,-14 -3,-22 0,-7 1,-15 4,-21 2,-7 5,-12 9,-17 4,-4 10,-8 16,-10 6,-3 13,-4 20,-4zm30 52c0,-7 -2,-14 -4,-19 -2,-5 -6,-10 -10,-12 -5,-3 -10,-4 -16,-4 -4,0 -7,0 -11,2 -3,1 -6,4 -9,7 -2,3 -4,6 -6,11 -1,4 -2,10 -2,15 0,6 1,11 2,16 2,5 4,9 6,12 3,3 6,5 9,6 4,2 8,3 12,3 5,0 10,-2 14,-4 5,-3 8,-7 11,-12 2,-6 4,-13 4,-21z"/>
   <path id="2" class="fil9" d="M1405 165l-16 -65 0 70c0,4 -1,7 -3,9 -1,2 -4,3 -7,3 -2,0 -5,-1 -6,-3 -2,-2 -3,-5 -3,-9l0 -80c0,-4 1,-7 4,-9 2,-1 5,-2 9,-2l6 0c4,0 7,0 9,1 1,1 3,2 3,4 1,1 2,4 3,8l15 56 15 -56c1,-4 2,-7 3,-8 0,-2 2,-3 3,-4 2,-1 5,-1 9,-1l6 0c4,0 7,1 9,2 3,2 4,5 4,9l0 80c0,4 -1,7 -3,9 -1,2 -4,3 -7,3 -2,0 -5,-1 -6,-3 -2,-2 -3,-5 -3,-9l0 -70 -16 65c-1,4 -2,7 -3,9 -1,2 -2,4 -4,6 -1,1 -4,2 -7,2 -2,0 -4,0 -6,-2 -2,-1 -3,-2 -4,-3 -1,-2 -2,-4 -2,-6 -1,-2 -1,-4 -2,-6z"/>
   <path id="3" class="fil9" d="M1517 90l39 59 0 -60c0,-4 1,-7 3,-9 1,-2 4,-3 6,-3 3,0 6,1 7,3 2,2 3,5 3,9l0 80c0,9 -4,13 -11,13 -2,0 -4,0 -5,-1 -2,0 -3,-1 -4,-2 -1,-1 -3,-3 -4,-4 -1,-2 -2,-3 -3,-5l-39 -59 0 59c0,4 -1,7 -2,9 -2,2 -4,3 -7,3 -3,0 -5,-1 -7,-3 -2,-2 -3,-5 -3,-9l0 -78c0,-3 0,-6 1,-8 1,-2 3,-4 5,-5 2,-1 4,-2 6,-2 2,0 4,1 5,1 1,1 2,2 3,3 1,1 2,2 3,3 1,2 3,4 4,6z"/>
   <path id="4" class="fil9" d="M1650 148l-37 0c0,5 1,8 2,12 2,3 4,5 7,7 3,2 6,3 9,3 3,0 5,-1 7,-1 1,-1 3,-2 5,-3 2,-1 3,-2 5,-3 1,-2 3,-3 6,-6 1,0 2,-1 4,-1 2,0 3,1 4,2 2,1 2,2 2,4 0,2 0,4 -2,6 -1,2 -3,5 -6,7 -3,2 -6,4 -10,5 -4,1 -9,2 -14,2 -12,0 -22,-3 -28,-10 -7,-7 -10,-17 -10,-28 0,-6 0,-11 2,-16 2,-5 4,-9 7,-12 3,-4 7,-6 12,-8 5,-2 10,-3 16,-3 7,0 13,2 18,5 6,3 10,7 12,12 3,5 4,10 4,15 0,5 -1,8 -4,9 -2,2 -6,2 -11,2zm-37 -10l34 0c0,-7 -2,-12 -5,-15 -3,-3 -7,-5 -12,-5 -5,0 -9,2 -12,5 -3,3 -5,8 -5,15z"/>
   <path id="5" class="fil9" d="M1749 96l-22 0 0 74c0,4 -1,7 -3,9 -2,2 -4,3 -7,3 -3,0 -6,-1 -8,-3 -2,-2 -3,-5 -3,-9l0 -74 -22 0c-4,0 -6,-1 -8,-2 -2,-2 -2,-4 -2,-7 0,-2 0,-4 2,-6 2,-1 5,-2 8,-2l65 0c4,0 6,1 8,2 2,2 3,4 3,6 0,3 -1,5 -3,7 -2,1 -4,2 -8,2z"/>
   <polygon id="6" class="fil9" points="1812,166 1794,166 1794,139 1768,139 1768,121 1794,121 1794,95 1812,95 1812,121 1839,121 1839,139 1812,139 "/>
   <polygon id="7" class="fil9" points="1895,166 1878,166 1878,139 1851,139 1851,121 1878,121 1878,95 1895,95 1895,121 1922,121 1922,139 1895,139 "/>
   <path id="8" class="fil9" d="M1148 73l1 0 0 -6c0,-1 0,-3 0,-3 0,-1 1,-2 1,-3 0,0 1,-1 1,-1 1,-1 2,-1 3,-1 1,0 2,1 3,1 1,1 1,2 1,3 0,1 1,2 1,3l0 7 3 0c1,0 2,0 3,1 1,0 1,1 1,2 0,1 0,2 -1,3 -1,0 -3,1 -5,1l-1 0 0 17c0,1 0,3 0,3 0,1 0,2 0,2 1,1 2,1 3,1 0,0 1,0 2,0 1,0 2,-1 2,-1 1,0 2,1 2,1 1,1 1,2 1,3 0,1 -1,2 -2,3 -2,1 -4,1 -8,1 -2,0 -5,0 -6,-1 -2,-1 -3,-2 -3,-4 -1,-2 -1,-4 -1,-7l0 -18 -1 0c-2,0 -3,-1 -3,-1 -1,-1 -1,-2 -1,-3 0,-1 0,-2 1,-2 1,-1 2,-1 3,-1z"/>
   <path id="9" class="fil9" d="M1183 64l0 14c1,-2 2,-3 3,-4 1,0 3,-1 4,-1 1,-1 3,-1 4,-1 3,0 5,0 7,1 2,2 3,3 4,5 1,1 1,2 2,4 0,1 0,3 0,5l0 18c0,2 -1,3 -1,4 -1,1 -2,1 -4,1 -3,0 -5,-2 -5,-5l0 -16c0,-3 0,-6 -1,-7 -1,-2 -2,-3 -5,-3 -2,0 -3,1 -5,2 -1,1 -2,2 -3,4 0,1 0,4 0,7l0 13c0,1 -1,3 -2,4 0,1 -2,1 -3,1 -3,0 -5,-2 -5,-5l0 -41c0,-2 1,-4 2,-5 0,-1 1,-1 3,-1 1,0 3,0 3,1 1,1 2,3 2,5z"/>
   <path id="10" class="fil9" d="M919 329c0,3 -1,6 -2,10 -2,4 -4,8 -8,11 -3,4 -7,7 -13,9 -5,2 -11,3 -18,3 -6,0 -10,0 -15,-1 -4,-1 -8,-3 -12,-5 -3,-2 -7,-5 -10,-8 -2,-4 -5,-7 -7,-11 -1,-4 -3,-8 -4,-13 -1,-4 -1,-9 -1,-14 0,-8 1,-15 3,-22 3,-6 6,-12 11,-16 4,-5 9,-8 15,-11 6,-2 12,-3 19,-3 8,0 16,1 22,4 7,4 11,8 15,13 3,4 5,9 5,13 0,3 -1,5 -3,6 -1,2 -3,3 -6,3 -2,0 -4,0 -5,-2 -2,-1 -3,-3 -5,-6 -3,-5 -6,-9 -9,-11 -4,-3 -8,-4 -14,-4 -8,0 -15,3 -20,9 -5,7 -7,16 -7,28 0,8 1,14 3,19 2,6 5,10 9,12 4,3 9,4 15,4 6,0 11,-1 15,-4 4,-3 7,-8 9,-13 1,-3 2,-5 3,-7 1,-1 3,-2 6,-2 3,0 5,1 7,2 1,2 2,4 2,7z"/>
   <path id="11" class="fil9" d="M1008 324c0,6 -1,11 -3,16 -1,4 -4,8 -7,12 -4,3 -8,6 -12,8 -5,1 -10,2 -16,2 -5,0 -11,-1 -15,-2 -5,-2 -9,-5 -12,-8 -3,-4 -6,-8 -8,-12 -1,-5 -2,-10 -2,-16 0,-6 1,-11 2,-16 2,-4 5,-9 8,-12 3,-3 7,-6 12,-8 4,-1 10,-2 15,-2 6,0 11,1 16,2 4,2 8,5 12,8 3,4 6,8 7,12 2,5 3,10 3,16zm-19 0c0,-8 -2,-14 -5,-18 -4,-4 -8,-6 -14,-6 -3,0 -7,1 -10,2 -2,2 -4,5 -6,9 -2,4 -2,8 -2,13 0,5 0,9 2,13 1,4 4,6 6,8 3,2 6,3 10,3 6,0 10,-2 14,-6 3,-4 5,-10 5,-18z"/>
   <path id="12" class="fil9" d="M1086 325l0 25c0,4 0,7 -2,9 -2,2 -4,3 -7,3 -3,0 -5,-1 -7,-3 -2,-2 -3,-5 -3,-9l0 -30c0,-4 0,-8 0,-11 -1,-2 -2,-4 -3,-6 -1,-2 -4,-3 -7,-3 -6,0 -10,2 -12,7 -2,4 -3,10 -3,18l0 25c0,4 -1,7 -3,9 -1,2 -4,3 -7,3 -3,0 -5,-1 -7,-3 -2,-2 -2,-5 -2,-9l0 -54c0,-3 0,-6 2,-8 2,-1 4,-2 6,-2 3,0 5,0 7,2 2,2 3,4 3,7l0 2c3,-4 6,-7 10,-8 4,-2 8,-3 12,-3 5,0 9,1 13,3 3,1 6,4 8,8 3,-4 7,-7 10,-8 4,-2 8,-3 13,-3 5,0 9,1 13,3 4,2 6,5 8,9 2,3 3,8 3,16l0 36c0,4 -1,7 -3,9 -2,2 -4,3 -7,3 -3,0 -5,-1 -7,-3 -2,-2 -3,-5 -3,-9l0 -31c0,-4 0,-8 0,-10 -1,-2 -2,-4 -3,-6 -2,-2 -4,-3 -7,-3 -3,0 -5,1 -7,3 -2,1 -4,3 -5,6 -2,3 -3,8 -3,16z"/>
   <path id="13" class="fil9" d="M1213 325l0 25c0,4 -1,7 -3,9 -2,2 -4,3 -7,3 -3,0 -5,-1 -7,-3 -2,-2 -3,-5 -3,-9l0 -30c0,-4 0,-8 0,-11 -1,-2 -1,-4 -3,-6 -1,-2 -4,-3 -7,-3 -6,0 -10,2 -12,7 -2,4 -3,10 -3,18l0 25c0,4 -1,7 -2,9 -2,2 -5,3 -7,3 -3,0 -6,-1 -7,-3 -2,-2 -3,-5 -3,-9l0 -54c0,-3 1,-6 2,-8 2,-1 4,-2 7,-2 2,0 4,0 6,2 2,2 3,4 3,7l0 2c3,-4 7,-7 10,-8 4,-2 8,-3 13,-3 5,0 9,1 12,3 3,1 6,4 8,8 4,-4 7,-7 11,-8 3,-2 7,-3 12,-3 5,0 9,1 13,3 4,2 7,5 8,9 2,3 3,8 3,16l0 36c0,4 -1,7 -3,9 -2,2 -4,3 -7,3 -3,0 -5,-1 -7,-3 -2,-2 -3,-5 -3,-9l0 -31c0,-4 0,-8 0,-10 -1,-2 -1,-4 -3,-6 -1,-2 -4,-3 -7,-3 -2,0 -5,1 -7,3 -2,1 -4,3 -5,6 -2,3 -2,8 -2,16z"/>
   <path id="14" class="fil9" d="M1323 352l0 -3c-2,3 -4,6 -7,8 -2,1 -5,3 -8,4 -3,1 -6,1 -10,1 -5,0 -9,-1 -12,-3 -4,-1 -7,-4 -9,-7 -2,-4 -3,-10 -3,-18l0 -37c0,-4 1,-7 2,-9 2,-1 4,-2 7,-2 3,0 5,1 7,2 2,2 3,5 3,9l0 30c0,4 0,8 1,11 0,3 2,5 4,7 2,2 4,3 7,3 4,0 7,-1 9,-3 3,-2 5,-5 7,-8 1,-2 1,-8 1,-17l0 -23c0,-4 1,-7 3,-9 2,-1 4,-2 7,-2 3,0 5,1 6,2 2,2 3,5 3,9l0 55c0,3 -1,6 -2,8 -2,2 -4,2 -7,2 -2,0 -4,-1 -6,-2 -2,-2 -3,-5 -3,-8z"/>
   <path id="15" class="fil9" d="M1378 296l0 2c3,-4 7,-7 11,-9 4,-2 8,-3 13,-3 5,0 10,1 14,3 4,2 7,5 9,9 1,2 2,5 2,8 0,2 0,6 0,10l0 35c0,4 0,7 -2,8 -2,2 -4,3 -7,3 -3,0 -5,-1 -7,-3 -1,-2 -2,-4 -2,-8l0 -32c0,-6 -1,-11 -3,-14 -2,-3 -5,-5 -10,-5 -4,0 -7,1 -9,3 -3,2 -5,5 -7,8 0,3 -1,9 -1,16l0 24c0,4 -1,7 -3,9 -1,1 -4,2 -6,2 -3,0 -5,-1 -7,-3 -2,-2 -3,-4 -3,-8l0 -55c0,-3 1,-6 3,-8 1,-1 3,-2 6,-2 2,0 3,0 4,1 2,1 3,2 4,3 0,2 1,4 1,6z"/>
   <path id="16" class="fil9" d="M1466 296l0 55c0,4 -1,7 -3,8 -1,2 -4,3 -6,3 -3,0 -5,-1 -7,-3 -2,-2 -3,-4 -3,-8l0 -54c0,-4 1,-7 3,-9 2,-1 4,-2 7,-2 2,0 5,1 6,2 2,2 3,5 3,8zm-9 -19c-3,0 -5,-1 -7,-3 -2,-1 -3,-3 -3,-6 0,-3 1,-5 3,-7 2,-2 4,-3 7,-3 2,0 4,1 6,3 2,1 3,4 3,7 0,2 -1,5 -3,6 -2,2 -4,3 -6,3z"/>
   <path id="17" class="fil9" d="M1488 287l2 0 0 -11c0,-3 0,-5 0,-7 0,-2 0,-3 1,-5 1,-1 2,-2 3,-3 2,-1 3,-1 5,-1 2,0 5,1 6,3 2,1 3,2 3,4 0,2 0,4 0,7l0 13 7 0c3,0 5,1 6,2 2,1 3,3 3,5 0,3 -1,4 -3,5 -2,1 -5,2 -9,2l-4 0 0 35c0,3 1,5 1,6 0,2 1,3 1,4 1,1 3,2 5,2 1,0 2,0 4,-1 2,0 4,0 5,0 1,0 3,0 4,1 1,2 2,3 2,5 0,3 -2,5 -5,7 -4,2 -8,2 -15,2 -6,0 -10,-1 -13,-3 -3,-2 -5,-4 -6,-8 -1,-3 -1,-8 -1,-14l0 -36 -3 0c-3,0 -5,-1 -6,-2 -2,-1 -2,-3 -2,-5 0,-2 1,-4 2,-5 2,-1 4,-2 7,-2z"/>
   <path id="18" class="fil9" d="M1555 365l2 -4 -24 -59c-1,-3 -2,-6 -2,-7 0,-2 1,-3 2,-5 0,-1 2,-2 3,-3 1,-1 3,-1 4,-1 3,0 5,0 7,2 1,2 2,4 3,8l16 46 15 -43c2,-4 3,-6 4,-8 1,-2 2,-4 3,-4 1,-1 2,-1 4,-1 2,0 3,0 4,1 2,1 3,2 4,3 0,1 1,2 1,4 -1,1 -1,2 -1,4 -1,1 -1,3 -2,5l-24 64c-3,6 -5,10 -7,13 -2,4 -4,6 -8,8 -3,2 -8,2 -13,2 -6,0 -10,0 -13,-1 -2,-2 -4,-4 -4,-7 0,-2 1,-4 2,-5 1,-1 3,-2 6,-2 1,0 2,0 3,1 1,0 2,0 3,0 2,0 4,0 5,-1 1,0 3,-2 4,-3 1,-2 2,-4 3,-7z"/>
   <path id="19" class="fil9" d="M1728 330c0,6 -2,12 -5,17 -3,5 -7,9 -14,11 -6,3 -13,4 -21,4 -10,0 -18,-1 -25,-5 -5,-3 -8,-7 -11,-11 -3,-5 -4,-9 -4,-13 0,-3 0,-5 2,-7 2,-2 4,-2 7,-2 2,0 4,0 5,2 2,1 3,3 4,6 1,3 3,6 4,8 2,2 4,4 7,5 2,2 6,2 10,2 6,0 11,-1 15,-4 4,-3 6,-6 6,-10 0,-4 -1,-7 -3,-9 -2,-2 -5,-3 -8,-5 -3,-1 -8,-2 -13,-3 -8,-2 -14,-4 -19,-6 -4,-2 -8,-5 -11,-9 -3,-4 -5,-9 -5,-15 0,-6 2,-11 5,-15 3,-4 7,-8 13,-10 6,-2 13,-3 21,-3 6,0 11,0 16,2 4,1 8,3 11,6 3,3 5,5 7,8 1,3 2,6 2,8 0,3 -1,5 -3,7 -2,2 -4,3 -6,3 -3,0 -5,-1 -6,-2 -1,-1 -2,-3 -4,-6 -2,-3 -4,-6 -6,-9 -3,-2 -7,-3 -13,-3 -5,0 -9,1 -13,4 -3,2 -5,5 -5,8 0,2 1,4 2,5 1,2 3,3 5,4 2,1 4,2 6,3 2,0 5,1 9,2 6,2 11,3 16,5 5,1 8,3 12,6 3,2 6,5 7,8 2,4 3,8 3,13z"/>
   <path id="20" class="fil9" d="M1794 352l0 -3c-2,3 -5,6 -7,8 -3,1 -5,3 -8,4 -3,1 -6,1 -10,1 -5,0 -9,-1 -13,-3 -3,-1 -6,-4 -8,-7 -2,-4 -3,-10 -3,-18l0 -37c0,-4 0,-7 2,-9 2,-1 4,-2 7,-2 3,0 5,1 7,2 2,2 2,5 2,9l0 30c0,4 1,8 1,11 1,3 3,5 4,7 2,2 5,3 8,3 3,0 6,-1 9,-3 3,-2 5,-5 6,-8 1,-2 2,-8 2,-17l0 -23c0,-4 1,-7 3,-9 1,-1 4,-2 6,-2 3,0 6,1 7,2 2,2 3,5 3,9l0 55c0,3 -1,6 -3,8 -1,2 -3,2 -6,2 -3,0 -5,-1 -6,-2 -2,-2 -3,-5 -3,-8z"/>
   <path id="21" class="fil9" d="M1894 325l0 25c0,4 -1,7 -2,9 -2,2 -5,3 -7,3 -3,0 -6,-1 -7,-3 -2,-2 -3,-5 -3,-9l0 -30c0,-4 0,-8 -1,-11 0,-2 -1,-4 -2,-6 -2,-2 -4,-3 -7,-3 -6,0 -10,2 -12,7 -2,4 -3,10 -3,18l0 25c0,4 -1,7 -3,9 -2,2 -4,3 -7,3 -3,0 -5,-1 -7,-3 -2,-2 -3,-5 -3,-9l0 -54c0,-3 1,-6 3,-8 2,-1 4,-2 6,-2 3,0 5,0 7,2 2,2 2,4 2,7l0 2c4,-4 7,-7 11,-8 4,-2 8,-3 12,-3 5,0 9,1 13,3 3,1 6,4 8,8 3,-4 7,-7 10,-8 4,-2 8,-3 12,-3 6,0 10,1 14,3 3,2 6,5 8,9 2,3 3,8 3,16l0 36c0,4 -1,7 -3,9 -2,2 -4,3 -7,3 -3,0 -5,-1 -7,-3 -2,-2 -3,-5 -3,-9l0 -31c0,-4 0,-8 -1,-10 0,-2 -1,-4 -2,-6 -2,-2 -4,-3 -7,-3 -3,0 -5,1 -7,3 -3,1 -4,3 -6,6 -1,3 -2,8 -2,16z"/>
   <path id="22" class="fil9" d="M2021 325l0 25c0,4 -1,7 -3,9 -2,2 -4,3 -7,3 -3,0 -5,-1 -7,-3 -2,-2 -3,-5 -3,-9l0 -30c0,-4 0,-8 0,-11 -1,-2 -2,-4 -3,-6 -1,-2 -4,-3 -7,-3 -6,0 -10,2 -12,7 -2,4 -3,10 -3,18l0 25c0,4 -1,7 -3,9 -1,2 -4,3 -7,3 -2,0 -5,-1 -7,-3 -1,-2 -2,-5 -2,-9l0 -54c0,-3 0,-6 2,-8 2,-1 4,-2 7,-2 2,0 4,0 6,2 2,2 3,4 3,7l0 2c3,-4 6,-7 10,-8 4,-2 8,-3 13,-3 4,0 8,1 12,3 3,1 6,4 8,8 3,-4 7,-7 11,-8 3,-2 7,-3 12,-3 5,0 9,1 13,3 4,2 7,5 8,9 2,3 3,8 3,16l0 36c0,4 -1,7 -3,9 -2,2 -4,3 -7,3 -3,0 -5,-1 -7,-3 -2,-2 -3,-5 -3,-9l0 -31c0,-4 0,-8 0,-10 -1,-2 -2,-4 -3,-6 -2,-2 -4,-3 -7,-3 -3,0 -5,1 -7,3 -2,1 -4,3 -5,6 -2,3 -2,8 -2,16z"/>
   <path id="23" class="fil9" d="M2103 296l0 55c0,4 -1,7 -3,8 -2,2 -4,3 -7,3 -2,0 -5,-1 -6,-3 -2,-2 -3,-4 -3,-8l0 -54c0,-4 1,-7 3,-9 1,-1 4,-2 6,-2 3,0 5,1 7,2 2,2 3,5 3,8zm-9 -19c-3,0 -5,-1 -7,-3 -2,-1 -3,-3 -3,-6 0,-3 1,-5 3,-7 2,-2 4,-3 7,-3 2,0 4,1 6,3 2,1 3,4 3,7 0,2 -1,5 -3,6 -2,2 -4,3 -6,3z"/>
   <path id="24" class="fil9" d="M2124 287l2 0 0 -11c0,-3 1,-5 1,-7 0,-2 0,-3 1,-5 1,-1 2,-2 3,-3 2,-1 3,-1 5,-1 2,0 4,1 6,3 2,1 2,2 3,4 0,2 0,4 0,7l0 13 7 0c3,0 5,1 6,2 2,1 2,3 2,5 0,3 -1,4 -3,5 -2,1 -4,2 -8,2l-4 0 0 35c0,3 0,5 1,6 0,2 0,3 1,4 1,1 3,2 5,2 1,0 2,0 4,-1 2,0 4,0 5,0 1,0 2,0 4,1 1,2 2,3 2,5 0,3 -2,5 -5,7 -4,2 -9,2 -15,2 -6,0 -10,-1 -13,-3 -3,-2 -5,-4 -6,-8 -1,-3 -2,-8 -2,-14l0 -36 -2 0c-3,0 -5,-1 -6,-2 -2,-1 -2,-3 -2,-5 0,-2 0,-4 2,-5 1,-1 3,-2 6,-2z"/>
  </g>
  <g id="_1697130125152">
   <path class="fil8" d="M1060 556c0,4 -1,8 -3,11 -2,4 -6,6 -10,8 -4,2 -9,3 -15,3 -7,0 -13,-1 -18,-4 -3,-2 -5,-4 -8,-7 -2,-4 -3,-7 -3,-10 0,-2 1,-3 2,-4 1,-2 3,-2 5,-2 1,0 3,0 4,1 1,1 2,3 3,5 0,2 1,4 2,5 2,2 3,3 5,4 2,1 4,2 8,2 4,0 7,-1 10,-3 3,-2 4,-5 4,-8 0,-2 -1,-4 -2,-6 -2,-1 -3,-2 -6,-3 -2,-1 -5,-2 -9,-3 -5,-1 -9,-2 -13,-4 -3,-1 -6,-4 -8,-6 -2,-3 -3,-7 -3,-11 0,-4 1,-7 3,-10 2,-3 5,-6 9,-7 4,-2 9,-3 15,-3 4,0 8,1 11,2 3,1 6,2 8,4 2,2 4,4 5,6 1,2 1,4 1,6 0,1 0,3 -2,4 -1,2 -2,2 -4,2 -2,0 -3,0 -4,-1 -1,-1 -2,-2 -3,-4 -1,-3 -3,-5 -4,-6 -2,-2 -5,-2 -9,-2 -4,0 -7,0 -9,2 -3,2 -4,4 -4,6 0,1 1,3 1,4 1,1 2,2 4,2 1,1 2,2 4,2 1,0 3,1 7,2 4,1 7,2 11,3 3,1 6,3 8,4 2,2 4,4 5,6 2,3 2,6 2,10z"/>
   <path id="1" class="fil8" d="M1109 554l-26 0c0,3 0,6 2,8 1,3 2,4 4,6 2,1 5,1 7,1 1,0 3,0 4,0 2,-1 3,-1 4,-2 1,-1 2,-2 4,-2 1,-1 2,-3 4,-4 0,-1 1,-1 2,-1 2,0 3,0 4,1 1,1 1,2 1,3 0,1 0,3 -1,4 -1,2 -3,4 -5,5 -2,2 -4,3 -7,4 -3,1 -6,1 -10,1 -8,0 -15,-2 -20,-7 -4,-5 -7,-12 -7,-20 0,-4 1,-8 2,-11 1,-3 3,-6 5,-9 2,-2 5,-4 8,-5 4,-1 7,-2 11,-2 6,0 10,1 14,3 3,2 6,5 8,9 2,3 3,7 3,10 0,4 -1,6 -3,7 -2,1 -5,1 -8,1zm-26 -7l24 0c0,-5 -2,-8 -4,-10 -2,-3 -5,-4 -8,-4 -3,0 -6,1 -8,4 -2,2 -4,5 -4,10z"/>
   <path id="2" class="fil8" d="M1142 532l0 1c3,-3 5,-5 8,-7 3,-1 6,-2 9,-2 4,0 8,1 11,3 4,2 7,5 9,10 2,4 3,8 3,14 0,4 -1,8 -2,11 -1,4 -3,7 -5,9 -2,2 -4,4 -7,5 -3,2 -6,2 -9,2 -4,0 -7,-1 -9,-2 -3,-2 -6,-4 -8,-7l0 20c0,6 -2,9 -6,9 -3,0 -4,-1 -5,-2 -1,-2 -1,-4 -1,-7l0 -57c0,-3 0,-5 1,-6 1,-1 3,-2 5,-2 2,0 3,1 4,2 2,1 2,3 2,6zm26 19c0,-4 0,-7 -1,-9 -1,-3 -3,-5 -5,-6 -2,-1 -4,-2 -6,-2 -4,0 -7,1 -9,4 -3,3 -4,8 -4,13 0,5 1,10 3,12 3,3 6,5 10,5 2,0 4,-1 6,-2 2,-1 3,-3 5,-6 1,-2 1,-5 1,-9z"/>
   <path id="3" class="fil8" d="M1193 525l2 0 0 -8c0,-2 0,-4 0,-5 0,-1 0,-2 1,-3 0,-1 1,-2 2,-2 1,-1 2,-1 3,-1 2,0 3,1 5,2 1,1 1,2 1,3 1,1 1,3 1,5l0 9 5 0c2,0 3,1 4,2 1,0 2,2 2,3 0,2 -1,3 -3,4 -1,0 -3,1 -6,1l-2 0 0 24c0,2 0,4 0,5 0,1 1,2 1,3 1,1 2,1 3,1 1,0 2,0 3,-1 2,0 3,0 4,0 1,0 2,1 3,1 0,1 1,2 1,4 0,2 -1,3 -4,4 -2,2 -5,2 -10,2 -4,0 -7,0 -9,-2 -2,-1 -4,-3 -4,-6 -1,-2 -1,-5 -1,-10l0 -25 -2 0c-2,0 -4,-1 -5,-2 -1,0 -1,-2 -1,-3 0,-1 0,-3 1,-3 1,-1 3,-2 5,-2z"/>
   <path id="4" class="fil8" d="M1265 554l-26 0c0,3 0,6 2,8 1,3 2,4 4,6 2,1 5,1 7,1 1,0 3,0 4,0 2,-1 3,-1 4,-2 1,-1 2,-2 4,-2 1,-1 2,-3 4,-4 0,-1 1,-1 2,-1 2,0 3,0 4,1 1,1 1,2 1,3 0,1 0,3 -1,4 -1,2 -3,4 -5,5 -2,2 -4,3 -7,4 -3,1 -6,1 -10,1 -8,0 -15,-2 -20,-7 -4,-5 -7,-12 -7,-20 0,-4 1,-8 2,-11 1,-3 3,-6 5,-9 2,-2 5,-4 8,-5 4,-1 7,-2 11,-2 6,0 10,1 14,3 3,2 6,5 8,9 2,3 3,7 3,10 0,4 -1,6 -3,7 -2,1 -5,1 -8,1zm-26 -7l24 0c0,-5 -2,-8 -4,-10 -2,-3 -5,-4 -8,-4 -3,0 -6,1 -8,4 -2,2 -4,5 -4,10z"/>
   <path id="5" class="fil8" d="M1331 552l0 18c0,3 0,5 -1,6 -2,2 -3,2 -5,2 -3,0 -4,0 -5,-2 -2,-1 -2,-3 -2,-6l0 -21c0,-4 0,-6 -1,-8 0,-2 0,-4 -1,-5 -1,-1 -3,-2 -5,-2 -5,0 -8,2 -9,5 -1,3 -2,7 -2,13l0 18c0,3 -1,5 -2,6 -1,2 -3,2 -5,2 -2,0 -3,0 -5,-2 -1,-1 -2,-3 -2,-6l0 -38c0,-3 1,-5 2,-6 1,-1 3,-2 5,-2 1,0 3,1 4,2 1,1 2,3 2,5l0 1c2,-3 5,-5 7,-6 3,-1 6,-2 9,-2 4,0 6,1 9,2 2,1 4,3 6,6 2,-3 4,-5 7,-6 3,-1 5,-2 9,-2 3,0 6,1 9,2 3,2 5,4 6,6 1,3 2,7 2,12l0 26c0,3 -1,5 -2,6 -2,2 -3,2 -5,2 -2,0 -4,0 -5,-2 -2,-1 -2,-3 -2,-6l0 -23c0,-2 0,-5 -1,-6 0,-2 0,-4 -2,-5 -1,-1 -2,-2 -4,-2 -2,0 -4,1 -5,2 -2,1 -3,2 -4,4 -1,2 -2,6 -2,12z"/>
   <path id="6" class="fil8" d="M1388 512l0 20c2,-2 5,-4 8,-6 2,-1 5,-2 9,-2 5,0 9,1 12,3 3,2 6,5 8,9 1,4 2,9 2,15 0,4 0,7 -1,11 -1,3 -3,6 -5,8 -2,3 -4,5 -7,6 -2,2 -6,2 -9,2 -2,0 -4,0 -6,-1 -1,0 -3,-1 -4,-1 -2,-1 -3,-2 -4,-3 0,-1 -2,-2 -3,-4l0 2c0,2 -1,4 -2,5 -1,2 -3,2 -4,2 -2,0 -4,0 -5,-2 -1,-1 -2,-3 -2,-5l0 -59c0,-2 1,-4 2,-6 1,-1 3,-2 5,-2 2,0 3,1 4,2 1,2 2,3 2,6zm1 39c0,6 1,10 3,13 3,2 6,4 10,4 3,0 6,-2 8,-4 3,-3 4,-8 4,-13 0,-3 0,-7 -2,-9 -1,-3 -2,-5 -4,-6 -2,-1 -4,-2 -6,-2 -3,0 -5,1 -7,2 -2,1 -4,3 -5,6 -1,3 -1,6 -1,9z"/>
   <path id="7" class="fil8" d="M1475 554l-26 0c0,3 1,6 2,8 1,3 3,4 5,6 2,1 4,1 6,1 2,0 3,0 5,0 1,-1 2,-1 3,-2 2,-1 3,-2 4,-2 1,-1 2,-3 4,-4 1,-1 2,-1 3,-1 1,0 2,0 3,1 1,1 1,2 1,3 0,1 0,3 -1,4 -1,2 -2,4 -4,5 -2,2 -4,3 -7,4 -3,1 -7,1 -10,1 -9,0 -16,-2 -20,-7 -5,-5 -7,-12 -7,-20 0,-4 0,-8 1,-11 2,-3 3,-6 5,-9 3,-2 5,-4 9,-5 3,-1 7,-2 11,-2 5,0 9,1 13,3 4,2 7,5 8,9 2,3 3,7 3,10 0,4 -1,6 -3,7 -2,1 -4,1 -8,1zm-26 -7l24 0c0,-5 -1,-8 -3,-10 -2,-3 -5,-4 -9,-4 -3,0 -6,1 -8,4 -2,2 -3,5 -4,10z"/>
   <path id="8" class="fil8" d="M1511 559l0 11c0,3 -1,5 -2,6 -1,2 -3,2 -5,2 -2,0 -3,0 -5,-2 -1,-1 -2,-3 -2,-6l0 -37c0,-6 3,-9 7,-9 2,0 4,1 5,2 1,2 1,4 1,6 2,-2 4,-4 5,-6 2,-1 4,-2 7,-2 3,0 5,1 8,2 3,2 4,3 4,6 0,1 -1,3 -2,4 -1,1 -2,1 -3,1 -1,0 -2,0 -4,-1 -2,0 -3,0 -5,0 -2,0 -3,0 -5,1 -1,1 -2,3 -2,5 -1,2 -2,4 -2,7 0,3 0,6 0,10z"/>
   <path id="9" class="fil8" d="M1594 571l0 -9 -24 0c-3,0 -5,-1 -7,-2 -2,-2 -2,-4 -2,-6 0,-1 0,-1 0,-2 0,-1 1,-1 1,-2 0,-1 1,-1 1,-2 1,-1 2,-1 2,-2l26 -35c2,-2 3,-4 4,-5 1,-1 3,-1 4,-1 5,0 8,2 8,8l0 38 2 0c2,0 4,0 6,1 1,1 2,2 2,4 0,2 -1,4 -2,4 -1,1 -3,2 -5,2l-3 0 0 9c0,2 -1,4 -2,5 -1,2 -3,2 -4,2 -2,0 -4,0 -5,-2 -1,-1 -2,-3 -2,-5zm-21 -20l21 0 0 -29 -21 29z"/>
   <path id="10" class="fil8" d="M1643 557l-15 0c-3,0 -4,-1 -6,-2 -1,-1 -1,-2 -1,-4 0,-2 0,-3 1,-4 2,-1 3,-2 6,-2l15 0c3,0 4,1 6,2 1,1 1,2 1,4 0,2 0,3 -1,4 -1,1 -3,2 -6,2z"/>
   <path id="11" class="fil8" d="M1670 538c2,-2 5,-4 7,-6 3,-1 6,-1 9,-1 3,0 6,0 9,1 2,1 5,3 7,5 2,2 3,5 4,8 1,3 2,6 2,9 0,4 -1,9 -3,12 -2,4 -5,7 -9,9 -4,2 -8,3 -13,3 -5,0 -10,-1 -14,-4 -4,-2 -7,-6 -9,-12 -2,-5 -3,-11 -3,-19 0,-6 0,-11 2,-16 1,-5 3,-9 5,-12 2,-4 5,-6 9,-8 3,-1 7,-2 11,-2 4,0 8,1 11,2 4,2 6,4 8,6 1,3 2,5 2,7 0,2 -1,3 -2,4 -1,1 -2,2 -3,2 -2,0 -3,-1 -4,-2 -1,0 -2,-2 -3,-3 -1,-2 -2,-4 -3,-5 -2,-1 -4,-2 -6,-2 -2,0 -3,1 -5,2 -2,1 -3,2 -5,4 -2,3 -3,9 -4,18zm13 31c4,0 6,-2 9,-4 2,-3 3,-7 3,-11 0,-3 -1,-5 -2,-8 -1,-2 -2,-3 -4,-5 -2,-1 -4,-1 -6,-1 -2,0 -4,0 -5,1 -2,1 -4,3 -5,5 -1,2 -2,4 -2,7 0,5 2,8 4,11 2,3 5,5 8,5z"/>
   <path id="12" class="fil8" d="M1727 578c-2,0 -4,0 -5,-2 -2,-1 -2,-3 -2,-5 0,-2 0,-4 2,-5 1,-2 3,-2 5,-2 2,0 3,0 5,1 1,1 2,2 2,4 1,1 2,3 2,6 0,3 -1,6 -2,9 -2,2 -4,5 -5,6 -2,2 -4,3 -6,3 -1,0 -2,-1 -2,-1 -1,-1 -1,-2 -1,-3 0,-1 0,-2 2,-3 4,-2 5,-5 5,-8z"/>
   <path id="13" class="fil8" d="M1790 566l26 0c2,0 4,0 5,1 2,1 2,3 2,4 0,2 0,3 -1,4 -1,1 -3,2 -5,2l-36 0c-2,0 -4,-1 -6,-2 -1,-1 -2,-3 -2,-5 0,-1 1,-2 2,-4 1,-2 2,-4 3,-5 4,-4 8,-8 11,-12 4,-3 6,-5 8,-6 2,-2 5,-4 6,-6 2,-1 4,-3 4,-5 1,-2 2,-4 2,-6 0,-2 -1,-4 -2,-6 -1,-2 -2,-3 -4,-4 -1,-1 -3,-1 -5,-1 -5,0 -8,2 -10,6 -1,0 -1,1 -2,4 -1,2 -2,3 -3,5 -1,1 -2,1 -4,1 -1,0 -3,0 -4,-1 -1,-1 -1,-3 -1,-5 0,-2 0,-4 1,-7 1,-2 3,-4 5,-6 2,-2 4,-4 7,-5 3,-1 7,-2 11,-2 5,0 9,1 13,2 2,1 4,3 6,5 2,1 3,4 4,6 1,2 1,5 1,7 0,4 -1,8 -3,11 -2,4 -4,6 -6,8 -2,2 -5,5 -10,9 -5,4 -9,7 -10,9 -1,1 -2,2 -3,4z"/>
   <path id="14" class="fil8" d="M1882 542c0,5 0,10 -1,14 -1,4 -2,7 -4,10 -2,4 -5,7 -8,9 -4,2 -8,3 -12,3 -5,0 -9,-1 -13,-4 -4,-3 -7,-7 -9,-12 -1,-2 -2,-5 -2,-9 -1,-3 -1,-6 -1,-10 0,-5 0,-10 1,-14 0,-3 1,-7 2,-10 2,-4 5,-8 9,-10 3,-3 8,-4 13,-4 3,0 6,0 9,2 3,1 5,2 7,4 2,2 4,5 5,8 3,5 4,13 4,23zm-13 -1c0,-6 -1,-11 -1,-15 -1,-3 -2,-6 -4,-8 -2,-2 -4,-3 -7,-3 -4,0 -7,2 -9,6 -2,5 -3,11 -3,20 0,6 1,11 1,15 1,4 2,7 4,9 2,2 4,3 7,3 3,0 5,-1 7,-3 2,-2 3,-5 4,-9 0,-4 1,-9 1,-15z"/>
   <path id="15" class="fil8" d="M1915 570l0 -44c-8,6 -14,9 -17,9 -1,0 -2,0 -3,-1 -2,-1 -2,-3 -2,-4 0,-2 0,-3 2,-4 1,0 2,-1 5,-3 4,-2 7,-3 9,-6 3,-2 5,-4 7,-6 2,-3 3,-5 3,-5 1,-1 2,-1 3,-1 2,0 4,1 5,2 1,1 1,3 1,6l0 55c0,7 -2,10 -7,10 -1,0 -3,0 -4,-2 -2,-1 -2,-3 -2,-6z"/>
   <path id="16" class="fil8" d="M1987 545c-2,2 -5,4 -7,6 -3,1 -6,2 -9,2 -3,0 -6,-1 -9,-2 -2,-1 -5,-3 -7,-5 -2,-2 -3,-5 -4,-8 -1,-2 -2,-5 -2,-9 0,-3 1,-6 2,-9 1,-3 3,-6 5,-8 2,-2 5,-4 8,-5 3,-1 6,-2 10,-2 4,0 8,1 11,2 3,2 6,4 8,7 3,3 4,7 6,11 1,4 1,9 1,15 0,6 0,12 -1,17 -2,4 -4,8 -6,12 -2,3 -5,5 -9,7 -3,1 -7,2 -11,2 -5,0 -8,-1 -11,-2 -3,-2 -6,-4 -7,-6 -2,-3 -3,-5 -3,-7 0,-2 1,-3 2,-4 1,-1 2,-1 3,-1 2,0 3,0 4,1 1,1 2,2 3,3 1,2 2,4 3,5 2,1 4,2 6,2 2,0 4,-1 5,-2 2,-1 3,-2 5,-4 2,-3 3,-9 4,-18zm-1 -15c0,-2 -1,-4 -1,-6 -1,-2 -2,-4 -3,-5 -1,-1 -2,-2 -4,-3 -1,-1 -3,-1 -5,-1 -3,0 -5,1 -7,4 -3,2 -4,6 -4,10 0,4 1,8 4,10 2,3 4,4 8,4 2,0 4,0 5,-1 2,-1 4,-3 5,-5 1,-2 2,-4 2,-7z"/>
   <path class="fil9" d="M1057 552c0,4 -1,8 -4,12 -2,3 -5,6 -9,8 -5,2 -10,3 -16,3 -7,0 -13,-2 -17,-4 -3,-2 -6,-5 -8,-8 -2,-3 -3,-6 -3,-9 0,-2 1,-4 2,-5 1,-1 2,-2 4,-2 2,0 3,1 4,2 1,1 2,2 3,4 1,2 2,4 3,6 1,1 2,3 4,4 2,1 5,1 8,1 4,0 8,-1 10,-3 3,-2 4,-4 4,-7 0,-3 0,-5 -2,-6 -1,-2 -3,-3 -5,-4 -3,0 -6,-1 -10,-2 -5,-1 -9,-3 -12,-4 -4,-2 -7,-4 -9,-7 -2,-3 -3,-6 -3,-10 0,-4 1,-8 3,-11 3,-3 6,-5 10,-7 4,-2 9,-2 14,-2 5,0 8,0 12,1 3,1 5,3 8,5 2,1 3,3 4,5 1,2 2,4 2,6 0,2 -1,3 -2,5 -1,1 -3,2 -5,2 -1,0 -3,-1 -4,-1 0,-1 -1,-3 -2,-4 -2,-3 -3,-5 -5,-7 -2,-1 -5,-2 -9,-2 -4,0 -7,1 -9,2 -2,2 -3,4 -3,6 0,2 0,3 1,4 1,1 2,2 3,3 1,1 3,1 4,2 2,0 4,1 7,1 4,1 8,2 11,4 3,1 6,2 8,4 3,1 5,3 6,6 1,2 2,5 2,9z"/>
   <path id="1" class="fil9" d="M1105 551l-26 0c0,3 1,6 2,8 1,2 3,4 5,5 2,1 4,2 6,2 2,0 3,0 5,-1 1,0 2,-1 4,-1 1,-1 2,-2 3,-3 1,-1 2,-2 4,-4 1,0 2,-1 3,-1 1,0 2,1 3,2 1,0 2,1 2,3 0,1 -1,2 -2,4 -1,2 -2,3 -4,5 -2,1 -4,2 -7,3 -3,1 -7,2 -10,2 -9,0 -15,-3 -20,-8 -5,-5 -7,-11 -7,-20 0,-3 0,-7 1,-10 2,-4 3,-7 6,-9 2,-3 5,-4 8,-6 3,-1 7,-2 11,-2 5,0 9,1 13,4 4,2 7,5 9,8 1,4 2,7 2,11 0,3 -1,5 -3,6 -1,1 -4,2 -8,2zm-26 -8l24 0c0,-4 -1,-8 -3,-10 -2,-2 -5,-3 -9,-3 -3,0 -6,1 -8,3 -2,2 -3,6 -4,10z"/>
   <path id="2" class="fil9" d="M1139 528l0 2c2,-4 5,-6 7,-7 3,-2 6,-2 10,-2 4,0 7,1 11,3 3,2 6,5 8,9 2,4 3,9 3,14 0,5 -1,8 -2,12 -1,3 -2,6 -4,8 -2,3 -5,5 -8,6 -2,1 -5,2 -8,2 -4,0 -7,-1 -10,-3 -3,-1 -5,-3 -7,-6l0 20c0,6 -3,8 -7,8 -2,0 -4,0 -5,-2 -1,-1 -1,-4 -1,-6l0 -58c0,-2 1,-4 2,-6 1,-1 2,-2 4,-2 2,0 4,1 5,2 1,2 2,4 2,6zm26 19c0,-3 -1,-6 -2,-9 -1,-2 -3,-4 -4,-6 -2,-1 -4,-2 -7,-2 -3,0 -7,2 -9,5 -3,3 -4,7 -4,13 0,5 1,9 4,12 2,3 6,4 9,4 2,0 5,0 6,-2 2,-1 4,-3 5,-5 1,-3 2,-6 2,-10z"/>
   <path id="3" class="fil9" d="M1189 522l2 0 0 -8c0,-2 0,-4 0,-5 0,-2 1,-3 1,-4 1,0 1,-1 2,-2 1,0 2,-1 4,-1 1,0 3,1 4,2 1,1 2,2 2,3 0,2 0,3 0,6l0 9 5 0c2,0 3,0 4,1 1,1 2,2 2,3 0,2 -1,3 -2,4 -2,1 -4,1 -6,1l-3 0 0 25c0,2 0,3 0,5 1,1 1,2 2,2 0,1 1,1 3,1 1,0 2,0 3,0 1,0 2,0 3,0 1,0 2,0 3,1 1,1 1,2 1,3 0,2 -1,4 -3,5 -3,1 -6,2 -10,2 -5,0 -8,-1 -10,-2 -2,-2 -3,-4 -4,-6 -1,-3 -1,-6 -1,-10l0 -26 -2 0c-2,0 -3,0 -4,-1 -1,-1 -2,-2 -2,-4 0,-1 1,-2 2,-3 1,-1 2,-1 4,-1z"/>
   <path id="4" class="fil9" d="M1261 551l-26 0c0,3 1,6 2,8 1,2 3,4 5,5 2,1 4,2 6,2 2,0 3,0 5,-1 1,0 2,-1 4,-1 1,-1 2,-2 3,-3 1,-1 2,-2 4,-4 1,0 2,-1 3,-1 1,0 2,1 3,2 1,0 2,1 2,3 0,1 -1,2 -2,4 -1,2 -2,3 -4,5 -2,1 -4,2 -7,3 -3,1 -7,2 -10,2 -9,0 -15,-3 -20,-8 -5,-5 -7,-11 -7,-20 0,-3 0,-7 1,-10 2,-4 3,-7 6,-9 2,-3 5,-4 8,-6 3,-1 7,-2 11,-2 5,0 9,1 13,4 4,2 7,5 9,8 1,4 2,7 2,11 0,3 -1,5 -3,6 -1,1 -4,2 -8,2zm-26 -8l24 0c0,-4 -1,-8 -3,-10 -2,-2 -5,-3 -9,-3 -3,0 -6,1 -8,3 -2,2 -3,6 -4,10z"/>
   <path id="5" class="fil9" d="M1328 549l0 17c0,3 -1,5 -2,7 -1,1 -3,2 -5,2 -2,0 -4,-1 -5,-2 -1,-2 -2,-4 -2,-7l0 -21c0,-3 0,-6 0,-8 0,-2 -1,-3 -2,-4 -1,-2 -3,-2 -5,-2 -4,0 -7,1 -8,4 -2,3 -3,8 -3,13l0 18c0,3 0,5 -1,7 -2,1 -3,2 -5,2 -2,0 -4,-1 -5,-2 -2,-2 -2,-4 -2,-7l0 -38c0,-2 0,-4 2,-6 1,-1 2,-2 4,-2 2,0 3,1 5,2 1,2 1,3 1,5l0 2c3,-3 5,-5 8,-6 3,-2 5,-2 9,-2 3,0 6,0 8,2 3,1 5,3 6,6 3,-3 5,-5 7,-6 3,-2 6,-2 9,-2 4,0 7,0 9,2 3,1 5,3 6,6 2,2 2,6 2,11l0 26c0,3 -1,5 -2,7 -1,1 -3,2 -5,2 -2,0 -4,-1 -5,-2 -1,-2 -2,-4 -2,-7l0 -22c0,-3 0,-5 0,-7 0,-2 -1,-3 -2,-4 -1,-2 -3,-2 -5,-2 -2,0 -3,0 -5,1 -2,1 -3,3 -4,5 -1,2 -1,6 -1,12z"/>
   <path id="6" class="fil9" d="M1384 508l0 21c3,-3 5,-5 8,-6 3,-2 6,-2 10,-2 4,0 8,1 11,3 4,2 6,5 8,9 2,4 3,9 3,14 0,4 -1,8 -2,11 -1,4 -2,6 -4,9 -2,2 -4,4 -7,6 -3,1 -6,2 -9,2 -3,0 -4,-1 -6,-1 -2,-1 -4,-1 -5,-2 -1,-1 -2,-2 -3,-2 -1,-1 -2,-3 -4,-4l0 1c0,3 0,4 -1,6 -2,1 -3,2 -5,2 -2,0 -3,-1 -5,-2 -1,-2 -1,-3 -1,-6l0 -58c0,-3 0,-5 1,-6 1,-2 3,-2 5,-2 2,0 4,0 5,2 1,1 1,3 1,5zm1 40c0,5 1,9 4,12 2,3 5,4 9,4 4,0 6,-1 9,-4 2,-3 3,-7 3,-13 0,-3 0,-6 -1,-9 -1,-2 -2,-4 -4,-5 -2,-2 -4,-3 -7,-3 -2,0 -5,1 -7,3 -2,1 -3,3 -4,6 -1,2 -2,5 -2,9z"/>
   <path id="7" class="fil9" d="M1472 551l-26 0c0,3 0,6 1,8 2,2 3,4 5,5 2,1 4,2 7,2 1,0 3,0 4,-1 1,0 3,-1 4,-1 1,-1 2,-2 3,-3 1,-1 3,-2 4,-4 1,0 2,-1 3,-1 2,0 3,1 4,2 1,0 1,1 1,3 0,1 -1,2 -1,4 -1,2 -3,3 -5,5 -2,1 -4,2 -7,3 -3,1 -6,2 -10,2 -8,0 -15,-3 -20,-8 -5,-5 -7,-11 -7,-20 0,-3 1,-7 2,-10 1,-4 3,-7 5,-9 2,-3 5,-4 8,-6 4,-1 7,-2 11,-2 5,0 10,1 14,4 3,2 6,5 8,8 2,4 3,7 3,11 0,3 -1,5 -3,6 -2,1 -5,2 -8,2zm-26 -8l24 0c0,-4 -2,-8 -4,-10 -2,-2 -5,-3 -8,-3 -4,0 -6,1 -8,3 -3,2 -4,6 -4,10z"/>
   <path id="8" class="fil9" d="M1507 555l0 12c0,2 0,4 -2,6 -1,1 -3,2 -5,2 -1,0 -3,-1 -4,-2 -2,-2 -2,-4 -2,-6l0 -38c0,-6 2,-9 6,-9 3,0 4,1 5,3 1,1 2,3 2,6 1,-3 3,-5 5,-6 1,-2 4,-3 6,-3 3,0 6,1 9,3 2,1 3,3 3,5 0,2 0,3 -1,4 -1,1 -3,2 -4,2 0,0 -2,-1 -3,-1 -2,-1 -4,-1 -5,-1 -2,0 -4,0 -5,2 -1,1 -2,2 -3,4 -1,2 -1,4 -1,7 -1,3 -1,6 -1,10z"/>
   <path id="9" class="fil9" d="M1591 567l0 -9 -25 0c-3,0 -5,-1 -7,-2 -1,-1 -2,-3 -2,-6 0,0 0,-1 0,-2 1,0 1,-1 1,-2 1,0 1,-1 2,-2 0,0 1,-1 2,-2l26 -35c1,-2 3,-3 4,-4 1,-2 2,-2 4,-2 5,0 7,3 7,8l0 38 2 0c3,0 5,1 6,1 2,1 2,2 2,5 0,2 0,3 -1,4 -2,1 -3,1 -6,1l-3 0 0 9c0,3 0,5 -2,6 -1,1 -2,2 -4,2 -2,0 -3,-1 -4,-2 -2,-1 -2,-3 -2,-6zm-21 -20l21 0 0 -28 -21 28z"/>
   <path id="10" class="fil9" d="M1640 553l-16 0c-2,0 -4,0 -5,-1 -1,-1 -2,-3 -2,-5 0,-1 1,-3 2,-4 1,-1 3,-1 5,-1l16 0c2,0 4,0 5,1 1,1 2,3 2,4 0,2 -1,4 -2,5 -1,1 -3,1 -5,1z"/>
   <path id="11" class="fil9" d="M1667 535c2,-3 4,-5 7,-6 3,-1 5,-2 9,-2 3,0 6,1 8,2 3,1 5,3 7,5 2,2 4,4 5,7 1,3 1,6 1,9 0,5 -1,9 -3,13 -2,4 -5,6 -9,9 -3,2 -8,3 -12,3 -6,0 -11,-2 -15,-4 -4,-3 -7,-7 -9,-12 -2,-5 -3,-12 -3,-19 0,-6 1,-12 2,-17 1,-5 3,-9 6,-12 2,-3 5,-5 8,-7 4,-2 7,-3 12,-3 4,0 8,1 11,3 3,2 5,4 7,6 2,2 2,5 2,7 0,1 0,2 -1,4 -1,1 -2,1 -4,1 -1,0 -3,0 -4,-1 -1,-1 -2,-2 -2,-4 -1,-2 -2,-3 -4,-4 -2,-2 -3,-2 -6,-2 -1,0 -3,0 -5,1 -1,1 -3,3 -4,4 -2,4 -4,10 -4,19zm13 30c3,0 6,-1 8,-4 2,-3 3,-6 3,-11 0,-2 0,-5 -1,-7 -1,-2 -3,-4 -4,-5 -2,-1 -4,-2 -6,-2 -2,0 -4,1 -6,2 -2,1 -3,3 -4,5 -2,2 -2,4 -2,7 0,4 1,8 3,11 3,3 5,4 9,4z"/>
   <path id="12" class="fil9" d="M1724 575c-2,0 -4,-1 -6,-2 -1,-2 -2,-3 -2,-6 0,-2 1,-4 2,-5 2,-1 4,-2 6,-2 1,0 3,0 4,1 1,1 2,2 3,4 1,2 1,4 1,6 0,3 -1,6 -2,9 -1,3 -3,5 -5,7 -2,1 -4,2 -5,2 -1,0 -2,0 -3,-1 0,0 -1,-1 -1,-2 0,-1 1,-2 2,-3 4,-2 6,-5 6,-8z"/>
   <path id="13" class="fil9" d="M1787 562l25 0c3,0 5,0 6,2 1,1 2,2 2,4 0,1 -1,3 -2,4 -1,1 -2,1 -4,1l-36 0c-3,0 -5,0 -6,-2 -2,-1 -2,-2 -2,-4 0,-1 0,-3 1,-5 1,-2 2,-3 3,-5 4,-4 8,-8 12,-11 3,-3 6,-5 7,-6 3,-2 5,-4 7,-6 2,-2 3,-4 4,-6 1,-2 1,-4 1,-6 0,-2 0,-4 -1,-5 -1,-2 -3,-3 -4,-4 -2,-1 -4,-2 -6,-2 -4,0 -7,2 -10,6 0,0 -1,2 -2,4 0,2 -1,4 -2,5 -1,1 -2,2 -4,2 -2,0 -3,-1 -4,-2 -1,-1 -2,-2 -2,-4 0,-2 1,-5 2,-7 1,-3 2,-5 4,-7 2,-2 5,-3 8,-5 3,-1 6,-2 10,-2 5,0 10,1 13,3 2,1 5,2 6,4 2,2 3,4 4,6 1,3 2,5 2,8 0,4 -1,8 -3,11 -2,3 -4,6 -6,8 -3,2 -6,4 -11,8 -5,4 -8,8 -10,10 -1,1 -2,2 -2,3z"/>
   <path id="14" class="fil9" d="M1878 538c0,6 0,10 -1,14 0,4 -1,7 -3,11 -2,3 -5,6 -9,8 -3,3 -7,4 -11,4 -5,0 -10,-2 -14,-5 -4,-2 -7,-6 -9,-11 -1,-3 -1,-6 -2,-9 0,-3 -1,-7 -1,-11 0,-5 1,-9 1,-13 1,-4 2,-7 3,-10 2,-5 4,-8 8,-11 4,-2 8,-4 13,-4 3,0 7,1 9,2 3,1 5,3 7,5 3,2 4,4 6,8 2,5 3,13 3,22zm-13 -1c0,-6 0,-10 -1,-14 -1,-4 -2,-7 -4,-9 -1,-2 -4,-3 -7,-3 -4,0 -7,2 -9,7 -1,4 -2,11 -2,20 0,6 0,11 1,15 1,4 2,7 4,9 1,2 4,3 6,3 3,0 6,-1 7,-3 2,-3 3,-6 4,-9 1,-4 1,-9 1,-16z"/>
   <path id="15" class="fil9" d="M1911 567l0 -45c-8,7 -13,10 -16,10 -2,0 -3,-1 -4,-2 -1,-1 -2,-2 -2,-4 0,-1 1,-2 2,-3 1,-1 3,-2 5,-3 4,-2 8,-4 10,-6 2,-2 4,-4 6,-7 2,-3 3,-4 4,-5 0,0 1,-1 3,-1 2,0 3,1 4,2 1,2 2,4 2,6l0 56c0,6 -3,10 -7,10 -2,0 -4,-1 -5,-2 -1,-2 -2,-4 -2,-6z"/>
   <path id="16" class="fil9" d="M1983 541c-2,3 -4,5 -7,6 -3,1 -6,2 -9,2 -3,0 -6,-1 -8,-2 -3,-1 -5,-3 -7,-5 -2,-2 -4,-4 -5,-7 -1,-3 -1,-6 -1,-9 0,-3 0,-7 2,-10 1,-3 2,-5 5,-7 2,-3 4,-4 7,-6 3,-1 7,-2 10,-2 5,0 8,1 12,3 3,1 6,4 8,6 2,3 4,7 5,11 1,5 2,10 2,15 0,7 -1,12 -2,17 -1,5 -3,9 -6,12 -2,3 -5,6 -8,7 -4,2 -8,3 -12,3 -4,0 -8,-1 -11,-3 -3,-1 -5,-3 -7,-6 -2,-2 -2,-5 -2,-7 0,-1 0,-2 1,-3 1,-1 2,-2 4,-2 1,0 3,0 4,1 1,1 2,2 2,4 1,2 2,3 4,4 2,2 3,2 6,2 1,0 3,0 5,-1 1,-1 3,-2 4,-4 2,-4 4,-10 4,-19zm-1 -15c0,-2 0,-4 -1,-6 0,-2 -1,-3 -2,-5 -1,-1 -3,-2 -4,-3 -2,-1 -3,-1 -5,-1 -3,0 -6,1 -8,4 -2,3 -3,6 -3,11 0,4 1,7 3,10 2,2 5,4 8,4 2,0 4,-1 6,-2 2,-1 3,-2 4,-4 2,-2 2,-5 2,-8z"/>
  </g>
  <g id="_1697130121728">
   <path class="fil8" d="M1086 647l0 18 28 0 0 -18c0,-3 1,-5 2,-6 1,-2 3,-3 5,-3 2,0 3,1 5,2 1,2 2,4 2,7l0 51c0,3 -1,5 -2,6 -2,2 -3,2 -5,2 -2,0 -4,0 -5,-2 -1,-1 -2,-3 -2,-6l0 -22 -28 0 0 22c0,3 -1,5 -2,6 -2,2 -3,2 -5,2 -2,0 -4,0 -5,-2 -1,-1 -2,-3 -2,-6l0 -51c0,-3 1,-5 2,-6 1,-2 3,-3 5,-3 2,0 4,1 5,2 1,2 2,4 2,7z"/>
   <path id="1" class="fil8" d="M1172 699c-3,3 -6,4 -9,6 -2,1 -6,1 -9,1 -3,0 -6,0 -8,-2 -3,-1 -4,-2 -6,-5 -1,-2 -2,-4 -2,-6 0,-4 1,-7 4,-9 2,-2 5,-4 8,-5 1,0 3,0 6,-1 3,-1 6,-1 8,-2 2,0 5,-1 7,-2 0,-3 -1,-5 -2,-7 -1,-1 -3,-2 -7,-2 -3,0 -5,1 -7,1 -2,1 -3,3 -4,4 -1,2 -2,3 -2,4 -1,0 -2,1 -3,1 -2,0 -3,-1 -4,-2 -1,-1 -1,-2 -1,-3 0,-2 0,-4 2,-6 1,-3 4,-4 7,-5 3,-2 7,-2 12,-2 5,0 10,0 13,1 3,2 5,4 6,6 1,3 2,7 2,11 0,3 0,6 0,8 0,2 0,4 0,6 0,3 0,5 1,8 1,2 1,4 1,4 0,2 0,3 -1,4 -2,1 -3,1 -4,1 -2,0 -3,0 -4,-1 -1,-2 -3,-3 -4,-6zm-1 -17c-2,0 -4,1 -8,2 -3,1 -5,1 -7,1 -1,1 -2,1 -4,2 -1,1 -1,3 -1,5 0,2 0,3 2,4 1,2 3,2 5,2 3,0 5,0 7,-1 2,-1 4,-3 4,-4 2,-2 2,-5 2,-10l0 -1z"/>
   <path id="2" class="fil8" d="M1236 682l0 17c0,2 0,4 -2,5 -1,2 -2,2 -4,2 -2,0 -4,0 -5,-2 -1,-1 -1,-3 -1,-5l0 -20c0,-3 -1,-5 -1,-7 0,-2 -1,-3 -1,-4 -1,-1 -3,-2 -5,-2 -4,0 -6,2 -8,4 -1,3 -2,7 -2,12l0 17c0,2 0,4 -1,5 -2,2 -3,2 -5,2 -2,0 -3,0 -4,-2 -2,-1 -2,-3 -2,-5l0 -35c0,-3 0,-4 1,-6 1,-1 3,-1 5,-1 1,0 3,0 4,1 1,1 1,3 1,5l0 1c3,-2 5,-4 7,-5 3,-2 5,-2 8,-2 3,0 6,0 8,2 2,1 4,3 6,5 2,-2 4,-4 6,-5 3,-2 5,-2 8,-2 3,0 6,0 9,2 2,1 4,3 5,5 1,3 2,6 2,11l0 24c0,2 -1,4 -2,5 -1,2 -3,2 -5,2 -1,0 -3,0 -4,-2 -1,-1 -2,-3 -2,-5l0 -21c0,-3 0,-5 0,-6 0,-2 -1,-3 -2,-4 -1,-1 -3,-2 -5,-2 -1,0 -3,1 -4,2 -2,1 -3,2 -4,3 0,3 -1,6 -1,11z"/>
   <path id="3" class="fil8" d="M1288 645l0 19c2,-2 5,-4 7,-5 2,-2 5,-2 9,-2 4,0 7,1 10,3 4,2 6,4 8,8 1,4 2,8 2,13 0,4 0,7 -1,10 -1,3 -3,6 -4,8 -2,2 -4,4 -7,5 -2,2 -5,2 -8,2 -2,0 -4,0 -6,0 -1,-1 -3,-1 -4,-2 -1,-1 -2,-2 -3,-2 -1,-1 -2,-2 -3,-4l0 1c0,3 -1,4 -2,6 -1,1 -2,1 -4,1 -2,0 -3,0 -4,-1 -1,-2 -2,-3 -2,-6l0 -53c0,-2 1,-4 2,-6 1,-1 2,-2 4,-2 2,0 3,1 4,2 1,2 2,3 2,5zm0 37c0,5 2,8 4,11 2,3 5,4 9,4 3,0 5,-1 7,-4 3,-3 4,-7 4,-12 0,-3 -1,-6 -2,-8 0,-2 -2,-4 -3,-5 -2,-2 -4,-2 -6,-2 -3,0 -5,0 -7,2 -1,1 -3,3 -4,5 -1,3 -2,5 -2,9z"/>
   <path id="4" class="fil8" d="M1364 699l0 -1c-1,2 -3,3 -4,5 -2,1 -4,2 -5,2 -2,1 -5,1 -7,1 -3,0 -6,0 -8,-2 -2,-1 -4,-3 -5,-5 -2,-2 -3,-6 -3,-11l0 -24c0,-3 1,-4 2,-6 1,-1 3,-1 4,-1 2,0 4,0 5,1 1,2 2,4 2,6l0 19c0,3 0,6 0,8 1,2 2,3 3,4 1,1 3,2 5,2 2,0 4,-1 6,-2 2,-1 3,-3 4,-5 0,-2 1,-5 1,-11l0 -15c0,-2 0,-4 1,-6 2,-1 3,-1 5,-1 2,0 3,0 4,1 1,2 2,3 2,6l0 35c0,3 -1,4 -2,6 -1,1 -2,1 -4,1 -1,0 -3,0 -4,-1 -1,-2 -2,-3 -2,-6z"/>
   <path id="5" class="fil8" d="M1400 689l0 10c0,2 0,4 -2,5 -1,2 -2,2 -4,2 -2,0 -3,0 -4,-2 -1,-1 -2,-3 -2,-5l0 -34c0,-6 2,-8 6,-8 2,0 3,0 4,2 1,1 2,3 2,5 1,-2 3,-4 4,-5 2,-2 4,-2 6,-2 3,0 5,0 8,2 2,1 4,3 4,5 0,1 -1,2 -2,3 -1,1 -2,2 -3,2 -1,0 -2,0 -4,-1 -1,-1 -3,-1 -4,-1 -2,0 -3,1 -5,2 -1,1 -2,2 -2,4 -1,2 -1,4 -1,6 -1,3 -1,6 -1,10z"/>
   <path id="6" class="fil8" d="M1471 666l0 35c0,4 -1,8 -1,11 -1,3 -3,5 -5,7 -1,2 -4,3 -7,4 -3,1 -7,1 -12,1 -4,0 -8,0 -11,-1 -3,-1 -6,-3 -8,-5 -1,-2 -2,-4 -2,-6 0,-1 0,-2 1,-3 1,-1 3,-2 4,-2 2,0 3,1 5,3 0,0 1,1 2,2 0,1 1,2 2,2 1,1 2,1 3,2 1,0 3,0 4,0 3,0 6,0 8,-1 1,-1 3,-2 3,-4 1,-2 1,-3 1,-5 1,-2 1,-5 1,-9 -2,3 -4,5 -7,6 -2,2 -5,2 -9,2 -4,0 -7,-1 -10,-3 -3,-2 -6,-5 -7,-9 -2,-3 -3,-8 -3,-13 0,-3 1,-7 2,-10 1,-3 2,-5 4,-7 2,-2 4,-4 6,-5 3,-1 5,-1 8,-1 4,0 7,0 9,2 3,1 5,3 7,6l0 -2c0,-2 1,-3 2,-5 1,-1 2,-1 4,-1 2,0 4,0 5,2 0,2 1,4 1,7zm-36 15c0,5 2,9 4,11 2,3 5,4 8,4 2,0 4,0 6,-1 2,-2 3,-3 4,-5 1,-3 2,-5 2,-8 0,-5 -1,-9 -3,-12 -3,-3 -5,-4 -9,-4 -3,0 -6,1 -8,4 -2,2 -4,6 -4,11z"/>
   <path id="7" class="fil8" d="M1489 706c-2,0 -3,0 -5,-1 -1,-2 -2,-3 -2,-5 0,-2 1,-4 2,-5 1,-2 3,-2 5,-2 1,0 3,0 4,1 1,1 2,2 3,3 0,2 1,4 1,6 0,3 -1,6 -2,8 -1,3 -3,5 -5,6 -2,2 -3,3 -5,3 -1,0 -1,-1 -2,-1 -1,-1 -1,-2 -1,-2 0,-2 1,-3 2,-3 3,-2 5,-5 5,-8z"/>
   <path id="8" class="fil8" d="M1593 679l0 12c0,2 0,3 0,4 0,1 -1,2 -2,3 -1,1 -2,1 -3,2 -4,2 -8,4 -12,5 -3,1 -7,1 -12,1 -5,0 -9,0 -14,-2 -4,-2 -7,-4 -10,-7 -3,-3 -5,-6 -7,-10 -1,-5 -2,-9 -2,-15 0,-5 1,-9 2,-14 2,-4 4,-7 7,-10 3,-3 6,-6 11,-7 4,-2 9,-3 14,-3 4,0 8,1 12,2 3,1 6,3 8,5 2,1 4,3 5,5 1,2 1,4 1,6 0,1 0,3 -2,4 -1,1 -2,2 -4,2 -1,0 -2,0 -3,-1 -1,0 -1,-1 -2,-2 -2,-2 -3,-4 -4,-6 -1,-1 -3,-2 -5,-3 -2,-1 -4,-1 -7,-1 -3,0 -6,0 -8,1 -3,1 -5,3 -6,5 -2,2 -4,4 -4,7 -1,3 -2,7 -2,10 0,8 2,14 6,18 3,4 8,6 14,6 3,0 6,0 9,-1 3,-1 5,-2 8,-4l0 -10 -10 0c-3,0 -4,-1 -6,-1 -1,-1 -2,-2 -2,-4 0,-2 1,-3 2,-4 1,-1 2,-1 4,-1l15 0c2,0 4,0 5,0 1,1 2,1 3,2 1,2 1,3 1,6z"/>
   <path id="9" class="fil8" d="M1639 685l-24 0c0,2 1,5 2,7 1,2 3,4 4,5 2,1 4,1 6,1 2,0 3,0 4,0 2,-1 3,-1 4,-2 1,-1 2,-1 3,-2 1,-1 2,-2 4,-4 0,0 1,0 2,0 2,0 3,0 3,1 1,0 2,1 2,3 0,1 -1,2 -2,3 -1,2 -2,3 -4,5 -1,1 -4,2 -6,3 -3,1 -6,1 -9,1 -8,0 -14,-2 -19,-6 -4,-5 -6,-11 -6,-19 0,-3 0,-7 1,-10 2,-3 3,-5 5,-8 2,-2 5,-4 8,-5 3,-1 6,-1 10,-1 5,0 9,1 12,3 4,2 6,4 8,7 1,4 2,7 2,10 0,3 -1,5 -2,6 -2,1 -5,2 -8,2zm-24 -7l23 0c-1,-5 -2,-8 -4,-10 -2,-2 -4,-3 -8,-3 -3,0 -5,1 -7,3 -2,2 -3,5 -4,10z"/>
   <path id="10" class="fil8" d="M1672 689l0 10c0,2 -1,4 -2,5 -1,2 -3,2 -4,2 -2,0 -4,0 -5,-2 -1,-1 -1,-3 -1,-5l0 -34c0,-6 2,-8 5,-8 3,0 4,0 5,2 1,1 1,3 1,5 2,-2 3,-4 5,-5 1,-2 3,-2 6,-2 3,0 5,0 7,2 3,1 4,3 4,5 0,1 0,2 -1,3 -1,1 -3,2 -4,2 0,0 -1,0 -3,-1 -2,-1 -3,-1 -5,-1 -1,0 -3,1 -4,2 -1,1 -2,2 -3,4 0,2 -1,4 -1,6 0,3 0,6 0,10z"/>
   <path id="11" class="fil8" d="M1740 682l0 17c0,2 0,4 -1,5 -2,2 -3,2 -5,2 -2,0 -3,0 -4,-2 -2,-1 -2,-3 -2,-5l0 -20c0,-3 0,-5 0,-7 -1,-2 -1,-3 -2,-4 -1,-1 -3,-2 -5,-2 -4,0 -6,2 -7,4 -2,3 -2,7 -2,12l0 17c0,2 -1,4 -2,5 -1,2 -3,2 -5,2 -1,0 -3,0 -4,-2 -1,-1 -2,-3 -2,-5l0 -35c0,-3 1,-4 2,-6 1,-1 2,-1 4,-1 2,0 3,0 4,1 1,1 2,3 2,5l0 1c2,-2 4,-4 6,-5 3,-2 6,-2 9,-2 3,0 5,0 7,2 3,1 4,3 6,5 2,-2 4,-4 7,-5 2,-2 5,-2 7,-2 4,0 7,0 9,2 2,1 4,3 5,5 1,3 2,6 2,11l0 24c0,2 -1,4 -2,5 -1,2 -2,2 -4,2 -2,0 -4,0 -5,-2 -1,-1 -2,-3 -2,-5l0 -21c0,-3 0,-5 0,-6 0,-2 -1,-3 -2,-4 -1,-1 -2,-2 -4,-2 -2,0 -3,1 -5,2 -1,1 -2,2 -3,3 -1,3 -2,6 -2,11z"/>
   <path id="12" class="fil8" d="M1812 699c-3,3 -6,4 -9,6 -3,1 -6,1 -9,1 -3,0 -6,0 -8,-2 -3,-1 -5,-2 -6,-5 -1,-2 -2,-4 -2,-6 0,-4 1,-7 3,-9 3,-2 5,-4 9,-5 1,0 3,0 6,-1 3,-1 6,-1 8,-2 2,0 4,-1 7,-2 0,-3 -1,-5 -2,-7 -1,-1 -3,-2 -7,-2 -3,0 -6,1 -7,1 -2,1 -3,3 -4,4 -1,2 -2,3 -3,4 0,0 -1,1 -2,1 -2,0 -3,-1 -4,-2 -1,-1 -2,-2 -2,-3 0,-2 1,-4 3,-6 1,-3 4,-4 7,-5 3,-2 7,-2 12,-2 5,0 9,0 13,1 3,2 5,4 6,6 1,3 2,7 2,11 0,3 0,6 0,8 0,2 0,4 0,6 0,3 0,5 1,8 1,2 1,4 1,4 0,2 0,3 -2,4 -1,1 -2,1 -4,1 -1,0 -2,0 -3,-1 -2,-2 -3,-3 -4,-6zm-1 -17c-2,0 -4,1 -8,2 -3,1 -6,1 -7,1 -1,1 -2,1 -4,2 -1,1 -1,3 -1,5 0,2 0,3 2,4 1,2 3,2 5,2 3,0 5,0 7,-1 2,-1 3,-3 4,-4 1,-2 2,-5 2,-10l0 -1z"/>
   <path id="13" class="fil8" d="M1846 663l0 2c3,-3 5,-5 7,-6 3,-2 6,-2 9,-2 4,0 6,0 9,2 2,1 4,3 6,6 0,1 1,3 1,5 0,1 1,3 1,6l0 23c0,2 -1,4 -2,5 -1,2 -3,2 -5,2 -1,0 -3,0 -4,-2 -1,-1 -2,-3 -2,-5l0 -20c0,-5 0,-8 -1,-10 -1,-2 -4,-3 -7,-3 -2,0 -4,1 -6,2 -2,1 -3,3 -4,5 -1,2 -1,6 -1,11l0 15c0,2 0,4 -2,5 -1,2 -2,2 -4,2 -2,0 -3,0 -4,-2 -1,-1 -2,-3 -2,-5l0 -35c0,-3 1,-4 2,-6 1,-1 2,-1 4,-1 1,0 2,0 3,0 0,1 1,2 2,3 0,1 0,2 0,3z"/>
   <path id="14" class="fil8" d="M1902 708l1 -3 -15 -38c-1,-2 -1,-4 -1,-4 0,-2 0,-3 1,-3 0,-1 1,-2 2,-3 1,0 2,0 3,0 1,0 3,0 4,1 1,1 1,3 2,5l10 30 10 -28c1,-2 2,-4 2,-5 1,-1 2,-2 2,-3 1,0 2,0 3,0 1,0 2,0 3,0 1,1 1,2 2,2 0,1 1,2 1,3 -1,1 -1,1 -1,2 0,1 -1,3 -1,4l-16 41c-1,4 -3,7 -4,9 -1,2 -3,4 -5,5 -2,1 -5,1 -9,1 -4,0 -6,0 -8,-1 -2,0 -3,-2 -3,-4 0,-1 1,-2 2,-3 0,-1 2,-1 3,-1 1,0 2,0 2,0 1,0 2,0 2,0 2,0 3,0 4,0 0,-1 1,-2 2,-3 0,-1 1,-2 2,-4z"/>
   <path class="fil9" d="M1082 643l0 19 29 0 0 -19c0,-3 0,-5 2,-6 1,-1 2,-2 4,-2 2,0 4,1 5,2 1,1 2,3 2,6l0 52c0,2 -1,4 -2,6 -1,1 -3,2 -5,2 -2,0 -3,-1 -4,-2 -2,-2 -2,-4 -2,-6l0 -22 -29 0 0 22c0,2 -1,4 -2,6 -1,1 -3,2 -5,2 -2,0 -3,-1 -4,-2 -2,-2 -2,-4 -2,-6l0 -52c0,-3 0,-5 2,-6 1,-1 2,-2 4,-2 2,0 4,1 5,2 1,1 2,3 2,6z"/>
   <path id="1" class="fil9" d="M1168 696c-3,2 -5,4 -8,5 -3,1 -6,2 -9,2 -4,0 -6,-1 -9,-2 -2,-1 -4,-3 -5,-5 -2,-2 -2,-5 -2,-7 0,-3 1,-6 3,-9 2,-2 5,-3 9,-4 1,0 2,-1 6,-2 3,0 5,-1 7,-1 3,-1 5,-1 8,-2 -1,-3 -1,-6 -2,-7 -2,-2 -4,-2 -8,-2 -3,0 -5,0 -7,1 -1,1 -2,2 -4,4 -1,1 -1,3 -2,3 0,1 -1,1 -3,1 -1,0 -2,0 -3,-1 -1,-1 -2,-2 -2,-4 0,-2 1,-4 2,-6 2,-2 4,-4 7,-5 4,-1 8,-2 13,-2 5,0 9,1 12,2 3,1 5,3 7,6 1,3 2,6 2,11 0,3 0,5 0,7 0,2 0,4 -1,7 0,2 1,5 2,7 0,2 1,4 1,5 0,1 -1,2 -2,3 -1,1 -3,2 -4,2 -1,0 -2,-1 -4,-2 -1,-1 -2,-3 -4,-5zm0 -18c-2,1 -5,2 -8,2 -4,1 -6,2 -7,2 -2,0 -3,1 -4,2 -1,1 -2,2 -2,4 0,2 1,4 2,5 2,1 3,2 6,2 2,0 4,-1 6,-2 2,-1 4,-2 5,-4 1,-2 2,-5 2,-9l0 -2z"/>
   <path id="2" class="fil9" d="M1233 679l0 16c0,3 -1,5 -2,6 -1,1 -3,2 -5,2 -2,0 -3,-1 -4,-2 -1,-1 -2,-3 -2,-6l0 -19c0,-3 0,-6 0,-8 0,-1 -1,-3 -2,-4 -1,-1 -2,-1 -4,-1 -4,0 -7,1 -8,4 -2,2 -2,6 -2,12l0 16c0,3 -1,5 -2,6 -1,1 -3,2 -4,2 -2,0 -4,-1 -5,-2 -1,-1 -2,-3 -2,-6l0 -35c0,-2 1,-4 2,-5 1,-1 2,-2 4,-2 2,0 3,1 4,2 1,1 2,2 2,4l0 2c2,-3 4,-5 7,-6 2,-1 5,-2 8,-2 3,0 5,1 8,2 2,1 4,3 5,6 2,-3 4,-5 7,-6 2,-1 5,-2 8,-2 3,0 6,1 8,2 3,1 4,3 6,6 1,2 1,5 1,10l0 24c0,3 0,5 -2,6 -1,1 -2,2 -4,2 -2,0 -4,-1 -5,-2 -1,-1 -1,-3 -1,-6l0 -20c0,-3 -1,-5 -1,-7 0,-1 -1,-3 -2,-4 -1,-1 -2,-1 -4,-1 -2,0 -3,0 -5,1 -1,1 -2,2 -3,4 -1,2 -1,6 -1,11z"/>
   <path id="3" class="fil9" d="M1284 642l0 19c3,-3 5,-5 7,-6 3,-1 6,-2 9,-2 4,0 8,1 11,3 3,2 5,5 7,8 2,4 3,8 3,13 0,4 -1,8 -2,11 -1,3 -2,5 -4,8 -2,2 -4,4 -6,5 -3,1 -6,2 -9,2 -2,0 -4,0 -5,-1 -2,0 -3,-1 -4,-2 -2,0 -3,-1 -3,-2 -1,-1 -2,-2 -4,-3l0 1c0,2 0,4 -1,5 -1,1 -3,2 -5,2 -1,0 -3,-1 -4,-2 -1,-1 -1,-3 -1,-5l0 -54c0,-2 0,-4 1,-5 1,-1 3,-2 4,-2 2,0 4,1 5,2 1,1 1,3 1,5zm1 36c0,5 1,9 3,11 3,3 5,4 9,4 3,0 6,-1 8,-4 2,-2 3,-6 3,-11 0,-3 0,-6 -1,-8 -1,-3 -2,-5 -4,-6 -2,-1 -4,-2 -6,-2 -2,0 -4,1 -6,2 -2,1 -3,3 -4,6 -2,2 -2,5 -2,8z"/>
   <path id="4" class="fil9" d="M1361 696l0 -2c-2,2 -3,4 -5,5 -1,1 -3,2 -5,3 -2,0 -4,1 -7,1 -3,0 -5,-1 -7,-2 -3,-1 -5,-3 -6,-5 -1,-3 -2,-7 -2,-11l0 -25c0,-2 0,-4 1,-5 2,-1 3,-2 5,-2 2,0 3,1 4,2 1,1 2,3 2,5l0 20c0,3 0,5 1,7 0,2 1,4 2,5 2,1 3,1 5,1 2,0 4,0 6,-2 2,-1 3,-2 4,-4 1,-2 1,-6 1,-12l0 -15c0,-2 1,-4 2,-5 1,-1 2,-2 4,-2 2,0 4,1 5,2 1,1 1,3 1,5l0 36c0,2 0,4 -1,5 -1,1 -3,2 -4,2 -2,0 -3,-1 -4,-2 -2,-1 -2,-3 -2,-5z"/>
   <path id="5" class="fil9" d="M1397 685l0 10c0,3 -1,5 -2,6 -1,1 -3,2 -5,2 -1,0 -3,-1 -4,-2 -1,-1 -2,-3 -2,-6l0 -34c0,-5 2,-8 6,-8 2,0 4,1 5,2 1,1 1,3 1,6 2,-3 3,-5 5,-6 1,-1 3,-2 6,-2 2,0 5,1 7,2 3,1 4,3 4,5 0,2 -1,3 -2,4 -1,1 -2,1 -3,1 0,0 -1,0 -3,-1 -2,0 -3,0 -5,0 -1,0 -3,0 -4,1 -1,1 -2,2 -3,4 0,2 -1,4 -1,7 0,2 0,5 0,9z"/>
   <path id="6" class="fil9" d="M1467 662l0 36c0,4 0,7 -1,10 -1,3 -2,5 -4,7 -2,2 -5,4 -8,5 -3,0 -7,1 -11,1 -4,0 -8,-1 -11,-2 -4,-1 -6,-3 -8,-4 -2,-2 -3,-4 -3,-6 0,-2 1,-3 2,-4 1,-1 2,-1 3,-1 2,0 4,1 5,2 1,1 1,2 2,3 1,0 2,1 2,2 1,0 2,1 4,1 1,0 2,0 4,0 3,0 5,0 7,-1 2,-1 3,-2 4,-4 0,-1 1,-3 1,-5 0,-1 0,-4 0,-8 -2,2 -4,4 -6,6 -3,1 -6,2 -9,2 -4,0 -8,-1 -11,-3 -3,-3 -5,-5 -7,-9 -2,-4 -2,-8 -2,-13 0,-4 0,-7 1,-10 1,-3 3,-6 4,-8 2,-2 4,-3 7,-4 2,-1 5,-2 8,-2 3,0 6,1 9,2 2,2 5,4 7,6l0 -1c0,-2 0,-4 1,-5 1,-1 3,-2 4,-2 3,0 4,1 5,2 1,2 1,4 1,7zm-35 16c0,5 1,8 3,11 2,2 5,4 9,4 2,0 4,-1 5,-2 2,-1 4,-3 5,-5 1,-2 1,-5 1,-8 0,-5 -1,-9 -3,-12 -2,-2 -5,-4 -9,-4 -3,0 -6,2 -8,4 -2,3 -3,7 -3,12z"/>
   <path id="7" class="fil9" d="M1486 703c-2,0 -4,-1 -5,-2 -2,-1 -3,-3 -3,-5 0,-2 1,-3 3,-5 1,-1 3,-2 4,-2 2,0 3,1 4,1 2,1 2,2 3,4 1,1 1,3 1,5 0,3 -1,6 -2,9 -1,2 -3,4 -4,6 -2,1 -4,2 -5,2 -1,0 -2,0 -3,-1 0,0 0,-1 0,-2 0,-1 0,-2 1,-3 4,-2 6,-4 6,-7z"/>
   <path id="8" class="fil9" d="M1590 675l0 13c0,1 0,3 -1,4 0,1 -1,1 -1,2 -1,1 -3,2 -4,3 -4,2 -8,3 -11,4 -4,1 -8,2 -12,2 -5,0 -10,-1 -14,-3 -4,-1 -8,-3 -11,-6 -3,-3 -5,-7 -6,-11 -2,-4 -3,-9 -3,-14 0,-5 1,-10 2,-14 2,-4 4,-8 7,-11 3,-3 7,-5 11,-7 4,-1 9,-2 14,-2 5,0 9,1 12,2 4,1 6,2 8,4 3,2 4,4 5,6 1,2 2,4 2,5 0,2 -1,3 -2,4 -1,2 -3,2 -5,2 0,0 -1,0 -2,0 -1,-1 -2,-2 -2,-2 -2,-3 -4,-5 -5,-6 -1,-1 -2,-3 -4,-3 -2,-1 -5,-2 -8,-2 -3,0 -5,1 -8,2 -2,1 -4,2 -6,4 -2,2 -3,5 -4,8 -1,3 -1,6 -1,10 0,7 1,13 5,17 4,4 8,7 15,7 3,0 6,-1 8,-2 3,-1 6,-2 9,-3l0 -11 -11 0c-2,0 -4,0 -5,-1 -2,-1 -2,-2 -2,-4 0,-1 0,-2 1,-3 1,-1 3,-2 5,-2l15 0c2,0 3,0 5,1 1,0 2,1 3,2 0,1 1,3 1,5z"/>
   <path id="9" class="fil9" d="M1636 681l-24 0c0,3 0,5 1,7 2,2 3,4 5,5 2,1 4,2 6,2 1,0 3,0 4,-1 1,0 2,-1 3,-1 1,-1 3,-2 3,-3 1,-1 3,-2 4,-3 1,-1 2,-1 3,-1 1,0 2,0 3,1 1,1 1,2 1,3 0,1 0,2 -1,4 -1,1 -2,3 -4,4 -2,1 -4,3 -7,3 -2,1 -5,2 -9,2 -8,0 -14,-2 -18,-7 -4,-4 -7,-10 -7,-18 0,-4 1,-7 2,-10 1,-3 3,-6 5,-8 2,-2 4,-4 7,-5 3,-1 7,-2 10,-2 5,0 9,1 13,3 3,2 6,5 7,8 2,3 3,6 3,10 0,3 -1,5 -3,6 -2,1 -4,1 -7,1zm-24 -7l22 0c0,-4 -1,-7 -3,-9 -2,-2 -5,-3 -8,-3 -3,0 -6,1 -8,3 -2,2 -3,5 -3,9z"/>
   <path id="10" class="fil9" d="M1668 685l0 10c0,3 0,5 -2,6 -1,1 -2,2 -4,2 -2,0 -3,-1 -4,-2 -1,-1 -2,-3 -2,-6l0 -34c0,-5 2,-8 6,-8 2,0 3,1 4,2 1,1 2,3 2,6 1,-3 3,-5 4,-6 2,-1 4,-2 6,-2 3,0 6,1 8,2 2,1 4,3 4,5 0,2 -1,3 -2,4 -1,1 -2,1 -3,1 -1,0 -2,0 -4,-1 -1,0 -3,0 -4,0 -2,0 -3,0 -5,1 -1,1 -2,2 -2,4 -1,2 -1,4 -1,7 -1,2 -1,5 -1,9z"/>
   <path id="11" class="fil9" d="M1737 679l0 16c0,3 -1,5 -2,6 -1,1 -3,2 -4,2 -2,0 -4,-1 -5,-2 -1,-1 -2,-3 -2,-6l0 -19c0,-3 0,-6 0,-8 0,-1 -1,-3 -2,-4 -1,-1 -2,-1 -4,-1 -4,0 -7,1 -8,4 -1,2 -2,6 -2,12l0 16c0,3 -1,5 -2,6 -1,1 -2,2 -4,2 -2,0 -4,-1 -5,-2 -1,-1 -1,-3 -1,-6l0 -35c0,-2 0,-4 1,-5 1,-1 3,-2 4,-2 2,0 3,1 4,2 2,1 2,2 2,4l0 2c2,-3 5,-5 7,-6 2,-1 5,-2 8,-2 3,0 6,1 8,2 2,1 4,3 5,6 2,-3 5,-5 7,-6 2,-1 5,-2 8,-2 3,0 6,1 8,2 3,1 5,3 6,6 1,2 1,5 1,10l0 24c0,3 0,5 -1,6 -1,1 -3,2 -5,2 -2,0 -3,-1 -4,-2 -2,-1 -2,-3 -2,-6l0 -20c0,-3 0,-5 -1,-7 0,-1 0,-3 -1,-4 -1,-1 -3,-1 -5,-1 -1,0 -3,0 -4,1 -2,1 -3,2 -4,4 -1,2 -1,6 -1,11z"/>
   <path id="12" class="fil9" d="M1808 696c-3,2 -6,4 -8,5 -3,1 -6,2 -10,2 -3,0 -6,-1 -8,-2 -2,-1 -4,-3 -5,-5 -2,-2 -2,-5 -2,-7 0,-3 1,-6 3,-9 2,-2 5,-3 9,-4 0,0 2,-1 5,-2 3,0 6,-1 8,-1 2,-1 5,-1 7,-2 0,-3 0,-6 -2,-7 -1,-2 -3,-2 -7,-2 -3,0 -5,0 -7,1 -1,1 -3,2 -4,4 -1,1 -2,3 -2,3 -1,1 -2,1 -3,1 -1,0 -3,0 -4,-1 -1,-1 -1,-2 -1,-4 0,-2 1,-4 2,-6 2,-2 4,-4 7,-5 4,-1 8,-2 12,-2 6,0 10,1 13,2 3,1 5,3 7,6 1,3 1,6 1,11 0,3 0,5 0,7 0,2 0,4 0,7 0,2 1,5 1,7 1,2 2,4 2,5 0,1 -1,2 -2,3 -1,1 -3,2 -4,2 -1,0 -3,-1 -4,-2 -1,-1 -2,-3 -4,-5zm-1 -18c-1,1 -4,2 -7,2 -4,1 -6,2 -7,2 -2,0 -3,1 -4,2 -1,1 -2,2 -2,4 0,2 1,4 2,5 1,1 3,2 6,2 2,0 4,-1 6,-2 2,-1 4,-2 5,-4 1,-2 1,-5 1,-9l0 -2z"/>
   <path id="13" class="fil9" d="M1843 660l0 1c2,-3 4,-5 7,-6 2,-1 5,-2 9,-2 3,0 6,1 8,2 3,2 5,4 6,6 1,2 1,3 2,5 0,2 0,4 0,7l0 22c0,3 -1,5 -2,6 -1,1 -2,2 -4,2 -2,0 -3,-1 -4,-2 -2,-1 -2,-3 -2,-6l0 -20c0,-4 -1,-7 -2,-9 -1,-2 -3,-3 -7,-3 -2,0 -4,0 -6,1 -1,2 -3,4 -3,6 -1,2 -1,5 -1,10l0 15c0,3 -1,5 -2,6 -1,1 -3,2 -5,2 -1,0 -3,-1 -4,-2 -1,-1 -2,-3 -2,-6l0 -35c0,-2 1,-4 2,-5 1,-1 2,-2 4,-2 1,0 2,0 3,1 1,0 2,1 2,2 1,1 1,2 1,4z"/>
   <path id="14" class="fil9" d="M1898 704l2 -2 -15 -38c-1,-2 -2,-4 -2,-5 0,-1 0,-2 1,-3 1,-1 1,-2 2,-2 1,-1 2,-1 3,-1 2,0 3,1 4,2 1,1 2,2 2,5l11 30 10 -28c0,-3 1,-4 2,-6 0,-1 1,-2 2,-2 0,-1 1,-1 3,-1 1,0 1,0 2,1 1,0 2,1 2,2 1,1 1,2 1,2 0,1 0,2 -1,3 0,1 0,2 -1,3l-16 42c-1,3 -2,6 -4,8 -1,3 -3,4 -5,5 -2,1 -5,2 -8,2 -4,0 -7,0 -9,-1 -1,-1 -2,-2 -2,-4 0,-2 0,-3 1,-4 1,0 2,-1 4,-1 0,0 1,0 2,0 1,1 1,1 2,1 1,0 2,-1 3,-1 1,0 2,-1 2,-2 1,-1 2,-3 2,-5z"/>
  </g>
 </g>
</svg>
