<?xml version="1.0" encoding="UTF-8"?>
<!DOCTYPE svg PUBLIC "-//W3C//DTD SVG 1.1//EN" "http://www.w3.org/Graphics/SVG/1.1/DTD/svg11.dtd">
<!-- Creator: CorelDRAW X6 -->
<svg xmlns="http://www.w3.org/2000/svg" xml:space="preserve" width="75.2337mm" height="15.0304mm" version="1.1" style="shape-rendering:geometricPrecision; text-rendering:geometricPrecision; image-rendering:optimizeQuality; fill-rule:evenodd; clip-rule:evenodd"
viewBox="0 0 7552 1509"
 xmlns:xlink="http://www.w3.org/1999/xlink">
 <defs>
  <style type="text/css">
   <![CDATA[
    .fil1 {fill:#003876}
    .fil0 {fill:#003876;fill-rule:nonzero}
    .fil2 {fill:#98BFE5;fill-rule:nonzero}
   ]]>
  </style>
 </defs>
<symbol id="Fm1-7-0" viewBox="4373 -1310 7552 1509">
 <polygon class="fil0" points="6649,-71 6616,-71 6598,14 6510,14 6528,-71 6496,-71 6453,130 6485,130 6504,40 6593,40 6573,130 6606,130 "/>
 <path class="fil1" d="M6818 -18c-10,-3 -28,-6 -43,-6 -58,0 -111,48 -111,110 0,27 14,47 42,47 32,0 50,-22 60,-41 -3,16 -5,31 -6,38l31 0c0,-13 2,-34 8,-61l19 -87zm-34 19l-10 41c-8,39 -32,69 -55,69 -19,0 -23,-13 -23,-28 0,-42 32,-84 73,-84 5,0 10,0 15,2z"/>
 <path class="fil1" d="M7070 13c0,-24 -16,-36 -39,-36 -22,0 -41,13 -53,31 0,-20 -16,-31 -35,-31 -24,0 -40,10 -53,29l4 -26 -28 0c-1,11 -3,23 -6,34l-24 116 30 0 18 -85c4,-20 19,-46 43,-46 14,0 21,6 21,20 0,4 -1,9 -1,13l-21 98 31 0 17 -85c5,-21 19,-46 44,-46 13,0 20,6 20,20 0,4 0,9 -1,13l-21 98 31 0 21 -100c1,-5 2,-11 2,-17z"/>
 <path class="fil1" d="M7249 32c0,-18 -4,-55 -46,-55 -23,0 -40,10 -52,27l19 -91 -30 0 -46 217 28 0 6 -27c5,17 16,30 41,30 52,0 80,-55 80,-101zm-32 0c0,29 -15,79 -52,79 -21,0 -27,-18 -27,-36 0,-29 17,-76 52,-76 20,0 27,15 27,33z"/>
 <path class="fil1" d="M7427 -21l-31 0 -18 85c-4,23 -17,47 -44,47 -17,0 -24,-10 -24,-24 0,-5 2,-11 3,-17l19 -91 -31 0 -20 98c-2,7 -2,12 -2,18 0,24 16,38 41,38 24,0 39,-11 53,-30l-5 27 29 0c1,-11 3,-23 5,-35l25 -116z"/>
 <path class="fil1" d="M7557 -22c-4,-1 -8,-1 -12,-1 -20,0 -39,16 -47,33l5 -30 -28 0c-2,11 -4,23 -6,34l-25 116 30 0 15 -71c5,-24 20,-54 49,-54 4,0 8,0 12,2l7 -29z"/>
 <path class="fil1" d="M7708 -18c-11,-3 -27,-5 -42,-5 -58,0 -112,46 -112,109 0,25 14,44 43,44 25,0 40,-8 55,-28l-6 23c-8,30 -23,51 -60,51 -13,0 -28,-3 -42,-10l-6 24c13,5 30,9 47,9 62,0 82,-29 94,-84l29 -133zm-34 19l-10 43c-6,27 -23,65 -56,65 -17,0 -22,-10 -22,-25 0,-44 34,-85 74,-85 5,0 9,0 14,2z"/>
 <path class="fil0" d="M8013 -71l-33 0 -27 128c-6,30 -24,51 -54,51 -28,0 -39,-13 -39,-32 0,-6 1,-12 2,-18l27 -129 -32 0 -28 129c-1,7 -1,15 -1,21 0,39 32,54 65,54 49,0 81,-21 93,-76l27 -128z"/>
 <path class="fil1" d="M8170 15c0,-25 -16,-38 -41,-38 -24,0 -39,10 -53,30l4 -27 -28 0c-1,11 -4,23 -6,34l-24 116 30 0 18 -85c5,-23 18,-46 45,-46 17,0 24,10 24,23 0,6 -2,11 -3,17l-19 91 30 0 21 -98c1,-6 2,-12 2,-17z"/>
 <path class="fil1" d="M8269 -80l-31 0 -6 29 31 0 6 -29zm-13 60l-30 0 -32 150 31 0 31 -150z"/>
 <polygon class="fil0" points="8422,-20 8390,-20 8327,106 8317,-20 8286,-20 8303,130 8342,130 "/>
 <path class="fil1" d="M8567 11c0,-25 -23,-34 -45,-34 -50,0 -95,49 -95,107 0,34 26,49 57,49 18,0 37,-3 52,-11l0 -21c-12,7 -29,12 -43,12 -21,0 -35,-10 -35,-31 0,-6 1,-13 3,-18 39,0 106,-5 106,-53zm-29 2c0,28 -43,32 -73,32 8,-22 28,-48 53,-48 11,0 20,3 20,16z"/>
 <path class="fil1" d="M8694 -22c-3,-1 -7,-1 -12,-1 -20,0 -38,16 -47,33l5 -30 -28 0c-1,11 -4,23 -6,34l-25 116 31 0 15 -71c5,-24 20,-54 48,-54 4,0 8,0 12,2l7 -29z"/>
 <path class="fil0" d="M8813 -16c-13,-5 -27,-7 -40,-7 -28,0 -65,11 -65,45 0,39 60,39 60,66 0,18 -21,25 -36,25 -14,0 -25,-3 -37,-10l-7 23c14,5 28,7 43,7 31,0 68,-13 68,-48 0,-41 -61,-42 -61,-66 0,-17 20,-22 34,-22 11,0 23,3 34,8l7 -21z"/>
 <path class="fil1" d="M8902 -80l-31 0 -6 29 31 0 6 -29zm-12 60l-31 0 -31 150 30 0 32 -150z"/>
 <path class="fil0" d="M9011 -20l-33 0 9 -43 -33 10 -6 33 -28 0 -5 22 28 0 -17 80c-2,7 -3,14 -3,22 0,20 14,29 31,29 11,0 21,-2 30,-4l3 -23c-6,2 -12,4 -18,4 -9,0 -14,-3 -14,-13 0,-6 0,-10 1,-16l18 -79 33 0 4 -22z"/>
 <path class="fil0" d="M9166 -20l-31 0 -61 124 -12 -124 -32 0 22 154 -10 20c-4,10 -14,22 -28,22 -5,0 -10,-2 -14,-3l-7 22c9,2 14,4 23,4 29,0 43,-19 58,-47l92 -172z"/>
 <path class="fil1" d="M9414 31c0,-34 -27,-54 -59,-54 -59,0 -92,47 -92,102 0,34 27,54 59,54 57,0 92,-48 92,-102zm-32 5c0,30 -21,75 -55,75 -24,0 -32,-16 -32,-37 0,-31 19,-75 53,-75 24,0 34,16 34,37z"/>
 <path class="fil0" d="M9559 -87c-8,-2 -15,-3 -23,-3 -33,0 -48,24 -54,52l-4 18 -28 0 -5 22 28 0 -28 133c-3,14 -10,41 -29,41 -4,0 -8,0 -13,-2l-5 22c8,2 17,3 25,3 33,0 47,-35 52,-62l29 -135 33 0 4 -22 -33 0 4 -16c3,-14 9,-32 27,-32 4,0 9,1 13,2l7 -21z"/>
 <path class="fil1" d="M9804 130l-35 -201 -41 0 -120 201 34 0 30 -53 91 0 7 53 34 0zm-44 -77l-75 0 59 -100 16 100z"/>
 <path class="fil1" d="M9985 33c0,-29 -9,-56 -46,-56 -23,0 -43,12 -54,30l5 -27 -29 0c-3,16 -5,31 -9,47l-36 168 31 0 19 -89c4,16 16,27 38,27 53,0 81,-53 81,-100zm-32 0c0,31 -16,78 -52,78 -27,0 -30,-30 -25,-52 4,-24 21,-60 49,-60 23,0 29,15 28,34z"/>
 <path class="fil1" d="M10162 33c0,-29 -9,-56 -46,-56 -22,0 -42,12 -54,30l5 -27 -29 0c-2,16 -5,31 -9,47l-35 168 30 0 19 -89c5,16 17,27 39,27 52,0 80,-53 80,-100zm-32 0c0,31 -15,78 -52,78 -26,0 -29,-30 -25,-52 4,-24 21,-60 50,-60 22,0 28,15 27,34z"/>
 <polygon class="fil0" points="10262,-87 10231,-87 10185,130 10215,130 "/>
 <path class="fil1" d="M10341 -80l-31 0 -5 29 31 0 5 -29zm-12 60l-31 0 -31 150 30 0 32 -150z"/>
 <path class="fil1" d="M10490 11c0,-25 -22,-34 -44,-34 -50,0 -95,49 -95,107 0,34 26,49 57,49 18,0 37,-3 52,-11l0 -21c-13,7 -29,12 -44,12 -20,0 -34,-10 -34,-31 0,-6 1,-13 3,-18 38,0 105,-5 105,-53zm-28 2c0,28 -43,32 -74,32 9,-22 28,-48 54,-48 11,0 20,3 20,16z"/>
 <path class="fil1" d="M10681 -87l-31 0 -19 91c-4,-17 -21,-27 -40,-27 -46,0 -79,48 -79,104 0,27 13,52 47,52 21,0 39,-9 52,-28l-3 25 28 0c2,-14 4,-28 8,-45l37 -172zm-58 121c0,28 -17,77 -51,77 -21,0 -28,-15 -28,-34 0,-30 15,-78 52,-78 21,0 27,17 27,35z"/>
 <path class="fil0" d="M10923 -66c-12,-5 -28,-8 -43,-8 -44,0 -85,20 -85,62 0,48 75,49 75,83 0,25 -23,38 -48,39 -19,0 -36,-6 -45,-12l-8 27c16,6 33,8 51,8 50,0 84,-25 84,-65 0,-53 -75,-53 -75,-84 0,-24 28,-34 48,-34 13,0 28,4 38,9l8 -25z"/>
 <path class="fil0" d="M11070 -17c-11,-4 -26,-6 -38,-6 -57,0 -94,45 -94,100 0,35 26,56 59,56 14,0 29,-1 43,-5l3 -23c-12,4 -24,6 -36,6 -23,0 -37,-19 -37,-40 0,-34 24,-72 62,-72 11,0 22,2 32,7l6 -23z"/>
 <path class="fil1" d="M11153 -80l-31 0 -6 29 31 0 6 -29zm-12 60l-31 0 -31 150 30 0 32 -150z"/>
 <path class="fil1" d="M11302 11c0,-25 -22,-34 -45,-34 -50,0 -94,49 -94,107 0,34 25,49 57,49 18,0 36,-3 52,-11l0 -21c-13,7 -29,12 -44,12 -20,0 -34,-10 -34,-31 0,-6 1,-13 3,-18 38,0 105,-5 105,-53zm-28 2c0,28 -43,32 -74,32 9,-22 28,-48 53,-48 12,0 21,3 21,16z"/>
 <path class="fil1" d="M11465 15c0,-25 -16,-38 -40,-38 -25,0 -40,10 -54,30l4 -27 -28 0c-1,11 -3,23 -6,34l-24 116 30 0 18 -85c5,-23 18,-46 45,-46 17,0 24,10 24,23 0,6 -2,11 -3,17l-19 91 31 0 20 -98c1,-6 2,-12 2,-17z"/>
 <path class="fil0" d="M11628 -17c-12,-4 -26,-6 -38,-6 -57,0 -94,45 -94,100 0,35 25,56 58,56 15,0 30,-1 44,-5l3 -23c-12,4 -24,6 -36,6 -23,0 -37,-19 -37,-40 0,-34 24,-72 62,-72 10,0 22,2 32,7l6 -23z"/>
 <path class="fil1" d="M11781 11c0,-25 -23,-34 -45,-34 -50,0 -94,49 -94,107 0,34 25,49 56,49 18,0 37,-3 52,-11l0 -21c-12,7 -29,12 -43,12 -20,0 -34,-10 -34,-31 0,-6 0,-13 2,-18 39,0 106,-5 106,-53zm-29 2c0,28 -43,32 -73,32 8,-22 28,-48 53,-48 11,0 20,3 20,16z"/>
 <path class="fil0" d="M11914 -16c-12,-5 -27,-7 -40,-7 -28,0 -64,11 -64,45 0,39 60,39 60,66 0,18 -22,25 -37,25 -13,0 -25,-3 -36,-10l-7 23c13,5 28,7 43,7 30,0 67,-13 67,-48 0,-41 -61,-42 -61,-66 0,-17 20,-22 34,-22 12,0 24,3 34,8l7 -21z"/>
 <polygon class="fil0" points="6821,-700 6778,-700 6714,-458 6648,-700 6597,-700 6530,-458 6467,-700 6420,-700 6500,-414 6554,-414 6621,-656 6688,-414 6741,-414 "/>
 <path class="fil1" d="M6863 -673l43 0 0 -41 -43 0 0 41zm0 259l43 0 0 -214 -43 0 0 214z"/>
 <path class="fil0" d="M7107 -474c0,-73 -106,-62 -106,-99 0,-24 23,-29 42,-29 17,0 37,4 52,10l3 -31c-18,-6 -39,-10 -58,-10 -37,0 -81,17 -81,61 0,68 105,52 105,100 0,23 -24,33 -44,33 -20,0 -41,-5 -59,-15l-2 35c21,7 43,10 65,10 40,0 83,-20 83,-65z"/>
 <path class="fil0" d="M7293 -474c0,-73 -106,-62 -106,-99 0,-24 24,-29 42,-29 17,0 37,4 52,10l3 -31c-18,-6 -39,-10 -58,-10 -38,0 -81,17 -81,61 0,68 105,52 105,100 0,23 -24,33 -44,33 -20,0 -41,-5 -59,-15l-2 35c21,7 43,10 66,10 39,0 82,-20 82,-65z"/>
 <path class="fil1" d="M7519 -510l0 -13c0,-60 -25,-110 -89,-110 -60,0 -97,52 -97,111 0,67 33,113 103,113 24,0 51,-3 72,-12l-2 -33c-18,9 -43,15 -63,15 -41,0 -66,-31 -66,-71l142 0zm-41 -27l-102 0c0,-27 17,-66 54,-66 37,0 48,36 48,66z"/>
 <path class="fil0" d="M7754 -414l0 -135c0,-50 -19,-84 -72,-84 -31,0 -55,14 -70,42l-1 -38 -40 0c1,17 2,34 2,50l0 165 43 0 0 -116c0,-34 12,-69 52,-69 37,0 43,29 43,59l0 126 43 0z"/>
 <path class="fil0" d="M7955 -474c0,-73 -105,-62 -105,-99 0,-24 23,-29 42,-29 16,0 36,4 52,10l2 -31c-18,-6 -38,-10 -58,-10 -37,0 -81,17 -81,61 0,68 106,52 106,100 0,23 -25,33 -44,33 -21,0 -41,-5 -59,-15l-3 35c21,7 43,10 66,10 40,0 82,-20 82,-65z"/>
 <path class="fil0" d="M8159 -418l-2 -33c-15,6 -31,9 -47,9 -46,0 -71,-37 -71,-80 0,-45 25,-79 73,-79 15,0 31,5 44,12l3 -35c-18,-6 -38,-9 -56,-9 -67,0 -110,45 -110,111 0,66 40,113 107,113 21,0 40,-2 59,-9z"/>
 <path class="fil0" d="M8392 -414l0 -135c0,-49 -21,-84 -72,-84 -30,0 -53,14 -67,40l0 -130 -43 0 0 309 43 0 0 -117c0,-33 13,-68 53,-68 37,0 42,28 42,59l0 126 44 0z"/>
 <path class="fil1" d="M8625 -414c-1,-14 -2,-29 -2,-47l0 -90c0,-58 -32,-82 -88,-82 -21,0 -49,6 -69,14l3 33c19,-12 41,-17 63,-17 33,0 49,17 49,49l0 9c-7,-1 -16,-1 -21,-1 -64,0 -117,20 -117,76 0,42 33,61 71,61 28,0 55,-15 68,-39l1 34 42 0zm-44 -93c0,36 -14,68 -55,68 -21,0 -40,-11 -40,-34 0,-43 53,-46 88,-46l7 0 0 12z"/>
 <path class="fil0" d="M8806 -723c-10,-4 -23,-5 -34,-5 -54,0 -63,39 -63,75l0 24 -41 0 0 31 41 0 0 184 44 0 0 -184 47 0 0 -31 -48 0 0 -25c0,-12 1,-42 31,-42 6,0 14,1 21,4l2 -31z"/>
 <path class="fil0" d="M8955 -416l-2 -32c-8,3 -16,5 -24,5 -22,0 -26,-16 -26,-34l0 -121 48 0 0 -31 -48 0 0 -60 -44 14 0 46 -39 0 0 31 39 0 0 116c0,41 9,73 55,73 13,0 28,-3 41,-7z"/>
 <path class="fil1" d="M9176 -510l0 -13c0,-60 -26,-110 -90,-110 -60,0 -97,52 -97,111 0,67 34,113 104,113 23,0 50,-3 72,-12l-3 -33c-17,9 -43,15 -62,15 -42,0 -67,-31 -67,-71l143 0zm-41 -27l-102 0c0,-27 17,-66 54,-66 36,0 48,36 48,66z"/>
 <path class="fil0" d="M9411 -414l0 -135c0,-50 -19,-84 -72,-84 -31,0 -55,14 -70,42l-1 -38 -41 0c2,17 2,34 2,50l0 165 43 0 0 -116c0,-34 13,-69 53,-69 37,0 42,29 42,59l0 126 44 0z"/>
 <polygon class="fil0" points="9834,-414 9834,-700 9787,-700 9787,-580 9659,-580 9659,-700 9612,-700 9612,-414 9659,-414 9659,-542 9787,-542 9787,-414 "/>
 <path class="fil1" d="M10073 -414c-2,-14 -3,-29 -3,-47l0 -90c0,-58 -32,-82 -87,-82 -22,0 -50,6 -70,14l3 33c19,-12 41,-17 63,-17 33,0 49,17 49,49l0 9c-7,-1 -16,-1 -21,-1 -63,0 -117,20 -117,76 0,42 33,61 72,61 27,0 54,-15 67,-39l1 34 43 0zm-45 -93c0,36 -14,68 -55,68 -21,0 -40,-11 -40,-34 0,-43 53,-46 88,-46l7 0 0 12z"/>
 <path class="fil0" d="M10439 -414l0 -143c0,-44 -21,-76 -68,-76 -28,0 -56,17 -66,44 -7,-24 -29,-44 -63,-44 -29,0 -51,14 -66,42l-1 -38 -40 0c1,17 2,34 2,50l0 165 43 0 0 -117c0,-33 13,-68 48,-68 30,0 38,21 38,48l0 137 43 0 0 -117c0,-33 13,-68 48,-68 30,0 38,21 38,48l0 137 44 0z"/>
 <path class="fil1" d="M10703 -522c0,-57 -23,-111 -89,-111 -26,0 -54,15 -65,40l0 -130 -43 0 0 309 39 0 1 -35c14,27 38,40 68,40 65,0 89,-57 89,-113zm-47 0c0,36 -10,80 -54,80 -42,0 -54,-46 -54,-80 0,-34 13,-78 54,-78 45,0 54,42 54,78z"/>
 <path class="fil0" d="M10939 -414c-2,-16 -2,-33 -2,-49l0 -166 -43 0 0 117c0,34 -12,69 -52,69 -37,0 -43,-29 -43,-59l0 -127 -43 0 0 136c0,49 19,84 72,84 31,0 55,-14 69,-41l1 36 41 0z"/>
 <path class="fil0" d="M11120 -631c-6,-2 -12,-2 -18,-2 -28,0 -50,23 -59,46l-1 -42 -40 0c1,17 2,34 2,50l0 165 43 0 0 -102c0,-33 11,-77 53,-77 6,0 12,1 18,3l2 -41z"/>
 <path class="fil1" d="M11344 -426l0 -203 -42 0 0 36c-13,-27 -37,-40 -67,-40 -64,0 -88,54 -88,111 0,54 24,108 87,108 27,0 53,-14 67,-37l0 25c0,46 -20,77 -70,77 -23,0 -46,-5 -64,-15l-3 36c24,7 49,12 73,12 71,0 107,-40 107,-110zm-42 -95c0,32 -13,74 -55,74 -43,0 -54,-41 -54,-74 0,-37 10,-79 54,-79 42,0 55,44 55,79z"/>
 <polygon class="fil0" points="6673,-996 6673,-1283 6626,-1283 6626,-1163 6497,-1163 6497,-1283 6451,-1283 6451,-996 6497,-996 6497,-1124 6626,-1124 6626,-996 "/>
 <path class="fil1" d="M6943 -1104c0,-67 -38,-111 -105,-111 -65,0 -106,45 -106,111 0,65 37,112 106,112 67,0 105,-47 105,-112zm-46 0c0,39 -17,80 -59,80 -43,0 -60,-42 -60,-80 0,-38 17,-79 60,-79 44,0 59,40 59,79z"/>
 <path class="fil0" d="M7152 -1000l-2 -34c-15,6 -31,10 -47,10 -46,0 -71,-37 -71,-80 0,-46 25,-79 72,-79 16,0 31,5 45,11l3 -34c-18,-6 -38,-9 -57,-9 -66,0 -110,44 -110,111 0,65 40,112 108,112 20,0 40,-2 59,-8z"/>
 <path class="fil0" d="M7384 -996l0 -136c0,-49 -20,-83 -71,-83 -30,0 -54,13 -67,40l0 -131 -43 0 0 310 43 0 0 -117c0,-34 13,-69 52,-69 37,0 43,29 43,59l0 127 43 0z"/>
 <path class="fil0" d="M7585 -1057c0,-72 -105,-61 -105,-99 0,-24 23,-29 42,-29 17,0 36,4 52,10l2 -31c-18,-6 -38,-9 -58,-9 -37,0 -81,16 -81,61 0,67 106,51 106,100 0,23 -25,32 -44,32 -21,0 -41,-5 -59,-14l-3 34c21,7 44,10 66,10 40,0 82,-20 82,-65z"/>
 <path class="fil0" d="M7789 -1000l-2 -34c-15,6 -31,10 -47,10 -46,0 -71,-37 -71,-80 0,-46 25,-79 73,-79 15,0 31,5 44,11l3 -34c-18,-6 -37,-9 -56,-9 -67,0 -110,44 -110,111 0,65 40,112 108,112 20,0 39,-2 58,-8z"/>
 <path class="fil0" d="M8022 -996l0 -136c0,-49 -20,-83 -72,-83 -30,0 -53,13 -66,40l0 -131 -43 0 0 310 43 0 0 -117c0,-34 12,-69 52,-69 37,0 42,29 42,59l0 127 44 0z"/>
 <path class="fil0" d="M8271 -996c-2,-17 -2,-33 -2,-50l0 -165 -43 0 0 117c0,34 -12,69 -52,69 -37,0 -43,-30 -43,-60l0 -126 -43 0 0 135c0,50 19,84 72,84 31,0 55,-14 69,-41l2 37 40 0z"/>
 <polygon class="fil0" points="8336,-1306 8379,-1306 8379,-996 8336,-996 "/>
 <path class="fil1" d="M8620 -1092l0 -13c0,-61 -25,-110 -89,-110 -60,0 -97,52 -97,111 0,67 33,112 104,112 23,0 50,-3 71,-11l-2 -34c-17,10 -43,15 -63,15 -41,0 -66,-31 -66,-70l142 0zm-41 -27l-102 0c0,-28 18,-67 54,-67 37,0 48,36 48,67z"/>
 <path class="fil0" d="M8920 -1305c-10,-4 -23,-5 -34,-5 -54,0 -63,39 -63,74l0 25 -41 0 0 31 41 0 0 184 43 0 0 -184 47 0 0 -31 -47 0 0 -26c0,-12 1,-41 30,-41 7,0 15,1 21,3l3 -30z"/>
 <path class="fil1" d="M9065 -1255l36 0 0 -42 -36 0 0 42zm-74 0l37 0 0 -42 -37 0 0 42zm147 259c-1,-16 -2,-32 -2,-50l0 -165 -43 0 0 117c0,34 -12,69 -52,69 -37,0 -42,-29 -42,-59l0 -127 -43 0 0 136c0,49 18,83 72,83 31,0 54,-14 69,-42l1 38 40 0z"/>
 <path class="fil0" d="M9320 -1213c-7,-2 -13,-2 -19,-2 -27,0 -49,23 -58,45l-1 -41 -41 0c2,16 2,33 2,49l0 166 43 0 0 -102c0,-34 12,-77 54,-77 6,0 12,0 17,2l3 -40z"/>
 <path class="fil1" d="M9747 -996l-113 -287 -59 0 -111 287 45 0 29 -75 132 0 28 75 49 0zm-88 -110l-110 0 55 -144 55 144z"/>
 <path class="fil0" d="M9967 -996l0 -136c0,-49 -19,-83 -72,-83 -31,0 -55,14 -70,41l-1 -37 -41 0c2,16 3,33 3,49l0 166 42 0 0 -117c0,-34 13,-69 53,-69 37,0 42,29 42,59l0 127 44 0z"/>
 <path class="fil1" d="M10218 -1008l0 -203 -41 0 0 36c-14,-27 -38,-40 -68,-40 -63,0 -88,53 -88,111 0,53 25,108 87,108 27,0 53,-14 67,-38l0 26c0,45 -20,77 -70,77 -22,0 -45,-6 -64,-16l-2 37c23,7 48,11 73,11 70,0 106,-40 106,-109zm-42 -96c0,33 -13,75 -55,75 -43,0 -53,-41 -53,-75 0,-36 10,-78 54,-78 41,0 54,44 54,78z"/>
 <path class="fil1" d="M10459 -1092l0 -13c0,-61 -25,-110 -89,-110 -60,0 -98,52 -98,111 0,67 34,112 104,112 24,0 51,-3 72,-11l-2 -34c-18,10 -43,15 -63,15 -41,0 -66,-31 -66,-70l142 0zm-41 -27l-102 0c0,-28 17,-67 54,-67 36,0 48,36 48,67z"/>
 <polygon class="fil0" points="10824,-1211 10784,-1211 10735,-1033 10684,-1211 10633,-1211 10583,-1033 10533,-1211 10488,-1211 10553,-996 10607,-996 10657,-1175 10707,-996 10760,-996 "/>
 <path class="fil1" d="M11032 -996c-2,-15 -3,-29 -3,-48l0 -90c0,-57 -31,-81 -87,-81 -21,0 -49,6 -69,14l2 33c20,-12 42,-17 63,-17 34,0 49,17 49,48l0 9c-6,0 -15,0 -21,0 -63,0 -116,19 -116,75 0,42 33,61 71,61 27,0 55,-14 68,-38l1 34 42 0zm-45 -94c0,36 -13,68 -54,68 -22,0 -40,-10 -40,-33 0,-43 53,-46 87,-46l7 0 0 11z"/>
 <path class="fil0" d="M11278 -996l0 -136c0,-49 -19,-83 -72,-83 -31,0 -55,14 -70,41l-1 -37 -41 0c2,16 3,33 3,49l0 166 42 0 0 -117c0,-34 13,-69 53,-69 37,0 42,29 42,59l0 127 44 0z"/>
 <path class="fil1" d="M11531 -996c-1,-20 -2,-41 -2,-65l0 -245 -43 0 0 131c-11,-26 -38,-40 -65,-40 -65,0 -89,53 -89,111 0,56 24,112 89,112 30,0 54,-13 68,-40l2 36 40 0zm-44 -108c0,34 -13,79 -54,79 -44,0 -54,-44 -54,-79 0,-36 9,-78 53,-78 42,0 55,44 55,78z"/>
 <path class="fil0" d="M11704 -999l-2 -31c-8,3 -15,5 -24,5 -22,0 -26,-16 -26,-35l0 -120 48 0 0 -31 -48 0 0 -60 -44 14 0 46 -39 0 0 31 39 0 0 115c0,42 9,73 55,73 13,0 28,-2 41,-7z"/>
 <path class="fil1" d="M11925 -1092l0 -13c0,-61 -26,-110 -90,-110 -60,0 -97,52 -97,111 0,67 34,112 104,112 23,0 50,-3 72,-11l-3 -34c-17,10 -43,15 -62,15 -42,0 -67,-31 -67,-70l143 0zm-41 -27l-102 0c0,-28 17,-67 54,-67 36,0 48,36 48,67z"/>
 <polygon class="fil2" points="4373,-159 5445,-159 5445,-64 4373,-64 "/>
 <polygon class="fil2" points="4373,-541 5445,-541 5445,-446 4373,-446 "/>
 <polygon class="fil2" points="4373,-923 5445,-923 5445,-828 4373,-828 "/>
 <polygon class="fil2" points="4373,-1305 5445,-1305 5445,-1209 4373,-1209 "/>
 <polygon class="fil0" points="4755,32 5826,32 5826,127 4755,127 "/>
 <polygon class="fil0" points="4755,-350 5826,-350 5826,-255 4755,-255 "/>
 <polygon class="fil0" points="4755,-732 5826,-732 5826,-637 4755,-637 "/>
 <polygon class="fil0" points="4755,-1114 5826,-1114 5826,-1019 4755,-1019 "/>
</symbol>
 <g id="Ebene_x0020_1">
  <metadata id="CorelCorpID_0Corel-Layer"/>
  <use width="7552" height="1509" xlink:href="#Fm1-7-0"/>
 </g>
</svg>
