<?xml version="1.0" encoding="UTF-8"?>
<!DOCTYPE svg PUBLIC "-//W3C//DTD SVG 1.1//EN" "http://www.w3.org/Graphics/SVG/1.1/DTD/svg11.dtd">
<!-- Creator: CorelDRAW X6 -->
<svg xmlns="http://www.w3.org/2000/svg" xml:space="preserve" width="6.2cm" height="6.2cm" version="1.1" style="shape-rendering:geometricPrecision; text-rendering:geometricPrecision; image-rendering:optimizeQuality; fill-rule:evenodd; clip-rule:evenodd"
viewBox="0 0 6200 6200"
 xmlns:xlink="http://www.w3.org/1999/xlink">
 <defs>
  <style type="text/css">
   <![CDATA[
    .fil4 {fill:black}
    .fil1 {fill:#61676A}
    .fil5 {fill:#84B9D7}
    .fil6 {fill:#91C1DC}
    .fil3 {fill:silver}
    .fil0 {fill:#FF6666}
    .fil2 {fill:white}
    .fil7 {fill:white;fill-rule:nonzero}
   ]]>
  </style>
 </defs>
 <g id="Ebene_x0020_1">
  <metadata id="CorelCorpID_0Corel-Layer"/>
  <g id="_117482208">
   <g id="logo-1-striche.pdf">
    <g>
     <g>
      <path class="fil0" d="M1949 3962c30,-7 45,-20 73,-35 25,-16 37,-23 64,-38 48,-25 87,-51 135,-78l671 -384c50,-25 89,-49 137,-75l0 1183 -737 0c-27,0 -39,-41 -53,-65l-290 -508zm1127 -610c36,9 373,201 415,226 24,14 48,29 72,39 83,45 571,330 610,338 -27,51 -56,97 -88,146 -32,51 -60,96 -90,145 -26,39 -167,263 -174,289l-745 0 0 -1183zm24 -47c26,-7 218,-119 257,-143 199,-119 602,-331 762,-436l406 665 -328 532c-187,-98 -366,-207 -554,-307l-346 -196c-37,-22 -178,-90 -197,-115zm-1464 110c0,-10 74,-154 85,-173l267 -501c25,7 103,54 132,70l829 463c22,14 39,24 64,31 -17,24 -519,300 -544,316l-544 311c-7,-29 -55,-102 -72,-133 -27,-42 -51,-83 -75,-129l-142 -255zm375 -713c9,-41 31,-66 50,-100 17,-33 30,-60 46,-94l243 -462c17,-34 37,-81 59,-81l620 0 0 1301c-36,-9 -339,-184 -387,-209l-255 -145c-42,-20 -83,-47 -126,-69l-250 -141zm1065 -737l580 0c7,28 199,334 220,368 59,99 168,267 219,360 -320,170 -699,411 -1019,581l0 -1309zm-658 -46c61,-116 121,-230 180,-345l92 -175c32,-60 58,-112 89,-170 -17,-8 -19,-12 -40,-15 -17,30 -32,63 -47,93l-235 447c-14,27 -76,165 -102,165l-1214 0 0 46 1207 0 -376 713c-42,-22 -80,-41 -122,-66 -228,-134 -464,-255 -694,-388 -39,-23 -77,-42 -117,-62 -4,20 -7,22 -16,39l812 450c35,22 73,49 114,58 -4,30 -6,25 -18,45 -61,102 -253,488 -319,614 -22,-17 -67,-104 -85,-136 -28,-49 -55,-92 -80,-139 -150,-277 -322,-542 -470,-823 -20,5 -24,7 -39,16 101,190 214,378 322,564 27,47 54,93 83,144 37,70 236,391 236,421 0,27 -302,581 -341,659l-113 218c21,5 24,7 39,15l332 -632c20,-37 100,-180 107,-214 27,20 259,435 291,494 -46,12 -143,77 -187,104l-549 311c3,20 6,24 15,39l655 -370c30,-19 59,-38 88,-53 12,48 53,102 77,143 29,46 51,86 78,134 25,47 49,87 78,134 26,43 61,88 73,138l-1136 0 0 47 1152 0c34,0 54,63 68,89l163 283c37,66 70,124 109,189 37,64 71,125 107,190 15,-8 19,-10 39,-15l-211 -369c-19,-34 -34,-61 -53,-95 -18,-34 -34,-56 -52,-90 -29,-51 -87,-126 -99,-182l720 0 0 790 47 0 0 -790 704 0c-6,29 -39,68 -54,94l-391 635c17,8 24,12 39,22 68,-129 155,-253 233,-377 32,-49 221,-342 229,-374l1308 0 0 -47 -1268 0c6,-31 23,-46 39,-72 44,-73 277,-426 289,-477 44,3 82,36 117,56l317 177c40,20 69,42 110,63l318 175c9,-17 10,-19 16,-40 -215,-113 -421,-241 -635,-353l-105 -59c-36,-21 -72,-39 -106,-58 14,-27 296,-491 320,-510 14,46 134,226 170,286l238 389c44,71 94,144 133,219 15,-10 22,-14 39,-24 -41,-78 -92,-151 -138,-229 -47,-80 -92,-150 -141,-228 -92,-151 -194,-302 -277,-459l172 -275c122,-202 425,-662 510,-822 -15,-10 -22,-13 -39,-24 -90,172 -380,603 -504,812 -17,27 -27,43 -42,68l-128 202c-17,-61 -326,-526 -391,-650 158,-85 311,-180 469,-267l235 -134c78,-44 155,-90 235,-133 -9,-15 -10,-18 -15,-39 -162,87 -313,180 -475,270l-359 206c-41,24 -78,41 -114,65 -19,-34 -32,-55 -53,-89l-267 -436c-22,-38 -95,-145 -103,-180l1425 0 0 -46 -1464 0c-7,-27 -35,-61 -50,-85l-342 -566c-18,9 -24,14 -39,24 29,54 63,105 94,156l190 311c26,43 82,114 92,160l-541 0 0 -924 -47 0 0 924 -611 0z"/>
      <polygon class="fil0" points="632,4480 680,4480 680,1910 632,1910 "/>
      <polygon class="fil0" points="5520,3994 5568,3994 5568,1895 5520,1895 "/>
      <path class="fil0" d="M3389 1064l442 194c38,17 72,29 109,46 226,109 533,233 772,340l448 197c5,-26 10,-24 15,-48l-1771 -776c-5,25 -8,24 -15,47z"/>
      <path class="fil0" d="M2692 5537c7,-24 10,-22 17,-46 -44,-10 -1727,-766 -1771,-776 -7,23 -10,22 -17,47l225 97c76,34 149,66 223,99 239,108 547,231 772,339l551 240z"/>
      <path class="fil0" d="M921 1817c7,24 10,22 17,46 26,-5 82,-34 109,-46l1099 -484c41,-19 76,-33 115,-50l448 -195c-7,-24 -10,-22 -17,-47 -26,6 -82,35 -109,47l-442 194c-225,107 -533,231 -772,339l-448 196z"/>
      <path class="fil0" d="M4547 5058c104,-43 620,-279 660,-289 -6,-24 -10,-22 -15,-46l-447 196c-240,108 -548,231 -772,339l-552 240c6,25 11,24 16,47l1110 -487z"/>
     </g>
    </g>
   </g>
   <g id="logo-2-figuren.pdf">
    <g>
     <g>
      <path class="fil1" d="M786 2433l-301 0 -2 -60 4 -370 122 5c-10,-14 9,-10 -20,-12l-106 0c-6,27 -10,406 -3,440l274 7c36,-2 13,5 32,-10z"/>
      <path class="fil1" d="M2899 746c25,15 86,8 122,5 9,-29 9,-36 0,-65 -36,-5 -97,-10 -122,6l120 0 0 54 -120 0z"/>
     </g>
     <g>
      <path class="fil2" d="M1183 3914l-29 69c29,-18 17,-22 59,-18 -36,90 -182,97 -258,66 -96,-37 -128,-149 -87,-239 95,-209 440,-97 315,122zm-402 -27c38,358 521,302 495,-53 -12,-148 -129,-263 -281,-246 -142,17 -229,163 -214,299z"/>
      <path class="fil2" d="M1208 1531c-94,151 -418,90 -357,-146 24,-96 102,-143 199,-138 126,5 143,80 151,182l-29 93c36,0 19,-3 36,9zm65 -87c57,-340 -432,-452 -490,-88 -55,350 428,457 490,88z"/>
      <path class="fil2" d="M5271 3995c46,-15 6,-27 70,-22 -54,140 -420,111 -354,-144 22,-92 97,-143 193,-141 127,2 149,80 159,187 -5,25 -15,49 -30,71 -14,20 -7,12 -22,26 -29,27 -29,8 -16,23zm-168 -406c-316,96 -182,617 131,525 310,-91 196,-623 -131,-525z"/>
      <path class="fil2" d="M5343 1515c-85,138 -385,106 -361,-119 19,-195 305,-229 351,-52 40,51 5,110 -9,163 38,0 12,-2 19,8zm80 -49c73,-360 -408,-470 -483,-129 -31,139 44,297 185,331 141,36 269,-66 298,-202z"/>
      <path class="fil2" d="M3008 4989l64 0 0 114 -64 0 0 -114zm0 173c15,0 23,2 35,-1 33,-14 -13,-4 29,-22 19,-55 63,-67 61,-123 -6,-124 -200,-108 -188,16 5,52 54,59 63,130z"/>
      <path class="fil2" d="M2931 411l61 2 0 114 -64 0 3 -116zm-5 140c29,16 34,10 71,8 19,-49 58,-65 60,-110 3,-118 -180,-124 -191,-16 -3,51 33,80 60,118z"/>
      <path class="fil2" d="M2994 1366c-36,-5 -83,-17 -116,-5l-39 8 0 78 221 0c-17,-32 -37,-28 -66,-81z"/>
      <path class="fil2" d="M3008 5942c-29,48 -36,46 -77,82l228 0 3 -70 -42 -20 -112 8z"/>
      <path class="fil2" d="M745 4422c16,29 9,30 -18,37 -16,-34 -7,-34 18,-37zm-34 -51c-71,42 -30,176 51,137 68,-34 28,-183 -51,-137z"/>
      <path class="fil2" d="M926 4420c29,19 18,31 -11,39 -13,-29 -10,-27 11,-39zm-26 -49c-70,37 -34,176 49,137 70,-34 29,-181 -49,-137z"/>
      <path class="fil2" d="M5476 1999c-45,-1 -33,-32 0,-35l0 35zm-29 -86c-84,41 -38,171 42,139 68,-29 32,-177 -42,-139z"/>
      <path class="fil2" d="M934 1999c-29,-3 -37,-5 -17,-37 27,9 27,12 17,37zm-25 -90c-80,26 -48,177 37,143 68,-25 43,-168 -37,-143z"/>
      <path class="fil2" d="M5254 4412c28,5 38,3 19,39 -29,-7 -27,-9 -19,-39zm-13 -50c-73,46 -29,172 49,138 72,-31 27,-185 -49,-138z"/>
      <path class="fil2" d="M728 1999c-13,-22 -13,-13 2,-37 32,9 36,31 -2,37zm-8 -90c-80,28 -46,177 37,143 70,-27 41,-168 -37,-143z"/>
      <path class="fil2" d="M5442 4412c27,5 37,1 20,39 -31,-7 -29,-7 -20,-39zm-14 -50c-72,43 -27,172 49,138 73,-32 31,-182 -49,-138z"/>
      <path class="fil2" d="M5282 2001c-21,-8 -34,-7 -11,-39 33,10 28,14 11,39zm-22 -88c-84,39 -41,171 40,139 68,-27 33,-175 -40,-139z"/>
      <path class="fil2" d="M5504 2392c-18,5 -74,24 -86,39 27,12 251,5 299,3l2 -57c-67,-2 -126,25 -215,15z"/>
      <path class="fil2" d="M5487 4846c-20,2 -28,7 -49,14 -36,14 -20,-2 -32,24l301 0 0 -63c-36,5 -70,15 -107,19 -38,5 -77,0 -113,6z"/>
      <path class="fil2" d="M786 2433c-17,-21 -63,-34 -90,-38 -88,-1 -128,-10 -213,-22l2 60 301 0z"/>
      <path class="fil2" d="M489 4891l296 1c-12,-25 -6,-13 -40,-25 -17,-5 -29,-12 -44,-17 -75,3 -138,0 -211,-21l-1 62z"/>
      <path class="fil2" d="M2943 5650c-14,37 -17,17 -31,8 9,-10 -3,-32 31,-8zm-32 -48c-82,31 -40,133 39,107 71,-22 34,-136 -39,-107z"/>
      <path class="fil2" d="M2741 5645c1,42 -26,29 -26,0l26 0zm-29 -44c-85,25 -36,135 40,107 70,-24 31,-128 -40,-107z"/>
      <path class="fil2" d="M3087 1075c-11,26 -18,29 -30,0 27,-20 13,-11 30,0zm-37 -49c-82,41 -20,134 46,105 71,-30 22,-139 -46,-105z"/>
      <path class="fil2" d="M3286 1075c-13,26 -3,24 -30,9 19,-17 -19,-2 12,-15 27,-12 8,0 18,6zm-35 -51c-67,23 -34,135 42,109 70,-24 38,-136 -42,-109z"/>
      <path class="fil2" d="M2786 1318l-57 -35c-24,3 -19,0 -33,20 28,20 55,20 90,15z"/>
      <path class="fil2" d="M3217 5896l87 -10c-12,-22 -12,-20 -36,-32l-51 42z"/>
     </g>
     <g>
      <path class="fil3" d="M2899 692c25,-16 86,-11 122,-6 9,29 9,36 0,65 -36,3 -97,10 -122,-5l0 -54zm-33 -80l143 -2 44 5 -3 56 -182 0 -2 -59zm-10 -38c-36,33 -95,21 -201,141 -42,50 -68,111 -81,175 -12,53 -12,39 12,75 -22,42 -26,59 12,146 17,41 66,100 73,122 97,-57 -21,-149 -24,-236 -3,-93 65,-173 151,-195 73,-20 90,7 140,5 49,-2 68,-32 148,-20 92,15 158,79 172,173 98,2 144,54 136,151 22,-17 13,-64 13,-98 2,-26 -3,-34 -1,-48 1,-25 10,-2 5,-41 -11,-115 -82,-226 -179,-292 -95,-65 -136,-42 -162,-76 -25,30 0,27 -30,40l-48 0 5 -37c-37,2 -42,8 -71,-8l3 45 -56 0 -17 -22z"/>
      <path class="fil3" d="M3016 5264l48 0 39 2 -4 59 -27 0 -63 0 -29 0 -1 -59 37 -2zm-70 -76l187 0 -1 61 -184 0 -2 -61zm-333 404c59,-30 31,-51 129,-58 12,-93 84,-156 175,-171 75,-12 101,20 147,20 58,0 73,-25 151,-2 83,26 143,107 136,197 -5,97 -126,167 -13,235 -16,-27 1,-12 40,-77 14,-22 38,-64 41,-88 9,-83 19,-44 15,-107 -8,-182 -107,-328 -285,-382l-2 -15c-39,32 10,29 -80,29l5 -34c-42,18 4,8 -29,22 -12,3 -20,1 -35,1 -19,17 -23,11 -55,11 -22,-24 0,-16 -30,-40l1 12c-78,17 -124,38 -185,85 -41,33 -15,19 -26,55 -29,6 -3,-2 -39,0 -19,44 -44,68 -61,119 -20,57 -26,98 -26,159l26 29z"/>
      <path class="fil3" d="M2729 1283l57 35c60,-10 109,-56 116,-117 12,-110 -73,-98 -49,-165 42,-17 49,-1 93,7 36,-37 38,-73 104,-83 68,-9 102,42 133,39 29,-80 -56,-150 -135,-150 -56,0 -83,34 -115,29 -50,-6 -62,-34 -131,-10 -80,29 -111,121 -61,194 69,105 37,131 -12,221z"/>
      <path class="fil3" d="M3217 5896l51 -42c-48,-89 -77,-112 -10,-213 44,-69 23,-161 -55,-193 -58,-24 -76,-7 -126,5 -46,12 -61,-26 -122,-27 -82,0 -186,91 -133,144 15,10 -7,14 22,-3 102,-62 182,-19 203,54 40,-5 68,-29 98,-5 26,56 -63,61 -46,168 9,63 58,102 118,112z"/>
      <path class="fil3" d="M3008 5942l112 -8c-68,-70 -99,-94 -90,-204 -85,69 -109,49 -194,12l-31 79 70 2 0 61 146 0 -13 58z"/>
      <path class="fil3" d="M2878 1361c33,-12 80,0 116,5l-17 -56 146 -4 2 -61 70 0 -33 -81c-71,52 -126,44 -190,-10 5,154 -63,156 -94,207z"/>
      <path class="fil3" d="M2712 5826c22,-15 22,-23 35,-47l-90 -20 55 67z"/>
      <path class="fil3" d="M3298 1255c-5,-25 2,-27 2,-59l-46 3c10,33 15,41 44,56z"/>
     </g>
     <g>
      <path class="fil4" d="M3120 5934l42 20 -3 70 -228 0c41,-36 48,-34 77,-82l13 -58 -146 0 0 -61 -70 -2 31 -79c85,37 109,57 194,-12 -9,110 22,134 90,204zm-209 -332c73,-29 110,85 39,107 -79,26 -121,-76 -39,-107zm-199 -1c71,-21 110,83 40,107 -76,28 -125,-82 -40,-107zm556 253c24,12 24,10 36,32l-87 10c-60,-10 -109,-49 -118,-112 -17,-107 72,-112 46,-168 -30,-24 -58,0 -98,5 -21,-73 -101,-116 -203,-54 -29,17 -7,13 -22,3 -53,-53 51,-144 133,-144 61,1 76,39 122,27 50,-12 68,-29 126,-5 78,32 99,124 55,193 -67,101 -38,124 10,213zm-655 -262c-3,36 -17,60 -5,99 13,39 39,49 49,68l90 20c-13,24 -13,32 -35,47 -17,31 -14,14 -14,58l104 4 3 62 106 0c-50,28 -41,26 -102,31l-4 109 425 0 0 -124c68,-7 184,-38 177,-121l-69 -32c-113,-68 8,-138 13,-235 7,-90 -53,-171 -136,-197 -78,-23 -93,2 -151,2 -46,0 -72,-32 -147,-20 -91,15 -163,78 -175,171 -98,7 -70,28 -129,58z"/>
      <path class="fil4" d="M2994 1366c29,53 49,49 66,81l-221 0 0 -78 39 -8c31,-51 99,-53 94,-207 64,54 119,62 190,10l33 81 -70 0 -2 61 -146 4 17 56zm56 -340c68,-34 117,75 46,105 -66,29 -128,-64 -46,-105zm201 -2c80,-27 112,85 42,109 -76,26 -109,-86 -42,-109zm-465 294c-35,5 -62,5 -90,-15 14,-20 9,-17 33,-20 49,-90 81,-116 12,-221 -50,-73 -19,-165 61,-194 69,-24 81,4 131,10 32,5 59,-29 115,-29 79,0 164,70 135,150 -31,3 -65,-48 -133,-39 -66,10 -68,46 -104,83 -44,-8 -51,-24 -93,-7 -24,67 61,55 49,165 -7,61 -56,107 -116,117zm-115 -85c-21,19 -160,34 -21,123 50,32 89,23 119,40l0 114 426 2 0 -105c-41,-9 -73,-4 -106,-33l106 -1 0 -61 107 0 -4 -57c-29,-15 -34,-23 -44,-56l46 -3c44,-10 77,-44 94,-85 8,-97 -38,-149 -136,-151 -14,-94 -80,-158 -172,-173 -80,-12 -99,18 -148,20 -50,2 -67,-25 -140,-5 -86,22 -154,102 -151,195 3,87 121,179 24,236z"/>
      <path class="fil4" d="M5707 4821l0 63 -301 0c12,-26 -4,-10 32,-24 21,-7 29,-12 49,-14 28,-39 68,-30 92,-159l-173 0 0 -65 -106 -2c0,-42 26,-59 58,-78 48,31 78,65 146,31 50,-26 67,-75 77,-126l124 -1 2 375zm-279 -459c80,-44 122,106 49,138 -76,34 -121,-95 -49,-138zm-187 0c76,-47 121,107 49,138 -78,34 -122,-92 -49,-138zm280 -69c72,-12 109,-12 184,-12l2 93 -136 -2c-17,-45 -31,-44 -50,-79zm-173 664l418 -2 0 -160 2 -349 80 0 -2 -72 -80 0 -1 -163c-210,-7 -245,-15 -407,109 -44,-24 -58,-63 -129,-39 -36,12 -68,52 -80,86 -31,85 0,192 92,214l0 111 107 0 -2 64 133 2c-27,39 -85,36 -131,46l0 153z"/>
      <path class="fil4" d="M701 4850c15,5 27,12 44,17 34,12 28,0 40,25l-296 -1c-21,-33 -7,-172 -7,-220 0,-68 -4,-147 1,-217l125 2c12,51 27,100 78,125 68,36 99,-1 144,-32 36,26 62,34 57,80l-102 0 0 66 -174 0c14,82 32,102 90,155zm199 -479c78,-44 119,103 49,137 -83,39 -119,-100 -49,-137zm-189 0c79,-46 119,103 51,137 -81,39 -122,-95 -51,-137zm-228 -78c62,-11 125,-2 186,8 -21,36 -32,32 -49,82l-138 -5 1 -85zm-59 511l0 158 417 2 1 -155c-46,-2 -100,-7 -132,-42l132 0 0 -65 109 -2 -5 -110c148,-32 129,-272 9,-302 -72,-17 -79,15 -125,40 -63,-44 -76,-74 -161,-98 -66,-19 -172,-12 -245,-12l-2 165 -80 0 -1 71 83 0 0 350z"/>
      <path class="fil4" d="M5719 2377l-2 57c-48,2 -272,9 -299,-3 12,-15 68,-34 86,-39 55,-60 70,-60 85,-155l-170 0 -3 -64 -105 0c5,-75 18,-27 52,-82 48,21 72,75 153,34 56,-29 58,-75 79,-126l124 -1 0 379zm-272 -464c74,-38 110,110 42,139 -80,32 -126,-98 -42,-139zm-187 0c73,-36 108,112 40,139 -81,32 -124,-100 -40,-139zm459 -78l-4 91 -126 -1 -56 -75c39,-27 136,-19 186,-15zm-361 535l0 137 413 -1 6 -507 81 -3 0 -70 -81 -1 0 -163c-75,0 -182,-7 -250,13 -82,24 -102,60 -162,99 -71,-75 -168,-53 -202,37 -55,138 39,192 90,229l-4 104 107 2 6 63 125 1c-42,61 -124,19 -129,60z"/>
      <path class="fil4" d="M696 2395c27,4 73,17 90,38 -19,15 4,8 -32,10l-274 -7c-7,-34 -3,-413 3,-440l106 0c29,2 10,-2 20,12 17,54 22,90 80,119 68,32 94,-5 141,-34 48,41 55,19 60,80l-105 0 0 64 -171 0c-1,94 51,107 82,158zm213 -486c80,-25 105,118 37,143 -85,34 -117,-117 -37,-143zm-189 0c78,-25 107,116 37,143 -83,34 -117,-115 -37,-143zm-238 -71c52,-14 132,-3 185,7l-56 81 -128 -3 -1 -85zm-58 510l0 158 413 1 4 -154c-51,-2 -99,-7 -130,-43l131 -1 2 -63 109 -2 -5 -104c34,-25 70,-39 88,-84 58,-135 -54,-310 -206,-186 -59,-40 -78,-71 -158,-95 -68,-20 -177,-13 -248,-13l-3 164 -80 0 5 72 78 0 0 350z"/>
      <path class="fil4" d="M5423 1466c-29,136 -157,238 -298,202 -141,-34 -216,-192 -185,-331 75,-341 556,-231 483,129zm-390 236c94,34 147,56 250,19 63,-24 124,-80 157,-136l17 39 46 -3c22,-70 3,-65 -39,-84 25,-73 23,-103 22,-180 -36,-239 -289,-394 -492,-224 -129,111 -161,313 -68,460 44,68 60,62 107,109z"/>
      <path class="fil4" d="M781 3887c-15,-136 72,-282 214,-299 152,-17 269,98 281,246 26,355 -457,411 -495,53zm-61 -21c3,63 13,87 29,143 -34,-34 -70,10 -58,48 7,18 24,28 42,23 23,-8 17,-25 34,-46 21,58 94,118 152,141 97,38 158,19 248,-11 24,-34 148,-87 167,-269 10,-120 -38,-243 -133,-316 -214,-163 -491,29 -481,287z"/>
      <path class="fil4" d="M1273 1444c-62,369 -545,262 -490,-88 58,-364 547,-252 490,88zm-553 -32c3,59 13,80 27,134 -25,-5 -25,-7 -51,3 -10,41 -12,39 9,73 49,4 39,-15 61,-44 73,155 248,196 405,124 97,-75 154,-141 165,-273 8,-124 -43,-240 -136,-308 -223,-161 -485,34 -480,291z"/>
      <path class="fil4" d="M5103 3589c327,-98 441,434 131,525 -313,92 -447,-429 -131,-525zm-75 564c262,95 308,-30 402,-115 35,90 112,-7 44,-46 -17,-10 0,3 -21,-10 16,-44 23,-75 24,-121 7,-258 -258,-450 -476,-292 -95,68 -145,183 -138,302 10,184 121,230 165,282z"/>
      <path class="fil4" d="M989 3926c-40,-51 3,-155 57,-128 33,16 28,143 -57,128zm165 57c-40,51 -176,36 -225,-6 -56,-48 -54,-155 -7,-209 44,-53 153,-75 211,-26 63,53 53,165 -30,184l27 -163c-33,0 -53,10 -58,10 -14,0 -17,-14 -53,-14 -131,4 -122,286 26,187 42,58 107,-10 138,-32 125,-219 -220,-331 -315,-122 -41,90 -9,202 87,239 76,31 222,24 258,-66 -42,-4 -30,0 -59,18z"/>
      <path class="fil4" d="M5117 3933c-39,-51 3,-153 57,-128 34,17 29,144 -57,128zm154 62c-45,46 -182,33 -224,-15 -46,-54 -41,-161 12,-212 51,-50 156,-65 211,-10 54,56 41,158 -43,175l31 -162c-60,0 -39,12 -61,9 0,0 -91,-50 -133,54 -37,88 20,178 110,119 24,34 74,22 103,0 28,-20 40,-58 62,-78 -10,-107 -32,-185 -159,-187 -96,-2 -171,49 -193,141 -66,255 300,284 354,144 -64,-5 -24,7 -70,22z"/>
      <path class="fil4" d="M980 1490c-39,-53 4,-155 58,-129 34,17 29,144 -58,129zm228 41c-73,-5 -121,85 -252,30 -81,-34 -97,-137 -54,-212 37,-66 155,-95 219,-48 68,53 60,168 -30,189l30 -163c-59,0 -37,12 -61,8 -19,-1 -15,-15 -56,-12 -34,5 -65,38 -77,67 -37,88 21,180 111,120 24,33 73,21 102,-1 29,-21 41,-57 61,-80 -8,-102 -25,-177 -151,-182 -97,-5 -175,42 -199,138 -61,236 263,297 357,146z"/>
      <path class="fil4" d="M5117 1473c-39,-51 3,-153 57,-128 34,17 29,145 -57,128zm226 42l-31 -5c-177,128 -381,-10 -272,-182 41,-62 155,-90 218,-42 68,51 58,168 -27,189l29 -163c-34,0 -53,8 -58,8 -17,0 -19,-14 -55,-12 -134,5 -122,284 27,185 36,50 177,7 159,-149 -46,-177 -332,-143 -351,52 -24,225 276,257 361,119z"/>
      <path class="fil4" d="M2856 574l17 22 56 0 -3 -45c-27,-38 -63,-67 -60,-118 11,-108 194,-102 191,16 -2,45 -41,61 -60,110l-5 37 48 0c30,-13 5,-10 30,-40 43,-55 72,-101 36,-174 -25,-57 -87,-91 -151,-88 -65,2 -121,41 -143,99 -41,100 36,132 44,181z"/>
      <path class="fil4" d="M2923 5133c30,24 8,16 30,40 32,0 36,6 55,-11 -9,-71 -58,-78 -63,-130 -12,-124 182,-140 188,-16 2,56 -42,68 -61,123l-5 34c90,0 41,3 80,-29 14,-55 78,-75 41,-175 -46,-121 -233,-136 -294,-12 -48,97 17,127 29,176z"/>
      <polygon class="fil4" points="2948,5249 3132,5249 3133,5188 2946,5188 "/>
      <polygon class="fil4" points="2868,671 3050,671 3053,615 3009,610 2866,612 "/>
      <path class="fil4" d="M2817 313c12,-48 -8,-51 -39,-80 -20,-19 -61,-65 -85,-22 -15,30 25,56 42,71 29,26 41,51 82,31z"/>
      <path class="fil4" d="M2934 257c89,42 58,-123 51,-131 -17,-27 -54,-19 -57,24 -4,32 -4,78 6,107z"/>
      <path class="fil4" d="M3196 4897c45,-1 167,-112 87,-124 -27,-5 -58,33 -76,50 -31,27 -46,40 -11,74z"/>
      <path class="fil4" d="M3013 4831c90,49 59,-119 51,-131 -19,-23 -51,-12 -56,26 -4,27 -2,80 5,105z"/>
      <path class="fil4" d="M3247 4992c-86,58 104,65 131,48 29,-20 9,-51 -25,-54 -27,-4 -85,-7 -106,6z"/>
      <path class="fil4" d="M2776 4784c-30,30 7,50 31,73 20,17 51,57 76,34 33,-31 -12,-62 -30,-80 -24,-22 -46,-56 -77,-27z"/>
      <path class="fil4" d="M2615 415c-12,47 3,54 49,54 37,2 70,5 104,-10 5,-43 -5,-49 -48,-51 -20,0 -92,0 -105,7z"/>
      <path class="fil4" d="M2691 5035c29,15 197,31 150,-37 -5,-7 -174,-50 -150,37z"/>
      <path class="fil4" d="M3307 416c-138,-44 -259,58 -48,53 48,0 62,-7 48,-53z"/>
      <path class="fil4" d="M3106 299c29,36 50,24 92,-22 26,-29 48,-37 27,-76 -41,-12 -46,6 -71,32 -26,22 -46,32 -48,66z"/>
      <polygon class="fil4" points="2980,5325 3009,5325 3072,5325 3099,5325 3103,5266 3064,5264 3016,5264 2979,5266 "/>
      <polygon class="fil4" points="3008,5103 3072,5103 3072,4989 3008,4989 "/>
      <polygon class="fil4" points="2928,527 2992,527 2992,413 2931,411 "/>
      <polygon class="fil4" points="2899,746 3019,746 3019,692 2899,692 "/>
      <path class="fil4" d="M5498 4155l35 3 5 -47c-42,-24 -51,5 -40,44z"/>
      <path class="fil4" d="M659 1709l29 0c13,-27 15,-27 0,-51 -43,-7 -45,17 -29,51z"/>
      <path class="fil4" d="M654 4118c-6,29 -9,20 5,44l30 2c22,-51 -13,-60 -35,-46z"/>
      <path class="fil4" d="M5542 1704c13,-26 13,-19 0,-44 -53,-21 -53,66 0,44z"/>
      <path class="fil4" d="M5462 4451c17,-38 7,-34 -20,-39 -9,32 -11,32 20,39z"/>
      <path class="fil4" d="M5273 4451c19,-36 9,-34 -19,-39 -8,30 -10,32 19,39z"/>
      <path class="fil4" d="M727 4459c27,-7 34,-8 18,-37 -25,3 -34,3 -18,37z"/>
      <path class="fil4" d="M934 1999c10,-25 10,-28 -17,-37 -20,32 -12,34 17,37z"/>
      <path class="fil4" d="M5282 2001c17,-25 22,-29 -11,-39 -23,32 -10,31 11,39z"/>
      <path class="fil4" d="M915 4459c29,-8 40,-20 11,-39 -21,12 -24,10 -11,39z"/>
      <path class="fil4" d="M728 1999c38,-6 34,-28 2,-37 -15,24 -15,15 -2,37z"/>
      <path class="fil4" d="M5476 1999l0 -35c-33,3 -45,34 0,35z"/>
      <path class="fil4" d="M2912 5658c14,9 17,29 31,-8 -34,-24 -22,-2 -31,8z"/>
      <path class="fil4" d="M3057 1075c12,29 19,26 30,0 -17,-11 -3,-20 -30,0z"/>
      <path class="fil4" d="M3256 1084c27,15 17,17 30,-9 -10,-6 9,-18 -18,-6 -31,13 7,-2 -12,15z"/>
      <path class="fil4" d="M2715 5645c0,29 27,42 26,0l-26 0z"/>
     </g>
     <g>
      <path class="fil5" d="M654 4118c22,-14 57,-5 35,46l-30 -2c-14,-24 -11,-15 -5,-44zm-552 190l0 107c14,29 19,87 41,129 17,37 44,82 70,110 49,56 134,128 211,150l0 -350 -83 0 1 -71 80 0 2 -165c73,0 179,-7 245,12 85,24 98,54 161,98 46,-25 53,-57 125,-40 120,30 139,270 -9,302l5 110 -109 2 0 65 -132 0c32,35 86,40 132,42l-1 155c18,-34 3,-97 12,-143 243,-87 408,-301 341,-559 -8,-31 -30,-71 -27,-98 -90,30 -151,49 -248,11 -58,-23 -131,-83 -152,-141 -17,21 -11,38 -34,46 -18,5 -35,-5 -42,-23 -12,-38 24,-82 58,-48 -16,-56 -26,-80 -29,-143 -49,17 -107,-7 -233,29 -129,36 -237,112 -310,223 -64,96 -56,151 -75,190z"/>
      <path class="fil5" d="M659 1709c-16,-34 -14,-58 29,-51 15,24 13,24 0,51l-29 0zm-557 141l0 110c14,28 23,90 41,131 19,41 44,77 73,109 51,61 125,122 208,148l0 -350 -78 0 -5 -72 80 0 3 -164c71,0 180,-7 248,13 80,24 99,55 158,95 152,-124 264,51 206,186 -18,45 -54,59 -88,84l5 104 -109 2 -2 63 -131 1c31,36 79,41 130,43l-4 154c26,-12 12,-112 12,-142 95,-29 254,-150 301,-233 56,-95 77,-216 51,-323 -8,-35 -30,-73 -30,-107 -157,72 -332,31 -405,-124 -22,29 -12,48 -61,44 -21,-34 -19,-32 -9,-73 26,-10 26,-8 51,-3 -14,-54 -24,-75 -27,-134 -100,25 -361,-22 -543,248 -64,97 -52,146 -75,190z"/>
      <path class="fil5" d="M5542 1704c-53,22 -53,-65 0,-44 13,25 13,18 0,44zm-509 -2c-5,21 -8,24 -15,43 -9,20 -32,137 -29,176 12,118 43,201 126,284 104,102 95,92 243,165 5,-41 87,1 129,-60l-125 -1 -6 -63 -107 -2 4 -104c-51,-37 -145,-91 -90,-229 34,-90 131,-112 202,-37 60,-39 80,-75 162,-99 68,-20 175,-13 250,-13l0 163 81 1 0 70 -81 3 -6 507c23,-24 11,-107 11,-146 15,-26 103,-68 134,-92 376,-299 134,-877 -417,-851 -3,-31 0,-32 -13,-60 1,77 3,107 -22,180 42,19 61,14 39,84l-46 3 -17 -39c-33,56 -94,112 -157,136 -103,37 -156,15 -250,-19z"/>
      <path class="fil5" d="M5498 4155c-11,-39 -2,-68 40,-44l-5 47 -35 -3zm-470 -2c-5,39 -54,124 -46,219 12,128 43,194 114,288 50,61 164,122 242,152 3,26 1,45 1,70l2 54c4,19 0,9 7,21l0 -153c46,-10 104,-7 131,-46l-133 -2 2 -64 -107 0 0 -111c-92,-22 -123,-129 -92,-214 12,-34 44,-74 80,-86 71,-24 85,15 129,39 162,-124 197,-116 407,-109l1 163 80 0 2 72 -80 0 -2 349c210,-64 385,-327 296,-586 -56,-166 -205,-280 -370,-324 -84,-24 -147,-10 -215,-24 -1,46 -8,77 -24,121 21,13 4,0 21,10 68,39 -9,136 -44,46 -94,85 -140,210 -402,115z"/>
      <path class="fil5" d="M489 4891l1 -62c73,21 136,24 211,21 -58,-53 -76,-73 -90,-155l174 0 0 -66 102 0c5,-46 -21,-54 -57,-80 -45,31 -76,68 -144,32 -51,-25 -66,-74 -78,-125l-125 -2c-5,70 -1,149 -1,217 0,48 -14,187 7,220z"/>
      <path class="fil5" d="M5504 2392c89,10 148,-17 215,-15l0 -379 -124 1c-21,51 -23,97 -79,126 -81,41 -105,-13 -153,-34 -34,55 -47,7 -52,82l105 0 3 64 170 0c-15,95 -30,95 -85,155z"/>
      <path class="fil5" d="M5487 4846c36,-6 75,-1 113,-6 37,-4 71,-14 107,-19l-2 -375 -124 1c-10,51 -27,100 -77,126 -68,34 -98,0 -146,-31 -32,19 -58,36 -58,78l106 2 0 65 173 0c-24,129 -64,120 -92,159z"/>
      <path class="fil5" d="M483 2373c85,12 125,21 213,22 -31,-51 -83,-64 -82,-158l171 0 0 -64 105 0c-5,-61 -12,-39 -60,-80 -47,29 -73,66 -141,34 -58,-29 -63,-65 -80,-119l-122 -5 -4 370z"/>
      <path class="fil5" d="M5343 1515c-7,-10 19,-8 -19,-8 14,-53 49,-112 9,-163 18,156 -123,199 -159,149 -149,99 -161,-180 -27,-185 36,-2 38,12 55,12 5,0 24,-8 58,-8l-29 163c85,-21 95,-138 27,-189 -63,-48 -177,-20 -218,42 -109,172 95,310 272,182l31 5z"/>
      <path class="fil5" d="M1208 1531c-17,-12 0,-9 -36,-9l29 -93c-20,23 -32,59 -61,80 -29,22 -78,34 -102,1 -90,60 -148,-32 -111,-120 12,-29 43,-62 77,-67 41,-3 37,11 56,12 24,4 2,-8 61,-8l-30 163c90,-21 98,-136 30,-189 -64,-47 -182,-18 -219,48 -43,75 -27,178 54,212 131,55 179,-35 252,-30z"/>
      <path class="fil5" d="M5271 3995c-13,-15 -13,4 16,-23 15,-14 8,-6 22,-26 15,-22 25,-46 30,-71 -22,20 -34,58 -62,78 -29,22 -79,34 -103,0 -90,59 -147,-31 -110,-119 42,-104 133,-54 133,-54 22,3 1,-9 61,-9l-31 162c84,-17 97,-119 43,-175 -55,-55 -160,-40 -211,10 -53,51 -58,158 -12,212 42,48 179,61 224,15z"/>
      <path class="fil5" d="M1154 3983l29 -69c-31,22 -96,90 -138,32 -148,99 -157,-183 -26,-187 36,0 39,14 53,14 5,0 25,-10 58,-10l-27 163c83,-19 93,-131 30,-184 -58,-49 -167,-27 -211,26 -47,54 -49,161 7,209 49,42 185,57 225,6z"/>
      <path class="fil5" d="M5533 1850l56 75 126 1 4 -91c-50,-4 -147,-12 -186,15z"/>
      <path class="fil5" d="M5521 4293c19,35 33,34 50,79l136 2 -2 -93c-75,0 -112,0 -184,12z"/>
      <path class="fil5" d="M482 4378l138 5c17,-50 28,-46 49,-82 -61,-10 -124,-19 -186,-8l-1 85z"/>
      <path class="fil5" d="M483 1923l128 3 56 -81c-53,-10 -133,-21 -185,-7l1 85z"/>
      <path class="fil5" d="M980 1490c87,15 92,-112 58,-129 -54,-26 -97,76 -58,129z"/>
      <path class="fil5" d="M5117 1473c86,17 91,-111 57,-128 -54,-25 -96,77 -57,128z"/>
      <path class="fil5" d="M5117 3933c86,16 91,-111 57,-128 -54,-25 -96,77 -57,128z"/>
      <path class="fil5" d="M989 3926c85,15 90,-112 57,-128 -54,-27 -97,77 -57,128z"/>
     </g>
    </g>
   </g>
  </g>
  <ellipse class="fil6" cx="3066" cy="3096" rx="1454" ry="676"/>
  <path class="fil7" d="M2104 3332l252 0c25,0 44,5 57,16 13,10 20,24 20,42 0,15 -5,29 -16,40 -10,10 -26,16 -47,16l-355 0c-25,0 -43,-7 -57,-20 -13,-13 -20,-29 -20,-47 0,-12 4,-27 13,-46 9,-19 18,-34 28,-45 43,-44 82,-82 116,-114 35,-32 59,-53 74,-63 26,-18 48,-37 66,-56 17,-19 31,-38 40,-58 9,-19 14,-39 14,-58 0,-20 -5,-39 -15,-55 -10,-16 -23,-29 -40,-38 -17,-9 -35,-14 -55,-14 -43,0 -76,19 -100,56 -3,5 -8,18 -16,39 -8,22 -16,39 -25,50 -10,12 -24,18 -42,18 -16,0 -30,-6 -40,-16 -11,-11 -16,-25 -16,-44 0,-22 5,-45 15,-69 10,-24 25,-46 45,-66 19,-19 44,-35 75,-47 30,-12 66,-18 107,-18 49,0 91,7 125,23 23,10 43,24 60,42 17,18 30,39 40,63 9,23 14,48 14,73 0,40 -10,76 -30,109 -19,33 -40,58 -60,77 -21,18 -55,47 -104,87 -48,39 -81,70 -99,92 -8,9 -16,19 -24,31z"/>
  <path id="1" class="fil7" d="M3011 3099c0,53 -3,98 -10,136 -6,38 -18,72 -36,103 -22,38 -50,67 -84,88 -35,21 -74,31 -116,31 -49,0 -93,-14 -132,-42 -38,-27 -67,-66 -87,-114 -10,-27 -17,-57 -22,-89 -5,-32 -7,-67 -7,-105 0,-48 3,-92 8,-131 5,-39 13,-72 24,-100 19,-46 46,-82 82,-106 37,-24 80,-36 130,-36 33,0 63,5 90,16 27,11 51,26 71,47 21,21 38,47 52,77 25,53 37,128 37,225zm-133 -10c0,-58 -3,-107 -10,-144 -7,-37 -19,-66 -36,-85 -17,-19 -40,-28 -69,-28 -43,0 -72,21 -89,64 -16,42 -25,108 -25,197 0,61 4,110 11,149 7,38 19,68 36,87 16,20 39,30 68,30 29,0 52,-10 69,-31 17,-20 29,-50 35,-88 7,-38 10,-88 10,-151z"/>
  <path id="2" class="fil7" d="M3336 3380l0 -439c-82,63 -137,94 -165,94 -13,0 -25,-5 -36,-16 -10,-11 -16,-23 -16,-38 0,-16 6,-28 16,-36 10,-7 28,-17 54,-30 39,-18 70,-37 94,-57 23,-21 44,-43 62,-68 18,-25 30,-41 35,-47 5,-5 16,-8 31,-8 17,0 31,6 41,19 10,14 15,32 15,55l0 552c0,64 -22,97 -66,97 -19,0 -35,-7 -47,-20 -12,-13 -18,-33 -18,-58z"/>
  <path id="3" class="fil7" d="M3823 3063c22,-26 46,-45 72,-57 25,-13 54,-19 86,-19 30,0 59,5 85,17 25,11 48,27 68,48 19,22 34,46 45,75 10,28 16,58 16,90 0,45 -11,86 -32,123 -20,37 -49,66 -86,87 -37,20 -80,31 -126,31 -54,0 -101,-13 -140,-40 -39,-26 -69,-65 -90,-117 -21,-51 -31,-114 -31,-189 0,-61 6,-115 19,-163 12,-48 30,-87 54,-119 23,-31 52,-55 85,-71 33,-16 71,-24 114,-24 41,0 78,8 109,24 31,16 55,36 71,60 16,23 24,46 24,68 0,13 -5,25 -15,36 -10,10 -23,16 -38,16 -14,0 -26,-4 -38,-13 -11,-8 -20,-20 -25,-35 -8,-20 -19,-35 -36,-47 -16,-12 -34,-17 -56,-17 -17,0 -33,5 -50,14 -17,10 -32,23 -43,40 -24,34 -37,95 -42,182zm131 300c32,0 59,-13 80,-40 22,-26 32,-61 32,-104 0,-29 -5,-55 -15,-76 -10,-21 -23,-37 -41,-48 -17,-11 -36,-17 -57,-17 -20,0 -39,6 -57,16 -19,11 -33,26 -44,46 -11,20 -17,44 -17,71 0,43 11,80 34,108 22,29 51,44 85,44z"/>
 </g>
</svg>
