<?xml version="1.0" encoding="UTF-8"?>
<!DOCTYPE svg PUBLIC "-//W3C//DTD SVG 1.1//EN" "http://www.w3.org/Graphics/SVG/1.1/DTD/svg11.dtd">
<!-- Creator: CorelDRAW X6 -->
<svg xmlns="http://www.w3.org/2000/svg" xml:space="preserve" width="300px" height="299px" version="1.1" style="shape-rendering:geometricPrecision; text-rendering:geometricPrecision; image-rendering:optimizeQuality; fill-rule:evenodd; clip-rule:evenodd"
viewBox="0 0 300 299"
 xmlns:xlink="http://www.w3.org/1999/xlink">
 <defs>
  <style type="text/css">
   <![CDATA[
    .fil4 {fill:black}
    .fil1 {fill:#61676A}
    .fil5 {fill:#84B9D7}
    .fil3 {fill:silver}
    .fil0 {fill:#FF6666}
    .fil2 {fill:white}
   ]]>
  </style>
 </defs>
 <g id="Ebene_x0020_1">
  <metadata id="CorelCorpID_0Corel-Layer"/>
  <g id="_664884496">
   <g id="logo-1-striche.pdf">
    <g>
     <g>
      <path class="fil0" d="M92 193c2,-1 3,-1 4,-2 1,-1 2,-1 3,-2 3,-1 5,-2 7,-4l34 -19c2,-1 4,-2 6,-4l0 59 -36 0c-2,0 -2,-2 -3,-3l-15 -25zm57 -31c2,1 18,10 21,12 1,0 2,1 3,2 4,2 29,16 31,16 -2,3 -3,5 -5,8 -1,2 -3,4 -4,7 -2,2 -9,13 -9,14l-37 0 0 -59zm1 -2c1,0 11,-6 13,-7 10,-6 30,-17 38,-22l20 33 -16 27c-9,-5 -18,-11 -28,-16l-17 -9c-2,-1 -9,-5 -10,-6zm-73 5c0,0 3,-7 4,-8l13 -25c2,0 6,2 7,3l41 23c2,1 2,2 4,2 -1,1 -26,15 -28,16l-27 15c0,-1 -3,-5 -3,-6 -2,-3 -3,-5 -4,-7l-7 -13zm19 -35c0,-2 1,-4 2,-5 1,-2 2,-3 2,-5l12 -23c1,-2 2,-4 3,-4l31 0 0 65c-1,-1 -17,-9 -19,-11l-13 -7c-2,-1 -4,-2 -6,-3l-12 -7zm53 -37l29 0c0,1 10,17 11,18 3,5 8,14 11,18 -16,9 -35,21 -51,29l0 -65zm-33 -3c3,-5 6,-11 9,-17l4 -9c2,-2 3,-5 5,-8 -1,0 -1,-1 -2,-1 -1,2 -2,3 -2,5l-12 22c-1,2 -4,8 -5,8l-61 0 0 3 60 0 -18 35c-3,-1 -4,-2 -7,-3 -11,-7 -23,-13 -34,-19 -2,-1 -4,-2 -6,-3 0,1 0,1 -1,2l41 22c1,1 3,3 5,3 0,2 0,1 0,2 -4,5 -13,25 -16,31 -2,-1 -4,-5 -5,-7 -1,-2 -2,-4 -4,-7 -7,-14 -16,-27 -23,-41 -1,0 -1,0 -2,1 5,9 11,19 16,28 1,2 3,5 4,7 2,4 12,20 12,21 0,2 -15,29 -17,33l-6 11c1,1 1,1 2,1l17 -32c1,-1 5,-9 5,-10 1,1 13,21 15,24 -3,1 -7,4 -10,6l-27 15c0,1 0,1 1,2l32 -18c2,-1 3,-2 5,-3 0,2 2,5 4,7 1,2 2,4 4,7 1,2 2,4 3,7 2,2 3,4 4,6l-57 0 0 3 58 0c2,0 3,3 3,4l8 14c2,4 4,7 6,10 2,3 3,6 5,9 1,0 1,0 2,0l-10 -19c-1,-2 -2,-3 -3,-5 -1,-1 -2,-2 -3,-4 -1,-3 -4,-6 -5,-9l36 0 0 39 3 0 0 -39 35 0c0,1 -2,3 -3,4l-19 32c1,1 1,1 2,1 3,-6 7,-12 11,-19 2,-2 11,-17 12,-18l65 0 0 -3 -63 0c0,-1 1,-2 2,-3 2,-4 14,-22 14,-24 2,0 4,2 6,3l16 9c2,1 3,2 5,3l16 8c1,0 1,0 1,-1 -11,-6 -21,-13 -32,-18l-5 -3c-2,-1 -3,-2 -5,-3 1,-1 15,-25 16,-26 1,3 7,12 8,15l12 19c2,4 5,7 7,11 1,0 1,0 2,-1 -2,-4 -5,-8 -7,-11 -2,-4 -5,-8 -7,-12 -5,-7 -10,-15 -14,-23l9 -14c6,-10 21,-33 25,-41 -1,0 -1,0 -2,-1 -4,9 -19,30 -25,41 -1,1 -1,2 -2,3l-6 10c-1,-3 -17,-26 -20,-32 8,-5 16,-9 23,-14l12 -6c4,-3 8,-5 12,-7 -1,-1 -1,-1 -1,-2 -8,4 -16,9 -24,14l-18 10c-2,1 -3,2 -5,3 -1,-2 -2,-3 -3,-4l-13 -22c-1,-2 -5,-7 -5,-9l71 0 0 -3 -73 0c-1,-1 -2,-3 -3,-4l-17 -28c-1,0 -1,1 -2,1 2,3 3,5 5,8l9 16c2,2 4,5 5,7l-27 0 0 -46 -3 0 0 46 -30 0z"/>
      <polygon class="fil0" points="27,219 29,219 29,90 27,90 "/>
      <polygon class="fil0" points="271,194 273,194 273,89 271,89 "/>
      <path class="fil0" d="M164 48l23 9c1,1 3,2 5,3 11,5 27,11 39,17l22 10c0,-2 1,-2 1,-3l-89 -39c0,2 0,2 -1,3z"/>
      <path class="fil0" d="M130 272c0,-2 0,-2 0,-3 -2,0 -86,-38 -88,-39 -1,2 -1,2 -1,3l11 5c4,1 8,3 11,5 12,5 28,11 39,17l28 12z"/>
      <path class="fil0" d="M41 85c0,2 0,2 1,3 1,-1 4,-2 5,-3l55 -24c2,-1 4,-1 6,-2l22 -10c0,-1 0,-1 0,-2 -2,0 -5,1 -6,2l-22 10c-11,5 -27,11 -39,17l-22 9z"/>
      <path class="fil0" d="M222 248c6,-3 31,-14 33,-15 0,-1 0,-1 0,-2l-23 10c-12,5 -27,11 -38,17l-28 12c0,1 1,1 1,2l55 -24z"/>
     </g>
    </g>
   </g>
   <g id="logo-2-figuren.pdf">
    <g>
     <g>
      <path class="fil1" d="M34 116l-15 0 0 -3 0 -18 6 0c0,-1 1,-1 -1,-1l-5 0c0,2 0,21 0,22l14 1c1,0 0,0 1,-1z"/>
      <path class="fil1" d="M140 32c1,1 4,0 6,0 0,-1 0,-2 0,-3 -2,0 -5,-1 -6,0l6 0 0 3 -6 0z"/>
     </g>
     <g>
      <path class="fil2" d="M54 190l-1 4c1,-1 0,-1 3,-1 -2,4 -10,5 -13,3 -5,-2 -7,-7 -5,-12 5,-10 22,-5 16,6zm-20 -1c2,18 26,15 25,-3 -1,-7 -7,-13 -14,-12 -7,1 -12,8 -11,15z"/>
      <path class="fil2" d="M55 71c-4,8 -21,5 -18,-7 2,-5 6,-7 10,-7 7,0 8,4 8,9l-1 5c1,0 0,-1 1,0zm4 -4c2,-17 -22,-23 -25,-5 -3,18 21,23 25,5z"/>
      <path class="fil2" d="M259 194c2,0 0,-1 3,-1 -3,7 -21,6 -18,-7 2,-5 5,-7 10,-7 6,0 8,4 8,9 0,2 -1,3 -1,4 -1,1 -1,1 -2,1 -1,2 -1,1 0,1zm-9 -20c-16,5 -9,31 7,26 15,-4 10,-31 -7,-26z"/>
      <path class="fil2" d="M262 70c-4,7 -19,6 -18,-6 1,-9 15,-11 18,-2 2,2 0,5 -1,8 2,0 1,0 1,0zm4 -2c4,-18 -20,-24 -24,-7 -1,7 2,15 9,17 7,2 14,-3 15,-10z"/>
      <path class="fil2" d="M145 244l4 0 0 6 -4 0 0 -6zm0 9c1,0 2,0 2,0 2,-1 -1,0 2,-1 1,-3 3,-4 3,-6 -1,-7 -10,-6 -10,0 0,3 3,3 3,7z"/>
      <path class="fil2" d="M142 15l3 0 0 6 -4 0 1 -6zm-1 7c2,1 2,1 4,0 1,-2 3,-3 3,-5 0,-6 -9,-6 -10,-1 0,3 2,4 3,6z"/>
      <path class="fil2" d="M145 63c-2,0 -4,-1 -6,0l-2 0 0 4 11 0c-1,-2 -2,-2 -3,-4z"/>
      <path class="fil2" d="M145 292c-1,2 -1,2 -3,4l11 0 0 -4 -2 -1 -6 1z"/>
      <path class="fil2" d="M32 216c1,1 1,1 -1,2 -1,-2 0,-2 1,-2zm-2 -3c-3,2 -1,9 3,7 3,-2 1,-9 -3,-7z"/>
      <path class="fil2" d="M41 216c2,1 1,1 0,2 -1,-2 -1,-2 0,-2zm-1 -3c-4,2 -2,9 2,7 4,-2 2,-9 -2,-7z"/>
      <path class="fil2" d="M269 95c-2,-1 -2,-2 0,-2l0 2zm-2 -5c-4,2 -1,9 3,7 3,-1 1,-9 -3,-7z"/>
      <path class="fil2" d="M42 95c-2,-1 -2,-1 -1,-2 1,0 1,0 1,2zm-2 -5c-4,1 -2,9 2,7 4,-1 2,-8 -2,-7z"/>
      <path class="fil2" d="M258 215c1,0 2,0 1,2 -2,0 -2,0 -1,-2zm-1 -2c-4,2 -1,8 3,7 3,-2 1,-10 -3,-7z"/>
      <path class="fil2" d="M31 95c0,-2 0,-1 0,-2 2,0 2,1 0,2zm0 -5c-4,1 -2,9 2,7 3,-1 2,-8 -2,-7z"/>
      <path class="fil2" d="M267 215c2,0 2,0 1,2 -1,0 -1,0 -1,-2zm-1 -2c-3,2 -1,8 3,7 4,-2 1,-9 -3,-7z"/>
      <path class="fil2" d="M259 95c-1,-1 -2,-1 0,-2 1,0 1,0 0,2zm-1 -5c-4,2 -2,9 2,7 4,-1 2,-9 -2,-7z"/>
      <path class="fil2" d="M270 114c-1,0 -3,1 -4,2 1,1 13,0 15,0l0 -3c-3,0 -6,2 -11,1z"/>
      <path class="fil2" d="M269 237c-1,0 -1,0 -2,1 -2,0 -1,0 -2,1l15 0 0 -3c-1,0 -3,0 -5,1 -2,0 -4,0 -6,0z"/>
      <path class="fil2" d="M34 116c-1,-1 -3,-1 -4,-2 -5,0 -7,0 -11,-1l0 3 15 0z"/>
      <path class="fil2" d="M19 239l15 0c0,-1 0,0 -2,-1 -1,0 -1,-1 -2,-1 -4,0 -7,0 -11,-1l0 3z"/>
      <path class="fil2" d="M142 277c-1,2 -1,1 -1,1 0,-1 -1,-2 1,-1zm-1 -2c-5,1 -2,6 1,5 4,-1 2,-7 -1,-5z"/>
      <path class="fil2" d="M132 277c0,2 -1,1 -1,0l1 0zm-1 -2c-5,1 -2,7 2,5 3,-1 1,-6 -2,-5z"/>
      <path class="fil2" d="M149 48c0,2 -1,2 -1,0 1,-1 1,0 1,0zm-1 -2c-5,2 -2,7 2,5 3,-1 1,-7 -2,-5z"/>
      <path class="fil2" d="M159 48c0,2 0,1 -1,1 1,-1 -1,0 0,-1 2,-1 1,0 1,0zm-1 -2c-4,1 -2,6 2,5 3,-1 2,-7 -2,-5z"/>
      <path class="fil2" d="M134 60l-3 -1c-1,0 -1,0 -1,1 1,1 3,1 4,0z"/>
      <path class="fil2" d="M156 290l4 -1c0,-1 0,-1 -2,-2l-2 3z"/>
     </g>
     <g>
      <path class="fil3" d="M140 29c1,-1 4,0 6,0 0,1 0,2 0,3 -2,0 -5,1 -6,0l0 -3zm-2 -4l7 0 3 0 0 3 -10 0 0 -3zm0 -2c-2,2 -5,1 -10,7 -2,3 -4,6 -4,9 -1,3 -1,2 0,4 -1,2 -1,3 1,7 1,2 3,5 4,6 4,-3 -2,-7 -2,-12 0,-4 4,-8 8,-9 4,-1 4,0 7,0 2,0 3,-2 7,-1 5,1 8,4 9,9 5,0 7,2 7,7 1,-1 0,-3 0,-5 0,-1 0,-2 0,-2 0,-2 1,0 1,-2 -1,-6 -5,-12 -9,-15 -5,-3 -7,-2 -8,-4 -2,2 0,2 -2,2l-2 0 0 -2c-2,1 -2,1 -4,0l0 2 -2 0 -1 -1z"/>
      <path class="fil3" d="M146 258l2 0 2 0 0 3 -1 0 -4 0 -1 0 0 -3 2 0zm-4 -4l10 0 0 3 -10 0 0 -3zm-16 20c3,-1 1,-2 6,-3 1,-4 4,-7 9,-8 4,-1 5,1 7,1 3,0 4,-1 8,0 4,1 7,5 7,10 -1,4 -7,8 -1,11 -1,-1 0,0 2,-3 1,-2 2,-4 2,-5 0,-4 1,-2 1,-5 -1,-9 -6,-17 -15,-19l0 -1c-2,1 1,1 -4,1l1 -1c-3,1 0,0 -2,1 0,0 -1,0 -2,0 -1,1 -1,0 -2,0 -1,-1 0,0 -2,-2l0 1c-4,1 -6,2 -9,4 -2,2 -1,1 -1,3 -2,0 -1,0 -2,0 -1,2 -3,3 -3,6 -1,3 -2,5 -2,8l2 1z"/>
      <path class="fil3" d="M131 59l3 1c3,0 6,-2 6,-5 1,-6 -4,-5 -2,-9 2,-1 2,0 4,1 2,-2 2,-4 6,-4 3,-1 5,2 6,1 2,-4 -3,-7 -7,-7 -2,0 -4,2 -5,1 -3,0 -3,-1 -7,0 -4,1 -5,6 -3,10 4,5 2,6 -1,11z"/>
      <path class="fil3" d="M156 290l2 -3c-2,-4 -3,-5 0,-10 2,-4 1,-8 -3,-10 -3,-1 -4,0 -6,0 -2,1 -3,-1 -6,-1 -4,0 -10,5 -7,7 1,1 0,1 1,0 5,-3 9,-1 10,3 2,0 4,-2 5,0 2,2 -3,3 -2,8 0,3 3,5 6,6z"/>
      <path class="fil3" d="M145 292l6 -1c-3,-3 -5,-4 -5,-10 -4,4 -5,3 -9,1l-2 4 4 0 0 3 7 0 -1 3z"/>
      <path class="fil3" d="M139 63c2,-1 4,0 6,0l-1 -3 7 0 0 -3 4 0 -2 -4c-3,2 -6,2 -9,-1 0,8 -4,8 -5,11z"/>
      <path class="fil3" d="M131 286c1,-1 1,-1 1,-2l-4 -1 3 3z"/>
      <path class="fil3" d="M160 57c0,-1 0,-1 0,-3l-2 1c0,1 0,2 2,2z"/>
     </g>
     <g>
      <path class="fil4" d="M151 291l2 1 0 4 -11 0c2,-2 2,-2 3,-4l1 -3 -7 0 0 -3 -4 0 2 -4c4,2 5,3 9,-1 0,6 2,7 5,10zm-10 -16c3,-2 5,4 1,5 -3,1 -6,-4 -1,-5zm-10 0c3,-1 5,4 2,5 -4,2 -7,-4 -2,-5zm27 12c2,1 2,1 2,2l-4 1c-3,-1 -6,-3 -6,-6 -1,-5 4,-6 2,-8 -1,-2 -3,0 -5,0 -1,-4 -5,-6 -10,-3 -1,1 0,1 -1,0 -3,-2 3,-7 7,-7 3,0 4,2 6,1 2,0 3,-1 6,0 4,2 5,6 3,10 -3,5 -2,6 0,10zm-32 -13c-1,2 -1,3 -1,5 1,2 2,3 3,4l4 1c0,1 0,1 -1,2 -1,2 -1,1 -1,3l5 0 0 3 6 0c-3,2 -3,2 -6,2l0 5 22 0 0 -6c3,0 9,-2 8,-6l-3 -2c-6,-3 0,-7 1,-11 0,-5 -3,-9 -7,-10 -4,-1 -5,0 -8,0 -2,0 -3,-2 -7,-1 -5,1 -8,4 -9,8 -5,1 -3,2 -6,3z"/>
      <path class="fil4" d="M145 63c1,2 2,2 3,4l-11 0 0 -4 2 0c1,-3 5,-3 5,-11 3,3 6,3 9,1l2 4 -4 0 0 3 -7 0 1 3zm3 -17c3,-2 5,4 2,5 -4,2 -7,-3 -2,-5zm10 0c4,-2 5,4 2,5 -4,1 -6,-4 -2,-5zm-24 14c-1,1 -3,1 -4,0 0,-1 0,-1 1,-1 3,-5 5,-6 1,-11 -2,-4 -1,-9 3,-10 4,-1 4,0 7,0 1,1 3,-1 5,-1 4,0 9,3 7,7 -1,1 -3,-2 -6,-1 -4,0 -4,2 -6,4 -2,-1 -2,-2 -4,-1 -2,4 3,3 2,9 0,3 -3,5 -6,5zm-5 -4c-2,1 -8,2 -2,6 3,2 5,2 6,2l0 6 22 0 0 -5c-2,-1 -4,0 -6,-2l6 0 0 -3 5 0 0 -3c-2,0 -2,-1 -2,-2l2 -1c2,0 4,-2 5,-4 0,-5 -2,-7 -7,-7 -1,-5 -4,-8 -9,-9 -4,-1 -5,1 -7,1 -3,0 -3,-1 -7,0 -4,1 -8,5 -8,9 0,5 6,9 2,12z"/>
      <path class="fil4" d="M280 236l0 3 -15 0c1,-1 0,-1 2,-1 1,-1 1,-1 2,-1 2,-2 4,-2 5,-8l-9 0 0 -3 -5 0c0,-2 1,-3 3,-4 2,1 4,3 7,1 3,-1 4,-3 4,-6l6 0 0 19zm-14 -23c4,-2 7,5 3,7 -4,1 -6,-5 -3,-7zm-9 0c4,-3 6,5 3,7 -4,1 -7,-5 -3,-7zm14 -4c4,0 6,0 9,0l0 4 -6 0c-1,-2 -2,-2 -3,-4zm-9 34l21 -1 0 -8 1 -17 4 0 -1 -4 -4 0 0 -8c-10,0 -12,-1 -20,6 -2,-2 -3,-3 -6,-2 -2,0 -4,2 -4,4 -2,4 0,10 4,11l0 5 5 0 0 3 7 1c-1,2 -4,1 -7,2l0 8z"/>
      <path class="fil4" d="M30 237c1,0 1,1 2,1 2,1 2,0 2,1l-15 0c-1,-1 0,-8 0,-11 0,-3 0,-7 0,-11l6 0c1,3 2,5 4,7 4,2 5,0 7,-2 2,1 3,2 3,4l-5 0 0 3 -9 0c1,5 2,6 5,8zm10 -24c4,-2 6,5 2,7 -4,2 -6,-5 -2,-7zm-10 0c4,-2 6,5 3,7 -4,2 -6,-5 -3,-7zm-11 -4c3,0 6,0 9,1 -1,2 -1,1 -2,4l-7 0 0 -5zm-3 26l0 8 21 0 0 -8c-2,0 -5,0 -7,-2l7 0 0 -3 5 0 0 -6c8,-1 7,-13 1,-15 -4,-1 -4,1 -7,2 -3,-2 -3,-4 -8,-5 -3,-1 -8,0 -12,0l0 8 -4 0 0 3 4 0 0 18z"/>
      <path class="fil4" d="M281 113l0 3c-2,0 -14,1 -15,0 1,-1 3,-2 4,-2 3,-3 4,-3 5,-8l-9 0 0 -3 -5 0c0,-4 1,-1 2,-4 3,1 4,4 8,2 3,-2 3,-4 4,-6l6 -1 0 19zm-14 -23c4,-2 6,6 3,7 -4,2 -7,-5 -3,-7zm-9 0c4,-2 6,6 2,7 -4,2 -6,-5 -2,-7zm23 -4l0 5 -6 0 -3 -4c2,-1 7,-1 9,-1zm-18 27l0 7 21 0 0 -25 4 -1 0 -3 -4 0 0 -8c-4,0 -9,-1 -13,0 -4,2 -5,3 -8,5 -3,-3 -8,-2 -10,2 -3,7 2,10 5,12l0 5 5 0 0 3 6 0c-2,3 -6,1 -6,3z"/>
      <path class="fil4" d="M30 114c1,1 3,1 4,2 -1,1 0,1 -1,1l-14 -1c0,-1 0,-20 0,-22l5 0c2,0 1,0 1,1 1,3 1,4 4,6 4,2 5,0 7,-2 3,2 3,1 3,4l-5 0 0 3 -8 0c0,5 2,6 4,8zm10 -24c4,-1 6,6 2,7 -4,2 -6,-6 -2,-7zm-9 0c4,-1 5,6 2,7 -4,2 -6,-6 -2,-7zm-12 -4c3,0 7,0 9,1l-3 4 -6 0 0 -5zm-3 26l0 8 21 0 0 -8c-3,0 -5,0 -7,-2l7 0 0 -3 6 0 -1 -5c2,-2 4,-2 5,-5 3,-6 -3,-15 -11,-9 -3,-2 -3,-3 -7,-5 -4,-1 -9,0 -13,0l0 8 -4 0 0 3 4 0 0 18z"/>
      <path class="fil4" d="M266 68c-1,7 -8,12 -15,10 -7,-2 -10,-10 -9,-17 4,-17 28,-11 24,7zm-19 12c4,1 7,2 12,1 3,-2 6,-4 8,-7l1 2 2 0c1,-4 0,-4 -2,-5 2,-3 1,-5 1,-9 -1,-12 -14,-19 -24,-11 -7,6 -8,16 -4,23 3,4 3,3 6,6z"/>
      <path class="fil4" d="M34 189c-1,-7 4,-14 11,-15 7,-1 13,5 14,12 1,18 -23,21 -25,3zm-3 -1c0,3 1,4 1,7 -1,-2 -3,1 -3,2 1,1 2,2 3,2 1,-1 0,-2 1,-3 1,3 5,6 8,7 5,2 8,1 12,0 1,-2 8,-5 9,-14 0,-6 -2,-12 -7,-15 -11,-9 -25,1 -24,14z"/>
      <path class="fil4" d="M59 67c-4,18 -28,13 -25,-5 3,-18 27,-12 25,5zm-28 -2c0,3 1,4 1,7 -1,0 -1,0 -2,0 -1,2 -1,2 0,4 3,0 2,-1 3,-3 4,8 13,10 20,7 5,-4 8,-7 9,-14 0,-6 -2,-12 -7,-15 -11,-8 -24,1 -24,14z"/>
      <path class="fil4" d="M250 174c17,-5 22,22 7,26 -16,5 -23,-21 -7,-26zm-4 28c14,5 16,-1 21,-5 1,4 5,-1 2,-3 -1,0 0,0 -1,0 1,-2 1,-4 1,-6 0,-13 -13,-23 -24,-15 -5,3 -7,9 -7,15 1,9 6,12 8,14z"/>
      <path class="fil4" d="M44 191c-2,-3 1,-8 3,-6 2,0 2,7 -3,6zm9 3c-2,2 -9,2 -12,-1 -2,-2 -2,-7 0,-10 2,-3 8,-4 11,-1 3,2 2,8 -2,9l1 -8c-1,0 -2,0 -2,0 -1,0 -1,0 -3,0 -7,0 -6,14 1,9 2,3 6,-1 7,-2 6,-11 -11,-16 -16,-6 -2,5 0,10 5,12 3,2 11,1 13,-3 -3,0 -2,0 -3,1z"/>
      <path class="fil4" d="M251 191c-2,-2 0,-7 3,-6 2,1 1,7 -3,6zm8 3c-3,3 -9,2 -12,0 -2,-3 -2,-8 1,-11 3,-2 8,-3 11,0 2,2 2,7 -3,8l2 -8c-3,0 -2,1 -3,1 0,0 -5,-3 -7,2 -2,5 1,9 6,6 1,2 3,1 5,0 1,-1 2,-3 3,-4 0,-5 -2,-9 -8,-9 -5,0 -8,2 -10,7 -3,13 15,14 18,7 -3,0 -1,1 -3,1z"/>
      <path class="fil4" d="M44 69c-2,-3 0,-8 3,-6 2,0 1,7 -3,6zm11 2c-3,0 -6,4 -12,2 -4,-2 -5,-7 -3,-11 2,-3 8,-5 11,-2 3,2 3,8 -2,9l2 -8c-3,0 -2,0 -3,0 -1,0 -1,0 -3,0 -2,0 -3,2 -4,3 -2,4 1,9 6,6 1,2 3,1 5,0 1,-1 2,-3 3,-4 0,-5 -1,-9 -8,-9 -4,0 -8,2 -10,7 -3,12 14,15 18,7z"/>
      <path class="fil4" d="M251 68c-2,-2 0,-7 3,-6 2,1 1,7 -3,6zm11 2l-1 0c-9,6 -19,0 -14,-9 2,-3 8,-5 11,-2 3,2 3,8 -1,9l1 -8c-2,0 -3,1 -3,1 -1,0 -1,-1 -3,-1 -6,0 -6,14 2,9 2,3 9,1 8,-7 -3,-9 -17,-7 -18,2 -1,12 14,13 18,6z"/>
      <path class="fil4" d="M138 23l1 1 2 0 0 -2c-1,-2 -3,-3 -3,-6 1,-5 10,-5 10,1 0,2 -2,3 -3,5l0 2 2 0c2,0 0,0 2,-2 2,-2 3,-5 1,-8 -1,-3 -4,-5 -7,-5 -3,0 -6,2 -7,5 -2,5 1,7 2,9z"/>
      <path class="fil4" d="M141 251c2,2 1,1 2,2 1,0 1,1 2,0 0,-4 -3,-4 -3,-7 0,-6 9,-7 10,0 0,2 -2,3 -3,6l-1 1c5,0 2,0 4,-1 1,-3 4,-4 2,-9 -2,-6 -11,-7 -14,0 -3,4 1,6 1,8z"/>
      <polygon class="fil4" points="142,257 152,257 152,254 142,254 "/>
      <polygon class="fil4" points="138,28 148,28 148,25 145,25 138,25 "/>
      <path class="fil4" d="M136 10c0,-2 -1,-2 -2,-4 -1,-1 -3,-3 -4,-1 -1,2 1,3 2,4 1,1 2,2 4,1z"/>
      <path class="fil4" d="M142 7c4,2 3,-6 2,-6 -1,-2 -2,-1 -3,1 0,2 0,4 1,5z"/>
      <path class="fil4" d="M155 240c2,-1 8,-6 4,-7 -1,0 -3,2 -4,3 -1,1 -2,2 0,4z"/>
      <path class="fil4" d="M146 236c4,3 3,-6 2,-6 -1,-1 -2,-1 -3,1 0,1 0,4 1,5z"/>
      <path class="fil4" d="M157 244c-4,3 6,4 7,3 1,-1 0,-3 -1,-3 -2,0 -5,0 -6,0z"/>
      <path class="fil4" d="M134 234c-2,1 0,2 1,4 1,0 3,2 4,1 2,-1 0,-3 -1,-4 -2,-1 -3,-3 -4,-1z"/>
      <path class="fil4" d="M126 15c-1,3 0,3 2,3 2,0 4,0 5,-1 1,-2 0,-2 -2,-2 -1,0 -5,0 -5,0z"/>
      <path class="fil4" d="M130 246c1,1 9,2 7,-1 0,-1 -9,-3 -7,1z"/>
      <path class="fil4" d="M160 15c-7,-2 -13,3 -2,3 2,0 3,0 2,-3z"/>
      <path class="fil4" d="M150 9c2,2 3,2 5,-1 1,-1 2,-2 1,-3 -2,-1 -2,0 -3,1 -2,1 -3,2 -3,3z"/>
      <polygon class="fil4" points="144,261 145,261 149,261 150,261 150,258 148,258 146,258 144,258 "/>
      <polygon class="fil4" points="145,250 149,250 149,244 145,244 "/>
      <polygon class="fil4" points="141,21 145,21 145,15 142,15 "/>
      <polygon class="fil4" points="140,32 146,32 146,29 140,29 "/>
      <path class="fil4" d="M270 202l2 1 0 -3c-2,-1 -3,0 -2,2z"/>
      <path class="fil4" d="M28 80l1 0c1,-1 1,-1 0,-3 -2,0 -2,1 -1,3z"/>
      <path class="fil4" d="M28 201c-1,1 -1,1 0,2l1 0c1,-3 0,-3 -1,-2z"/>
      <path class="fil4" d="M272 80c1,-2 1,-1 0,-2 -2,-1 -2,3 0,2z"/>
      <path class="fil4" d="M268 217c1,-2 1,-2 -1,-2 0,2 0,2 1,2z"/>
      <path class="fil4" d="M259 217c1,-2 0,-2 -1,-2 -1,2 -1,2 1,2z"/>
      <path class="fil4" d="M31 218c2,-1 2,-1 1,-2 -1,0 -2,0 -1,2z"/>
      <path class="fil4" d="M42 95c0,-2 0,-2 -1,-2 -1,1 -1,1 1,2z"/>
      <path class="fil4" d="M259 95c1,-2 1,-2 0,-2 -2,1 -1,1 0,2z"/>
      <path class="fil4" d="M41 218c1,-1 2,-1 0,-2 -1,0 -1,0 0,2z"/>
      <path class="fil4" d="M31 95c2,-1 2,-2 0,-2 0,1 0,0 0,2z"/>
      <path class="fil4" d="M269 95l0 -2c-2,0 -2,1 0,2z"/>
      <path class="fil4" d="M141 278c0,0 0,1 1,-1 -2,-1 -1,0 -1,1z"/>
      <path class="fil4" d="M148 48c0,2 1,2 1,0 0,0 0,-1 -1,0z"/>
      <path class="fil4" d="M158 49c1,0 1,1 1,-1 0,0 1,-1 -1,0 -1,1 1,0 0,1z"/>
      <path class="fil4" d="M131 277c0,1 1,2 1,0l-1 0z"/>
     </g>
     <g>
      <path class="fil5" d="M28 201c1,-1 2,-1 1,2l-1 0c-1,-1 -1,-1 0,-2zm-28 9l0 5c1,2 1,5 2,7 1,2 2,4 4,5 2,3 6,7 10,8l0 -18 -4 0 0 -3 4 0 0 -8c4,0 9,-1 12,0 5,1 5,3 8,5 3,-1 3,-3 7,-2 6,2 7,14 -1,15l0 6 -5 0 0 3 -7 0c2,2 5,2 7,2l0 8c1,-2 0,-5 1,-7 12,-5 20,-15 17,-28 -1,-2 -2,-4 -2,-5 -4,1 -7,2 -12,0 -3,-1 -7,-4 -8,-7 -1,1 0,2 -1,3 -1,0 -2,-1 -3,-2 0,-1 2,-4 3,-2 0,-3 -1,-4 -1,-7 -3,1 -5,0 -12,1 -6,2 -12,6 -15,12 -3,4 -3,7 -4,9z"/>
      <path class="fil5" d="M28 80c-1,-2 -1,-3 1,-3 1,2 1,2 0,3l-1 0zm-28 7l0 6c1,1 1,4 2,6 1,2 2,4 4,6 2,3 6,6 10,7l0 -18 -4 0 0 -3 4 0 0 -8c4,0 9,-1 13,0 4,2 4,3 7,5 8,-6 14,3 11,9 -1,3 -3,3 -5,5l1 5 -6 0 0 3 -7 0c2,2 4,2 7,2l0 8c1,-1 0,-6 0,-7 5,-2 13,-8 15,-12 3,-5 4,-11 3,-16 0,-2 -2,-4 -2,-5 -7,3 -16,1 -20,-7 -1,2 0,3 -3,3 -1,-2 -1,-2 0,-4 1,0 1,0 2,0 0,-3 -1,-4 -1,-7 -5,1 -18,-1 -27,13 -3,4 -3,7 -4,9z"/>
      <path class="fil5" d="M272 80c-2,1 -2,-3 0,-2 1,1 1,0 0,2zm-25 0c-1,1 -1,1 -1,2 0,1 -2,7 -1,9 0,5 2,10 6,14 5,5 5,4 12,8 0,-2 4,0 6,-3l-6 0 0 -3 -5 0 0 -5c-3,-2 -8,-5 -5,-12 2,-4 7,-5 10,-2 3,-2 4,-3 8,-5 4,-1 9,0 13,0l0 8 4 0 0 3 -4 1 0 25c1,-1 0,-5 0,-7 1,-2 5,-4 7,-5 19,-15 7,-44 -21,-43 0,-1 0,-1 -1,-3 0,4 1,6 -1,9 2,1 3,1 2,5l-2 0 -1 -2c-2,3 -5,5 -8,7 -5,1 -8,0 -12,-1z"/>
      <path class="fil5" d="M270 202c-1,-2 0,-3 2,-2l0 3 -2 -1zm-24 0c0,2 -2,7 -2,11 1,7 2,10 6,15 2,3 8,6 12,7 0,2 0,3 0,4l0 3c0,0 0,0 0,1l0 -8c3,-1 6,0 7,-2l-7 -1 0 -3 -5 0 0 -5c-4,-1 -6,-7 -4,-11 0,-2 2,-4 4,-4 3,-1 4,0 6,2 8,-7 10,-6 20,-6l0 8 4 0 1 4 -4 0 -1 17c11,-3 20,-16 15,-29 -3,-8 -10,-14 -18,-16 -4,-1 -8,-1 -11,-1 0,2 0,4 -1,6 1,0 0,0 1,0 3,2 -1,7 -2,3 -5,4 -7,10 -21,5z"/>
      <path class="fil5" d="M19 239l0 -3c4,1 7,1 11,1 -3,-2 -4,-3 -5,-8l9 0 0 -3 5 0c0,-2 -1,-3 -3,-4 -2,2 -3,4 -7,2 -2,-2 -3,-4 -4,-7l-6 0c0,4 0,8 0,11 0,3 -1,10 0,11z"/>
      <path class="fil5" d="M270 114c5,1 8,-1 11,-1l0 -19 -6 1c-1,2 -1,4 -4,6 -4,2 -5,-1 -8,-2 -1,3 -2,0 -2,4l5 0 0 3 9 0c-1,5 -2,5 -5,8z"/>
      <path class="fil5" d="M269 237c2,0 4,0 6,0 2,-1 4,-1 5,-1l0 -19 -6 0c0,3 -1,5 -4,6 -3,2 -5,0 -7,-1 -2,1 -3,2 -3,4l5 0 0 3 9 0c-1,6 -3,6 -5,8z"/>
      <path class="fil5" d="M19 113c4,1 6,1 11,1 -2,-2 -4,-3 -4,-8l8 0 0 -3 5 0c0,-3 0,-2 -3,-4 -2,2 -3,4 -7,2 -3,-2 -3,-3 -4,-6l-6 0 0 18z"/>
      <path class="fil5" d="M262 70c0,0 1,0 -1,0 1,-3 3,-6 1,-8 1,8 -6,10 -8,7 -8,5 -8,-9 -2,-9 2,0 2,1 3,1 0,0 1,-1 3,-1l-1 8c4,-1 4,-7 1,-9 -3,-3 -9,-1 -11,2 -5,9 5,15 14,9l1 0z"/>
      <path class="fil5" d="M55 71c-1,-1 0,0 -1,0l1 -5c-1,1 -2,3 -3,4 -2,1 -4,2 -5,0 -5,3 -8,-2 -6,-6 1,-1 2,-3 4,-3 2,0 2,0 3,0 1,0 0,0 3,0l-2 8c5,-1 5,-7 2,-9 -3,-3 -9,-1 -11,2 -2,4 -1,9 3,11 6,2 9,-2 12,-2z"/>
      <path class="fil5" d="M259 194c-1,0 -1,1 0,-1 1,0 1,0 2,-1 0,-1 1,-2 1,-4 -1,1 -2,3 -3,4 -2,1 -4,2 -5,0 -5,3 -8,-1 -6,-6 2,-5 7,-2 7,-2 1,0 0,-1 3,-1l-2 8c5,-1 5,-6 3,-8 -3,-3 -8,-2 -11,0 -3,3 -3,8 -1,11 3,2 9,3 12,0z"/>
      <path class="fil5" d="M53 194l1 -4c-1,1 -5,5 -7,2 -7,5 -8,-9 -1,-9 2,0 2,0 3,0 0,0 1,0 2,0l-1 8c4,-1 5,-7 2,-9 -3,-3 -9,-2 -11,1 -2,3 -2,8 0,10 3,3 10,3 12,1z"/>
      <path class="fil5" d="M272 87l3 4 6 0 0 -5c-2,0 -7,0 -9,1z"/>
      <path class="fil5" d="M271 209c1,2 2,2 3,4l6 0 0 -4c-3,0 -5,0 -9,0z"/>
      <path class="fil5" d="M19 214l7 0c1,-3 1,-2 2,-4 -3,-1 -6,-1 -9,-1l0 5z"/>
      <path class="fil5" d="M19 91l6 0 3 -4c-2,-1 -6,-1 -9,-1l0 5z"/>
      <path class="fil5" d="M44 69c4,1 5,-6 3,-6 -3,-2 -5,3 -3,6z"/>
      <path class="fil5" d="M251 68c4,1 5,-5 3,-6 -3,-1 -5,4 -3,6z"/>
      <path class="fil5" d="M251 191c4,1 5,-5 3,-6 -3,-1 -5,4 -3,6z"/>
      <path class="fil5" d="M44 191c5,1 5,-6 3,-6 -2,-2 -5,3 -3,6z"/>
     </g>
    </g>
   </g>
  </g>
 </g>
</svg>
