<?xml version="1.0" encoding="UTF-8"?>
<!DOCTYPE svg PUBLIC "-//W3C//DTD SVG 1.1//EN" "http://www.w3.org/Graphics/SVG/1.1/DTD/svg11.dtd">
<!-- Creator: CorelDRAW X8 -->
<svg xmlns="http://www.w3.org/2000/svg" xml:space="preserve" width="59.9512mm" height="59.7956mm" version="1.1" style="shape-rendering:geometricPrecision; text-rendering:geometricPrecision; image-rendering:optimizeQuality; fill-rule:evenodd; clip-rule:evenodd"
viewBox="0 0 5995 5980"
 xmlns:xlink="http://www.w3.org/1999/xlink">
 <defs>
  <style type="text/css">
   <![CDATA[
    .fil4 {fill:black}
    .fil1 {fill:#61676A}
    .fil5 {fill:#84B9D7}
    .fil6 {fill:#91C1DC}
    .fil3 {fill:silver}
    .fil0 {fill:#FF6666}
    .fil2 {fill:white}
    .fil7 {fill:white;fill-rule:nonzero}
   ]]>
  </style>
 </defs>
 <g id="Ebene_x0020_1">
  <metadata id="CorelCorpID_0Corel-Layer"/>
  <g id="_3027140284352">
   <g id="logo-1-striche.pdf">
    <g>
     <g>
      <path class="fil0" d="M1846 3852c31,-7 46,-20 73,-36 26,-15 38,-22 65,-37 47,-26 87,-51 134,-78l672 -384c49,-26 89,-49 136,-75l0 1182 -736 0c-28,0 -39,-40 -53,-64l-291 -508zm1128 -610c35,9 372,201 415,226 24,14 47,29 71,39 84,44 572,330 611,338 -27,51 -56,97 -89,146 -32,51 -59,95 -90,145 -25,39 -166,263 -173,288l-745 0 0 -1182zm24 -47c25,-7 217,-119 256,-143 199,-119 603,-331 762,-437l407 666 -328 532c-187,-99 -366,-207 -555,-308l-345 -195c-38,-22 -179,-90 -197,-115zm-1465 110c0,-10 75,-155 85,-173l267 -501c26,6 104,54 133,69l828 464c22,14 39,24 65,31 -17,23 -519,300 -544,316l-545 310c-7,-28 -54,-102 -71,-132 -27,-43 -51,-83 -75,-129l-143 -255zm376 -713c9,-41 31,-67 49,-101 17,-32 31,-59 46,-93l243 -462c17,-34 38,-82 60,-82l619 0 0 1302c-36,-9 -338,-184 -386,-209l-255 -145c-43,-20 -83,-47 -126,-69l-250 -141zm1065 -738l580 0c7,29 199,335 219,369 60,99 169,267 220,360 -320,170 -699,411 -1019,581l0 -1310zm-658 -45c61,-116 120,-230 180,-345l92 -175c32,-60 57,-112 88,-170 -17,-9 -19,-12 -39,-15 -17,30 -32,62 -48,93l-234 447c-14,27 -77,165 -102,165l-1215 0 0 45 1208 0 -376 714c-43,-22 -80,-41 -123,-66 -228,-135 -464,-255 -694,-388 -39,-24 -76,-42 -117,-63 -3,21 -7,23 -15,39l811 451c36,22 73,49 114,57 -3,31 -5,26 -17,46 -61,102 -253,488 -320,613 -22,-17 -66,-103 -85,-135 -27,-50 -54,-92 -80,-140 -149,-277 -321,-542 -469,-822 -21,5 -24,7 -39,15 100,191 214,379 321,564 27,48 55,94 84,145 37,69 236,390 236,421 0,27 -303,581 -342,659l-112 218c20,5 24,6 39,15l332 -632c20,-37 100,-180 107,-214 27,20 258,435 291,494 -46,12 -143,77 -187,104l-550 311c4,20 7,23 15,39l655 -371c31,-18 60,-37 89,-52 12,47 52,102 76,142 29,46 51,87 79,135 25,47 49,86 78,134 25,42 61,88 73,137l-1136 0 0 48 1151 0c34,0 55,63 68,88l164 284c37,66 69,124 108,189 38,64 72,125 108,190 15,-9 18,-10 39,-15l-211 -369c-19,-34 -34,-61 -53,-95 -19,-34 -34,-56 -53,-90 -29,-51 -86,-126 -98,-182l719 0 0 790 48 0 0 -790 704 0c-7,29 -39,68 -55,93l-391 636c17,8 24,12 39,22 68,-129 155,-253 233,-377 33,-50 222,-342 230,-374l1308 0 0 -48 -1269 0c7,-30 24,-45 39,-71 45,-73 278,-426 289,-477 45,3 82,35 118,56l316 176c41,21 70,43 111,63l318 175c8,-17 10,-18 15,-39 -214,-114 -420,-241 -634,-353l-106 -60c-36,-20 -71,-39 -105,-57 13,-27 296,-491 320,-510 13,46 134,226 170,285l238 389c44,72 93,145 132,220 16,-11 23,-14 40,-24 -41,-78 -92,-151 -138,-230 -48,-79 -92,-149 -141,-227 -92,-151 -194,-302 -278,-459l172 -275c123,-202 425,-662 510,-822 -15,-10 -22,-14 -39,-24 -90,172 -379,603 -503,812 -17,27 -27,43 -43,68l-127 202c-17,-61 -327,-526 -391,-650 158,-85 311,-180 469,-267l235 -134c78,-44 154,-90 234,-133 -8,-15 -10,-18 -15,-39 -161,87 -313,180 -474,270l-359 206c-41,24 -79,41 -114,64 -19,-34 -33,-54 -53,-88l-267 -437c-22,-37 -95,-144 -104,-180l1426 0 0 -45 -1465 0c-7,-28 -34,-62 -49,-85l-342 -566c-19,8 -24,14 -39,24 29,54 63,105 93,156l191 311c25,42 81,114 92,160l-541 0 0 -925 -48 0 0 925 -610 0z"/>
      <polygon class="fil0" points="530,4370 577,4370 577,1800 530,1800 "/>
      <polygon class="fil0" points="5418,3884 5466,3884 5466,1785 5418,1785 "/>
      <path class="fil0" d="M3287 954l442 194c37,17 71,29 109,46 226,108 532,232 772,339l447 197c5,-25 11,-23 16,-47l-1771 -776c-5,25 -8,23 -15,47z"/>
      <path class="fil0" d="M2589 5427c7,-24 11,-22 17,-46 -44,-10 -1726,-766 -1770,-777 -7,24 -10,23 -17,48l224 97c77,34 150,66 223,98 240,109 548,231 772,340l551 240z"/>
      <path class="fil0" d="M819 1707c7,23 10,22 17,45 25,-5 81,-34 109,-45l1098 -485c41,-18 77,-32 116,-49l447 -195c-6,-24 -10,-22 -17,-48 -25,7 -81,36 -109,48l-442 194c-224,107 -532,231 -772,339l-447 196z"/>
      <path class="fil0" d="M4445 4948c104,-43 619,-279 660,-289 -7,-24 -10,-22 -15,-46l-448 195c-240,109 -547,231 -772,340l-551 240c5,25 10,23 15,47l1111 -487z"/>
     </g>
    </g>
   </g>
   <g id="logo-2-figuren.pdf">
    <g>
     <g>
      <path class="fil1" d="M684 2322l-301 0 -2 -59 3 -370 123 5c-10,-14 8,-10 -21,-12l-105 0c-7,27 -10,406 -3,440l273 7c36,-2 14,5 33,-11z"/>
      <path class="fil1" d="M2796 636c26,15 87,8 123,5 8,-29 8,-36 0,-65 -36,-5 -97,-10 -123,5l121 0 0 55 -121 0z"/>
     </g>
     <g>
      <path class="fil2" d="M1080 3804l-29 69c29,-18 17,-22 60,-18 -36,90 -182,96 -259,66 -95,-38 -127,-150 -87,-240 96,-209 441,-97 315,123zm-401 -28c37,359 520,303 495,-52 -12,-148 -130,-264 -281,-247 -143,17 -230,164 -214,299z"/>
      <path class="fil2" d="M1106 1420c-94,152 -419,90 -358,-146 24,-95 102,-142 199,-137 126,5 143,80 152,181l-29 94c36,0 19,-3 36,8zm64 -86c58,-340 -432,-452 -490,-89 -54,350 429,457 490,89z"/>
      <path class="fil2" d="M5169 3885c46,-15 5,-27 70,-22 -55,139 -420,110 -354,-144 22,-92 97,-143 192,-141 128,1 150,80 160,187 -5,25 -15,49 -31,71 -13,20 -6,12 -22,25 -29,28 -29,9 -15,24zm-168 -406c-317,95 -182,617 131,525 309,-92 195,-623 -131,-525z"/>
      <path class="fil2" d="M5240 1405c-85,138 -384,105 -360,-119 19,-195 304,-229 350,-52 41,51 5,110 -8,163 37,0 12,-2 18,8zm80 -49c74,-360 -408,-471 -483,-129 -30,139 45,297 186,331 141,36 268,-66 297,-202z"/>
      <path class="fil2" d="M2905 4879l65 0 0 114 -65 0 0 -114zm0 173c15,0 24,2 36,-2 32,-13 -14,-3 29,-22 18,-54 63,-66 61,-122 -7,-124 -201,-109 -189,15 5,53 55,60 63,131z"/>
      <path class="fil2" d="M2829 301l61 2 0 114 -65 0 4 -116zm-6 139c29,17 34,10 72,9 19,-49 58,-65 59,-111 4,-117 -180,-124 -190,-15 -3,51 32,80 59,117z"/>
      <path class="fil2" d="M2892 1256c-36,-5 -84,-17 -116,-5l-39 8 0 78 221 0c-17,-32 -38,-29 -66,-81z"/>
      <path class="fil2" d="M2905 5832c-29,47 -36,46 -76,81l227 0 4 -69 -43 -21 -112 9z"/>
      <path class="fil2" d="M643 4312c15,28 8,30 -19,37 -15,-34 -7,-34 19,-37zm-34 -51c-72,42 -31,176 51,137 68,-34 27,-183 -51,-137z"/>
      <path class="fil2" d="M823 4310c29,18 19,30 -10,39 -14,-29 -10,-27 10,-39zm-25 -49c-70,37 -34,176 49,137 70,-34 29,-182 -49,-137z"/>
      <path class="fil2" d="M5373 1889c-44,-1 -32,-32 0,-35l0 35zm-29 -86c-83,40 -37,171 43,139 68,-29 32,-177 -43,-139z"/>
      <path class="fil2" d="M832 1889c-29,-3 -38,-5 -17,-37 27,8 27,12 17,37zm-26 -90c-80,26 -47,177 38,143 68,-26 42,-168 -38,-143z"/>
      <path class="fil2" d="M5152 4301c27,5 37,4 19,39 -29,-6 -28,-8 -19,-39zm-14 -49c-73,46 -29,172 50,138 71,-31 27,-186 -50,-138z"/>
      <path class="fil2" d="M626 1889c-14,-22 -14,-13 2,-37 32,8 35,30 -2,37zm-9 -90c-80,27 -45,177 38,143 70,-27 41,-168 -38,-143z"/>
      <path class="fil2" d="M5339 4301c27,5 37,2 20,39 -30,-6 -28,-6 -20,-39zm-14 -49c-71,43 -27,172 50,138 73,-33 30,-182 -50,-138z"/>
      <path class="fil2" d="M5179 1891c-20,-9 -34,-7 -10,-39 32,10 27,13 10,39zm-22 -88c-83,39 -41,171 41,139 68,-27 32,-175 -41,-139z"/>
      <path class="fil2" d="M5402 2282c-19,5 -75,23 -87,39 27,12 252,5 300,3l1 -58c-66,-1 -126,26 -214,16z"/>
      <path class="fil2" d="M5385 4736c-20,2 -29,7 -49,14 -36,13 -21,-2 -33,24l301 0 0 -63c-35,5 -69,15 -107,18 -37,5 -76,0 -112,7z"/>
      <path class="fil2" d="M684 2322c-17,-20 -63,-34 -90,-37 -89,-2 -128,-10 -213,-22l2 59 301 0z"/>
      <path class="fil2" d="M386 4780l296 2c-12,-25 -5,-14 -39,-25 -17,-6 -29,-12 -44,-17 -75,3 -138,0 -211,-21l-2 61z"/>
      <path class="fil2" d="M2840 5540c-13,37 -17,17 -30,8 8,-10 -4,-32 30,-8zm-32 -48c-81,31 -39,133 39,107 72,-22 34,-136 -39,-107z"/>
      <path class="fil2" d="M2638 5535c2,42 -25,28 -25,0l25 0zm-29 -45c-85,26 -36,136 41,107 70,-23 31,-127 -41,-107z"/>
      <path class="fil2" d="M2985 965c-12,26 -19,29 -31,0 28,-20 14,-12 31,0zm-37 -49c-82,41 -21,134 46,105 71,-30 22,-139 -46,-105z"/>
      <path class="fil2" d="M3184 965c-14,26 -3,24 -31,9 19,-17 -18,-2 12,-16 28,-12 9,0 19,7zm-36 -51c-66,22 -34,134 43,109 70,-24 37,-136 -43,-109z"/>
      <path class="fil2" d="M2684 1208l-58 -36c-24,4 -19,0 -32,21 27,20 54,20 90,15z"/>
      <path class="fil2" d="M3114 5786l87 -10c-12,-22 -12,-21 -36,-33l-51 43z"/>
     </g>
     <g>
      <path class="fil3" d="M2796 581c26,-15 87,-10 123,-5 8,29 8,36 0,65 -36,3 -97,10 -123,-5l0 -55zm-32 -80l143 -1 44 5 -3 56 -182 0 -2 -60zm-10 -37c-36,32 -96,20 -201,141 -42,49 -68,110 -82,175 -12,53 -12,39 12,75 -22,42 -25,59 12,146 17,41 67,100 73,122 97,-58 -20,-149 -23,-236 -4,-93 64,-173 151,-195 73,-21 90,6 139,5 50,-2 68,-32 148,-21 92,16 159,80 172,174 99,1 145,54 136,151 22,-17 14,-65 14,-99 2,-25 -4,-34 -2,-47 2,-26 10,-2 5,-41 -10,-116 -81,-226 -178,-292 -96,-65 -136,-43 -162,-77 -25,31 0,28 -31,41l-47 0 5 -37c-38,1 -43,8 -72,-9l4 46 -56 0 -17 -22z"/>
      <path class="fil3" d="M2914 5154l47 0 39 2 -3 59 -27 0 -63 0 -29 0 -2 -59 38 -2zm-70 -76l187 0 -2 61 -183 0 -2 -61zm-333 404c59,-31 30,-51 129,-58 12,-93 83,-156 175,-171 75,-12 100,20 146,20 58,0 73,-26 152,-2 83,26 142,107 136,197 -5,97 -126,167 -14,235 -15,-27 2,-12 41,-77 14,-22 37,-64 41,-88 8,-83 18,-44 15,-107 -8,-182 -107,-328 -286,-382l-1 -16c-40,33 10,29 -80,29l5 -34c-43,19 3,9 -29,22 -12,4 -21,2 -36,2 -19,17 -22,10 -54,10 -22,-23 0,-15 -31,-39l2 12c-78,17 -124,37 -186,85 -40,32 -15,19 -25,54 -29,7 -4,-1 -39,0 -19,45 -44,68 -61,119 -21,58 -26,99 -26,160l26 29z"/>
      <path class="fil3" d="M2626 1172l58 36c60,-10 109,-56 116,-117 12,-111 -73,-99 -50,-165 43,-17 50,-2 94,7 36,-37 37,-73 104,-83 68,-9 102,42 132,39 29,-80 -56,-150 -134,-150 -56,0 -83,34 -116,29 -49,-7 -61,-34 -131,-10 -80,29 -110,121 -61,194 70,105 37,130 -12,220z"/>
      <path class="fil3" d="M3114 5786l51 -43c-47,-88 -76,-112 -10,-212 44,-70 24,-161 -54,-194 -58,-23 -77,-6 -126,6 -46,11 -61,-26 -123,-28 -81,0 -185,92 -132,145 15,10 -7,13 22,-4 102,-61 182,-18 202,55 41,-5 68,-29 99,-5 25,56 -63,61 -46,168 8,63 58,102 117,112z"/>
      <path class="fil3" d="M2905 5832l112 -9c-68,-69 -98,-93 -90,-204 -85,70 -109,50 -194,12l-30 80 69 2 0 61 147 0 -14 58z"/>
      <path class="fil3" d="M2776 1251c32,-12 80,0 116,5l-18 -56 147 -4 1 -61 70 0 -32 -81c-72,52 -126,44 -191,-11 5,155 -63,157 -93,208z"/>
      <path class="fil3" d="M2609 5716c22,-15 22,-24 36,-47l-90 -21 54 68z"/>
      <path class="fil3" d="M3196 1145c-5,-25 2,-27 2,-59l-46 3c10,32 15,41 44,56z"/>
     </g>
     <g>
      <path class="fil4" d="M3017 5823l43 21 -4 69 -227 0c40,-35 47,-34 76,-81l14 -58 -147 0 0 -61 -69 -2 30 -80c85,38 109,58 194,-12 -8,111 22,135 90,204zm-209 -331c73,-29 111,85 39,107 -78,26 -120,-76 -39,-107zm-199 -2c72,-20 111,84 41,107 -77,29 -126,-81 -41,-107zm556 253c24,12 24,11 36,33l-87 10c-59,-10 -109,-49 -117,-112 -17,-107 71,-112 46,-168 -31,-24 -58,0 -99,5 -20,-73 -100,-116 -202,-55 -29,17 -7,14 -22,4 -53,-53 51,-145 132,-145 62,2 77,39 123,28 49,-12 68,-29 126,-6 78,33 98,124 54,194 -66,100 -37,124 10,212zm-654 -261c-4,36 -17,59 -6,98 14,39 40,50 50,68l90 21c-14,23 -14,32 -36,47 -17,31 -13,14 -13,58l103 3 4 63 105 0c-49,27 -41,26 -102,31l-3 109 425 0 0 -124c68,-7 184,-38 177,-121l-70 -32c-112,-68 9,-138 14,-235 6,-90 -53,-171 -136,-197 -79,-24 -94,2 -152,2 -46,0 -71,-32 -146,-20 -92,15 -163,78 -175,171 -99,7 -70,27 -129,58z"/>
      <path class="fil4" d="M2892 1256c28,52 49,49 66,81l-221 0 0 -78 39 -8c30,-51 98,-53 93,-208 65,55 119,63 191,11l32 81 -70 0 -1 61 -147 4 18 56zm56 -340c68,-34 117,75 46,105 -67,29 -128,-64 -46,-105zm200 -2c80,-27 113,85 43,109 -77,25 -109,-87 -43,-109zm-464 294c-36,5 -63,5 -90,-15 13,-21 8,-17 32,-21 49,-90 82,-115 12,-220 -49,-73 -19,-165 61,-194 70,-24 82,3 131,10 33,5 60,-29 116,-29 78,0 163,70 134,150 -30,3 -64,-48 -132,-39 -67,10 -68,46 -104,83 -44,-9 -51,-24 -94,-7 -23,66 62,54 50,165 -7,61 -56,107 -116,117zm-116 -85c-20,19 -160,34 -20,122 49,33 88,24 119,41l0 114 425 2 0 -106c-41,-8 -73,-3 -105,-32l105 -2 0 -61 107 0 -3 -56c-29,-15 -34,-24 -44,-56l46 -3c44,-10 76,-44 93,-85 9,-97 -37,-150 -136,-151 -13,-94 -80,-158 -172,-174 -80,-11 -98,19 -148,21 -49,1 -66,-26 -139,-5 -87,22 -155,102 -151,195 3,87 120,178 23,236z"/>
      <path class="fil4" d="M5604 4711l0 63 -301 0c12,-26 -3,-11 33,-24 20,-7 29,-12 49,-14 27,-39 68,-30 92,-160l-174 0 0 -64 -105 -2c0,-42 25,-59 58,-78 47,31 78,65 146,31 49,-26 66,-75 77,-126l124 -2 1 376zm-279 -459c80,-44 123,105 50,138 -77,34 -121,-95 -50,-138zm-187 0c77,-48 121,107 50,138 -79,34 -123,-92 -50,-138zm281 -70c71,-11 109,-11 184,-11l1 93 -136 -2c-17,-46 -30,-44 -49,-80zm-173 665l418 -2 0 -160 2 -350 80 0 -2 -71 -80 0 -2 -163c-209,-7 -245,-15 -406,109 -44,-24 -58,-63 -130,-39 -35,11 -68,52 -79,86 -31,85 0,192 91,214l0 111 108 0 -2 64 132 2c-27,39 -85,36 -130,46l0 153z"/>
      <path class="fil4" d="M599 4740c15,5 27,11 44,17 34,11 27,0 39,25l-296 -2c-20,-32 -7,-171 -7,-219 0,-68 -3,-148 2,-217l124 1c12,51 27,101 78,126 68,36 99,-2 145,-32 36,25 61,34 56,80l-102 0 0 66 -173 0c13,82 32,102 90,155zm199 -479c78,-45 119,103 49,137 -83,39 -119,-100 -49,-137zm-189 0c78,-46 119,103 51,137 -82,39 -123,-95 -51,-137zm-228 -79c61,-10 124,-1 185,9 -20,36 -32,32 -49,81l-138 -5 2 -85zm-60 512l0 158 417 1 2 -154c-46,-2 -100,-7 -133,-43l133 0 0 -64 109 -2 -5 -110c148,-33 129,-272 8,-303 -71,-17 -78,16 -124,41 -63,-44 -77,-75 -162,-98 -66,-19 -171,-12 -245,-12l-1 164 -80 0 -2 72 83 0 0 350z"/>
      <path class="fil4" d="M5616 2266l-1 58c-48,2 -273,9 -300,-3 12,-16 68,-34 87,-39 54,-60 70,-60 85,-155l-170 0 -3 -65 -106 0c5,-74 19,-27 53,-81 47,20 71,75 153,34 56,-29 58,-75 78,-126l124 -1 0 378zm-272 -463c75,-38 111,110 43,139 -80,32 -126,-99 -43,-139zm-187 0c73,-36 109,112 41,139 -82,32 -124,-100 -41,-139zm459 -79l-3 92 -126 -2 -56 -74c39,-27 136,-19 185,-16zm-360 536l0 137 413 -2 5 -506 82 -3 0 -70 -82 -2 0 -163c-75,0 -182,-6 -250,14 -82,24 -102,59 -161,99 -72,-75 -169,-53 -203,37 -54,137 39,192 90,229l-3 104 107 2 5 62 126 2c-43,61 -124,19 -129,60z"/>
      <path class="fil4" d="M594 2285c27,3 73,17 90,37 -19,16 3,9 -33,11l-273 -7c-7,-34 -4,-413 3,-440l105 0c29,2 11,-2 21,12 17,54 22,90 80,119 68,32 93,-5 141,-34 48,40 54,18 60,79l-106 0 0 65 -170 0c-2,93 51,107 82,158zm212 -486c80,-25 106,117 38,143 -85,34 -118,-117 -38,-143zm-189 0c79,-25 108,116 38,143 -83,34 -118,-116 -38,-143zm-238 -71c53,-14 133,-4 186,7l-56 81 -128 -3 -2 -85zm-58 509l0 158 414 2 3 -154c-51,-2 -98,-7 -129,-43l131 -2 2 -62 108 -2 -5 -104c34,-25 70,-39 89,-85 58,-134 -55,-309 -206,-185 -60,-41 -78,-71 -158,-95 -68,-20 -177,-14 -249,-14l-3 165 -80 0 5 72 78 0 0 349z"/>
      <path class="fil4" d="M5320 1356c-29,136 -156,238 -297,202 -141,-34 -216,-192 -186,-331 75,-342 557,-231 483,129zm-389 236c93,34 146,56 250,19 63,-24 124,-80 156,-136l17 39 46 -4c22,-69 4,-64 -39,-83 26,-73 24,-103 22,-180 -35,-239 -289,-394 -491,-224 -130,110 -162,312 -68,460 44,68 59,61 107,109z"/>
      <path class="fil4" d="M679 3776c-16,-135 71,-282 214,-299 151,-17 269,99 281,247 25,355 -458,411 -495,52zm-62 -20c4,63 14,87 29,143 -34,-34 -69,10 -57,47 6,19 23,29 42,24 22,-8 17,-25 34,-46 20,58 94,117 151,141 97,38 159,19 249,-12 24,-34 148,-86 166,-268 11,-121 -37,-243 -132,-316 -215,-163 -492,29 -482,287z"/>
      <path class="fil4" d="M1170 1334c-61,368 -544,261 -490,-89 58,-363 548,-251 490,89zm-553 -32c4,59 14,79 28,134 -26,-5 -26,-7 -51,3 -11,41 -12,39 8,73 49,4 39,-15 61,-44 73,155 249,195 405,124 97,-75 155,-141 165,-274 9,-124 -42,-239 -136,-307 -223,-161 -485,34 -480,291z"/>
      <path class="fil4" d="M5001 3479c326,-98 440,433 131,525 -313,92 -448,-430 -131,-525zm-75 564c262,95 308,-30 401,-115 36,90 112,-7 44,-46 -17,-10 0,3 -20,-10 15,-45 22,-75 24,-121 7,-258 -259,-450 -476,-292 -96,68 -145,183 -138,302 10,184 121,229 165,282z"/>
      <path class="fil4" d="M886 3815c-39,-50 4,-154 58,-127 32,15 27,143 -58,127zm165 58c-39,51 -175,36 -224,-7 -56,-47 -55,-154 -7,-208 44,-53 153,-75 211,-26 63,53 52,165 -31,183l27 -163c-32,0 -52,11 -57,11 -14,0 -17,-14 -53,-14 -131,3 -123,285 25,187 43,58 107,-10 138,-32 126,-220 -219,-332 -315,-123 -40,90 -8,202 87,240 77,30 223,24 259,-66 -43,-4 -31,0 -60,18z"/>
      <path class="fil4" d="M5014 3822c-39,-51 4,-153 58,-127 34,17 29,144 -58,127zm155 63c-46,46 -182,32 -225,-15 -45,-55 -40,-162 12,-212 51,-50 157,-65 211,-11 55,56 41,158 -42,175l30 -161c-59,0 -39,12 -61,8 0,0 -90,-49 -133,55 -37,88 21,178 111,119 24,34 73,22 102,0 29,-21 41,-58 63,-78 -10,-107 -32,-186 -160,-187 -95,-2 -170,49 -192,141 -66,254 299,283 354,144 -65,-5 -24,7 -70,22z"/>
      <path class="fil4" d="M878 1380c-39,-53 3,-155 57,-129 35,17 29,144 -57,129zm228 40c-74,-5 -121,85 -252,31 -82,-34 -97,-138 -55,-212 38,-67 155,-95 220,-48 68,53 59,168 -31,189l31 -163c-60,0 -38,11 -61,8 -19,-2 -16,-15 -57,-12 -34,5 -64,38 -76,66 -37,89 20,180 110,121 24,32 74,20 103,-2 28,-20 40,-56 61,-80 -9,-101 -26,-176 -152,-181 -97,-5 -175,42 -199,137 -61,236 264,298 358,146z"/>
      <path class="fil4" d="M5014 1363c-39,-51 4,-153 58,-128 34,17 29,145 -58,128zm226 42l-30 -5c-177,127 -381,-10 -272,-182 40,-63 154,-90 217,-42 68,51 58,168 -27,188l29 -163c-34,0 -53,9 -58,9 -17,0 -18,-14 -54,-12 -135,5 -123,284 27,185 36,49 177,7 158,-149 -46,-177 -331,-143 -350,52 -24,224 275,257 360,119z"/>
      <path class="fil4" d="M2754 464l17 22 56 0 -4 -46c-27,-37 -62,-66 -59,-117 10,-109 194,-102 190,15 -1,46 -40,62 -59,111l-5 37 47 0c31,-13 6,-10 31,-41 43,-54 71,-100 36,-173 -26,-58 -87,-92 -152,-88 -64,1 -120,41 -142,98 -41,101 35,133 44,182z"/>
      <path class="fil4" d="M2820 5023c31,24 9,16 31,39 32,0 35,7 54,-10 -8,-71 -58,-78 -63,-131 -12,-124 182,-139 189,-15 2,56 -43,68 -61,122l-5 34c90,0 40,4 80,-29 13,-54 78,-74 40,-175 -46,-120 -233,-135 -294,-11 -47,96 17,127 29,176z"/>
      <polygon class="fil4" points="2846,5139 3029,5139 3031,5078 2844,5078 "/>
      <polygon class="fil4" points="2766,561 2948,561 2951,505 2907,500 2764,501 "/>
      <path class="fil4" d="M2715 202c12,-47 -9,-50 -40,-79 -20,-19 -61,-65 -85,-22 -15,30 26,56 43,71 29,25 41,51 82,30z"/>
      <path class="fil4" d="M2832 146c88,43 58,-122 51,-130 -17,-28 -54,-19 -58,23 -3,33 -3,79 7,107z"/>
      <path class="fil4" d="M3094 4787c44,-2 167,-112 87,-124 -28,-5 -58,32 -77,49 -30,28 -46,41 -10,75z"/>
      <path class="fil4" d="M2910 4721c90,49 60,-119 51,-131 -18,-24 -51,-12 -56,26 -3,27 -2,79 5,105z"/>
      <path class="fil4" d="M3145 4882c-87,58 104,65 131,48 29,-21 8,-51 -26,-55 -27,-3 -85,-6 -105,7z"/>
      <path class="fil4" d="M2674 4673c-31,31 7,51 30,73 21,17 51,58 77,34 32,-30 -12,-61 -31,-80 -23,-22 -46,-56 -76,-27z"/>
      <path class="fil4" d="M2512 304c-12,48 4,55 50,55 37,1 69,5 103,-10 5,-43 -5,-50 -47,-51 -21,0 -92,0 -106,6z"/>
      <path class="fil4" d="M2589 4925c29,15 197,30 149,-38 -5,-6 -173,-49 -149,38z"/>
      <path class="fil4" d="M3204 306c-137,-44 -258,58 -47,53 47,0 61,-7 47,-53z"/>
      <path class="fil4" d="M3004 189c29,36 49,24 92,-22 25,-29 47,-38 27,-77 -41,-12 -46,7 -72,33 -25,22 -46,32 -47,66z"/>
      <polygon class="fil4" points="2878,5215 2907,5215 2970,5215 2997,5215 3000,5156 2961,5154 2914,5154 2876,5156 "/>
      <polygon class="fil4" points="2905,4993 2970,4993 2970,4879 2905,4879 "/>
      <polygon class="fil4" points="2825,417 2890,417 2890,303 2829,301 "/>
      <polygon class="fil4" points="2796,636 2917,636 2917,581 2796,581 "/>
      <path class="fil4" d="M5395 4045l36 3 5 -47c-42,-24 -51,5 -41,44z"/>
      <path class="fil4" d="M556 1599l29 0c14,-27 15,-27 0,-51 -42,-7 -44,17 -29,51z"/>
      <path class="fil4" d="M551 4007c-5,29 -8,21 5,45l31 1c22,-51 -14,-59 -36,-46z"/>
      <path class="fil4" d="M5439 1594c14,-26 14,-19 0,-44 -52,-21 -52,66 0,44z"/>
      <path class="fil4" d="M5359 4340c17,-37 7,-34 -20,-39 -8,33 -10,33 20,39z"/>
      <path class="fil4" d="M5171 4340c18,-35 8,-34 -19,-39 -9,31 -10,33 19,39z"/>
      <path class="fil4" d="M624 4349c27,-7 34,-9 19,-37 -26,3 -34,3 -19,37z"/>
      <path class="fil4" d="M832 1889c10,-25 10,-29 -17,-37 -21,32 -12,34 17,37z"/>
      <path class="fil4" d="M5179 1891c17,-26 22,-29 -10,-39 -24,32 -10,30 10,39z"/>
      <path class="fil4" d="M813 4349c29,-9 39,-21 10,-39 -20,12 -24,10 -10,39z"/>
      <path class="fil4" d="M626 1889c37,-7 34,-29 2,-37 -16,24 -16,15 -2,37z"/>
      <path class="fil4" d="M5373 1889l0 -35c-32,3 -44,34 0,35z"/>
      <path class="fil4" d="M2810 5548c13,9 17,29 30,-8 -34,-24 -22,-2 -30,8z"/>
      <path class="fil4" d="M2954 965c12,29 19,26 31,0 -17,-12 -3,-20 -31,0z"/>
      <path class="fil4" d="M3153 974c28,15 17,17 31,-9 -10,-7 9,-19 -19,-7 -30,14 7,-1 -12,16z"/>
      <path class="fil4" d="M2613 5535c0,28 27,42 25,0l-25 0z"/>
     </g>
     <g>
      <path class="fil5" d="M551 4007c22,-13 58,-5 36,46l-31 -1c-13,-24 -10,-16 -5,-45zm-551 191l0 107c14,29 19,86 41,129 17,37 44,81 70,110 49,56 134,128 210,150l0 -350 -83 0 2 -72 80 0 1 -164c74,0 179,-7 245,12 85,23 99,54 162,98 46,-25 53,-58 124,-41 121,31 140,270 -8,303l5 110 -109 2 0 64 -133 0c33,36 87,41 133,43l-2 154c19,-34 4,-96 12,-142 243,-87 408,-301 342,-559 -9,-31 -31,-72 -27,-99 -90,31 -152,50 -249,12 -57,-24 -131,-83 -151,-141 -17,21 -12,38 -34,46 -19,5 -36,-5 -42,-24 -12,-37 23,-81 57,-47 -15,-56 -25,-80 -29,-143 -49,17 -107,-7 -233,29 -129,36 -236,112 -309,222 -65,97 -56,152 -75,191z"/>
      <path class="fil5" d="M556 1599c-15,-34 -13,-58 29,-51 15,24 14,24 0,51l-29 0zm-556 141l0 110c14,27 22,90 41,131 19,41 44,76 73,109 51,61 124,122 207,147l0 -349 -78 0 -5 -72 80 0 3 -165c72,0 181,-6 249,14 80,24 98,54 158,95 151,-124 264,51 206,185 -19,46 -55,60 -89,85l5 104 -108 2 -2 62 -131 2c31,36 78,41 129,43l-3 154c25,-12 12,-112 12,-143 95,-28 253,-149 301,-232 56,-95 76,-216 51,-323 -9,-36 -31,-73 -31,-107 -156,71 -332,31 -405,-124 -22,29 -12,48 -61,44 -20,-34 -19,-32 -8,-73 25,-10 25,-8 51,-3 -14,-55 -24,-75 -28,-134 -100,25 -360,-23 -542,248 -65,96 -53,146 -75,190z"/>
      <path class="fil5" d="M5439 1594c-52,22 -52,-65 0,-44 14,25 14,18 0,44zm-508 -2c-5,20 -9,24 -15,42 -9,21 -33,138 -29,177 12,117 42,201 126,284 103,102 95,91 243,165 5,-41 86,1 129,-60l-126 -2 -5 -62 -107 -2 3 -104c-51,-37 -144,-92 -90,-229 34,-90 131,-112 203,-37 59,-40 79,-75 161,-99 68,-20 175,-14 250,-14l0 163 82 2 0 70 -82 3 -5 506c22,-23 10,-107 10,-146 16,-25 104,-68 135,-91 376,-299 134,-877 -417,-851 -3,-31 0,-33 -14,-60 2,77 4,107 -22,180 43,19 61,14 39,83l-46 4 -17 -39c-32,56 -93,112 -156,136 -104,37 -157,15 -250,-19z"/>
      <path class="fil5" d="M5395 4045c-10,-39 -1,-68 41,-44l-5 47 -36 -3zm-469 -2c-5,39 -55,124 -46,219 12,128 42,194 114,287 49,61 163,123 241,153 4,26 2,44 2,70l2 54c3,19 0,9 7,21l0 -153c45,-10 103,-7 130,-46l-132 -2 2 -64 -108 0 0 -111c-91,-22 -122,-129 -91,-214 11,-34 44,-75 79,-86 72,-24 86,15 130,39 161,-124 197,-116 406,-109l2 163 80 0 2 71 -80 0 -2 350c209,-64 384,-328 296,-586 -56,-166 -206,-280 -371,-324 -83,-24 -146,-10 -214,-24 -2,46 -9,76 -24,121 20,13 3,0 20,10 68,39 -8,136 -44,46 -93,85 -139,210 -401,115z"/>
      <path class="fil5" d="M386 4780l2 -61c73,21 136,24 211,21 -58,-53 -77,-73 -90,-155l173 0 0 -66 102 0c5,-46 -20,-55 -56,-80 -46,30 -77,68 -145,32 -51,-25 -66,-75 -78,-126l-124 -1c-5,69 -2,149 -2,217 0,48 -13,187 7,219z"/>
      <path class="fil5" d="M5402 2282c88,10 148,-17 214,-16l0 -378 -124 1c-20,51 -22,97 -78,126 -82,41 -106,-14 -153,-34 -34,54 -48,7 -53,81l106 0 3 65 170 0c-15,95 -31,95 -85,155z"/>
      <path class="fil5" d="M5385 4736c36,-7 75,-2 112,-7 38,-3 72,-13 107,-18l-1 -376 -124 2c-11,51 -28,100 -77,126 -68,34 -99,0 -146,-31 -33,19 -58,36 -58,78l105 2 0 64 174 0c-24,130 -65,121 -92,160z"/>
      <path class="fil5" d="M381 2263c85,12 124,20 213,22 -31,-51 -84,-65 -82,-158l170 0 0 -65 106 0c-6,-61 -12,-39 -60,-79 -48,29 -73,66 -141,34 -58,-29 -63,-65 -80,-119l-123 -5 -3 370z"/>
      <path class="fil5" d="M5240 1405c-6,-10 19,-8 -18,-8 13,-53 49,-112 8,-163 19,156 -122,198 -158,149 -150,99 -162,-180 -27,-185 36,-2 37,12 54,12 5,0 24,-9 58,-9l-29 163c85,-20 95,-137 27,-188 -63,-48 -177,-21 -217,42 -109,172 95,309 272,182l30 5z"/>
      <path class="fil5" d="M1106 1420c-17,-11 0,-8 -36,-8l29 -94c-21,24 -33,60 -61,80 -29,22 -79,34 -103,2 -90,59 -147,-32 -110,-121 12,-28 42,-61 76,-66 41,-3 38,10 57,12 23,3 1,-8 61,-8l-31 163c90,-21 99,-136 31,-189 -65,-47 -182,-19 -220,48 -42,74 -27,178 55,212 131,54 178,-36 252,-31z"/>
      <path class="fil5" d="M5169 3885c-14,-15 -14,4 15,-24 16,-13 9,-5 22,-25 16,-22 26,-46 31,-71 -22,20 -34,57 -63,78 -29,22 -78,34 -102,0 -90,59 -148,-31 -111,-119 43,-104 133,-55 133,-55 22,4 2,-8 61,-8l-30 161c83,-17 97,-119 42,-175 -54,-54 -160,-39 -211,11 -52,50 -57,157 -12,212 43,47 179,61 225,15z"/>
      <path class="fil5" d="M1051 3873l29 -69c-31,22 -95,90 -138,32 -148,98 -156,-184 -25,-187 36,0 39,14 53,14 5,0 25,-11 57,-11l-27 163c83,-18 94,-130 31,-183 -58,-49 -167,-27 -211,26 -48,54 -49,161 7,208 49,43 185,58 224,7z"/>
      <path class="fil5" d="M5431 1740l56 74 126 2 3 -92c-49,-3 -146,-11 -185,16z"/>
      <path class="fil5" d="M5419 4182c19,36 32,34 49,80l136 2 -1 -93c-75,0 -113,0 -184,11z"/>
      <path class="fil5" d="M379 4267l138 5c17,-49 29,-45 49,-81 -61,-10 -124,-19 -185,-9l-2 85z"/>
      <path class="fil5" d="M381 1813l128 3 56 -81c-53,-11 -133,-21 -186,-7l2 85z"/>
      <path class="fil5" d="M878 1380c86,15 92,-112 57,-129 -54,-26 -96,76 -57,129z"/>
      <path class="fil5" d="M5014 1363c87,17 92,-111 58,-128 -54,-25 -97,77 -58,128z"/>
      <path class="fil5" d="M5014 3822c87,17 92,-110 58,-127 -54,-26 -97,76 -58,127z"/>
      <path class="fil5" d="M886 3815c85,16 90,-112 58,-127 -54,-27 -97,77 -58,127z"/>
     </g>
    </g>
   </g>
  </g>
  <ellipse class="fil6" cx="2963" cy="2986" rx="1454" ry="676"/>
  <path class="fil7" d="M2002 3222l251 0c26,0 45,5 58,16 13,10 20,24 20,41 0,16 -6,29 -16,40 -11,11 -26,17 -48,17l-355 0c-24,0 -43,-7 -56,-20 -14,-14 -21,-29 -21,-47 0,-12 5,-27 13,-46 9,-19 19,-34 29,-45 43,-45 81,-83 116,-114 34,-32 59,-53 73,-63 27,-18 49,-37 66,-56 18,-19 31,-38 40,-58 10,-20 14,-39 14,-58 0,-21 -5,-39 -14,-55 -10,-17 -24,-29 -41,-38 -16,-9 -35,-14 -55,-14 -42,0 -75,19 -99,56 -3,5 -9,18 -16,39 -8,22 -16,38 -26,50 -9,12 -23,17 -42,17 -16,0 -29,-5 -40,-16 -10,-10 -16,-25 -16,-43 0,-22 5,-45 15,-69 10,-25 25,-46 45,-66 20,-20 45,-35 75,-47 31,-12 66,-19 107,-19 49,0 91,8 126,24 22,10 42,24 59,42 17,18 31,39 40,63 10,23 15,48 15,73 0,40 -10,76 -30,109 -20,32 -40,58 -61,77 -20,18 -55,47 -103,87 -48,39 -82,70 -100,92 -7,8 -15,19 -23,31z"/>
  <path id="1" class="fil7" d="M2908 2989c0,53 -3,98 -9,136 -7,38 -19,72 -36,103 -22,38 -50,67 -85,88 -35,20 -73,31 -116,31 -48,0 -92,-14 -131,-42 -39,-28 -68,-66 -88,-115 -10,-26 -17,-56 -22,-88 -4,-32 -6,-67 -6,-105 0,-49 2,-92 7,-131 5,-39 13,-72 24,-100 19,-47 47,-82 83,-106 36,-24 79,-37 129,-37 34,0 64,6 91,17 27,10 50,26 71,47 20,21 38,46 52,77 24,53 36,128 36,225zm-132 -10c0,-59 -3,-107 -11,-144 -7,-38 -19,-66 -35,-85 -17,-19 -40,-29 -70,-29 -42,0 -72,22 -88,64 -17,43 -25,109 -25,198 0,60 3,110 10,149 7,38 19,67 36,87 17,20 40,30 68,30 30,0 53,-10 70,-31 16,-21 28,-50 35,-88 7,-39 10,-89 10,-151z"/>
  <path id="2" class="fil7" d="M3234 3270l0 -439c-82,62 -137,94 -165,94 -14,0 -26,-6 -36,-16 -11,-11 -16,-24 -16,-38 0,-16 5,-28 15,-36 11,-8 29,-18 55,-30 39,-18 70,-37 93,-58 24,-20 44,-43 62,-68 18,-25 30,-40 35,-46 6,-6 16,-9 31,-9 17,0 31,7 41,20 11,13 16,32 16,55l0 552c0,64 -22,97 -66,97 -20,0 -36,-7 -48,-20 -12,-13 -17,-33 -17,-58z"/>
  <path id="3" class="fil7" d="M3608 2808c0,-32 9,-62 26,-91 18,-28 44,-51 77,-68 34,-17 74,-26 119,-26 39,0 72,5 101,15 29,10 53,24 73,42 19,17 33,37 42,59 10,22 14,45 14,70 0,32 -8,60 -24,84 -16,25 -40,45 -72,61 27,11 50,25 68,42 18,17 31,37 40,60 10,22 14,48 14,75 0,41 -10,77 -29,110 -20,33 -49,59 -87,78 -38,18 -82,28 -134,28 -53,0 -99,-10 -137,-28 -38,-19 -66,-45 -86,-77 -19,-33 -29,-69 -29,-110 0,-86 41,-146 123,-178 -66,-31 -99,-79 -99,-146zm346 319c0,-25 -5,-47 -16,-65 -10,-19 -24,-33 -43,-43 -19,-10 -39,-15 -63,-15 -32,0 -60,11 -82,33 -22,21 -33,52 -33,91 0,25 5,48 15,67 11,19 25,34 43,44 18,10 38,16 60,16 23,0 43,-6 61,-16 18,-11 32,-26 42,-45 11,-19 16,-42 16,-67zm-121 -412c-30,0 -54,10 -73,29 -18,18 -27,43 -27,72 0,28 9,50 28,69 19,18 43,27 73,27 15,0 29,-3 41,-7 13,-5 23,-12 32,-20 9,-9 16,-19 21,-31 5,-12 7,-25 7,-39 0,-19 -4,-36 -13,-51 -8,-15 -20,-27 -36,-36 -15,-8 -33,-13 -53,-13z"/>
 </g>
</svg>
