<?xml version="1.0" encoding="UTF-8" standalone="no"?>
<svg
   xmlns:dc="http://purl.org/dc/elements/1.1/"
   xmlns:cc="http://creativecommons.org/ns#"
   xmlns:rdf="http://www.w3.org/1999/02/22-rdf-syntax-ns#"
   xmlns:svg="http://www.w3.org/2000/svg"
   xmlns="http://www.w3.org/2000/svg"
   xmlns:sodipodi="http://sodipodi.sourceforge.net/DTD/sodipodi-0.dtd"
   xmlns:inkscape="http://www.inkscape.org/namespaces/inkscape"
   xml:space="preserve"
   width="732px"
   height="732px"
   version="1.1"
   style="shape-rendering:geometricPrecision; text-rendering:geometricPrecision; image-rendering:optimizeQuality; fill-rule:evenodd; clip-rule:evenodd"
   viewBox="0 0 732 732"
   id="svg256"
   sodipodi:docname="omnetlogo2020.svg"
   inkscape:version="1.0.1 (3bc2e813f5, 2020-09-07)"><metadata
   id="metadata260"><rdf:RDF><cc:Work
       rdf:about=""><dc:format>image/svg+xml</dc:format><dc:type
         rdf:resource="http://purl.org/dc/dcmitype/StillImage" /></cc:Work></rdf:RDF></metadata><sodipodi:namedview
   pagecolor="#ffffff"
   bordercolor="#666666"
   borderopacity="1"
   objecttolerance="10"
   gridtolerance="10"
   guidetolerance="10"
   inkscape:pageopacity="0"
   inkscape:pageshadow="2"
   inkscape:window-width="1840"
   inkscape:window-height="1044"
   id="namedview258"
   showgrid="false"
   inkscape:zoom="1.0856439"
   inkscape:cx="366"
   inkscape:cy="366"
   inkscape:window-x="80"
   inkscape:window-y="0"
   inkscape:window-maximized="1"
   inkscape:current-layer="svg256" />
 <defs
   id="defs4">
  <style
   type="text/css"
   id="style2">
   <![CDATA[
    .fil4 {fill:black}
    .fil1 {fill:#61676A}
    .fil5 {fill:#84B9D7}
    .fil6 {fill:#91C1DC}
    .fil3 {fill:silver}
    .fil0 {fill:#FF6666}
    .fil2 {fill:white}
    .fil7 {fill:white;fill-rule:nonzero}
   ]]>
  </style>
 
  
  
  
  
  
  
  
 </defs>
 <g
   id="_1696939895296">
   <g
   id="logo-1-striche.pdf">
    <g
   id="g23">
     <g
   id="g21">
      <path
   class="fil0"
   d="m 230,468 c 4,-1 5,-3 9,-4 3,-2 4,-3 7,-5 6,-3 11,-6 16,-9 l 80,-45 c 5,-3 10,-6 16,-9 v 139 h -87 c -4,0 -5,-4 -7,-7 z m 133,-72 c 4,1 44,23 49,26 3,2 6,4 9,5 9,5 67,39 72,40 -3,6 -7,11 -11,17 -4,6 -7,11 -10,17 -3,5 -20,31 -21,34 h -88 z m 3,-6 c 3,-1 26,-14 30,-17 24,-14 71,-39 90,-51 l 48,78 -38,63 c -23,-11 -44,-24 -66,-36 l -41,-23 c -4,-3 -21,-11 -23,-14 z m -173,13 c 0,-1 9,-18 10,-20 l 32,-59 c 3,0 12,6 15,8 l 98,55 c 3,1 5,2 8,3 -2,3 -61,36 -65,37 l -64,37 c -1,-3 -6,-12 -8,-15 -3,-5 -6,-10 -9,-16 z m 44,-84 c 1,-5 4,-8 6,-12 2,-4 4,-7 6,-11 l 28,-54 c 2,-4 5,-10 7,-10 h 74 v 154 c -5,-1 -40,-22 -46,-25 l -30,-17 c -5,-3 -10,-6 -15,-8 z m 126,-87 h 69 c 0,3 23,39 26,43 7,12 19,32 25,43 -37,20 -82,49 -120,69 z m -78,-5 c 8,-14 15,-28 22,-41 l 11,-21 c 3,-7 6,-13 10,-20 -2,-1 -2,-1 -5,-2 -2,4 -3,8 -5,11 l -28,53 c -2,3 -9,20 -12,20 H 135 v 5 h 142 l -44,84 c -5,-2 -10,-5 -15,-8 -27,-15 -54,-30 -82,-45 -4,-3 -9,-5 -13,-8 -1,3 -1,3 -2,5 l 96,53 c 4,3 8,6 13,7 0,3 -1,3 -2,5 -7,12 -30,58 -38,73 -2,-2 -8,-13 -10,-16 -3,-6 -6,-11 -9,-17 -18,-33 -38,-64 -56,-97 -2,1 -2,1 -4,2 12,22 25,45 38,66 3,6 6,11 10,17 4,9 27,47 27,50 0,3 -35,69 -40,78 l -13,26 c 2,0 3,1 4,2 l 40,-75 c 2,-5 11,-21 12,-25 3,2 31,51 35,58 -6,1 -17,9 -22,12 l -65,37 c 0,2 0,3 1,5 l 78,-44 c 3,-2 7,-5 10,-6 2,5 6,12 9,16 4,6 6,11 10,16 3,6 5,11 9,16 3,5 7,11 8,16 H 128 v 6 h 136 c 4,0 7,7 8,10 l 19,34 c 5,8 9,15 13,22 5,8 9,15 13,23 2,-1 2,-2 5,-2 l -25,-44 c -2,-4 -4,-7 -7,-11 -2,-4 -4,-7 -6,-11 -3,-6 -10,-14 -11,-21 h 85 v 93 h 5 v -93 h 83 c 0,3 -4,8 -6,11 l -46,75 c 2,1 3,1 4,3 8,-16 19,-30 28,-45 4,-6 26,-40 27,-44 h 154 v -6 H 458 c 0,-3 2,-5 4,-8 5,-9 33,-50 34,-56 6,0 10,4 14,6 l 38,21 c 4,2 8,5 13,7 l 37,21 c 1,-2 1,-2 2,-4 -25,-14 -50,-29 -75,-42 l -12,-7 c -5,-3 -9,-5 -13,-7 2,-3 35,-58 38,-60 2,5 16,26 20,34 l 28,45 c 5,9 11,17 16,26 2,-1 2,-1 4,-2 -4,-10 -10,-18 -16,-28 -6,-9 -11,-17 -17,-26 -10,-18 -22,-36 -32,-55 l 20,-32 c 14,-24 50,-78 60,-97 -2,-1 -2,-2 -4,-3 -11,20 -45,71 -60,96 -2,3 -3,5 -5,8 l -15,24 c -2,-7 -38,-62 -46,-77 19,-10 37,-21 55,-31 l 28,-16 c 9,-6 18,-11 28,-16 -1,-2 -1,-2 -2,-5 -19,11 -37,22 -56,32 l -42,25 c -5,2 -10,4 -14,7 -2,-4 -4,-6 -6,-10 l -32,-52 c -2,-4 -11,-17 -12,-21 h 168 v -5 H 433 c 0,-4 -4,-8 -5,-10 l -41,-67 c -2,1 -3,1 -4,3 3,6 7,12 11,18 l 22,37 c 3,5 10,13 11,19 H 363 V 117 h -5 v 110 z"
   id="path7" />
      <polygon
   class="fil0"
   points="80,226 75,226 75,529 80,529 "
   id="polygon9" />
      <polygon
   class="fil0"
   points="657,224 652,224 652,472 657,472 "
   id="polygon11" />
      <path
   class="fil0"
   d="m 400,126 52,23 c 5,2 9,3 13,5 27,13 63,27 91,40 l 53,23 c 1,-3 1,-2 2,-5 L 402,120 c -1,3 -1,3 -2,6 z"
   id="path13" />
      <path
   class="fil0"
   d="m 318,654 c 1,-3 1,-3 2,-6 -5,-1 -204,-90 -209,-91 -1,2 -1,2 -2,5 l 26,12 c 9,4 18,8 27,11 28,13 64,28 91,40 z"
   id="path15" />
      <path
   class="fil0"
   d="m 109,215 c 1,2 1,2 2,5 3,-1 9,-4 13,-5 l 129,-58 c 5,-2 9,-3 14,-5 l 53,-24 c -1,-2 -1,-2 -2,-5 -3,1 -10,4 -13,5 l -52,23 c -27,13 -63,28 -91,40 z"
   id="path17" />
      <path
   class="fil0"
   d="m 537,597 c 12,-5 73,-33 78,-34 -1,-3 -1,-3 -2,-5 l -53,23 c -28,13 -64,27 -91,40 l -65,28 c 1,3 1,3 2,6 z"
   id="path19" />
     </g>
    </g>
   </g>
   <g
   id="logo-2-figuren.pdf">
    <g
   id="g244">
     <g
   id="g30">
      <path
   class="fil1"
   d="M 93,287 H 57 v -7 -44 l 15,1 c -1,-2 1,-1 -2,-1 H 57 c -1,3 -1,48 0,52 h 32 c 4,0 2,1 4,-1 z"
   id="path26" />
      <path
   class="fil1"
   d="m 342,88 c 3,2 10,1 15,1 1,-4 1,-5 0,-8 -5,-1 -12,-1 -15,1 h 14 v 6 z"
   id="path28" />
     </g>
     <g
   id="g84">
      <path
   class="fil2"
   d="m 140,462 -4,8 c 4,-2 2,-2 7,-2 -4,11 -21,12 -30,8 -12,-4 -15,-18 -11,-28 12,-25 52,-12 38,14 z m -48,-3 c 5,42 62,36 59,-6 -2,-18 -16,-31 -33,-29 -17,2 -28,19 -26,35 z"
   id="path32" />
      <path
   class="fil2"
   d="m 143,181 c -11,18 -50,10 -43,-18 3,-11 13,-16 24,-16 15,1 17,10 18,22 l -4,11 c 5,0 3,-1 5,1 z m 7,-11 c 7,-40 -51,-53 -58,-10 -6,41 51,54 58,10 z"
   id="path34" />
      <path
   class="fil2"
   d="m 622,472 c 6,-2 1,-3 9,-3 -7,17 -50,13 -42,-17 2,-11 11,-17 23,-17 15,1 17,10 18,22 0,3 -1,6 -3,9 -2,2 -1,1 -3,3 -3,3 -3,1 -2,3 z m -20,-48 c -37,11 -21,73 16,62 36,-11 23,-74 -16,-62 z"
   id="path36" />
      <path
   class="fil2"
   d="m 631,179 c -10,16 -46,12 -43,-14 2,-23 36,-27 42,-6 4,6 0,13 -1,19 4,0 1,0 2,1 z m 9,-6 c 9,-42 -48,-55 -57,-15 -3,16 5,35 22,39 17,4 32,-8 35,-24 z"
   id="path38" />
      <path
   class="fil2"
   d="m 355,589 h 8 v 13 h -8 z m 0,20 c 2,0 3,1 4,0 4,-1 -1,0 4,-2 2,-7 7,-8 7,-15 -1,-14 -24,-13 -22,2 0,6 6,7 7,15 z"
   id="path40" />
      <path
   class="fil2"
   d="m 346,49 h 7 v 13 h -7 z m -1,16 c 4,2 4,1 9,1 2,-6 7,-8 7,-13 0,-14 -21,-15 -23,-2 0,6 4,10 7,14 z"
   id="path42" />
      <path
   class="fil2"
   d="m 353,161 c -4,0 -9,-2 -13,0 l -5,1 v 9 h 26 c -2,-4 -4,-4 -8,-10 z"
   id="path44" />
      <path
   class="fil2"
   d="m 355,702 c -3,5 -4,5 -9,9 h 27 v -8 l -5,-2 z"
   id="path46" />
      <path
   class="fil2"
   d="m 88,522 c 2,3 1,4 -2,4 -2,-4 -1,-4 2,-4 z m -4,-6 c -8,5 -4,21 6,16 8,-4 3,-21 -6,-16 z"
   id="path48" />
      <path
   class="fil2"
   d="m 109,522 c 4,2 2,3 -1,4 -2,-3 -1,-3 1,-4 z m -3,-6 c -8,4 -4,21 6,16 8,-4 4,-21 -6,-16 z"
   id="path50" />
      <path
   class="fil2"
   d="m 646,236 c -5,0 -3,-4 0,-4 z m -3,-10 c -10,5 -4,20 5,16 8,-3 4,-21 -5,-16 z"
   id="path52" />
      <path
   class="fil2"
   d="m 110,236 c -3,0 -4,-1 -2,-4 3,1 3,1 2,4 z m -3,-11 c -9,3 -5,21 5,17 8,-3 5,-20 -5,-17 z"
   id="path54" />
      <path
   class="fil2"
   d="m 620,521 c 4,0 5,0 3,4 -4,0 -4,-1 -3,-4 z m -1,-6 c -9,5 -4,20 6,16 8,-3 3,-22 -6,-16 z"
   id="path56" />
      <path
   class="fil2"
   d="m 86,236 c -2,-3 -2,-2 0,-4 4,1 4,3 0,4 z m -1,-11 c -9,4 -5,21 4,17 9,-3 5,-20 -4,-17 z"
   id="path58" />
      <path
   class="fil2"
   d="m 642,521 c 4,0 5,0 3,4 -4,0 -4,0 -3,-4 z m -1,-6 c -9,5 -3,20 6,16 8,-4 3,-21 -6,-16 z"
   id="path60" />
      <path
   class="fil2"
   d="m 624,236 c -3,-1 -4,-1 -2,-4 4,1 4,1 2,4 z m -3,-10 c -10,4 -5,20 5,16 8,-3 4,-20 -5,-16 z"
   id="path62" />
      <path
   class="fil2"
   d="m 650,282 c -2,1 -9,3 -10,5 3,1 29,1 35,0 v -6 c -8,-1 -15,3 -25,1 z"
   id="path64" />
      <path
   class="fil2"
   d="m 648,572 c -3,0 -4,1 -6,2 -4,1 -2,0 -4,3 h 36 v -8 c -4,1 -8,2 -13,2 -4,1 -9,0 -13,1 z"
   id="path66" />
      <path
   class="fil2"
   d="m 93,287 c -2,-2 -8,-4 -11,-4 -10,0 -15,-1 -25,-3 v 7 z"
   id="path68" />
      <path
   class="fil2"
   d="m 58,577 35,1 c -2,-3 -1,-2 -5,-3 -2,-1 -3,-2 -5,-2 -9,0 -16,0 -25,-3 z"
   id="path70" />
      <path
   class="fil2"
   d="m 347,667 c -1,4 -2,2 -3,1 1,-1 -1,-4 3,-1 z m -3,-6 c -10,4 -5,16 4,13 9,-3 4,-16 -4,-13 z"
   id="path72" />
      <path
   class="fil2"
   d="m 324,666 c 0,5 -3,4 -3,0 z m -4,-5 c -10,3 -4,16 5,13 8,-3 4,-15 -5,-13 z"
   id="path74" />
      <path
   class="fil2"
   d="m 365,127 c -2,3 -3,3 -4,0 3,-2 2,-1 4,0 z m -5,-6 c -10,5 -2,16 6,13 8,-4 2,-17 -6,-13 z"
   id="path76" />
      <path
   class="fil2"
   d="m 388,127 c -2,3 0,3 -4,1 3,-2 -2,0 2,-2 3,-1 1,0 2,1 z m -4,-6 c -8,3 -4,16 5,13 8,-3 4,-16 -5,-13 z"
   id="path78" />
      <path
   class="fil2"
   d="m 329,156 -7,-5 c -3,1 -2,0 -4,3 4,2 7,2 11,2 z"
   id="path80" />
      <path
   class="fil2"
   d="m 380,696 10,-1 c -1,-3 -1,-2 -4,-4 z"
   id="path82" />
     </g>
     <g
   id="g102">
      <path
   class="fil3"
   d="m 342,82 c 3,-2 10,-2 15,-1 1,3 1,4 0,8 -5,0 -12,1 -15,-1 z m -4,-10 h 17 l 6,1 -1,6 h -21 z m -1,-4 c -4,4 -11,2 -23,16 -6,6 -9,13 -10,21 -2,6 -2,5 1,9 -2,5 -3,7 2,17 2,5 8,12 8,15 12,-7 -2,-18 -2,-28 -1,-11 7,-21 17,-23 9,-3 11,0 17,0 6,0 8,-4 17,-2 11,2 19,9 21,20 11,1 17,7 16,18 2,-2 1,-7 1,-11 0,-3 0,-4 0,-6 0,-3 1,0 1,-5 -2,-14 -10,-27 -21,-34 -12,-8 -16,-5 -19,-9 -3,3 0,3 -4,4 h -6 l 1,-4 c -5,0 -5,1 -9,-1 l 1,5 h -7 z"
   id="path86" />
      <path
   class="fil3"
   d="m 356,622 h 6 4 v 7 h -3 -8 -3 v -7 z m -8,-10 h 22 v 8 h -22 z m -40,48 c 8,-3 4,-6 16,-7 1,-11 10,-18 20,-20 9,-1 12,3 18,3 7,0 8,-3 18,-1 9,3 16,13 16,24 -1,11 -15,19 -2,27 -2,-3 0,-1 5,-9 1,-2 4,-7 5,-10 1,-10 2,-5 1,-13 -1,-21 -12,-38 -33,-45 v -2 c -5,4 1,4 -10,4 l 1,-4 c -5,2 0,1 -4,2 -1,1 -2,0 -4,0 -2,2 -3,2 -6,2 -3,-3 0,-2 -4,-5 v 1 c -9,2 -14,5 -22,11 -4,3 -1,2 -3,6 -3,1 0,0 -4,0 -2,5 -5,8 -8,14 -2,7 -3,12 -3,19 z"
   id="path88" />
      <path
   class="fil3"
   d="m 322,151 7,5 c 7,-2 13,-7 14,-14 1,-13 -9,-12 -6,-20 5,-2 6,0 11,1 4,-4 4,-8 12,-10 8,-1 12,5 16,5 3,-9 -7,-18 -16,-18 -7,0 -10,4 -14,4 -6,-1 -7,-4 -15,-2 -10,4 -13,15 -7,23 8,13 4,16 -2,26 z"
   id="path90" />
      <path
   class="fil3"
   d="m 380,696 6,-5 c -6,-10 -9,-13 -1,-25 5,-8 2,-19 -7,-23 -7,-3 -9,-1 -15,1 -5,1 -7,-3 -14,-3 -10,0 -22,10 -16,17 2,1 -1,1 3,-1 12,-7 21,-2 24,7 5,-1 8,-4 11,-1 3,7 -7,7 -5,20 1,7 7,12 14,13 z"
   id="path92" />
      <path
   class="fil3"
   d="m 355,702 13,-1 c -8,-9 -11,-11 -10,-25 -10,9 -13,6 -23,2 l -4,9 8,1 v 7 h 18 z"
   id="path94" />
      <path
   class="fil3"
   d="m 340,161 c 4,-2 9,0 13,0 l -2,-6 18,-1 v -7 h 8 l -4,-10 c -8,7 -15,6 -22,-1 0,18 -8,19 -11,25 z"
   id="path96" />
      <path
   class="fil3"
   d="m 320,688 c 3,-2 3,-3 4,-6 l -10,-2 z"
   id="path98" />
      <path
   class="fil3"
   d="m 389,148 c 0,-3 1,-3 1,-7 l -6,1 c 1,3 2,4 5,6 z"
   id="path100" />
     </g>
     <g
   id="g200">
      <path
   class="fil4"
   d="m 368,701 5,2 v 8 h -27 c 5,-4 6,-4 9,-9 l 2,-7 h -18 v -7 l -8,-1 4,-9 c 10,4 13,7 23,-2 -1,14 2,16 10,25 z m -24,-40 c 8,-3 13,10 4,13 -9,3 -14,-9 -4,-13 z m -24,0 c 9,-2 13,10 5,13 -9,3 -15,-10 -5,-13 z m 66,30 c 3,2 3,1 4,4 l -10,1 c -7,-1 -13,-6 -14,-13 -2,-13 8,-13 5,-20 -3,-3 -6,0 -11,1 -3,-9 -12,-14 -24,-7 -4,2 -1,2 -3,1 -6,-7 6,-17 16,-17 7,0 9,4 14,3 6,-2 8,-4 15,-1 9,4 12,15 7,23 -8,12 -5,15 1,25 z m -78,-31 c 0,4 -2,7 0,12 2,4 5,6 6,8 l 10,2 c -1,3 -1,4 -4,6 -2,4 -1,2 -1,7 h 12 v 8 h 13 c -6,3 -5,3 -12,3 l -1,13 h 50 v -15 c 8,0 22,-4 21,-14 l -8,-4 c -13,-8 1,-16 2,-27 0,-11 -7,-21 -16,-24 -10,-2 -11,1 -18,1 -6,0 -9,-4 -18,-3 -10,2 -19,9 -20,20 -12,1 -8,4 -16,7 z"
   id="path104" />
      <path
   class="fil4"
   d="m 353,161 c 4,6 6,6 8,10 h -26 v -9 l 5,-1 c 3,-6 11,-7 11,-25 7,7 14,8 22,1 l 4,10 h -8 v 7 l -18,1 z m 7,-40 c 8,-4 14,9 6,13 -8,3 -16,-8 -6,-13 z m 24,0 c 9,-3 13,10 5,13 -9,3 -13,-10 -5,-13 z m -55,35 c -4,0 -7,0 -11,-2 2,-3 1,-2 4,-3 6,-10 10,-13 2,-26 -6,-8 -3,-19 7,-23 8,-2 9,1 15,2 4,0 7,-4 14,-4 9,0 19,9 16,18 -4,0 -8,-6 -16,-5 -8,2 -8,6 -12,10 -5,-1 -6,-3 -11,-1 -3,8 7,7 6,20 -1,7 -7,12 -14,14 z m -14,-10 c -2,2 -19,4 -2,14 6,4 10,3 14,5 v 13 l 50,1 v -13 c -5,-1 -8,0 -12,-4 h 12 v -7 h 13 l -1,-7 c -3,-2 -4,-3 -5,-6 l 6,-1 c 5,-1 9,-5 11,-10 1,-11 -5,-17 -16,-18 -2,-11 -10,-18 -21,-20 -9,-2 -11,2 -17,2 -6,0 -8,-3 -17,0 -10,2 -18,12 -17,23 0,10 14,21 2,28 z"
   id="path106" />
      <path
   class="fil4"
   d="m 674,569 v 8 h -36 c 2,-3 0,-2 4,-3 2,-1 3,-2 6,-2 3,-4 8,-3 11,-19 h -21 v -7 h -12 c 0,-6 3,-8 7,-10 5,4 9,8 17,4 6,-3 8,-9 9,-15 h 15 z m -33,-54 c 9,-5 14,12 6,16 -9,4 -15,-11 -6,-16 z m -22,0 c 9,-6 14,13 6,16 -10,4 -15,-11 -6,-16 z m 33,-8 c 8,-2 13,-2 22,-2 v 11 h -16 c -2,-5 -4,-5 -6,-9 z m -21,78 h 50 v -19 -41 h 9 v -9 h -9 v -19 c -25,-1 -29,-2 -48,13 -6,-3 -7,-7 -16,-5 -4,2 -8,7 -9,11 -4,10 0,22 11,25 v 13 h 12 v 8 h 16 c -3,4 -10,4 -16,5 z"
   id="path108" />
      <path
   class="fil4"
   d="m 83,573 c 2,0 3,1 5,2 4,1 3,0 5,3 l -35,-1 c -3,-3 -1,-20 -1,-25 0,-8 -1,-18 0,-26 h 15 c 1,6 3,12 9,15 8,4 12,0 17,-4 4,3 7,4 7,10 H 93 v 7 H 72 c 2,10 4,12 11,19 z m 23,-57 c 10,-5 14,12 6,16 -10,5 -14,-12 -6,-16 z m -22,0 c 9,-5 14,12 6,16 -10,5 -14,-11 -6,-16 z m -27,-9 c 7,-1 15,0 22,1 -2,4 -4,4 -6,9 H 57 Z m -7,60 v 19 h 49 v -18 c -5,0 -11,-1 -15,-5 h 15 v -8 h 13 v -13 c 17,-4 15,-32 1,-36 -9,-2 -10,2 -15,5 -7,-5 -9,-9 -19,-12 -8,-2 -20,-1 -29,-1 v 19 H 40 v 9 h 10 z"
   id="path110" />
      <path
   class="fil4"
   d="m 675,281 v 6 c -6,1 -32,1 -35,0 1,-2 8,-4 10,-5 6,-7 8,-7 10,-18 h -20 l -1,-7 h -12 c 1,-9 2,-4 6,-10 6,2 9,9 18,4 7,-4 7,-9 10,-15 h 14 z m -32,-55 c 9,-5 13,13 5,16 -9,4 -15,-11 -5,-16 z m -22,0 c 9,-4 13,13 5,16 -10,4 -15,-12 -5,-16 z m 54,-9 v 10 h -15 l -7,-9 c 5,-3 16,-2 22,-1 z m -42,63 v 16 h 48 l 1,-60 h 10 v -9 h -10 v -19 c -9,0 -21,-1 -30,2 -9,2 -12,7 -19,11 -8,-9 -19,-6 -23,5 -7,16 4,22 10,27 v 12 h 12 l 1,8 h 15 c -5,7 -15,2 -15,7 z"
   id="path112" />
      <path
   class="fil4"
   d="m 82,283 c 3,0 9,2 11,4 -2,2 0,1 -4,1 H 57 c -1,-4 -1,-49 0,-52 h 13 c 3,0 1,-1 2,1 2,6 3,11 9,14 8,4 11,0 17,-4 6,5 6,2 7,10 H 93 v 7 H 73 c -1,11 6,13 9,19 z m 25,-58 c 10,-3 13,14 5,17 -10,4 -14,-14 -5,-17 z m -22,0 c 9,-3 13,14 4,17 -9,4 -13,-13 -4,-17 z m -28,-8 c 6,-2 16,0 22,1 l -7,9 H 57 Z m -7,60 v 19 h 49 v -18 c -6,0 -11,-1 -15,-5 h 15 l 1,-8 h 13 l -1,-12 c 4,-3 8,-5 10,-10 7,-16 -6,-37 -24,-22 -7,-5 -9,-9 -19,-11 -8,-3 -21,-2 -29,-2 v 19 H 40 l 1,9 h 9 z"
   id="path114" />
      <path
   class="fil4"
   d="m 640,173 c -3,16 -18,28 -35,24 -17,-4 -25,-23 -22,-39 9,-40 66,-27 57,15 z m -46,28 c 11,4 18,7 30,2 7,-3 14,-9 18,-16 l 2,5 6,-1 c 2,-8 0,-7 -5,-9 3,-9 3,-13 3,-22 -5,-28 -34,-46 -58,-26 -16,13 -19,37 -8,54 5,8 7,7 12,13 z"
   id="path116" />
      <path
   class="fil4"
   d="m 92,459 c -2,-16 9,-33 26,-35 17,-2 31,11 33,29 3,42 -54,48 -59,6 z m -7,-3 c 0,8 2,11 3,17 -4,-4 -8,2 -6,6 0,2 2,3 5,3 2,-1 2,-3 4,-6 2,7 11,14 17,17 12,4 19,2 30,-1 3,-4 17,-11 19,-32 2,-14 -4,-29 -15,-37 -25,-20 -58,3 -57,33 z"
   id="path118" />
      <path
   class="fil4"
   d="m 150,170 c -7,44 -64,31 -58,-10 7,-43 65,-30 58,10 z m -65,-3 c 0,7 2,9 3,16 -3,-1 -3,-1 -6,0 -1,5 -1,5 1,9 6,0 5,-2 7,-6 9,19 30,23 48,15 12,-9 18,-17 20,-32 1,-15 -5,-29 -16,-37 -27,-19 -58,4 -57,35 z"
   id="path120" />
      <path
   class="fil4"
   d="m 602,424 c 39,-12 52,51 16,62 -37,11 -53,-51 -16,-62 z m -8,66 c 31,12 36,-3 47,-13 4,10 13,-1 5,-6 -2,-1 0,1 -2,-1 2,-5 2,-9 3,-14 0,-31 -31,-53 -57,-35 -11,8 -17,22 -16,36 1,22 14,27 20,33 z"
   id="path122" />
      <path
   class="fil4"
   d="m 117,463 c -5,-6 0,-18 7,-15 3,2 3,17 -7,15 z m 19,7 c -4,6 -20,5 -26,0 -7,-6 -7,-19 -1,-25 5,-6 18,-9 25,-3 7,6 6,19 -4,21 l 3,-19 c -3,0 -6,1 -6,1 -2,0 -2,-1 -7,-1 -15,0 -14,34 3,22 5,7 13,-1 17,-4 14,-26 -26,-39 -38,-14 -4,10 -1,24 11,28 9,4 26,3 30,-8 -5,0 -3,0 -7,2 z"
   id="path124" />
      <path
   class="fil4"
   d="m 604,464 c -5,-6 0,-18 7,-15 4,2 3,17 -7,15 z m 18,8 c -5,5 -21,4 -26,-2 -6,-7 -5,-19 1,-25 6,-6 19,-8 25,-1 7,6 5,18 -5,20 l 4,-19 c -7,0 -5,2 -7,1 0,0 -11,-6 -16,7 -5,10 2,21 13,14 3,4 9,2 12,0 3,-3 5,-7 7,-10 -1,-12 -3,-21 -18,-22 -12,0 -21,6 -23,17 -8,30 35,34 42,17 -8,0 -3,1 -9,3 z"
   id="path126" />
      <path
   class="fil4"
   d="m 116,176 c -5,-6 0,-18 7,-15 4,2 3,17 -7,15 z m 27,5 c -9,-1 -15,10 -30,3 -10,-4 -12,-16 -7,-25 5,-8 19,-11 26,-5 8,6 7,19 -3,22 l 3,-19 c -7,0 -4,1 -7,1 -2,-1 -2,-2 -6,-2 -4,1 -8,5 -10,8 -4,10 3,21 14,14 2,4 8,3 12,0 3,-2 4,-7 7,-9 -1,-12 -3,-21 -18,-22 -11,0 -21,5 -24,16 -7,28 32,36 43,18 z"
   id="path128" />
      <path
   class="fil4"
   d="m 604,174 c -5,-6 0,-18 7,-15 4,2 3,17 -7,15 z m 27,5 -4,-1 c -21,15 -45,-1 -32,-21 5,-8 18,-11 26,-5 8,6 7,20 -3,22 l 3,-19 c -4,0 -6,1 -7,1 -2,0 -2,-2 -6,-2 -16,1 -15,34 3,22 4,6 21,1 19,-17 -6,-21 -40,-17 -42,6 -3,26 33,30 43,14 z"
   id="path130" />
      <path
   class="fil4"
   d="m 337,68 2,2 h 7 l -1,-5 c -3,-4 -7,-8 -7,-14 2,-13 23,-12 23,2 0,5 -5,7 -7,13 l -1,4 h 6 c 4,-1 1,-1 4,-4 5,-7 8,-12 4,-21 -3,-7 -11,-11 -18,-10 -8,0 -14,5 -17,11 -5,12 4,16 5,22 z"
   id="path132" />
      <path
   class="fil4"
   d="m 345,606 c 4,3 1,2 4,5 3,0 4,0 6,-2 -1,-8 -7,-9 -7,-15 -2,-15 21,-16 22,-2 0,7 -5,8 -7,15 l -1,4 c 11,0 5,0 10,-4 1,-6 9,-9 4,-20 -5,-15 -27,-16 -34,-2 -6,12 2,15 3,21 z"
   id="path134" />
      <polygon
   class="fil4"
   points="370,612 348,612 348,620 370,620 "
   id="polygon136" />
      <polygon
   class="fil4"
   points="361,73 355,72 338,72 339,79 360,79 "
   id="polygon138" />
      <path
   class="fil4"
   d="m 333,37 c 1,-6 -1,-6 -5,-10 -2,-2 -7,-7 -10,-2 -2,3 3,7 5,8 3,3 5,6 10,4 z"
   id="path140" />
      <path
   class="fil4"
   d="m 346,30 c 11,5 7,-14 6,-15 -2,-3 -6,-2 -6,3 -1,3 -1,9 0,12 z"
   id="path142" />
      <path
   class="fil4"
   d="m 377,578 c 6,0 20,-13 11,-14 -4,-1 -7,3 -9,5 -4,4 -6,5 -2,9 z"
   id="path144" />
      <path
   class="fil4"
   d="m 356,570 c 10,6 7,-14 6,-15 -2,-3 -6,-1 -7,3 0,3 0,9 1,12 z"
   id="path146" />
      <path
   class="fil4"
   d="m 383,589 c -10,7 13,8 16,6 3,-2 1,-6 -3,-6 -3,-1 -10,-1 -13,0 z"
   id="path148" />
      <path
   class="fil4"
   d="m 328,565 c -4,3 1,6 3,8 3,2 6,7 9,4 4,-3 -1,-7 -3,-9 -3,-3 -6,-7 -9,-3 z"
   id="path150" />
      <path
   class="fil4"
   d="m 309,49 c -2,6 0,6 6,6 4,1 8,1 12,-1 0,-5 -1,-6 -6,-6 -2,0 -11,0 -12,1 z"
   id="path152" />
      <path
   class="fil4"
   d="m 318,594 c 3,2 23,4 17,-4 0,-1 -20,-6 -17,4 z"
   id="path154" />
      <path
   class="fil4"
   d="m 390,49 c -16,-5 -30,7 -5,6 5,0 7,0 5,-6 z"
   id="path156" />
      <path
   class="fil4"
   d="m 367,35 c 3,5 6,3 11,-2 3,-4 5,-5 3,-9 -5,-2 -6,0 -9,3 -3,3 -5,4 -5,8 z"
   id="path158" />
      <polygon
   class="fil4"
   points="363,629 366,629 366,622 362,622 356,622 352,622 352,629 355,629 "
   id="polygon160" />
      <polygon
   class="fil4"
   points="363,589 355,589 355,602 363,602 "
   id="polygon162" />
      <polygon
   class="fil4"
   points="353,49 346,49 346,62 353,62 "
   id="polygon164" />
      <polygon
   class="fil4"
   points="356,82 342,82 342,88 356,88 "
   id="polygon166" />
      <path
   class="fil4"
   d="m 649,491 h 4 l 1,-6 c -5,-2 -6,1 -5,6 z"
   id="path168" />
      <path
   class="fil4"
   d="m 78,202 h 3 c 2,-3 2,-3 0,-6 -5,-1 -5,2 -3,6 z"
   id="path170" />
      <path
   class="fil4"
   d="m 77,486 c 0,4 -1,3 1,5 l 3,1 c 3,-6 -1,-7 -4,-6 z"
   id="path172" />
      <path
   class="fil4"
   d="m 654,201 c 2,-3 2,-2 0,-5 -6,-2 -6,8 0,5 z"
   id="path174" />
      <path
   class="fil4"
   d="m 645,525 c 2,-4 1,-4 -3,-4 -1,4 -1,4 3,4 z"
   id="path176" />
      <path
   class="fil4"
   d="m 623,525 c 2,-4 1,-4 -3,-4 -1,3 -1,4 3,4 z"
   id="path178" />
      <path
   class="fil4"
   d="m 86,526 c 3,0 4,-1 2,-4 -3,0 -4,0 -2,4 z"
   id="path180" />
      <path
   class="fil4"
   d="m 110,236 c 1,-3 1,-3 -2,-4 -2,3 -1,4 2,4 z"
   id="path182" />
      <path
   class="fil4"
   d="m 624,236 c 2,-3 2,-3 -2,-4 -2,3 -1,3 2,4 z"
   id="path184" />
      <path
   class="fil4"
   d="m 108,526 c 3,-1 5,-2 1,-4 -2,1 -3,1 -1,4 z"
   id="path186" />
      <path
   class="fil4"
   d="m 86,236 c 4,-1 4,-3 0,-4 -2,2 -2,1 0,4 z"
   id="path188" />
      <path
   class="fil4"
   d="m 646,236 v -4 c -3,0 -5,4 0,4 z"
   id="path190" />
      <path
   class="fil4"
   d="m 344,668 c 1,1 2,3 3,-1 -4,-3 -2,0 -3,1 z"
   id="path192" />
      <path
   class="fil4"
   d="m 361,127 c 1,3 2,3 4,0 -2,-1 -1,-2 -4,0 z"
   id="path194" />
      <path
   class="fil4"
   d="m 384,128 c 4,2 2,2 4,-1 -1,-1 1,-2 -2,-1 -4,2 1,0 -2,2 z"
   id="path196" />
      <path
   class="fil4"
   d="m 321,666 c 0,4 3,5 3,0 z"
   id="path198" />
     </g>
     <g
   id="g242">
      <path
   class="fil5"
   d="m 77,486 c 3,-1 7,0 4,6 l -3,-1 c -2,-2 -1,-1 -1,-5 z m -65,23 v 12 c 2,4 2,10 5,15 2,5 5,10 8,14 6,6 16,15 25,17 V 526 H 40 v -9 h 10 v -19 c 9,0 21,-1 29,1 10,3 12,7 19,12 5,-3 6,-7 15,-5 14,4 16,32 -1,36 v 13 H 99 v 8 H 84 c 4,4 10,5 15,5 v 18 c 2,-4 1,-11 2,-17 28,-10 48,-35 40,-66 -1,-3 -4,-8 -3,-11 -11,3 -18,5 -30,1 -6,-3 -15,-10 -17,-17 -2,3 -2,5 -4,6 -3,0 -5,-1 -5,-3 -2,-4 2,-10 6,-6 -1,-6 -3,-9 -3,-17 -6,2 -13,0 -28,4 -15,4 -27,13 -36,26 -8,12 -7,18 -9,23 z"
   id="path202" />
      <path
   class="fil5"
   d="m 78,202 c -2,-4 -2,-7 3,-6 2,3 2,3 0,6 z m -66,16 v 13 c 2,4 3,11 5,16 2,5 5,9 9,13 6,7 14,14 24,17 v -41 h -9 l -1,-9 h 10 v -19 c 8,0 21,-1 29,2 10,2 12,6 19,11 18,-15 31,6 24,22 -2,5 -6,7 -10,10 l 1,12 h -13 l -1,8 H 84 c 4,4 9,5 15,5 v 18 c 3,-1 1,-13 1,-17 11,-3 30,-17 36,-27 6,-12 9,-26 6,-38 -1,-5 -4,-9 -4,-13 -18,8 -39,4 -48,-15 -2,4 -1,6 -7,6 -2,-4 -2,-4 -1,-9 3,-1 3,-1 6,0 -1,-7 -3,-9 -3,-16 -12,3 -43,-3 -64,29 -8,11 -6,17 -9,22 z"
   id="path204" />
      <path
   class="fil5"
   d="m 654,201 c -6,3 -6,-7 0,-5 2,3 2,2 0,5 z m -60,0 c 0,2 -1,3 -2,5 -1,2 -3,16 -3,21 1,14 5,24 15,33 12,12 11,11 29,20 0,-5 10,0 15,-7 h -15 l -1,-8 h -12 v -12 c -6,-5 -17,-11 -10,-27 4,-11 15,-14 23,-5 7,-4 10,-9 19,-11 9,-3 21,-2 30,-2 v 19 h 10 v 9 h -10 l -1,60 c 3,-3 2,-13 2,-17 1,-3 12,-8 15,-11 45,-36 16,-104 -49,-101 0,-3 0,-4 -1,-7 0,9 0,13 -3,22 5,2 7,1 5,9 l -6,1 -2,-5 c -4,7 -11,13 -18,16 -12,5 -19,2 -30,-2 z"
   id="path206" />
      <path
   class="fil5"
   d="m 649,491 c -1,-5 0,-8 5,-6 l -1,6 z m -55,-1 c -1,5 -7,15 -6,26 2,15 5,23 14,34 6,7 19,15 28,18 1,3 0,5 0,8 l 1,7 c 0,2 0,1 0,2 v -18 c 6,-1 13,-1 16,-5 h -16 v -8 h -12 v -13 c -11,-3 -15,-15 -11,-25 1,-4 5,-9 9,-11 9,-2 10,2 16,5 19,-15 23,-14 48,-13 v 19 h 9 v 9 h -9 v 41 c 25,-7 45,-39 35,-69 -7,-20 -25,-33 -44,-38 -10,-3 -17,-2 -25,-3 -1,5 -1,9 -3,14 2,2 0,0 2,1 8,5 -1,16 -5,6 -11,10 -16,25 -47,13 z"
   id="path208" />
      <path
   class="fil5"
   d="m 58,577 v -7 c 9,3 16,3 25,3 -7,-7 -9,-9 -11,-19 h 21 v -7 h 12 c 0,-6 -3,-7 -7,-10 -5,4 -9,8 -17,4 -6,-3 -8,-9 -9,-15 H 57 c -1,8 0,18 0,26 0,5 -2,22 1,25 z"
   id="path210" />
      <path
   class="fil5"
   d="m 650,282 c 10,2 17,-2 25,-1 v -45 h -14 c -3,6 -3,11 -10,15 -9,5 -12,-2 -18,-4 -4,6 -5,1 -6,10 h 12 l 1,7 h 20 c -2,11 -4,11 -10,18 z"
   id="path212" />
      <path
   class="fil5"
   d="m 648,572 c 4,-1 9,0 13,-1 5,0 9,-1 13,-2 v -44 h -15 c -1,6 -3,12 -9,15 -8,4 -12,0 -17,-4 -4,2 -7,4 -7,10 h 12 v 7 h 21 c -3,16 -8,15 -11,19 z"
   id="path214" />
      <path
   class="fil5"
   d="m 57,280 c 10,2 15,3 25,3 -3,-6 -10,-8 -9,-19 h 20 v -7 h 12 c -1,-8 -1,-5 -7,-10 -6,4 -9,8 -17,4 -6,-3 -7,-8 -9,-14 l -15,-1 z"
   id="path216" />
      <path
   class="fil5"
   d="m 631,179 c -1,-1 2,-1 -2,-1 1,-6 5,-13 1,-19 2,18 -15,23 -19,17 -18,12 -19,-21 -3,-22 4,0 4,2 6,2 1,0 3,-1 7,-1 l -3,19 c 10,-2 11,-16 3,-22 -8,-6 -21,-3 -26,5 -13,20 11,36 32,21 z"
   id="path218" />
      <path
   class="fil5"
   d="m 143,181 c -2,-2 0,-1 -5,-1 l 4,-11 c -3,2 -4,7 -7,9 -4,3 -10,4 -12,0 -11,7 -18,-4 -14,-14 2,-3 6,-7 10,-8 4,0 4,1 6,2 3,0 0,-1 7,-1 l -3,19 c 10,-3 11,-16 3,-22 -7,-6 -21,-3 -26,5 -5,9 -3,21 7,25 15,7 21,-4 30,-3 z"
   id="path220" />
      <path
   class="fil5"
   d="m 622,472 c -1,-2 -1,0 2,-3 2,-2 1,-1 3,-3 2,-3 3,-6 3,-9 -2,3 -4,7 -7,10 -3,2 -9,4 -12,0 -11,7 -18,-4 -13,-14 5,-13 16,-7 16,-7 2,1 0,-1 7,-1 l -4,19 c 10,-2 12,-14 5,-20 -6,-7 -19,-5 -25,1 -6,6 -7,18 -1,25 5,6 21,7 26,2 z"
   id="path222" />
      <path
   class="fil5"
   d="m 136,470 4,-8 c -4,3 -12,11 -17,4 -17,12 -18,-22 -3,-22 5,0 5,1 7,1 0,0 3,-1 6,-1 l -3,19 c 10,-2 11,-15 4,-21 -7,-6 -20,-3 -25,3 -6,6 -6,19 1,25 6,5 22,6 26,0 z"
   id="path224" />
      <path
   class="fil5"
   d="m 653,218 7,9 h 15 v -10 c -6,-1 -17,-2 -22,1 z"
   id="path226" />
      <path
   class="fil5"
   d="m 652,507 c 2,4 4,4 6,9 h 16 v -11 c -9,0 -14,0 -22,2 z"
   id="path228" />
      <path
   class="fil5"
   d="m 57,517 h 16 c 2,-5 4,-5 6,-9 -7,-1 -15,-2 -22,-1 z"
   id="path230" />
      <path
   class="fil5"
   d="m 57,227 h 15 l 7,-9 c -6,-1 -16,-3 -22,-1 z"
   id="path232" />
      <path
   class="fil5"
   d="m 116,176 c 10,2 11,-13 7,-15 -7,-3 -12,9 -7,15 z"
   id="path234" />
      <path
   class="fil5"
   d="m 604,174 c 10,2 11,-13 7,-15 -7,-3 -12,9 -7,15 z"
   id="path236" />
      <path
   class="fil5"
   d="m 604,464 c 10,2 11,-13 7,-15 -7,-3 -12,9 -7,15 z"
   id="path238" />
      <path
   class="fil5"
   d="m 117,463 c 10,2 10,-13 7,-15 -7,-3 -12,9 -7,15 z"
   id="path240" />
     </g>
    </g>
   </g>
  </g><ellipse
   class="fil6"
   cx="362"
   cy="365"
   rx="172"
   ry="80"
   id="ellipse248" /><path
   class="fil7"
   d="m 248,393 h 30 c 3,0 5,1 7,2 1,1 2,3 2,5 0,2 0,4 -2,5 -1,1 -3,2 -5,2 h -42 c -3,0 -5,-1 -7,-3 -1,-1 -2,-3 -2,-5 0,-1 0,-3 1,-5 1,-3 2,-5 4,-6 5,-5 9,-10 13,-13 4,-4 7,-6 9,-8 3,-2 6,-4 8,-6 2,-3 3,-5 5,-7 1,-2 1,-5 1,-7 0,-2 0,-5 -2,-7 -1,-1 -2,-3 -4,-4 -2,-1 -4,-2 -7,-2 -5,0 -9,3 -12,7 0,1 -1,2 -1,5 -1,2 -2,4 -3,6 -2,1 -3,2 -5,2 -2,0 -4,-1 -5,-2 -1,-2 -2,-3 -2,-5 0,-3 1,-6 2,-9 1,-2 3,-5 5,-7 2,-3 5,-5 9,-6 4,-1 8,-2 13,-2 5,0 10,1 14,3 3,1 5,2 7,5 2,2 4,4 5,7 1,3 2,6 2,9 0,4 -1,9 -4,13 -2,3 -4,6 -7,9 -2,2 -6,5 -12,10 -6,5 -10,8 -12,11 -1,1 -2,2 -3,3 z"
   id="path250" /><path
   id="1"
   class="fil7"
   d="m 355,366 c 0,6 0,11 -1,16 0,4 -2,8 -4,12 -2,5 -6,8 -10,10 -4,3 -9,4 -14,4 -5,0 -11,-2 -15,-5 -5,-3 -8,-8 -10,-13 -2,-3 -2,-7 -3,-11 -1,-4 -1,-8 -1,-12 0,-6 0,-11 1,-16 1,-4 2,-8 3,-11 2,-6 5,-10 10,-13 4,-3 9,-4 15,-4 4,0 7,0 11,2 3,1 6,3 8,5 2,3 4,6 6,9 3,7 4,15 4,27 z m -15,-1 c 0,-7 -1,-13 -1,-17 -1,-5 -3,-8 -5,-10 -2,-3 -4,-4 -8,-4 -5,0 -8,3 -10,8 -2,5 -3,13 -3,23 0,7 0,13 1,18 1,4 2,8 4,10 2,2 5,4 8,4 4,0 7,-2 8,-4 2,-2 4,-6 5,-10 0,-5 1,-11 1,-18 z" />
<path
   class="fil7"
   d="m 390.18111,392.07978 h 30 c 3,0 5,1 7,2 1,1 2,3 2,5 0,2 0,4 -2,5 -1,1 -3,2 -5,2 h -42 c -3,0 -5,-1 -7,-3 -1,-1 -2,-3 -2,-5 0,-1 0,-3 1,-5 1,-3 2,-5 4,-6 5,-5 9,-10 13,-13 4,-4 7,-6 9,-8 3,-2 6,-4 8,-6 2,-3 3,-5 5,-7 1,-2 1,-5 1,-7 0,-2 0,-5 -2,-7 -1,-1 -2,-3 -4,-4 -2,-1 -4,-2 -7,-2 -5,0 -9,3 -12,7 0,1 -1,2 -1,5 -1,2 -2,4 -3,6 -2,1 -3,2 -5,2 -2,0 -4,-1 -5,-2 -1,-2 -2,-3 -2,-5 0,-3 1,-6 2,-9 1,-2 3,-5 5,-7 2,-3 5,-5 9,-6 4,-1 8,-2 13,-2 5,0 10,1 14,3 3,1 5,2 7,5 2,2 4,4 5,7 1,3 2,6 2,9 0,4 -1,9 -4,13 -2,3 -4,6 -7,9 -2,2 -6,5 -12,10 -6,5 -10,8 -12,11 -1,1 -2,2 -3,3 z"
   id="path250-3"
   style="clip-rule:evenodd;fill:white;fill-rule:nonzero;image-rendering:optimizeQuality;shape-rendering:geometricPrecision;text-rendering:geometricPrecision" /><path
   id="1-6"
   class="fil7"
   d="m 497.18111,365.07978 c 0,6 0,11 -1,16 0,4 -2,8 -4,12 -2,5 -6,8 -10,10 -4,3 -9,4 -14,4 -5,0 -11,-2 -15,-5 -5,-3 -8,-8 -10,-13 -2,-3 -2,-7 -3,-11 -1,-4 -1,-8 -1,-12 0,-6 0,-11 1,-16 1,-4 2,-8 3,-11 2,-6 5,-10 10,-13 4,-3 9,-4 15,-4 4,0 7,0 11,2 3,1 6,3 8,5 2,3 4,6 6,9 3,7 4,15 4,27 z m -15,-1 c 0,-7 -1,-13 -1,-17 -1,-5 -3,-8 -5,-10 -2,-3 -4,-4 -8,-4 -5,0 -8,3 -10,8 -2,5 -3,13 -3,23 0,7 0,13 1,18 1,4 2,8 4,10 2,2 5,4 8,4 4,0 7,-2 8,-4 2,-2 4,-6 5,-10 0,-5 1,-11 1,-18 z"
   style="clip-rule:evenodd;fill:white;fill-rule:nonzero;image-rendering:optimizeQuality;shape-rendering:geometricPrecision;text-rendering:geometricPrecision" /></svg>
