<?xml version="1.0" encoding="UTF-8"?>
<!DOCTYPE svg PUBLIC "-//W3C//DTD SVG 1.1//EN" "http://www.w3.org/Graphics/SVG/1.1/DTD/svg11.dtd">
<!-- Creator: CorelDRAW X6 -->
<svg xmlns="http://www.w3.org/2000/svg" xml:space="preserve" width="148.326mm" height="28.2092mm" version="1.1" style="shape-rendering:geometricPrecision; text-rendering:geometricPrecision; image-rendering:optimizeQuality; fill-rule:evenodd; clip-rule:evenodd"
viewBox="0 0 14840 2822"
 xmlns:xlink="http://www.w3.org/1999/xlink">
 <defs>
  <style type="text/css">
   <![CDATA[
    .fil0 {fill:#00985F;fill-rule:nonzero}
    .fil1 {fill:#193E74;fill-rule:nonzero}
    .fil2 {fill:#A8D5F3;fill-rule:nonzero}
   ]]>
  </style>
 </defs>
 <g id="Layer_x0020_1">
  <metadata id="CorelCorpID_0Corel-Layer"/>
  <polygon class="fil0" points="2748,202 2748,564 3276,564 3276,764 2748,764 2748,1320 2455,1320 2455,0 3300,0 3300,202 "/>
  <polygon class="fil0" points="3628,1918 3285,1918 2968,924 3255,924 3465,1712 3673,924 3946,924 "/>
  <polygon class="fil0" points="4103,1710 4103,389 4964,389 4964,591 4390,591 4390,938 4938,938 4938,1138 4390,1138 4390,1508 4982,1508 4982,1710 "/>
  <polygon class="fil0" points="5207,389 5500,389 5500,1710 5207,1710 "/>
  <polygon class="fil1" points="2962,1705 777,1705 777,1504 2962,1504 "/>
  <polygon class="fil2" points="2185,1321 0,1321 0,1111 2185,1111 "/>
  <path class="fil1" d="M14519 2577l-66 0 -15 69 66 0 15 -69zm14 -449l-64 0 -254 458 -60 -458 -64 0 78 518 70 0 294 -518zm-534 449l-65 0 -16 69 67 0 14 -69zm-132 -280c-6,-11 -13,-19 -23,-26 -9,-7 -20,-12 -32,-15 -12,-3 -25,-4 -38,-4 -31,0 -60,7 -89,23 -28,15 -53,35 -75,61 -22,26 -40,55 -53,89 -13,33 -19,68 -19,105 0,20 3,38 10,54 6,15 16,29 28,39 11,11 26,19 42,24 16,5 34,8 54,8 21,0 42,-2 64,-7 21,-4 41,-10 59,-20l-4 -47c-15,9 -32,16 -51,22 -19,5 -37,7 -55,7 -28,0 -50,-7 -65,-21 -16,-15 -23,-36 -23,-64 0,-9 0,-18 1,-28 2,-10 4,-19 6,-26 17,0 35,-1 55,-2 20,0 40,-2 60,-5 20,-4 40,-8 59,-14 18,-6 35,-14 49,-24 15,-10 26,-23 35,-38 9,-15 13,-33 13,-54 0,-15 -3,-27 -8,-37zm-67 91c-14,11 -31,21 -51,27 -21,6 -43,10 -67,12 -25,1 -47,2 -68,2 5,-15 13,-30 22,-46 10,-16 21,-30 34,-43 13,-14 28,-24 43,-33 16,-8 32,-13 50,-13 15,0 28,3 40,9 11,6 17,18 17,36 0,20 -7,37 -20,49zm-566 -124c-15,-3 -31,-6 -47,-9 -16,-2 -33,-3 -49,-3 -38,0 -74,7 -107,23 -34,15 -64,35 -89,61 -25,26 -45,56 -59,90 -15,34 -23,70 -23,108 0,16 3,30 7,44 4,14 11,26 20,36 9,10 20,18 34,24 13,5 28,8 45,8 33,0 60,-6 81,-17 21,-11 41,-30 60,-56l-15 65c-5,20 -11,39 -19,56 -8,17 -18,31 -30,43 -13,12 -27,22 -45,29 -17,6 -38,10 -61,10 -18,0 -36,-2 -54,-5 -18,-4 -35,-10 -51,-19l-14 50c17,6 35,11 54,15 19,3 39,5 58,5 37,0 68,-4 93,-13 25,-9 46,-23 63,-40 18,-17 31,-39 42,-64 11,-26 20,-55 27,-88l79 -353zm-65 40l-30 125c-4,17 -10,35 -18,56 -8,20 -18,38 -31,56 -13,17 -28,32 -45,43 -18,12 -39,18 -62,18 -24,0 -40,-7 -49,-20 -10,-14 -15,-31 -15,-53 0,-29 6,-57 16,-84 11,-28 26,-53 44,-75 19,-21 41,-39 66,-52 24,-14 51,-21 80,-21 8,0 15,1 22,2 7,1 14,3 22,5zm-297 -49c-6,-2 -11,-3 -16,-3 -5,0 -10,0 -16,0 -12,0 -24,2 -35,7 -12,5 -24,11 -34,19 -11,8 -20,17 -29,26 -9,10 -15,20 -21,31l15 -76 -53 0c-2,15 -4,31 -7,46 -3,15 -6,30 -9,45l-63 296 57 0 40 -190c3,-16 8,-33 15,-50 6,-18 14,-34 24,-48 11,-15 23,-27 37,-37 14,-9 31,-14 50,-14 10,0 20,1 30,4l15 -56zm-303 3l-58 0 -45 216c-4,16 -9,33 -15,49 -6,16 -15,30 -26,43 -10,12 -23,23 -37,30 -15,8 -32,12 -51,12 -25,0 -42,-7 -52,-20 -10,-14 -15,-30 -15,-48 0,-8 0,-15 1,-23 2,-8 3,-16 5,-25l50 -234 -58 0 -52 249c-2,8 -3,16 -4,24 -1,8 -1,15 -1,23 0,31 9,55 28,73 19,18 45,28 76,28 32,0 58,-7 78,-21 21,-14 40,-34 58,-59l-11 71 52 0c1,-15 3,-30 6,-46 2,-15 5,-31 8,-46l63 -296zm-429 94c-3,-16 -8,-32 -16,-46 -8,-15 -20,-28 -36,-39 -15,-10 -37,-15 -63,-15 -30,0 -55,6 -78,19 -22,12 -40,30 -55,53l50 -238 -55 0 -119 560 52 0 16 -69c3,10 7,20 12,29 5,10 12,18 20,25 8,8 18,13 30,17 12,5 26,7 42,7 33,0 63,-9 88,-25 26,-16 47,-37 64,-62 17,-26 30,-54 38,-85 9,-30 13,-60 13,-89 0,-12 -1,-25 -3,-42zm-65 108c-6,25 -15,49 -27,71 -12,22 -27,40 -45,55 -19,15 -40,22 -66,22 -15,0 -27,-3 -38,-9 -10,-5 -18,-13 -24,-22 -6,-9 -11,-20 -13,-32 -3,-12 -4,-25 -4,-38 0,-20 3,-42 9,-67 7,-24 16,-47 28,-68 12,-21 27,-39 46,-53 18,-14 39,-22 64,-22 14,0 27,3 37,8 10,5 18,11 24,20 6,8 11,18 14,29 3,11 4,24 4,37 0,20 -3,43 -9,69zm-390 -184c-18,-16 -42,-24 -72,-24 -27,0 -53,7 -77,23 -24,15 -43,34 -58,57 0,-25 -9,-44 -26,-59 -17,-14 -38,-21 -61,-21 -30,0 -56,6 -77,19 -22,14 -41,32 -58,55l11 -67 -53 0c-1,16 -3,31 -6,46 -3,15 -6,30 -9,45l-62 296 57 0 45 -215c3,-15 8,-30 15,-46 7,-16 15,-30 26,-43 10,-13 22,-24 36,-32 14,-8 30,-13 47,-13 19,0 35,5 45,14 11,9 16,24 16,45 0,10 -1,22 -4,35l-53 255 56 0 45 -215c3,-15 8,-30 15,-46 7,-16 16,-30 27,-43 10,-13 23,-24 37,-32 14,-8 30,-13 47,-13 39,0 59,20 59,59 0,10 -1,22 -4,35l-53 255 57 0 55 -263c1,-6 2,-13 3,-19 1,-6 2,-12 2,-19 0,-30 -9,-53 -28,-69zm-584 -12c-12,-4 -27,-7 -45,-10 -17,-2 -35,-3 -53,-3 -37,0 -72,8 -106,23 -33,15 -63,36 -88,61 -25,26 -45,56 -59,91 -15,34 -23,70 -23,107 0,18 3,34 7,49 5,15 11,28 20,38 9,11 20,20 32,26 13,6 28,9 46,9 21,0 40,-4 57,-11 17,-7 32,-17 45,-28 12,-11 23,-23 32,-36 9,-13 17,-25 22,-36 -4,21 -7,41 -9,59 -2,19 -3,33 -4,43l56 0c0,-19 1,-43 5,-72 3,-30 9,-62 18,-99l47 -211zm-65 39l-28 120c-6,26 -14,50 -25,72 -11,23 -24,42 -38,59 -14,17 -29,30 -45,40 -16,9 -32,14 -47,14 -13,0 -24,-2 -33,-6 -8,-4 -15,-10 -20,-18 -5,-7 -8,-16 -10,-25 -2,-10 -4,-20 -4,-31 0,-27 6,-54 16,-82 10,-28 25,-52 43,-74 19,-22 40,-40 65,-54 24,-14 51,-21 80,-21 8,0 15,0 23,1 8,1 15,2 23,5zm-342 -175l-60 0 -48 225 -247 0 48 -225 -61 0 -110 518 61 0 51 -241 247 0 -51 241 60 0 110 -518zm-689 0l-57 0 -221 457 -29 -457 -70 0 -223 457 -25 -457 -62 0 35 518 74 0 223 -457 28 457 72 0 255 -518zm-782 518l-93 -518 -72 0 -312 518 63 0 84 -141 245 0 23 141 62 0zm-92 -190l-211 0 164 -278 47 278zm-349 -328l-60 0 -48 225 -247 0 48 -225 -61 0 -111 518 62 0 51 -241 247 0 -51 241 59 0 111 -518zm-729 127c-6,-2 -11,-3 -16,-3 -5,0 -11,0 -16,0 -12,0 -24,2 -36,7 -12,5 -23,11 -34,19 -10,8 -20,17 -28,26 -9,10 -16,20 -21,31l14 -76 -53 0c-1,15 -4,31 -7,46 -2,15 -5,30 -8,45l-63 296 56 0 41 -190c3,-16 8,-33 14,-50 7,-18 15,-34 25,-48 10,-15 22,-27 36,-37 15,-9 31,-14 50,-14 11,0 21,1 30,4l16 -56zm-309 42c-5,-11 -13,-19 -22,-26 -10,-7 -20,-12 -32,-15 -13,-3 -25,-4 -39,-4 -30,0 -60,7 -88,23 -28,15 -53,35 -75,61 -22,26 -40,55 -53,89 -13,33 -20,68 -20,105 0,20 3,38 10,54 7,15 16,29 28,39 12,11 26,19 42,24 17,5 35,8 54,8 21,0 42,-2 64,-7 22,-4 42,-10 60,-20l-4 -47c-15,9 -32,16 -51,22 -19,5 -38,7 -55,7 -28,0 -50,-7 -66,-21 -15,-15 -23,-36 -23,-64 0,-9 1,-18 2,-28 1,-10 3,-19 6,-26 16,0 35,-1 55,-2 19,0 40,-2 60,-5 20,-4 39,-8 58,-14 19,-6 35,-14 50,-24 14,-10 26,-23 35,-38 8,-15 13,-33 13,-54 0,-15 -3,-27 -9,-37zm-66 91c-14,11 -31,21 -52,27 -20,6 -43,10 -67,12 -24,1 -47,2 -68,2 6,-15 14,-30 23,-46 10,-16 21,-30 34,-43 13,-14 27,-24 43,-33 15,-8 32,-13 49,-13 15,0 29,3 40,9 12,6 18,18 18,36 0,20 -7,37 -20,49zm-279 -302l-56 0 -51 238c-1,-12 -5,-22 -12,-31 -6,-9 -14,-17 -24,-23 -9,-6 -20,-11 -31,-14 -12,-3 -23,-4 -35,-4 -29,0 -56,7 -80,21 -25,15 -46,34 -64,59 -19,24 -33,52 -43,84 -10,32 -15,66 -15,102 0,19 2,36 7,53 5,16 13,31 23,43 9,13 22,23 36,30 15,7 32,11 52,11 27,0 51,-6 74,-18 23,-11 43,-30 60,-54l-8 63 52 0c3,-20 6,-40 10,-60 3,-21 7,-41 12,-63l93 -437zm-136 378c-6,24 -16,47 -28,68 -12,22 -27,40 -45,54 -18,15 -39,22 -63,22 -15,0 -28,-2 -38,-7 -10,-5 -18,-12 -24,-21 -6,-8 -11,-18 -14,-30 -2,-11 -4,-24 -4,-38 0,-21 3,-44 9,-69 5,-25 14,-48 26,-70 12,-21 27,-39 45,-54 19,-14 41,-22 67,-22 14,0 27,3 37,9 10,5 18,12 24,22 6,9 11,20 13,32 3,11 4,24 4,37 0,20 -3,42 -9,67zm-540 -205l-74 0 -184 162 70 -335 -57 0 -117 560 57 0 43 -209 129 209 68 0 -141 -214 206 -173zm-366 -153l-58 0 -14 67 59 0 13 -67zm-31 153l-58 0 -81 387 57 0 82 -387zm-150 0l-85 0 22 -106 -61 19 -18 87 -72 0 -10 45 72 0 -47 222c-3,10 -4,20 -5,29 -1,9 -1,19 -1,29 0,23 7,41 20,53 14,12 31,18 51,18 24,0 46,-4 65,-11l5 -48c-8,3 -15,6 -23,8 -8,2 -16,3 -23,3 -11,0 -20,-2 -27,-7 -7,-4 -11,-13 -11,-26 0,-9 1,-17 2,-23 0,-7 1,-14 3,-21l48 -226 86 0 9 -45zm-291 5c-12,-4 -27,-7 -45,-10 -18,-2 -36,-3 -53,-3 -37,0 -73,8 -106,23 -34,15 -63,36 -88,61 -25,26 -45,56 -60,91 -14,34 -22,70 -22,107 0,18 2,34 7,49 4,15 11,28 20,38 8,11 19,20 32,26 13,6 28,9 45,9 21,0 41,-4 58,-11 17,-7 32,-17 44,-28 13,-11 24,-23 33,-36 9,-13 16,-25 22,-36 -4,21 -7,41 -9,59 -2,19 -4,33 -4,43l56 0c-1,-19 1,-43 4,-72 4,-30 10,-62 18,-99l48 -211zm-66 39l-27 120c-6,26 -15,50 -26,72 -11,23 -23,42 -37,59 -14,17 -29,30 -45,40 -16,9 -32,14 -48,14 -13,0 -23,-2 -32,-6 -9,-4 -15,-10 -20,-18 -5,-7 -9,-16 -11,-25 -2,-10 -3,-20 -3,-31 0,-27 5,-54 16,-82 10,-28 24,-52 43,-74 18,-22 40,-40 64,-54 25,-14 52,-21 81,-21 7,0 15,0 23,1 8,1 15,2 22,5zm-402 -27c-19,-16 -42,-24 -72,-24 -28,0 -54,7 -78,23 -23,15 -43,34 -57,57 -1,-25 -9,-44 -26,-59 -18,-14 -38,-21 -62,-21 -29,0 -55,6 -77,19 -21,14 -41,32 -57,55l11 -67 -53 0c-2,16 -4,31 -7,46 -3,15 -5,30 -9,45l-61 296 57 0 45 -215c3,-15 8,-30 15,-46 6,-16 15,-30 25,-43 11,-13 23,-24 37,-32 14,-8 29,-13 46,-13 20,0 35,5 46,14 10,9 16,24 16,45 0,10 -2,22 -4,35l-54 255 57 0 45 -215c3,-15 8,-30 15,-46 7,-16 16,-30 26,-43 11,-13 23,-24 38,-32 14,-8 30,-13 47,-13 39,0 59,20 59,59 0,10 -2,22 -4,35l-54 255 58 0 55 -263 3 -19c1,-6 1,-12 1,-19 0,-30 -9,-53 -27,-69zm-539 -21c-6,-2 -11,-3 -16,-3 -5,0 -11,0 -16,0 -12,0 -24,2 -36,7 -12,5 -23,11 -34,19 -10,8 -20,17 -28,26 -9,10 -16,20 -21,31l14 -76 -53 0c-1,15 -4,31 -6,46 -3,15 -6,30 -9,45l-63 296 56 0 41 -190c3,-16 8,-33 14,-50 7,-18 15,-34 25,-48 10,-15 22,-27 37,-37 14,-9 30,-14 50,-14 10,0 20,1 29,4l16 -56zm-329 79c-7,-17 -17,-31 -30,-44 -12,-12 -27,-22 -45,-28 -17,-7 -36,-10 -55,-10 -37,0 -70,7 -98,22 -28,14 -52,34 -71,59 -19,24 -33,52 -43,84 -10,32 -15,65 -15,99 0,21 4,39 11,56 7,17 17,31 30,44 12,12 27,22 45,29 17,6 36,10 55,10 37,0 69,-8 97,-23 28,-15 51,-35 71,-60 19,-25 34,-53 44,-85 10,-32 15,-64 15,-97 0,-20 -4,-39 -11,-56zm-58 139c-8,24 -18,46 -32,66 -13,20 -30,36 -50,49 -19,13 -41,20 -65,20 -34,0 -58,-10 -72,-30 -15,-20 -22,-46 -22,-78 0,-22 4,-44 10,-68 7,-24 17,-46 30,-66 13,-20 29,-36 48,-49 18,-13 40,-20 65,-20 34,0 59,10 75,30 16,20 24,46 24,78 0,22 -4,44 -11,68zm-255 -388c-15,-4 -31,-7 -47,-7 -21,0 -39,4 -54,12 -14,7 -26,17 -37,30 -10,12 -18,26 -24,42 -6,15 -10,31 -14,47l-11 50 -74 0 -9 45 74 0 -75 354c-2,11 -5,23 -8,36 -4,14 -9,26 -15,38 -6,12 -13,22 -23,31 -9,9 -20,13 -33,13 -13,0 -25,-1 -35,-3l-12 45c9,2 18,3 28,4 9,0 18,0 28,0 20,0 38,-5 52,-15 15,-11 27,-24 37,-40 9,-15 17,-32 23,-51 6,-19 11,-36 14,-53l75 -359 86 0 10 -45 -86 0 10 -45c2,-10 5,-20 8,-30 3,-11 7,-21 12,-29 6,-9 13,-16 21,-22 8,-6 18,-9 30,-9 6,0 12,1 18,2 6,2 12,3 18,4l13 -45zm-368 193c-18,-18 -44,-26 -75,-26 -32,0 -58,6 -79,19 -20,14 -40,33 -59,58l11 -70 -52 0c-1,15 -3,31 -6,46 -3,15 -6,30 -9,45l-62 296 57 0 46 -216c4,-16 9,-33 15,-49 7,-16 16,-30 26,-42 10,-13 23,-23 38,-30 14,-8 31,-12 51,-12 24,0 42,7 52,20 11,13 16,28 16,47 0,7 -1,15 -2,23 -2,8 -3,16 -5,25l-49 234 57 0 52 -248c3,-17 5,-32 5,-47 0,-31 -9,-55 -28,-73zm-352 -150l-62 0 -110 518 61 0 111 -518zm-436 -42l-56 0 -50 238c-2,-12 -6,-22 -12,-31 -7,-9 -15,-17 -24,-23 -10,-6 -20,-11 -32,-14 -11,-3 -23,-4 -35,-4 -29,0 -56,7 -80,21 -25,15 -46,34 -64,59 -18,24 -32,52 -43,84 -10,32 -15,66 -15,102 0,19 3,36 8,53 5,16 12,31 22,43 10,13 22,23 37,30 14,7 32,11 51,11 27,0 51,-6 75,-18 23,-11 43,-30 60,-54l-9 63 52 0c3,-20 7,-40 10,-60 3,-21 7,-41 12,-63l93 -437zm-136 378c-6,24 -15,47 -27,68 -13,22 -28,40 -46,54 -18,15 -39,22 -63,22 -15,0 -27,-2 -37,-7 -10,-5 -19,-12 -25,-21 -6,-8 -10,-18 -13,-30 -3,-11 -5,-24 -5,-38 0,-21 3,-44 9,-69 6,-25 14,-48 26,-70 12,-21 27,-39 46,-54 18,-14 40,-22 66,-22 15,0 27,3 37,9 10,5 18,12 24,22 7,9 11,20 14,32 2,11 4,24 4,37 0,20 -4,42 -10,67zm-375 -186c-18,-18 -44,-26 -75,-26 -32,0 -58,6 -79,19 -20,14 -40,33 -59,58l11 -70 -52 0c-1,15 -3,31 -6,46 -3,15 -6,30 -9,45l-62 296 57 0 46 -216c4,-16 9,-33 15,-49 7,-16 16,-30 26,-42 10,-13 23,-23 38,-30 14,-8 31,-12 51,-12 24,0 42,7 52,20 11,13 16,28 16,47 0,7 -1,15 -2,23 -2,8 -4,16 -5,25l-49 234 57 0 52 -248c3,-17 5,-32 5,-47 0,-31 -9,-55 -28,-73zm-366 -20l-58 0 -45 216c-3,16 -8,33 -15,49 -6,16 -15,30 -26,43 -10,12 -23,23 -37,30 -15,8 -32,12 -51,12 -25,0 -42,-7 -52,-20 -10,-14 -15,-30 -15,-48 0,-8 0,-15 2,-23 1,-8 2,-16 4,-25l50 -234 -58 0 -52 249c-1,8 -3,16 -4,24 -1,8 -1,15 -1,23 0,31 9,55 28,73 20,18 45,28 77,28 31,0 57,-7 78,-21 20,-14 39,-34 57,-59l-11 71 52 0c1,-15 3,-30 6,-46 3,-15 5,-31 9,-46l62 -296z"/>
  <path class="fil1" d="M14840 1328l-74 0 -184 161 70 -335 -58 0 -116 560 56 0 43 -209 129 209 68 0 -140 -213 206 -173zm-367 -154l-58 0 -14 67 59 0 13 -67zm-31 154l-57 0 -81 386 56 0 82 -386zm-221 18c-19,-17 -44,-26 -76,-26 -31,0 -57,6 -78,20 -21,13 -40,32 -59,57l11 -69 -52 0c-2,15 -4,30 -7,45 -3,15 -6,30 -9,45l-61 296 57 0 45 -216c4,-16 9,-32 16,-49 7,-15 15,-30 26,-42 10,-13 23,-23 37,-30 15,-8 32,-11 51,-11 25,0 43,6 53,19 10,13 15,29 15,47 0,8 0,15 -2,23 -1,8 -3,17 -5,25l-49 234 57 0 52 -248c4,-16 6,-32 6,-47 0,-31 -10,-55 -28,-73zm-415 0c-20,-18 -44,-26 -75,-26 -28,0 -54,6 -75,18 -22,12 -41,30 -60,54l52 -238 -55 0 -119 560 57 0 44 -209c4,-18 9,-35 16,-52 7,-17 16,-32 27,-45 10,-13 23,-23 38,-31 15,-7 33,-11 53,-11 23,0 40,6 50,19 10,12 15,28 15,47 0,8 0,17 -1,25 -1,9 -2,18 -4,27l-49 230 57 0 49 -229c2,-10 3,-17 4,-24 1,-5 2,-11 3,-15 1,-5 1,-10 1,-14 1,-4 1,-10 1,-16 0,-29 -10,-53 -29,-70zm-345 -11c-14,-4 -29,-8 -45,-11 -16,-3 -32,-4 -46,-4 -37,0 -70,7 -98,21 -29,14 -54,34 -74,58 -19,24 -35,51 -45,83 -11,31 -16,64 -16,99 0,20 3,39 10,56 7,17 17,32 29,45 13,13 28,23 45,30 17,7 35,11 56,11 18,0 35,-1 53,-3 17,-2 34,-5 51,-10l7 -49c-15,5 -30,9 -47,12 -16,2 -32,3 -49,3 -15,0 -29,-3 -41,-9 -12,-6 -22,-14 -30,-24 -9,-11 -15,-22 -19,-35 -4,-14 -6,-28 -6,-42 0,-23 4,-47 11,-70 8,-24 19,-45 34,-65 14,-19 32,-35 52,-47 21,-12 44,-18 69,-18 14,0 29,1 43,4 15,3 29,8 42,14l14 -49zm-382 30c-5,-10 -13,-19 -22,-26 -9,-6 -20,-11 -32,-15 -13,-3 -25,-4 -39,-4 -30,0 -60,7 -88,23 -28,15 -53,35 -75,61 -22,26 -40,55 -53,89 -13,34 -20,69 -20,105 0,21 3,39 10,54 7,16 16,29 28,39 12,11 26,19 43,24 16,5 34,8 53,8 21,0 42,-2 64,-6 22,-4 42,-11 60,-21l-4 -47c-15,9 -32,17 -51,22 -19,5 -38,8 -55,8 -28,0 -50,-8 -66,-22 -15,-15 -23,-36 -23,-64 0,-9 1,-18 2,-28 1,-10 3,-18 6,-26 16,0 35,-1 55,-1 20,-1 40,-3 60,-6 20,-3 39,-8 58,-14 19,-6 35,-14 50,-24 14,-10 26,-22 35,-37 9,-15 13,-34 13,-55 0,-14 -3,-27 -9,-37zm-66 91c-14,12 -31,21 -52,27 -20,6 -43,10 -67,12 -24,2 -47,3 -68,3 6,-15 13,-31 23,-47 10,-15 21,-30 34,-43 13,-13 27,-24 43,-33 15,-8 32,-13 49,-13 15,0 29,4 40,9 12,6 18,18 18,36 0,21 -7,37 -20,49zm-286 -128l-85 0 22 -107 -61 20 -18 87 -72 0 -10 45 72 0 -47 221c-3,10 -4,20 -5,29 -1,9 -1,19 -1,29 0,23 7,41 20,53 14,12 31,18 51,18 24,0 46,-4 65,-11l5 -47c-8,3 -15,5 -23,7 -8,2 -16,3 -23,3 -11,0 -20,-2 -27,-7 -7,-4 -11,-13 -11,-26 0,-9 1,-16 1,-23 1,-6 2,-13 4,-21l48 -225 85 0 10 -45zm-315 74c-8,-16 -18,-31 -30,-43 -13,-13 -28,-22 -45,-29 -18,-7 -36,-10 -56,-10 -37,0 -69,7 -97,22 -28,15 -52,34 -71,59 -20,24 -34,53 -44,85 -10,31 -15,64 -15,99 0,20 4,38 11,55 8,17 18,32 30,44 13,12 28,22 45,29 18,6 36,10 56,10 36,0 68,-8 96,-23 28,-15 52,-35 71,-59 19,-25 34,-54 44,-85 10,-32 15,-65 15,-98 0,-20 -3,-39 -10,-56zm-59 139c-7,24 -18,46 -31,66 -14,20 -31,36 -50,49 -20,14 -42,20 -65,20 -35,0 -59,-10 -73,-30 -14,-20 -21,-46 -21,-78 0,-21 3,-44 10,-68 6,-24 16,-46 29,-66 13,-20 29,-36 48,-49 19,-13 41,-19 66,-19 34,0 59,10 75,30 15,19 23,46 23,78 0,21 -3,43 -11,67zm-298 -218c-6,-2 -11,-3 -16,-3 -5,0 -10,0 -16,0 -12,0 -24,2 -35,7 -12,5 -24,12 -34,19 -11,8 -20,17 -29,27 -8,9 -15,20 -20,30l14 -75 -53 0c-2,15 -4,30 -7,45 -3,15 -6,30 -9,45l-63 296 57 0 40 -190c3,-16 8,-33 15,-50 6,-17 14,-33 24,-48 11,-15 23,-27 37,-37 14,-9 31,-14 50,-14 10,0 20,2 30,5l15 -57zm-279 5l-85 0 22 -107 -62 20 -17 87 -72 0 -10 45 72 0 -47 221c-3,10 -4,20 -5,29 -1,9 -1,19 -1,29 0,23 7,41 20,53 14,12 31,18 51,18 24,0 45,-4 65,-11l5 -47c-8,3 -16,5 -23,7 -8,2 -16,3 -24,3 -10,0 -19,-2 -26,-7 -7,-4 -11,-13 -11,-26 0,-9 0,-16 1,-23 1,-6 2,-13 4,-21l48 -225 85 0 10 -45zm-246 0l-74 0 -184 161 70 -335 -58 0 -116 560 56 0 43 -209 129 209 68 0 -140 -213 206 -173zm-403 37c-5,-10 -13,-19 -22,-26 -10,-6 -20,-11 -32,-15 -13,-3 -25,-4 -39,-4 -30,0 -60,7 -88,23 -28,15 -53,35 -75,61 -22,26 -40,55 -53,89 -13,34 -20,69 -20,105 0,21 4,39 10,54 7,16 16,29 28,39 12,11 26,19 42,24 17,5 35,8 54,8 21,0 42,-2 64,-6 22,-4 42,-11 60,-21l-4 -47c-15,9 -32,17 -51,22 -19,5 -38,8 -55,8 -28,0 -50,-8 -66,-22 -15,-15 -23,-36 -23,-64 0,-9 1,-18 2,-28 1,-10 3,-18 6,-26 16,0 35,-1 55,-1 20,-1 40,-3 60,-6 20,-3 39,-8 58,-14 19,-6 35,-14 50,-24 14,-10 26,-22 35,-37 8,-15 13,-34 13,-55 0,-14 -3,-27 -9,-37zm-66 91c-14,12 -31,21 -52,27 -20,6 -43,10 -67,12 -24,2 -47,3 -68,3 6,-15 14,-31 23,-47 10,-15 21,-30 34,-43 13,-13 27,-24 43,-33 15,-8 32,-13 49,-13 15,0 29,4 40,9 12,6 18,18 18,36 0,21 -7,37 -20,49zm-282 -302l-57 0 -119 560 57 0 119 -560zm-179 42l-263 0 -110 518 271 0 10 -49 -211 0 42 -192 191 0 11 -48 -193 0 39 -180 202 0 11 -49zm-716 150c-18,-17 -44,-26 -75,-26 -32,0 -58,6 -79,20 -20,13 -40,32 -59,57l11 -69 -52 0c-1,15 -3,30 -6,45 -3,15 -6,30 -9,45l-62 296 57 0 46 -216c4,-16 9,-32 15,-49 7,-15 16,-30 26,-42 10,-13 23,-23 38,-30 14,-8 31,-11 51,-11 24,0 42,6 52,19 11,13 16,29 16,47 0,8 -1,15 -2,23 -2,8 -4,17 -5,25l-49 234 57 0 52 -248c3,-16 5,-32 5,-47 0,-31 -9,-55 -28,-73zm-335 -172l-58 0 -15 67 60 0 13 -67zm-31 154l-58 0 -81 386 57 0 82 -386zm-179 37c-6,-10 -13,-19 -22,-26 -10,-6 -20,-11 -33,-15 -12,-3 -25,-4 -38,-4 -31,0 -60,7 -88,23 -28,15 -54,35 -75,61 -22,26 -40,55 -53,89 -13,34 -20,69 -20,105 0,21 3,39 10,54 7,16 16,29 28,39 12,11 26,19 42,24 17,5 35,8 54,8 21,0 42,-2 64,-6 22,-4 42,-11 60,-21l-4 -47c-15,9 -32,17 -51,22 -20,5 -38,8 -56,8 -28,0 -49,-8 -65,-22 -15,-15 -23,-36 -23,-64 0,-9 1,-18 2,-28 1,-10 3,-18 6,-26 16,0 35,-1 54,-1 20,-1 40,-3 61,-6 20,-3 39,-8 58,-14 18,-6 35,-14 49,-24 15,-10 27,-22 35,-37 9,-15 14,-34 14,-55 0,-14 -3,-27 -9,-37zm-67 91c-13,12 -30,21 -51,27 -21,6 -43,10 -67,12 -24,2 -47,3 -68,3 6,-15 13,-31 23,-47 10,-15 21,-30 34,-43 13,-13 27,-24 42,-33 16,-8 32,-13 50,-13 15,0 28,4 40,9 12,6 18,18 18,36 0,21 -7,37 -21,49zm-247 -133c-5,-2 -11,-3 -16,-3 -4,0 -10,0 -16,0 -11,0 -23,2 -35,7 -12,5 -23,12 -34,19 -11,8 -20,17 -29,27 -8,9 -15,20 -20,30l14 -75 -53 0c-2,15 -4,30 -7,45 -3,15 -5,30 -9,45l-63 296 57 0 41 -190c3,-16 8,-33 14,-50 6,-17 15,-33 25,-48 10,-15 22,-27 36,-37 15,-9 31,-14 50,-14 11,0 21,2 30,5l15 -57zm-308 42c-6,-10 -13,-19 -22,-26 -10,-6 -20,-11 -33,-15 -12,-3 -25,-4 -38,-4 -31,0 -60,7 -88,23 -28,15 -53,35 -75,61 -22,26 -40,55 -53,89 -13,34 -20,69 -20,105 0,21 3,39 10,54 7,16 16,29 28,39 12,11 26,19 42,24 17,5 35,8 54,8 21,0 42,-2 64,-6 22,-4 42,-11 60,-21l-4 -47c-15,9 -32,17 -51,22 -20,5 -38,8 -56,8 -27,0 -49,-8 -65,-22 -15,-15 -23,-36 -23,-64 0,-9 1,-18 2,-28 1,-10 3,-18 6,-26 16,0 34,-1 54,-1 20,-1 40,-3 61,-6 20,-3 39,-8 58,-14 18,-6 35,-14 50,-24 14,-10 26,-22 35,-37 8,-15 13,-34 13,-55 0,-14 -3,-27 -9,-37zm-67 91c-13,12 -30,21 -51,27 -21,6 -43,10 -67,12 -24,2 -47,3 -68,3 6,-15 13,-31 23,-47 9,-15 21,-30 34,-43 13,-13 27,-24 42,-33 16,-8 32,-13 50,-13 15,0 29,4 40,9 12,6 17,18 17,36 0,21 -6,37 -20,49zm-265 -128l-62 0 -172 337 -32 -337 -61 0 47 386 73 0 207 -386zm-348 -5c-6,-2 -11,-3 -16,-3 -5,0 -10,0 -16,0 -12,0 -24,2 -36,7 -11,5 -23,12 -33,19 -11,8 -21,17 -29,27 -9,9 -15,20 -21,30l14 -75 -53 0c-1,15 -3,30 -6,45 -3,15 -6,30 -9,45l-63 296 57 0 40 -190c3,-16 8,-33 14,-50 7,-17 15,-33 25,-48 10,-15 23,-27 37,-37 14,-9 31,-14 50,-14 10,0 20,2 29,5l16 -57zm-308 42c-6,-10 -14,-19 -23,-26 -9,-6 -20,-11 -32,-15 -12,-3 -25,-4 -38,-4 -31,0 -60,7 -89,23 -28,15 -53,35 -75,61 -22,26 -39,55 -53,89 -13,34 -20,69 -20,105 0,21 4,39 11,54 6,16 16,29 27,39 12,11 27,19 43,24 16,5 34,8 54,8 21,0 42,-2 63,-6 22,-4 42,-11 60,-21l-4 -47c-15,9 -32,17 -51,22 -19,5 -37,8 -55,8 -28,0 -50,-8 -65,-22 -16,-15 -24,-36 -24,-64 0,-9 1,-18 2,-28 2,-10 4,-18 6,-26 17,0 35,-1 55,-1 20,-1 40,-3 60,-6 20,-3 40,-8 58,-14 19,-6 36,-14 50,-24 15,-10 26,-22 35,-37 9,-15 13,-34 13,-55 0,-14 -3,-27 -8,-37zm-67 91c-14,12 -31,21 -51,27 -21,6 -43,10 -67,12 -25,2 -47,3 -68,3 5,-15 13,-31 22,-47 10,-15 21,-30 34,-43 13,-13 27,-24 43,-33 15,-8 32,-13 50,-13 15,0 28,4 40,9 11,6 17,18 17,36 0,21 -7,37 -20,49zm-279 -302l-56 0 -50 238c-2,-11 -6,-21 -12,-31 -7,-9 -15,-16 -24,-22 -10,-7 -20,-11 -32,-15 -11,-3 -23,-4 -35,-4 -29,0 -55,7 -80,22 -25,14 -46,33 -64,58 -18,24 -32,52 -42,85 -11,32 -16,65 -16,101 0,19 3,36 8,53 5,17 12,31 22,44 10,12 22,22 37,29 15,7 32,11 51,11 27,0 52,-6 75,-18 23,-11 43,-29 60,-54l-9 63 52 0c3,-20 7,-40 10,-60 3,-20 7,-41 12,-62l93 -438zm-136 378c-6,24 -15,47 -27,69 -12,21 -28,39 -46,54 -18,14 -39,21 -63,21 -15,0 -27,-2 -37,-7 -10,-5 -19,-12 -25,-20 -6,-9 -10,-19 -13,-31 -3,-11 -5,-24 -5,-37 0,-21 3,-45 9,-70 6,-25 14,-48 26,-70 12,-21 27,-39 46,-54 18,-14 40,-21 66,-21 15,0 27,2 37,8 10,5 18,13 25,22 6,9 10,20 13,32 2,12 4,24 4,37 0,20 -4,43 -10,67zm-264 -209c-6,-2 -11,-3 -16,-3 -5,0 -11,0 -16,0 -12,0 -24,2 -36,7 -12,5 -23,12 -34,19 -10,8 -20,17 -29,27 -8,9 -15,20 -20,30l14 -75 -53 0c-1,15 -4,30 -7,45 -2,15 -5,30 -8,45l-63 296 56 0 41 -190c3,-16 8,-33 14,-50 7,-17 15,-33 25,-48 10,-15 22,-27 36,-37 15,-9 31,-14 50,-14 11,0 21,2 30,5l16 -57zm-353 -149l-50 0 -14 67 50 0 14 -67zm-118 0l-50 0 -14 67 50 0 14 -67zm142 228c-7,-16 -17,-31 -30,-43 -13,-12 -27,-22 -44,-29 -18,-7 -36,-10 -56,-10 -28,0 -56,5 -83,16 -27,10 -51,26 -72,48 -22,22 -39,50 -52,83 -14,33 -20,73 -20,118 0,20 4,38 11,55 7,17 17,31 30,44 12,12 27,21 44,28 17,7 36,11 56,11 37,0 69,-8 98,-23 28,-16 52,-36 71,-61 19,-26 33,-54 43,-85 10,-32 15,-64 15,-96 0,-20 -4,-39 -11,-56zm-57 133c-6,23 -16,45 -29,66 -14,21 -30,39 -50,54 -19,14 -43,21 -69,21 -33,0 -56,-9 -71,-29 -15,-19 -23,-46 -23,-79 0,-21 3,-44 10,-68 7,-24 17,-46 30,-66 13,-20 29,-36 48,-49 19,-13 41,-19 65,-19 33,0 57,9 74,29 16,19 25,45 25,79 0,17 -4,38 -10,61zm-302 -339l-256 0 -110 518 61 0 51 -240 186 0 12 -49 -188 0 38 -180 195 0 11 -49z"/>
 </g>
</svg>
