<?xml version="1.0" encoding="UTF-8"?>
<!DOCTYPE svg PUBLIC "-//W3C//DTD SVG 1.1//EN" "http://www.w3.org/Graphics/SVG/1.1/DTD/svg11.dtd">
<!-- Creator: CorelDRAW X6 -->
<svg xmlns="http://www.w3.org/2000/svg" xml:space="preserve" width="2.89016cm" height="1.08162cm" version="1.1" style="shape-rendering:geometricPrecision; text-rendering:geometricPrecision; image-rendering:optimizeQuality; fill-rule:evenodd; clip-rule:evenodd"
viewBox="0 0 2923 1094"
 xmlns:xlink="http://www.w3.org/1999/xlink">
 <defs>
  <style type="text/css">
   <![CDATA[
    .fil0 {fill:#627CD2;fill-rule:nonzero}
   ]]>
  </style>
 </defs>
 <g id="Ebene_x0020_1">
  <metadata id="CorelCorpID_0Corel-Layer"/>
  <path class="fil0" d="M605 869l838 0c-1,18 -17,66 -25,77l-813 0 0 -77z"/>
  <path class="fil0" d="M605 145l815 0c7,12 23,60 25,76l-840 0 0 -76z"/>
  <path class="fil0" d="M756 580l582 0c19,13 54,56 68,76l-650 0 0 -76z"/>
  <path class="fil0" d="M1210 801l242 0c1,-20 -7,-61 -13,-77l-229 0 0 77z"/>
  <path class="fil0" d="M756 511l582 0c19,-13 54,-57 68,-76l-650 0 0 76z"/>
  <path class="fil0" d="M1210 290l241 0c0,17 -7,61 -13,76l-228 0 0 -76z"/>
  <path class="fil0" d="M605 1014l758 0c-67,57 -127,77 -231,77l-527 0 0 -77z"/>
  <path class="fil0" d="M605 76l758 0c-64,-54 -120,-74 -214,-76l-544 0 0 76z"/>
  <polygon class="fil0" points="0,76 529,76 529,0 0,0 "/>
  <polygon class="fil0" points="0,221 529,221 529,145 0,145 "/>
  <polygon class="fil0" points="0,946 529,946 529,869 0,869 "/>
  <polygon class="fil0" points="151,801 378,801 378,724 151,724 "/>
  <polygon class="fil0" points="151,656 378,656 378,580 151,580 "/>
  <polygon class="fil0" points="151,511 378,511 378,435 151,435 "/>
  <polygon class="fil0" points="151,366 378,366 378,290 151,290 "/>
  <polygon class="fil0" points="756,801 983,801 983,724 756,724 "/>
  <polygon class="fil0" points="756,366 983,366 983,290 756,290 "/>
  <polygon class="fil0" points="2012,801 2221,801 2248,724 1985,724 "/>
  <polygon class="fil0" points="1961,656 2272,656 2299,580 1935,580 "/>
  <polygon class="fil0" points="0,1091 529,1091 529,1014 0,1014 "/>
  <polygon class="fil0" points="2113,1091 2121,1091 2147,1014 2086,1014 "/>
  <polygon class="fil0" points="1663,801 1890,801 1890,724 1663,724 "/>
  <polygon class="fil0" points="1663,656 1890,656 1890,580 1663,580 "/>
  <polygon class="fil0" points="1512,1091 1890,1091 1890,1014 1512,1014 "/>
  <polygon class="fil0" points="1512,946 1890,946 1890,869 1512,869 "/>
  <polygon class="fil0" points="2062,946 2171,946 2198,869 2036,869 "/>
  <polygon class="fil0" points="2343,801 2570,801 2570,724 2343,724 "/>
  <polygon class="fil0" points="2343,656 2570,656 2570,580 2343,580 "/>
  <polygon class="fil0" points="2343,1091 2721,1091 2721,1014 2343,1014 "/>
  <polygon class="fil0" points="2343,946 2721,946 2721,869 2343,869 "/>
  <polygon class="fil0" points="2041,290 1663,290 1663,366 2068,366 "/>
  <polygon class="fil0" points="2141,435 2117,503 2093,435 1663,435 1663,511 1890,511 1890,451 1911,511 2322,511 2343,451 2343,451 2343,451 2343,511 2570,511 2570,435 "/>
  <polygon class="fil0" points="1512,0 1512,76 1966,76 1939,0 "/>
  <polygon class="fil0" points="1990,145 1512,145 1512,221 2017,221 "/>
  <polygon class="fil0" points="2192,290 2570,290 2570,366 2165,366 "/>
  <polygon class="fil0" points="2721,0 2721,76 2268,76 2295,0 "/>
  <polygon class="fil0" points="2243,145 2721,145 2721,221 2216,221 "/>
  <path class="fil0" d="M2804 1034c0,-33 27,-60 60,-60 33,0 59,27 59,60 0,33 -26,60 -59,60 -33,0 -60,-27 -60,-60zm110 0c0,-29 -21,-52 -50,-52 -29,0 -51,23 -51,52 0,29 22,52 51,52 29,0 50,-23 50,-52zm-21 33l-9 0 -19 -30 -15 0 0 30 -9 0 0 -66 30 0c17,0 23,6 23,17 0,13 -9,18 -21,19l20 30zm-31 -37c10,0 23,2 23,-12 0,-10 -8,-12 -16,-12l-19 0 0 24 12 0z"/>
 </g>
</svg>
